<svg width="72" height="59" viewBox="0 0 72 59" fill="none" xmlns="http://www.w3.org/2000/svg">
<path d="M20 29.6102H36M36 29.6102H52M36 29.6102V16.8052M36 29.6102V42.4152" stroke="#A2D2FF" stroke-width="7.09107" stroke-linecap="round" stroke-linejoin="round"/>
<path d="M16 4H13.6037C8.29974 4 4 8.29974 4 13.6037V13.6037" stroke="#A2D2FF" stroke-width="7.09107" stroke-linecap="round" stroke-linejoin="round"/>
<path d="M4 26.4087V32.8112" stroke="#A2D2FF" stroke-width="7.09107" stroke-linecap="round" stroke-linejoin="round"/>
<path d="M32 4H40" stroke="#A2D2FF" stroke-width="7.09107" stroke-linecap="round" stroke-linejoin="round"/>
<path d="M32 55.2202H40" stroke="#A2D2FF" stroke-width="7.09107" stroke-linecap="round" stroke-linejoin="round"/>
<path d="M68 26.4087V32.8112" stroke="#A2D2FF" stroke-width="7.09107" stroke-linecap="round" stroke-linejoin="round"/>
<path d="M56 4H58.3963C63.7003 4 68 8.29974 68 13.6037V13.6037" stroke="#A2D2FF" stroke-width="7.09107" stroke-linecap="round" stroke-linejoin="round"/>
<path d="M16 55.22H13.6037C8.29974 55.22 4 50.9202 4 45.6162V45.6162" stroke="#A2D2FF" stroke-width="7.09107" stroke-linecap="round" stroke-linejoin="round"/>
<path d="M56 55.22H58.3963C63.7003 55.22 68 50.9202 68 45.6162V45.6162" stroke="#A2D2FF" stroke-width="7.09107" stroke-linecap="round" stroke-linejoin="round"/>
</svg>
