<svg width="180" height="180" viewBox="0 0 180 180" fill="none" xmlns="http://www.w3.org/2000/svg">
<path fill-rule="evenodd" clip-rule="evenodd" d="M53.2927 133.632C53.5461 133.016 53.3339 132.665 52.7116 132.643C50.3787 132.673 49.3255 130.612 47.666 129.358C45.5288 127.25 49.9558 125.428 47.1371 122.204C46.116 120.689 45.6777 118.804 44.1668 117.632C42.9887 116.648 42.3372 115.501 43.0401 113.856C43.3363 113.164 43.2286 112.295 43.2875 111.505C43.2123 108.289 48.573 107.921 49.1325 110.902C49.466 111.718 49.75 112.347 50.7768 112.287C51.853 112.406 52.3171 113.679 53.5212 112.925C54.5006 112.53 54.7584 112.654 55.2622 113.533C55.8047 114.48 56.8281 115.148 56.9156 116.359C56.9515 116.538 57.2543 116.835 57.4005 116.842C59.0215 116.606 59.3049 118.704 60.7531 118.75C62.2253 118.516 62.2014 120.24 63.3233 120.538C66.5877 120.276 64.4923 122.925 67.6403 121.35C70.3523 121.022 70.3018 127.377 73.5128 126.108C75.3622 125.75 75.9772 128.518 77.281 129.492C77.4276 129.669 77.6478 129.901 77.8406 129.907C79.2743 129.952 79.8948 131.157 80.8835 131.853C82.0699 132.576 83.0857 133.471 84.0042 134.506C87.0844 138.309 80.4564 141.571 78.4441 144.384C77.4872 145.456 76.2411 145.519 74.9276 145.123C73.1337 145.82 71.5387 144.944 69.8505 144.591C68.0456 144.214 66.7306 143.426 66.1926 141.624C65.95 140.812 65.5016 140.631 64.7626 140.9C62.4383 141.905 60.0756 140.12 59.822 137.747C59.875 136.277 58.2561 136.416 57.2797 136.809C55.4135 137.172 52.7835 135.725 53.2927 133.632Z" fill="#A2D2FF"/>
<path fill-rule="evenodd" clip-rule="evenodd" d="M11.9501 170.654C8.38929 170.385 4.02948 170.444 2.5265 166.512C-2.16034 159.44 0.130407 147.073 9.60204 145.649C29.3936 143.326 34.1477 170.876 11.962 170.468C11.9579 170.53 11.9541 170.592 11.9501 170.654Z" fill="#BDE0FE"/>
<path fill-rule="evenodd" clip-rule="evenodd" d="M39.1939 117.25C39.272 120.859 38.7248 123.825 40.0502 127.02C42.5416 132.498 44.6364 138.384 49.357 142.375C53.0668 144.228 56.8703 146.266 60.8639 147.473C65.6866 148.372 64.3836 153.232 61.1353 152.8C47.631 149.122 30.9124 142.592 29.0046 126.746C27.9229 121.804 28.0707 116.595 30.9525 112.276C31.3189 111.582 33.6147 109.658 33.5896 111.495C32.7899 114.716 31.1881 117.851 31.6199 121.243C32.2935 127.131 34.2238 132.537 38.1372 137.103C38.74 137.897 41.3521 139.853 40.5879 137.455C38.4789 132.519 34.4118 128.33 34.5973 122.671C34.744 118.328 34.7632 113.843 36.6493 109.842C40.7466 106.287 39.058 115.581 39.1939 117.25Z" fill="#CDB4DB"/>
<path fill-rule="evenodd" clip-rule="evenodd" d="M47.595 98.062C47.3741 99.5534 48.4553 102.224 46.1903 102.402C43.6449 102.786 43.2786 102.486 43.1748 99.9311C43.1429 96.9731 42.144 94.3181 39.3792 92.7671C33.1899 88.9643 29.3299 90.4629 25.0983 95.9105C21.9959 99.696 19.0125 96.2533 20.8683 92.6392C22.54 89.3766 24.2766 85.6697 28.1497 84.659C36.0251 81.8594 49.1548 87.7059 47.6793 98.0589C47.6514 98.0599 47.6231 98.061 47.595 98.062Z" fill="#FFAFCC"/>
<path fill-rule="evenodd" clip-rule="evenodd" d="M21.5912 99.1108C19.8548 100.132 5.35134 104.484 13.8707 104.632C23.9983 104.824 22.0675 107.887 21.5912 99.1108ZM24.6476 101.683C23.7651 104.065 29.477 107.908 31.266 106.7C31.9288 105.63 30.3791 105.26 30.2693 104.267C29.9159 100.524 29.1955 96.2995 31.0187 92.8283C31.1516 92.5553 30.8298 92.2299 30.5344 92.2877C26.5596 93.4418 24.8603 97.4871 24.6476 101.683ZM36.2299 97.0879C37.0544 103.191 31.4466 111.256 41.4703 105.076C47.7625 100.082 34.9581 86.5511 36.2299 97.0879ZM45.3387 111.019C45.8226 122.269 51.7323 132.679 61.8029 137.966C66.4723 140.734 73.0421 146.844 78.4649 142.916C80.7479 140.697 83.0028 138.42 84.3535 135.491C85.722 132.931 81.6846 131.708 80.2587 130.2C72.9736 124.938 65.3936 120.177 57.6106 115.699C53.9493 113.465 50.1503 111.446 46.6827 108.899C45.0104 107.547 45.3275 109.961 45.3387 111.019ZM26.8983 116.592C26.9456 116.591 26.9927 116.591 27.0397 116.59C25.5187 136.917 47.6618 155.801 67.4504 149.1C70.1639 147.903 75.7738 146.533 69.3698 145.42C65.9408 143.928 62.5558 142.364 59.3703 140.396C47.405 134.572 41.0221 123.269 41.9331 110.012C42.03 109.331 42.0004 108.305 41.0025 108.63C28.1912 114.317 26.2216 102.628 26.8983 116.592ZM46.3316 98.401C46.762 100.237 45.1598 104.035 46.3202 104.827C51.2955 108.125 56.8349 110.456 61.8065 113.786C68.959 117.501 75.5938 122.006 82.1528 126.682C83.9566 127.882 85.0628 130.031 87.4143 130.048C88.6116 130.209 89.1033 130.73 89.2637 131.804C90.3496 134.581 87.9552 136.579 86.6568 138.799C83.4624 144.126 79.4125 148.807 73.7026 151.459C70.1611 153.412 66.2799 154.279 62.3203 154.854C61.49 155.08 59.6649 154.598 59.9453 156.019C60.8915 158.058 61.3801 170.349 62.9044 169.738C65.2199 168.656 79.7772 173.292 72.997 175.757C70.4249 176.256 62.5276 170.723 64.3237 175.857C64.6409 177.023 64.9463 180.761 62.9538 179.538C61.4651 178.052 61.7023 175.501 60.3347 174.114C57.7611 175.255 57.0225 180.962 53.4741 179.859C51.9366 178.63 54.0269 176.988 54.6843 175.835C55.8615 173.722 58.8086 172.075 58.0525 169.383C57.2701 164.858 55.9447 160.327 56.4053 155.69C56.3981 153.496 52.4517 154.362 50.9798 153.398C45.6274 152.03 40.8774 149.184 36.2829 146.346C35.787 146.545 35.9531 147.002 35.9938 147.346C36.3321 150.19 36.3156 153.057 36.6843 155.908C37.5959 157.995 35.4382 166.479 37.9153 166.34C39.5581 165.864 49.4124 172.169 45.4379 173.272C43.3123 173.909 39.0863 168.198 38.2344 170.374C37.7737 172.361 39.1812 175.698 37.1601 176.844C34.4101 176.14 36.1559 171.745 34.745 169.969C32.1854 170.693 29.7785 175.254 26.907 173.836C25.7977 173.376 25.6288 171.949 26.4955 171.109C28.5217 168.641 33.4831 168.053 34.0314 164.729C34.0573 157.96 32.83 151.238 33.2801 144.458C33.258 141.217 30.3407 138.917 28.6333 136.384C22.9882 130.041 23.2414 121.174 23.7772 113.217C23.3444 111.81 25.946 107.815 24.1874 107.624C18.4287 108.774 12.2959 106.939 6.38764 107.064C5.61616 106.981 4.6478 107.078 4.25278 106.276C3.09873 100.924 17.5484 98.0352 21.4769 96.263C23.8683 94.7654 24.3389 91.3535 27.6008 90.1971C31.3548 88.8675 25.555 86.1639 24.6168 81.7831C25.6681 76.9546 29.8922 86.0488 30.5869 87.5207C30.6985 88.3389 35.8288 88.8386 35.4836 87.3706C35.8604 83.8958 35.6937 79.7779 37.598 76.8023C41.0224 75.5268 38.4247 85.5868 38.7379 87.4986C38.5756 89.7703 38.1371 89.2926 40.3722 90.2342C41.161 90.5663 41.2718 90.5524 41.7248 89.8369C43.0969 87.8218 45.1372 86.0887 47.3953 85.362C47.6783 87.8142 45.0931 89.8542 43.2334 91.2164C41.9034 91.5348 46.1317 97.1712 46.3883 98.4666L46.3316 98.401Z" fill="black"/>
<path fill-rule="evenodd" clip-rule="evenodd" d="M46.2688 98.3739C46.4297 96.3109 46.426 96.2949 48.4318 95.8839C50.0327 95.6418 51.7385 94.9168 53.2691 95.7681C54.7927 98.0574 47.6411 99.3013 46.2115 98.3093L46.2688 98.3739Z" fill="black"/>
</svg>
