<svg width="250" height="293" viewBox="0 0 250 293" fill="none" xmlns="http://www.w3.org/2000/svg">
<path fill-rule="evenodd" clip-rule="evenodd" d="M126.876 136.351C164.006 131.861 154.444 139.459 153.868 168.726C154.73 175.777 151.974 183.645 155.059 190.17C155.723 190.933 155.566 192.152 154.81 193.058C151.129 196.934 147.107 205.057 140.889 203.38C139.13 202.745 140.169 199.939 138.18 199.723C135.176 199.874 131.475 201.268 129.605 197.94C127.649 194.734 122.37 194.392 123.215 189.685C124.435 182.824 116.439 181.513 115.229 175.961C114.215 172.624 110.007 171.338 111.228 167.339C111.333 166.165 111.189 165.365 110.238 164.649C107.015 162.9 109.514 159.319 107.654 157.18C102.26 153.106 107.769 148.518 109.905 144.789C107.269 143.017 95.22 146.027 98.9657 139.814C107.297 136.118 118.556 135.742 126.876 136.351Z" fill="#BDE0FE"/>
<path fill-rule="evenodd" clip-rule="evenodd" d="M171.582 119.123C172.891 117.749 171.433 117.535 170.669 118.826C170.924 118.909 171.179 118.993 171.582 119.123ZM210.454 130.667C197.435 130.095 183.894 125.348 171.05 128.153C143.885 135.731 155.251 122.594 167.521 111.026C175.347 103.368 185.543 97.1864 196.903 97.1393C207.522 97.519 219.298 95.0832 228.467 101.718C234.922 105.999 234.554 113.579 233.257 120.215C229.251 129.011 218.397 130.185 210.454 130.667Z" fill="#FFC8DD"/>
<path fill-rule="evenodd" clip-rule="evenodd" d="M0.760306 106.48C0.682535 95.2348 9.18081 79.7414 22.0126 78.93C34.1612 78.1137 57.7408 83.1781 59.9059 96.7737C59.5508 102.636 34.5417 103.217 28.5845 105.709C23.1842 105.82 27.5643 117.088 26.8777 120.872C27.0116 124.083 33.2429 122.859 32.4939 127.129C31.262 132.266 24.122 130.257 20.2272 130.186C8.90965 127.378 -0.626268 119.777 0.760306 106.48Z" fill="#FFC8DD"/>
<path fill-rule="evenodd" clip-rule="evenodd" d="M152.598 241.417C170.044 241.726 187.641 240.076 205.002 241.83C208.095 241.611 206.637 245.787 209.286 246.062C219.068 245.556 221.959 254.402 214.416 253.614C208.052 251.662 211.241 256.972 205.372 256.701C186.404 257.075 167.436 259.079 148.468 258.957C134.095 257.72 120.029 253.69 106.181 249.856C103.021 249.25 102.722 245.859 99.7053 245.128C99.2956 244.93 98.9275 244.1 99.0097 243.64C104.207 239.851 112.796 242.856 119.133 241.965C130.163 241.995 141.911 240.823 152.598 241.417Z" fill="#A2D2FF"/>
<path fill-rule="evenodd" clip-rule="evenodd" d="M80.4967 238.821C86.5178 238.085 84.0787 242.828 85.5864 246.643C90.9946 253.414 74.8311 267.572 69.2594 259.574C62.5016 254.47 52.3219 258.61 44.5344 259.654C38.7487 260.113 35.7702 250.344 40.5247 247.245C43.0847 246.065 37.2044 242.12 40.9068 241.298C54.0638 240.114 67.3501 240.418 80.4967 238.821Z" fill="#A2D2FF"/>
<path fill-rule="evenodd" clip-rule="evenodd" d="M171.763 119.446C171.345 119.32 171.079 119.239 170.814 119.158C171.611 117.904 173.124 118.116 171.763 119.446Z" fill="#FFC8DD"/>
<path fill-rule="evenodd" clip-rule="evenodd" d="M62.2883 100.561C55.2071 100.272 43.2484 99.6528 35.0145 99.6736C31.118 99.2263 36.7302 109.947 35.6239 112.611C36.1536 153.922 39.5681 195.122 40.8034 236.359C41.1021 240.087 40.5516 256.154 45.5117 255.125C56.9917 253.887 68.3672 255.582 79.7795 256.43C83.8656 255.787 79.2846 232.556 80.4769 227.612C86.0385 213.625 95.2153 236.675 98.9235 241.418C102.762 245.67 108.832 248.168 114.123 250.588C130.552 258.586 144.571 257.736 162.233 256.125C176.409 255.573 190.456 253.688 204.553 252.317C205.893 252.186 206.34 251.531 206.122 250.185C203.218 235.606 203.616 213.789 186.13 208.729C173.021 204.996 159.433 207.837 146.119 206.083C140.547 206.121 138.221 213.514 133.99 216.455C131.234 219.904 122.918 221.665 126.864 214.893C133.838 200.636 135.794 205.134 122.85 195.364C114.877 184.7 114.919 192.599 107.021 198.251C96.1844 205.499 92.2344 197.71 100.959 189.355C103.919 185.391 113.076 181.379 110.561 175.798C105.484 156.653 105.228 168.791 91.2803 172.693C87.9546 173.46 87.7899 168.459 89.8587 166.899C93.327 162 105.649 159.755 103.817 153.035C86.4741 94.2824 119.296 101.813 62.2883 100.561ZM151.105 187.737C153.637 191.132 151.189 193.94 150.105 197.263C167.591 199.554 188.563 195.129 202.495 209.063C210.045 216.453 213.734 227.22 215.459 237.437C215.38 245.217 222.992 257.054 215.12 262.501C213.866 263.205 212.526 263.374 211.132 261.893C206.024 259.105 198.714 262.222 192.99 262.172C180.703 263.8 168.36 264.019 155.992 263.913C142.12 264.116 128.067 265.495 115.058 259.671C91.6677 255.491 87.9616 236.183 89.4857 255.743C89.6064 258.376 91.0073 262.947 86.8428 262.807C73.4891 263.655 59.932 260.097 46.7342 262.257C27.8466 268.742 32.652 230.715 30.2999 219.782C26.7967 179.699 21.9519 138.194 27.3621 98.3799C26.8411 96.4209 27.1522 95.8509 28.8849 95.6333C48.4927 93.099 68.319 93.8187 88.0388 93.4548C94.9333 93.0389 102.396 92.8079 107.365 98.2773C110.651 102.716 108.942 109.467 109.763 114.744C109.889 125.181 112.17 135.346 114.305 145.516C114.756 151.122 119.246 145.415 121.865 148.227C124.338 150.498 120.084 152.769 118.808 154.515C115.434 158.393 119.841 164.343 120.089 168.898C122.284 172.193 126.645 163.203 130.719 165.656C139.357 170.729 122.583 177.276 125.333 183.046C128.223 188.027 131.837 192.327 137.214 194.886C142.53 195.924 141.71 186.951 151.105 187.737Z" fill="black"/>
<path fill-rule="evenodd" clip-rule="evenodd" d="M244.732 229.006C239.892 228.821 237.574 228.916 236.37 223.892C235.905 222.432 237.135 220.235 238.62 220.315C244.904 218.234 256.366 229.738 244.732 229.006Z" fill="black"/>
<path fill-rule="evenodd" clip-rule="evenodd" d="M101.035 39.077C106.653 38.4302 105.67 44.3304 104.276 47.704C98.6042 53.8464 90.6947 38.052 101.035 39.077Z" fill="black"/>
<path fill-rule="evenodd" clip-rule="evenodd" d="M35.801 67.4548C34.1528 67.1478 32.4482 66.9162 32.8043 64.9611C28.2467 55.6956 38.6684 56.821 42.3198 62.4215C43.6686 65.732 37.7743 66.026 35.801 67.4548Z" fill="black"/>
<path fill-rule="evenodd" clip-rule="evenodd" d="M9.11908 173.743C13.5627 173.303 10.923 182.854 7.70325 181.382C6.25385 180.477 4.09919 178.929 4.92233 176.966C5.56824 175.029 6.50312 173.334 9.11908 173.743Z" fill="black"/>
<path fill-rule="evenodd" clip-rule="evenodd" d="M131.854 114.459C132.072 118.642 127.529 116.323 125.785 114.782C122.652 109.435 132.775 108.759 131.854 114.459Z" fill="black"/>
<path fill-rule="evenodd" clip-rule="evenodd" d="M7.35871 244.84C5.93699 247.369 2.72257 247.092 1.33257 244.703C-0.62287 238.514 6.65473 238.005 7.35871 244.84Z" fill="black"/>
<path fill-rule="evenodd" clip-rule="evenodd" d="M150.387 141.597C152.493 141.476 155.189 144.239 152.442 145.446C150.174 145.846 147.913 150.794 146.482 146.516C146.267 145.831 145.94 144.663 146.263 144.046C148.247 144.327 148.118 140.951 150.387 141.597Z" fill="black"/>
<path fill-rule="evenodd" clip-rule="evenodd" d="M38.4034 4.77508C37.7005 10.0157 28.4596 4.06308 32.1745 1.26894C35.0154 -0.8234 38.4509 1.7043 38.4034 4.77508Z" fill="black"/>
<path fill-rule="evenodd" clip-rule="evenodd" d="M135.654 289.157C135.163 290.357 133.274 290.961 132.31 291.81C131.648 292.374 131.215 293.375 130.142 292.855C128.993 292.295 128.275 290.648 128.645 289.465C129.992 287.094 135.597 284.666 135.654 289.157Z" fill="black"/>
<path fill-rule="evenodd" clip-rule="evenodd" d="M175.351 168.8C171.424 169.073 170.719 164.07 174.096 162.557C177.289 161.518 180.182 169.257 175.351 168.8Z" fill="black"/>
<path fill-rule="evenodd" clip-rule="evenodd" d="M41.3962 281.623C41.1932 288.654 30.6592 280.333 36.3464 278.413C37.9178 279.401 40.9964 279.649 41.3962 281.623Z" fill="black"/>
</svg>
