<svg width="347" height="330" viewBox="0 0 347 330" fill="none" xmlns="http://www.w3.org/2000/svg">
<path fill-rule="evenodd" clip-rule="evenodd" d="M200.129 139.479C205.204 138.33 214.518 138.101 215.167 131.589C209.903 129.247 202.685 130.511 197.249 132.516C193.282 134.949 195.992 139.861 200.129 139.479ZM197.662 76.459C201.568 69.3078 211.441 66.966 219.093 67.9803C226.349 68.4141 235.556 62.9391 240.436 71.2555C248.666 83.9387 247.696 100.208 250.891 114.592C252.212 135.602 254.814 156.47 256.022 177.504C258.007 216.503 265.805 254.824 269.331 293.662C269.021 296.567 274.002 298.048 271.75 300.888C269.329 302.693 271.48 306.945 267.406 306.406C250.634 307.509 233.824 307.761 217.103 309.543C213.644 309.05 206.147 311.711 204.392 308.481C203.649 304.98 200.078 308.953 198.512 305.674C191.518 290.53 191.731 272.466 190.412 255.991C189.072 243.921 187.435 231.9 187.117 219.738C186.133 182.19 178.475 143.738 186.733 106.646C189.416 101.248 188.916 79.6421 197.056 85.3811C202.215 86.4242 215.218 97.6564 218.137 90.7476C221.413 81.8518 203.543 79.0399 197.662 76.459Z" fill="#FFAFCC"/>
<path fill-rule="evenodd" clip-rule="evenodd" d="M116.737 80.1219C114.562 117.045 90.9164 99.2701 78.8804 110.614C75.5512 112.706 74.5152 107.781 76.094 105.537C68.6321 104.226 60.6517 102.032 57.3384 94.4377C46.9934 77.2467 61.1809 43.6363 83.8556 54.5221C89.046 57.7966 94.6668 55.0248 100.316 56.3356C112.003 57.7902 116.599 69.8796 116.737 80.1219Z" fill="#CDB4DB"/>
<path fill-rule="evenodd" clip-rule="evenodd" d="M34.789 170.491C28.8205 169.54 2.68937 173.461 3.81209 164.961C22.35 158.381 43.8467 163.201 63.2319 159.109C67.6643 157.735 78.3293 159.093 74.3426 165.58C62.5146 171.901 47.6242 170.405 34.789 170.491Z" fill="#CDB4DB"/>
<path fill-rule="evenodd" clip-rule="evenodd" d="M61.7203 189.668C56.4296 189.675 34.2616 188.056 46.8788 180.994C59.4544 178.351 72.7111 180.407 85.2087 177.486C87.7155 176.782 89.5724 178.465 88.9295 180.969C84.706 190.596 70.2444 188.027 61.7203 189.668Z" fill="#CDB4DB"/>
<path fill-rule="evenodd" clip-rule="evenodd" d="M197.592 76.4605C203.438 78.9381 221.39 81.9252 218.069 90.6225C216.812 93.0698 215.681 93.744 213.169 92.6771C205.362 88.8892 196.766 86.1897 189.76 81.0414C188.578 80.1005 188.746 79.523 189.679 78.2336C191.627 75.2035 194.588 75.8819 197.592 76.4605Z" fill="#BDE0FE"/>
<path fill-rule="evenodd" clip-rule="evenodd" d="M163.865 221.525C163.792 227.469 158.356 252.055 151.896 236.679C152.112 230.725 153.571 224.677 155.398 219.003C160.177 211.355 163.749 213.812 163.865 221.525Z" fill="#BDE0FE"/>
<path fill-rule="evenodd" clip-rule="evenodd" d="M328.396 176.577C325.063 175.75 319.488 177.541 320.292 172.802C322.001 164.169 334.277 165.969 340.745 166.992C355.993 174.493 333.9 175.776 328.396 176.577Z" fill="#BDE0FE"/>
<path fill-rule="evenodd" clip-rule="evenodd" d="M131.027 175.104C151.186 175.14 133.605 186.015 124.047 185.898C120.296 186.156 118.012 184.76 116.364 181.382C116.217 174.72 125.947 175.037 131.027 175.104Z" fill="#BDE0FE"/>
<path fill-rule="evenodd" clip-rule="evenodd" d="M268.427 84.8069C270.11 79.5991 295.106 77.4798 295.153 84.8193C291.742 88.9245 265.66 94.4791 268.427 84.8069Z" fill="#BDE0FE"/>
<path fill-rule="evenodd" clip-rule="evenodd" d="M125.522 219.217C110.782 217.467 130.328 208.066 134.516 205.111C139.784 201.786 145.455 205.736 139.863 210.637C135.739 214.199 130.853 218 125.522 219.217Z" fill="#BDE0FE"/>
<path fill-rule="evenodd" clip-rule="evenodd" d="M9.21954 129.448C3.82871 128.984 -4.0802 126.076 3.60809 120.987C7.66413 119.12 25.0741 118.397 22.1497 125.544C18.3474 127.824 13.75 129.04 9.21954 129.448Z" fill="#CDB4DB"/>
<path fill-rule="evenodd" clip-rule="evenodd" d="M172.493 82.4902C176.886 82.5062 184.721 81.8005 185.934 87.1171C185.805 88.2772 185.004 89.2292 183.925 88.9262C177.009 87.5172 170.489 90.9986 163.549 89.9868C160.95 89.9864 161.625 87.2491 161.938 85.4821C162.596 81.7138 170.149 82.2524 172.493 82.4902Z" fill="#CDB4DB"/>
<path fill-rule="evenodd" clip-rule="evenodd" d="M24.1017 94.6974C45.2594 95.5933 30.5129 104.305 18.9748 103.599C6.12815 100.908 17.5042 94.1196 24.1017 94.6974Z" fill="#CDB4DB"/>
<path fill-rule="evenodd" clip-rule="evenodd" d="M269.684 143.662C254.996 142.323 268.791 125.992 281.688 139.86C280.302 143.755 273.391 142.475 269.684 143.662Z" fill="#BDE0FE"/>
<path fill-rule="evenodd" clip-rule="evenodd" d="M300.389 210.532C302.621 203.072 311.751 217.173 315.001 218.924C317.443 221.344 315.511 225.246 312.155 224.792C306.167 222.69 301.836 216.578 300.389 210.532Z" fill="#BDE0FE"/>
<path fill-rule="evenodd" clip-rule="evenodd" d="M167.395 119.075C170.9 119.537 179.851 119.763 177.232 124.86C174.836 129.633 159.919 128.83 161.343 122.8C162.633 119.941 164.553 118.581 167.395 119.075Z" fill="#CDB4DB"/>
<path fill-rule="evenodd" clip-rule="evenodd" d="M107.142 170.592C104.726 170.346 99.2727 168.657 100.441 165.888C106.045 159.389 122.992 167.834 107.142 170.592Z" fill="#CDB4DB"/>
<path fill-rule="evenodd" clip-rule="evenodd" d="M277.199 90.2853C281.535 89.6457 286.005 88.7023 290.29 87.5559C290.136 87.9085 289.84 88.2649 289.851 88.6117C290.267 92.4177 283.593 97.0269 281.532 93.2642C280.854 90.7864 278.96 90.7853 277.199 90.2853Z" fill="#CDB4DB"/>
<path fill-rule="evenodd" clip-rule="evenodd" d="M206.88 321.947C207.82 320.277 210.41 320.654 212.081 320.208C213.796 320.939 213.59 323.704 211.563 323.994C208.849 324.951 207.108 325.452 206.88 321.947Z" fill="#FFAFCC"/>
<path fill-rule="evenodd" clip-rule="evenodd" d="M268.618 88.304C270.107 88.9254 271.596 89.5472 273.085 90.1682C271.642 90.1828 268.296 90.2979 268.618 88.304Z" fill="#CDB4DB"/>
<path fill-rule="evenodd" clip-rule="evenodd" d="M268.59 84.9377C268.468 85.4383 268.347 85.9394 268.228 86.4338C268.35 85.9307 268.47 85.434 268.59 84.9377Z" fill="#CDB4DB"/>
<path fill-rule="evenodd" clip-rule="evenodd" d="M292.161 87.1819C292.535 87.0569 292.91 86.9322 293.283 86.8078C292.907 86.9328 292.534 87.0572 292.161 87.1819Z" fill="#CDB4DB"/>
<path fill-rule="evenodd" clip-rule="evenodd" d="M200.095 139.526C195.971 139.914 193.254 134.911 197.22 132.431C202.645 130.386 209.857 129.1 215.109 131.484C214.46 138.125 205.166 138.351 200.095 139.526Z" fill="#BDE0FE"/>
<path fill-rule="evenodd" clip-rule="evenodd" d="M276.748 94.1523C278.418 105.597 271.839 152.861 281.941 154.802C287.324 156.612 297.553 159.944 299.409 152.227C302.098 140.569 302.653 127.293 316.038 123.091C334.585 116.9 329.422 155.823 332.881 166.495C333.915 178.645 335.415 192.673 326.595 202.452C317.011 212.585 300.929 209.14 288.489 212.952C283.785 215.025 287.493 222.089 287.187 226.126C289.206 235.177 286.628 243.972 286.262 253.047C285.299 276.296 287.949 299.492 286.953 322.723C287.708 327.251 282.059 333.953 279.685 326.789C279.273 318.281 279.186 309.746 278.952 301.227C277.687 284.677 276.417 267.381 277.36 250.514C276.575 246.873 277.424 243.284 278.02 239.762C279.527 231.99 276.975 224.344 277.621 216.608C279.851 201.056 302.313 205.441 313.757 201.603C329.107 198.358 326.112 178.45 325.002 166.65C322.555 154.603 323.394 142.139 320.775 130.177C320.439 128.871 319.577 128.426 318.442 128.925C303.833 133.341 311.135 151.8 302.096 160.65C293.329 167.255 277.266 163.231 270.759 154.642C263.42 143.782 268.297 129.327 266.842 117.333C265.18 101.347 272.497 52.7028 261.463 44.5504C252.804 37.3534 244.055 25.6934 231.636 31.9272C224.397 34.9281 218.028 40.903 216.004 48.5797C212.47 60.9702 208.529 73.4414 209.361 86.5101C211.448 106.487 213.198 126.22 212.619 146.346C211.523 151.979 215.795 166.857 209.172 168.644C203.242 178.428 191.921 181.534 180.934 180.444C168.881 182.048 163.641 169.024 160.924 159.547C158.837 152.454 154.849 146.172 151.779 139.477C148.963 134.392 142.478 136.826 140.621 140.967C137.216 149.919 139.507 160.29 139.223 169.735C142.272 179.358 135.003 209.989 149.536 209.509C168.191 210.649 187.262 210.129 205.47 214.525C216.525 216.721 211.265 235.426 214.953 243.876C219.141 266.338 217.472 289.192 218.023 311.913C217.551 316.531 221.893 326.901 214.35 326.575C208.989 323.602 211.021 315.04 209.829 309.793C209.829 284.532 208.616 259.435 203.943 234.562C202.736 230.929 205.613 223.835 202.38 221.687C185.303 216.678 167.256 218.277 149.659 216.887C133.277 217.53 132.376 198.239 132.179 186.085C132.672 167.838 122.554 133.051 148.801 129.628C159.248 130.113 167.152 157.589 171.133 166.256C174.782 175.846 187.989 172.264 195.757 170.477C206.146 167.464 204.563 150.747 204.173 141.912C204.68 119.414 199.535 97.2582 201.208 74.7736C204.511 52.9156 212.73 23.4222 239.746 23.5474C251.591 24.343 259.653 35.3398 268.296 42.3551C281.289 55.5098 274.826 77.5486 276.748 94.1523Z" fill="black"/>
<path fill-rule="evenodd" clip-rule="evenodd" d="M90.446 99.48C119.462 99.4288 121.943 76.0282 104.125 57.8371C98.3911 50.0676 87.395 50.7562 78.6781 50.3586C77.3177 50.6507 76.7437 52.0837 75.2483 51.7326C66.965 52.8494 62.7746 61.7801 59.8454 68.689C55.1946 85.4529 75.0723 100.004 90.446 99.48ZM53.3704 65.4037C46.2187 75.5898 54.5718 52.315 56.7627 50.5306C61.3462 45.9622 66.5991 41.801 73.552 41.5576C83.134 41.4787 93.2486 41.8791 101.969 46.1682C114.347 55.3416 125.115 71.6752 121.71 87.6278C118.298 100.62 103.262 105.289 91.1394 105.487C69.2475 106.271 49.9171 86.3383 53.3704 65.4037Z" fill="black"/>
<path fill-rule="evenodd" clip-rule="evenodd" d="M169.102 47.5781C162.41 56.2948 149.683 58.3164 142.371 66.2357C134.108 57.5868 167.211 32.9721 169.102 47.5781Z" fill="black"/>
<path fill-rule="evenodd" clip-rule="evenodd" d="M42.4089 120.779C45.1334 113.862 48.2857 103.707 56.1277 101.395C66.2461 103.183 54.8426 117.02 52.7842 122.157C51.3262 124.353 46.6812 131.004 44.6131 126.315C44.0424 124.095 41.7925 123.566 42.4089 120.779Z" fill="black"/>
<path fill-rule="evenodd" clip-rule="evenodd" d="M78.6021 127.785C78.4218 124.954 79.6832 121.907 80.3668 118.763C81.4418 115.808 86.786 116.115 87.5599 119.427C92.3198 131.758 80.5399 153.793 78.6021 127.785Z" fill="black"/>
<path fill-rule="evenodd" clip-rule="evenodd" d="M156.759 108.836C154.96 115.054 143.177 106.878 140.194 104.363C137.578 100.864 134.774 95.5297 141.417 95.4107C147.417 97.8217 154.409 102.687 156.759 108.836Z" fill="black"/>
<path fill-rule="evenodd" clip-rule="evenodd" d="M67.3757 14.2862C67.1572 9.51244 69.9013 10.7517 73.2994 9.75592C75.9517 11.4575 78.2323 28.3018 76.4636 30.4208C70.7039 32.8779 67.4953 18.5465 67.3757 14.2862Z" fill="black"/>
<path fill-rule="evenodd" clip-rule="evenodd" d="M121.924 11.9152C122.512 8.15888 121.612 1.26012 126.48 0.28414C128.322 0.103954 131.048 1.00312 131.334 3.22412C133.392 10.9781 119.869 30.8302 122.017 11.9226C121.986 11.9201 121.955 11.9177 121.924 11.9152Z" fill="black"/>
<path fill-rule="evenodd" clip-rule="evenodd" d="M23.3648 72.2002C21.0208 72.0474 8.72062 69.4832 14.1035 65.5077C24.4553 62.6369 50.2318 71.8739 23.3648 72.2002Z" fill="black"/>
<path fill-rule="evenodd" clip-rule="evenodd" d="M111.211 123.183C111.771 121.302 114.573 121.097 115.188 119.156C115.208 119.058 115.664 118.918 115.791 119C118.874 120.08 120.86 128.807 117.898 130.557C115.291 130.847 110.423 126.462 111.211 123.183Z" fill="black"/>
</svg>
