<svg width="431" height="401" viewBox="0 0 431 401" fill="none" xmlns="http://www.w3.org/2000/svg">
<path fill-rule="evenodd" clip-rule="evenodd" d="M126.876 244.351C164.006 239.861 154.444 247.459 153.868 276.726C154.73 283.777 151.974 291.645 155.059 298.17C155.723 298.933 155.566 300.152 154.81 301.058C151.129 304.934 147.107 313.057 140.889 311.38C139.13 310.745 140.169 307.939 138.18 307.723C135.176 307.874 131.475 309.268 129.605 305.94C127.649 302.734 122.37 302.392 123.215 297.685C124.435 290.824 116.439 289.513 115.229 283.961C114.215 280.624 110.007 279.338 111.227 275.339C111.333 274.165 111.189 273.365 110.238 272.649C107.015 270.9 109.514 267.319 107.654 265.18C102.26 261.106 107.769 256.518 109.905 252.789C107.269 251.017 95.22 254.027 98.9656 247.814C107.297 244.118 118.556 243.742 126.876 244.351" fill="#BDE0FE"/>
<path fill-rule="evenodd" clip-rule="evenodd" d="M171.582 227.123C172.891 225.749 171.433 225.535 170.669 226.826C170.924 226.909 171.179 226.993 171.582 227.123M210.454 238.667C197.435 238.095 183.894 233.348 171.05 236.153C143.885 243.731 155.251 230.594 167.521 219.026C175.347 211.368 185.543 205.186 196.903 205.139C207.522 205.519 219.298 203.083 228.467 209.718C234.922 213.999 234.554 221.579 233.257 228.215C229.251 237.011 218.397 238.185 210.454 238.667" fill="#FFC8DD"/>
<path fill-rule="evenodd" clip-rule="evenodd" d="M0.760306 214.48C0.682535 203.235 9.18081 187.741 22.0126 186.93C34.1612 186.114 57.7408 191.178 59.906 204.773C59.5508 210.636 34.5417 211.217 28.5845 213.709C23.1842 213.82 27.5643 225.088 26.8777 228.872C27.0116 232.082 33.2429 230.859 32.4939 235.129C31.262 240.266 24.122 238.257 20.2272 238.186C8.90965 235.378 -0.626268 227.777 0.760306 214.48" fill="#FFC8DD"/>
<path fill-rule="evenodd" clip-rule="evenodd" d="M152.598 349.417C170.044 349.726 187.641 348.076 205.002 349.83C208.095 349.611 206.637 353.787 209.286 354.063C219.068 353.556 221.959 362.402 214.416 361.614C208.052 359.662 211.241 364.972 205.372 364.701C186.404 365.075 167.436 367.079 148.468 366.957C134.095 365.72 120.029 361.69 106.181 357.857C103.021 357.25 102.722 353.859 99.7053 353.128C99.2956 352.93 98.9275 352.1 99.0098 351.64C104.208 347.851 112.796 350.856 119.133 349.965C130.163 349.995 141.911 348.823 152.598 349.417" fill="#A2D2FF"/>
<path fill-rule="evenodd" clip-rule="evenodd" d="M80.4968 346.821C86.5179 346.085 84.0787 350.829 85.5865 354.643C90.9946 361.414 74.8312 375.572 69.2594 367.574C62.5017 362.47 52.3219 366.61 44.5344 367.654C38.7488 368.113 35.7702 358.344 40.5248 355.245C43.0848 354.065 37.2045 350.12 40.9068 349.298C54.0639 348.114 67.3501 348.418 80.4968 346.821" fill="#A2D2FF"/>
<path fill-rule="evenodd" clip-rule="evenodd" d="M171.763 227.446C171.345 227.319 171.079 227.239 170.813 227.158C171.61 225.904 173.124 226.115 171.763 227.446" fill="#FFC8DD"/>
<path fill-rule="evenodd" clip-rule="evenodd" d="M62.2882 208.561C55.2071 208.272 43.2484 207.653 35.0144 207.674C31.1179 207.226 36.7302 217.948 35.6238 220.612C36.1536 261.922 39.568 303.122 40.8034 344.36C41.1021 348.088 40.5516 364.154 45.5117 363.125C56.9917 361.887 68.3671 363.582 79.7795 364.43C83.8656 363.787 79.2846 340.556 80.4768 335.613C86.0384 321.626 95.2153 344.675 98.9235 349.418C102.761 353.671 108.832 356.168 114.123 358.588C130.552 366.586 144.571 365.736 162.233 364.125C176.409 363.573 190.456 361.688 204.553 360.317C205.893 360.186 206.34 359.531 206.122 358.186C203.218 343.606 203.616 321.789 186.13 316.729C173.021 312.996 159.433 315.837 146.119 314.084C140.547 314.122 138.221 321.514 133.99 324.456C131.234 327.905 122.918 329.666 126.863 322.894C133.838 308.636 135.794 313.134 122.85 303.364C114.877 292.7 114.919 300.599 107.021 306.252C96.1843 313.499 92.2343 305.71 100.959 297.355C103.919 293.391 113.076 289.379 110.561 283.798C105.484 264.653 105.228 276.791 91.2802 280.693C87.9545 281.46 87.7899 276.46 89.8586 274.899C93.327 270 105.649 267.755 103.817 261.036C86.474 202.283 119.296 209.813 62.2882 208.561M151.105 295.737C153.637 299.132 151.189 301.94 150.105 305.263C167.591 307.554 188.563 303.129 202.495 317.064C210.045 324.453 213.734 335.22 215.459 345.437C215.38 353.217 222.992 365.054 215.12 370.501C213.866 371.205 212.526 371.374 211.132 369.893C206.024 367.105 198.714 370.223 192.99 370.172C180.703 371.8 168.36 372.019 155.992 371.913C142.12 372.116 128.066 373.495 115.058 367.671C91.6677 363.491 87.9616 344.183 89.4857 363.743C89.6064 366.377 91.0073 370.948 86.8428 370.807C73.489 371.655 59.932 368.098 46.7342 370.257C27.8466 376.742 32.652 338.716 30.2999 327.783C26.7967 287.699 21.9519 246.194 27.3621 206.38C26.841 204.421 27.1522 203.851 28.8849 203.634C48.4927 201.099 68.319 201.819 88.0388 201.455C94.9332 201.039 102.396 200.808 107.365 206.277C110.651 210.716 108.942 217.467 109.763 222.744C109.889 233.181 112.17 243.346 114.305 253.516C114.756 259.122 119.246 253.416 121.865 256.227C124.338 258.498 120.084 260.769 118.808 262.515C115.434 266.393 119.841 272.344 120.088 276.898C122.284 280.194 126.645 271.203 130.718 273.657C139.357 278.729 122.583 285.276 125.333 291.046C128.223 296.028 131.837 300.327 137.213 302.886C142.53 303.925 141.71 294.951 151.105 295.737" fill="black"/>
<path fill-rule="evenodd" clip-rule="evenodd" d="M244.732 337.006C239.891 336.821 237.574 336.916 236.37 331.892C235.905 330.432 237.135 328.235 238.62 328.315C244.904 326.234 256.366 337.738 244.732 337.006" fill="black"/>
<path fill-rule="evenodd" clip-rule="evenodd" d="M101.035 147.077C106.653 146.43 105.67 152.33 104.276 155.704C98.6041 161.846 90.6947 146.052 101.035 147.077" fill="black"/>
<path fill-rule="evenodd" clip-rule="evenodd" d="M35.801 175.455C34.1527 175.148 32.4481 174.916 32.8043 172.961C28.2466 163.696 38.6683 164.821 42.3197 170.422C43.6686 173.732 37.7743 174.026 35.801 175.455" fill="black"/>
<path fill-rule="evenodd" clip-rule="evenodd" d="M9.119 281.743C13.5626 281.303 10.9229 290.854 7.70317 289.382C6.25377 288.476 4.09911 286.929 4.92225 284.966C5.56816 283.029 6.50304 281.334 9.119 281.743" fill="black"/>
<path fill-rule="evenodd" clip-rule="evenodd" d="M131.854 222.459C132.072 226.642 127.529 224.323 125.785 222.782C122.652 217.435 132.775 216.759 131.854 222.459" fill="black"/>
<path fill-rule="evenodd" clip-rule="evenodd" d="M7.35865 352.84C5.93693 355.37 2.72252 355.092 1.33251 352.703C-0.622924 346.514 6.65468 346.006 7.35865 352.84" fill="black"/>
<path fill-rule="evenodd" clip-rule="evenodd" d="M150.387 249.597C152.493 249.476 155.189 252.239 152.442 253.446C150.174 253.846 147.913 258.795 146.482 254.516C146.267 253.831 145.94 252.663 146.263 252.046C148.247 252.327 148.118 248.951 150.387 249.597" fill="black"/>
<path fill-rule="evenodd" clip-rule="evenodd" d="M38.4034 112.775C37.7005 118.016 28.4595 112.063 32.1744 109.269C35.0153 107.177 38.4509 109.704 38.4034 112.775" fill="black"/>
<path fill-rule="evenodd" clip-rule="evenodd" d="M135.654 397.157C135.163 398.357 133.274 398.961 132.31 399.81C131.648 400.374 131.214 401.375 130.142 400.855C128.993 400.295 128.275 398.648 128.645 397.465C129.992 395.094 135.597 392.666 135.654 397.157" fill="black"/>
<path fill-rule="evenodd" clip-rule="evenodd" d="M175.351 276.8C171.424 277.073 170.719 272.07 174.096 270.557C177.289 269.518 180.182 277.256 175.351 276.8" fill="black"/>
<path fill-rule="evenodd" clip-rule="evenodd" d="M41.3961 389.623C41.1932 396.654 30.6592 388.333 36.3464 386.413C37.9177 387.401 40.9964 387.649 41.3961 389.623" fill="black"/>
<path fill-rule="evenodd" clip-rule="evenodd" d="M284.129 139.479C289.204 138.33 298.518 138.101 299.167 131.589C293.903 129.246 286.685 130.511 281.249 132.516C277.282 134.949 279.992 139.861 284.129 139.479M281.662 76.4586C285.568 69.3074 295.441 66.9656 303.093 67.9799C310.349 68.4137 319.556 62.9387 324.436 71.2551C332.666 83.9383 331.696 100.207 334.891 114.591C336.212 135.602 338.814 156.469 340.022 177.504C342.007 216.503 349.805 254.824 353.331 293.661C353.021 296.566 358.002 298.048 355.75 300.888C353.329 302.693 355.48 306.944 351.406 306.406C334.634 307.509 317.824 307.761 301.103 309.543C297.644 309.05 290.147 311.711 288.392 308.481C287.649 304.98 284.078 308.953 282.512 305.673C275.518 290.53 275.731 272.465 274.412 255.99C273.072 243.92 271.435 231.9 271.117 219.738C270.133 182.19 262.475 143.738 270.733 106.645C273.416 101.247 272.916 79.6417 281.056 85.3807C286.215 86.4238 299.218 97.656 302.137 90.7472C305.413 81.8514 287.543 79.0395 281.662 76.4586" fill="#FFAFCC"/>
<path fill-rule="evenodd" clip-rule="evenodd" d="M200.737 80.1216C198.562 117.044 174.916 99.2698 162.881 110.614C159.551 112.705 158.515 107.781 160.094 105.537C152.632 104.225 144.652 102.032 141.338 94.4374C130.993 77.2464 145.181 43.636 167.856 54.5218C173.046 57.7963 178.667 55.0245 184.316 56.3353C196.003 57.7899 200.599 69.8793 200.737 80.1216" fill="#CDB4DB"/>
<path fill-rule="evenodd" clip-rule="evenodd" d="M118.789 170.491C112.821 169.54 86.6894 173.461 87.8121 164.961C106.35 158.381 127.847 163.201 147.232 159.108C151.664 157.734 162.329 159.092 158.343 165.58C146.515 171.901 131.624 170.405 118.789 170.491" fill="#CDB4DB"/>
<path fill-rule="evenodd" clip-rule="evenodd" d="M145.72 189.668C140.43 189.674 118.262 188.056 130.879 180.994C143.454 178.35 156.711 180.407 169.209 177.486C171.715 176.782 173.572 178.464 172.93 180.968C168.706 190.596 154.244 188.026 145.72 189.668" fill="#CDB4DB"/>
<path fill-rule="evenodd" clip-rule="evenodd" d="M281.592 76.4602C287.438 78.9378 305.39 81.9249 302.069 90.6222C300.812 93.0695 299.681 93.7437 297.169 92.6768C289.362 88.8889 280.766 86.1894 273.76 81.0411C272.577 80.1003 272.746 79.5227 273.679 78.2333C275.627 75.2032 278.588 75.8816 281.592 76.4602" fill="#BDE0FE"/>
<path fill-rule="evenodd" clip-rule="evenodd" d="M247.865 221.525C247.792 227.468 242.356 252.054 235.896 236.679C236.112 230.724 237.571 224.677 239.398 219.003C244.177 211.355 247.749 213.812 247.865 221.525" fill="#BDE0FE"/>
<path fill-rule="evenodd" clip-rule="evenodd" d="M412.396 176.577C409.063 175.749 403.488 177.541 404.292 172.802C406.001 164.168 418.277 165.968 424.745 166.991C439.993 174.492 417.9 175.776 412.396 176.577" fill="#BDE0FE"/>
<path fill-rule="evenodd" clip-rule="evenodd" d="M215.027 175.104C235.186 175.14 217.605 186.014 208.047 185.898C204.296 186.155 202.012 184.759 200.364 181.381C200.217 174.72 209.947 175.036 215.027 175.104" fill="#BDE0FE"/>
<path fill-rule="evenodd" clip-rule="evenodd" d="M352.427 84.8065C354.11 79.5986 379.106 77.4794 379.153 84.8189C375.742 88.9241 349.66 94.4787 352.427 84.8065" fill="#BDE0FE"/>
<path fill-rule="evenodd" clip-rule="evenodd" d="M209.522 219.217C194.782 217.467 214.328 208.066 218.516 205.111C223.784 201.786 229.455 205.736 223.863 210.637C219.739 214.198 214.853 217.999 209.522 219.217" fill="#BDE0FE"/>
<path fill-rule="evenodd" clip-rule="evenodd" d="M93.2195 129.448C87.8287 128.984 79.9198 126.076 87.6081 120.987C91.6641 119.12 109.074 118.397 106.15 125.544C102.347 127.824 97.75 129.04 93.2195 129.448" fill="#CDB4DB"/>
<path fill-rule="evenodd" clip-rule="evenodd" d="M256.493 82.4897C260.886 82.5057 268.721 81.8 269.934 87.1166C269.805 88.2767 269.004 89.2286 267.925 88.9257C261.009 87.5166 254.489 90.998 247.549 89.9862C244.95 89.9859 245.625 87.2485 245.938 85.4816C246.596 81.7133 254.149 82.2519 256.493 82.4897" fill="#CDB4DB"/>
<path fill-rule="evenodd" clip-rule="evenodd" d="M108.102 94.6968C129.259 95.5928 114.513 104.304 102.975 103.598C90.1281 100.907 101.504 94.119 108.102 94.6968" fill="#CDB4DB"/>
<path fill-rule="evenodd" clip-rule="evenodd" d="M353.684 143.662C338.996 142.323 352.79 125.991 365.688 139.86C364.302 143.755 357.391 142.475 353.684 143.662" fill="#BDE0FE"/>
<path fill-rule="evenodd" clip-rule="evenodd" d="M384.39 210.532C386.621 203.072 395.751 217.173 399.001 218.924C401.443 221.343 399.511 225.246 396.155 224.791C390.167 222.689 385.836 216.578 384.39 210.532" fill="#BDE0FE"/>
<path fill-rule="evenodd" clip-rule="evenodd" d="M251.395 119.074C254.9 119.536 263.851 119.763 261.232 124.859C258.836 129.632 243.919 128.83 245.343 122.8C246.633 119.941 248.553 118.58 251.395 119.074" fill="#CDB4DB"/>
<path fill-rule="evenodd" clip-rule="evenodd" d="M191.142 170.592C188.726 170.345 183.273 168.656 184.441 165.887C190.045 159.389 206.992 167.834 191.142 170.592" fill="#CDB4DB"/>
<path fill-rule="evenodd" clip-rule="evenodd" d="M361.199 90.2851C365.535 89.6455 370.005 88.702 374.29 87.5557C374.136 87.9082 373.84 88.2647 373.851 88.6115C374.267 92.4175 367.593 97.0266 365.532 93.2639C364.854 90.7861 362.96 90.7851 361.199 90.2851" fill="#CDB4DB"/>
<path fill-rule="evenodd" clip-rule="evenodd" d="M290.88 321.947C291.82 320.276 294.41 320.653 296.081 320.208C297.796 320.939 297.59 323.704 295.563 323.994C292.849 324.95 291.108 325.451 290.88 321.947" fill="#FFAFCC"/>
<path fill-rule="evenodd" clip-rule="evenodd" d="M352.618 88.3037C354.107 88.9251 355.596 89.5469 357.085 90.1679C355.642 90.1825 352.296 90.2976 352.618 88.3037" fill="#CDB4DB"/>
<path fill-rule="evenodd" clip-rule="evenodd" d="M352.59 84.9375C352.468 85.4382 352.347 85.9393 352.228 86.4337C352.35 85.9306 352.47 85.4338 352.59 84.9375" fill="#CDB4DB"/>
<path fill-rule="evenodd" clip-rule="evenodd" d="M376.161 87.1817C376.535 87.0567 376.91 86.932 377.283 86.8076C376.907 86.9326 376.534 87.057 376.161 87.1817" fill="#CDB4DB"/>
<path fill-rule="evenodd" clip-rule="evenodd" d="M284.095 139.525C279.971 139.913 277.254 134.91 281.22 132.431C286.645 130.386 293.857 129.099 299.109 131.484C298.46 138.124 289.166 138.35 284.095 139.525" fill="#BDE0FE"/>
<path fill-rule="evenodd" clip-rule="evenodd" d="M360.747 94.1521C362.418 105.597 355.839 152.861 365.941 154.802C371.323 156.612 381.553 159.944 383.408 152.227C386.098 140.569 386.653 127.293 400.038 123.091C418.585 116.9 413.422 155.823 416.881 166.495C417.915 178.645 419.415 192.673 410.595 202.452C401.011 212.584 384.929 209.139 372.489 212.952C367.785 215.025 371.493 222.089 371.187 226.126C373.206 235.176 370.628 243.972 370.262 253.047C369.299 276.295 371.949 299.492 370.953 322.723C371.708 327.251 366.058 333.953 363.685 326.789C363.273 318.281 363.186 309.746 362.952 301.227C361.687 284.677 360.417 267.381 361.36 250.514C360.575 246.873 361.423 243.284 362.02 239.761C363.527 231.99 360.975 224.344 361.621 216.608C363.851 201.056 386.312 205.441 397.757 201.603C413.107 198.358 410.111 178.45 409.002 166.65C406.555 154.603 407.394 142.139 404.775 130.176C404.439 128.871 403.577 128.426 402.442 128.924C387.833 133.34 395.135 151.8 386.096 160.65C377.329 167.255 361.266 163.231 354.759 154.642C347.42 143.782 352.297 129.327 350.842 117.333C349.18 101.347 356.497 52.7027 345.463 44.5503C336.804 37.3532 328.055 25.6932 315.636 31.927C308.397 34.928 302.028 40.9028 300.004 48.5795C296.47 60.97 292.528 73.4413 293.361 86.51C295.448 106.487 297.198 126.22 296.619 146.346C295.523 151.979 299.795 166.857 293.172 168.644C287.242 178.428 275.921 181.534 264.934 180.444C252.881 182.047 247.641 169.024 244.924 159.547C242.837 152.454 238.849 146.172 235.779 139.476C232.963 134.392 226.478 136.826 224.621 140.967C221.216 149.918 223.507 160.289 223.223 169.735C226.272 179.358 219.003 209.989 233.536 209.508C252.191 210.649 271.261 210.129 289.47 214.525C300.525 216.721 295.265 235.426 298.953 243.876C303.141 266.338 301.472 289.192 302.023 311.913C301.55 316.531 305.893 326.901 298.35 326.574C292.988 323.602 295.021 315.04 293.829 309.792C293.829 284.532 292.616 259.435 287.943 234.562C286.736 230.928 289.613 223.835 286.38 221.686C269.303 216.678 251.256 218.276 233.659 216.887C217.277 217.53 216.376 198.238 216.178 186.084C216.672 167.838 206.554 133.05 232.8 129.627C243.247 130.112 251.152 157.589 255.133 166.256C258.782 175.846 271.989 172.264 279.756 170.476C290.146 167.464 288.563 150.747 288.173 141.912C288.68 119.414 283.535 97.258 285.208 74.7734C288.511 52.9154 296.73 23.422 323.746 23.5473C335.591 24.3429 343.653 35.3397 352.296 42.3549C365.288 55.5097 358.825 77.5484 360.747 94.1521" fill="black"/>
<path fill-rule="evenodd" clip-rule="evenodd" d="M174.446 99.4801C203.462 99.4289 205.943 76.0284 188.125 57.8372C182.391 50.0677 171.395 50.7563 162.678 50.3587C161.318 50.6508 160.744 52.0838 159.248 51.7327C150.965 52.8495 146.775 61.7802 143.845 68.6892C139.195 85.453 159.072 100.005 174.446 99.4801M137.37 65.4038C130.219 75.5899 138.572 52.3151 140.763 50.5307C145.346 45.9623 150.599 41.8011 157.552 41.5577C167.134 41.4788 177.249 41.8793 185.969 46.1684C198.347 55.3418 209.115 71.6753 205.71 87.6279C202.298 100.62 187.262 105.289 175.139 105.488C153.247 106.271 133.917 86.3384 137.37 65.4038" fill="black"/>
<path fill-rule="evenodd" clip-rule="evenodd" d="M253.102 47.5782C246.41 56.2949 233.683 58.3164 226.371 66.2358C218.108 57.5869 251.211 32.9722 253.102 47.5782" fill="black"/>
<path fill-rule="evenodd" clip-rule="evenodd" d="M126.409 120.779C129.133 113.862 132.286 103.707 140.128 101.396C150.246 103.183 138.843 117.02 136.784 122.157C135.326 124.353 130.681 131.004 128.613 126.315C128.042 124.095 125.792 123.567 126.409 120.779" fill="black"/>
<path fill-rule="evenodd" clip-rule="evenodd" d="M162.602 127.785C162.422 124.954 163.683 121.907 164.367 118.763C165.442 115.808 170.786 116.115 171.56 119.427C176.32 131.758 164.54 153.793 162.602 127.785" fill="black"/>
<path fill-rule="evenodd" clip-rule="evenodd" d="M240.759 108.836C238.96 115.054 227.177 106.878 224.194 104.363C221.578 100.864 218.774 95.5296 225.416 95.4106C231.417 97.8216 238.409 102.687 240.759 108.836" fill="black"/>
<path fill-rule="evenodd" clip-rule="evenodd" d="M151.376 14.2861C151.157 9.51237 153.901 10.7517 157.299 9.75586C159.952 11.4574 162.232 28.3017 160.464 30.4207C154.704 32.8778 151.495 18.5464 151.376 14.2861" fill="black"/>
<path fill-rule="evenodd" clip-rule="evenodd" d="M205.924 11.9152C206.512 8.15888 205.612 1.26012 210.48 0.28414C212.322 0.103954 215.048 1.00312 215.334 3.22412C217.392 10.9781 203.868 30.8302 206.017 11.9226C205.986 11.9201 205.955 11.9177 205.924 11.9152" fill="black"/>
<path fill-rule="evenodd" clip-rule="evenodd" d="M107.365 72.1999C105.021 72.0471 92.7205 69.483 98.1034 65.5075C108.455 62.6367 134.232 71.8736 107.365 72.1999" fill="black"/>
<path fill-rule="evenodd" clip-rule="evenodd" d="M195.211 123.183C195.771 121.302 198.573 121.097 199.188 119.156C199.208 119.058 199.664 118.918 199.79 118.999C202.874 120.08 204.86 128.806 201.898 130.557C199.291 130.846 194.423 126.462 195.211 123.183" fill="black"/>
</svg>
