<svg width="317" height="289" viewBox="0 0 317 289" fill="none" xmlns="http://www.w3.org/2000/svg">
<path fill-rule="evenodd" clip-rule="evenodd" d="M110.376 25.0974C109.444 25.3205 109.801 25.9562 110.054 26.5774C111.039 27.3599 111.289 25.3812 110.376 25.0974ZM246.959 43.6517C244.408 44.306 236.126 47.2253 243.708 49.0873C248.465 50.9827 247.47 50.9253 252.269 48.0594C254.337 45.9648 248.411 44.4375 246.959 43.6517ZM269.356 60.641C275.232 57.0108 264.186 54.553 261.847 52.2978C260.296 50.8334 257.065 50.5055 256.078 52.6369C259.249 56.2489 265.082 58.1506 269.356 60.641ZM251.011 41.4368C254.863 44.061 258.064 46.4973 262.456 44.097C268.41 42.2033 274.447 42.7965 280.472 43.5743C285.344 44.2176 283.673 37.1959 279.032 36.766C269.177 33.666 259.791 35.713 251.011 41.4368ZM212.856 84.9908C214.861 94.5901 219.417 79.05 221.044 76.5207C226.1 67.8641 233.082 60.9823 241.248 55.1993C242.902 53.3365 232.403 50.6756 231.858 53.0076C224.095 62.7753 214.28 71.8404 212.856 84.9908ZM229.469 45.2248C230.975 44.7294 236.982 41.4633 234.86 39.9193C230.171 37.8382 225.511 35.6865 220.768 33.738C210.658 30.0972 200.541 24.9487 190.316 22.1621C189.017 22.793 190.439 24.59 189.929 25.7443C190.305 28.5161 186.465 37.7571 190.178 37.9454C203.729 38.596 216.236 42.6646 229.469 45.2248ZM150.123 26.2932C150.13 26.2935 150.137 26.2939 150.145 26.2939C152.159 13.6789 146.756 18.5802 137.76 18.6503C132.074 19.8875 117.666 19.7661 114.81 24.5133C116.129 27.9306 116.605 39.0412 121.429 38.2496C130.204 36.2109 139.154 35.7286 148.11 35.182C151.421 34.3649 149.375 28.913 150.123 26.2932ZM58.1579 17.995C84.7956 34.8985 68.4806 37.1959 96.7553 25.7403C110.488 19.9744 111.333 25.2431 107.308 8.85283C105.777 6.06218 101.149 8.63112 98.4974 8.32545C84.6008 10.2871 71.3217 12.5929 58.1579 17.995ZM92.6257 51.8245C89.9997 46.4885 82.412 47.5847 80.4984 41.4968C77.8288 32.5709 62.9745 48.9859 58.0001 50.8923C56.6808 51.7664 56.4038 52.6972 56.5997 54.1896C57.8831 65.6561 53.37 76.8478 54.009 88.4106C53.684 95.1368 59.5805 113.544 68.385 106.833C74.6172 100.163 75.1606 90.6898 77.4715 82.2768C80.4072 71.2217 85.0515 60.48 92.6257 51.8245ZM218.885 93.1316C237.319 115.901 289.389 129.579 296.508 89.8659C300.019 76.1277 302.867 60.2238 293.714 48.0918C292.544 46.812 289.93 40.9836 288.329 44.0544C286.627 49.0019 283.475 53.1083 280.182 57.0671C277.974 60.7439 279.729 60.4106 275.342 62.4547C261.248 79.3749 241.666 93.141 218.885 93.1316ZM121.442 0C162.739 0.713838 203.335 14.9633 239.266 35.0551C246.203 39.0092 252.018 29.2383 259.339 31.0538C272.725 27.1539 289.799 29.0926 297.782 41.9587C307.584 54.9826 307.803 71.189 304.028 86.4377C302.836 91.5443 302.298 98.5064 297.917 101.796C296.296 111.651 286.424 118.581 276.67 120.561C250.979 125.398 222.323 112.084 207.775 90.7465C203.855 76.2092 215.672 62.4329 224.256 51.6254C224.93 50.8232 224.706 50.0777 223.737 49.8389C213.742 47.3779 203.768 44.8577 193.445 44.0446C180.805 43.1229 168.207 41.6243 155.56 40.8225C153.351 39.9528 151.836 43.5678 150.822 42.0689C143.116 38.2907 125.7 43.4329 117.019 45.4945C93.7651 50.6117 84.3816 74.0273 80.3977 95.1942C73.4135 123.026 49.3508 113.508 48.2732 89.0383C48.0035 79.0958 49.8095 69.3197 50.6102 59.446C50.6957 58.3719 51.2321 56.8254 49.8303 56.31C32.7734 66.7788 38.4183 96.0647 21.8873 107.802C-7.93651 122.259 -1.00639 75.0639 6.45439 60.017C24.0997 14.4716 76.8173 0.798525 121.442 0Z" fill="black"/>
<path fill-rule="evenodd" clip-rule="evenodd" d="M194.74 210.607C194.953 212.12 195.646 216.617 197.661 213.672C200.512 209.094 203.763 204.724 206.366 200.009C206.269 197.341 201.297 198.509 199.732 199.71C195.899 202.17 195.328 206.385 194.74 210.607ZM216.938 210.096C216.912 207.853 215.554 200.543 212.72 203.136C211.045 205.88 198.961 219.092 204.315 220.58C209.741 220.539 217.114 215.967 216.938 210.096ZM267.333 156.191C261.179 159.117 255.752 163.14 249.899 166.596C246.164 168.877 252.937 171.824 255.185 171.788C263.738 172.244 270.675 164.502 267.333 156.191ZM187.817 248.658C187.949 239.55 190.069 231.098 193.576 222.932C196.421 217.765 184.544 213.491 194.592 199.23C199.305 192.268 208.698 198.318 213.121 191.927C215.785 188.48 218.497 185.058 221.383 181.798C225.948 176.641 231.117 172.125 236.712 168.104C239.695 166.291 242.261 164.563 241.126 160.48C237.664 144.914 252.919 134.922 265.24 145.651C267.693 148.613 269.482 149.485 272.784 147.024C281.362 142.499 290.235 137.532 295.445 129.094C298.875 123.185 299.999 116.489 301.747 109.983C301.993 109.161 302.138 107.826 303.271 108.081C304.962 109.219 303.727 112.595 303.97 114.458C303.787 133.237 288.834 145.235 273.217 152.676C269.961 155.171 273.064 161.483 270.847 165.245C267.453 174.062 254.534 179.783 246.49 171.672C245.831 170.904 244.905 169.832 243.895 170.678C238.416 174.997 214.816 193.535 218.483 200.178C225.157 209.446 219.129 220.974 208.603 223.451C205.413 224.999 200.364 221.2 199.152 225.691C196.577 232.04 194.289 238.471 193.278 245.301C190.962 260.961 200.849 279.46 216.389 283.815C218.266 284.028 218.476 284.46 218.314 286.483C217.451 290.742 209.701 286.24 207.541 284.728C196.462 276.308 187.897 262.731 187.817 248.658Z" fill="black"/>
<path fill-rule="evenodd" clip-rule="evenodd" d="M289.528 244.481C300.5 245.169 301.951 229.535 292.987 225.841C288.746 223.192 278.723 222.977 280.42 215.912C285.566 208.224 302.769 216.935 309.735 208.579C315.121 201.487 300.533 195.522 294.905 195.354C269.084 191.853 244.698 224.653 237.956 246.782C260.004 230.978 266.458 234.976 289.528 244.481ZM295.783 218.31C293.788 218.642 291.384 217.494 289.752 218.84C312.672 226.036 302.485 255.636 282.91 248.085C276.252 245.329 269.671 241.903 262.309 242.135C260.319 241.822 258.47 241.637 256.817 243.306C248.514 246.285 241.289 251.203 235.821 258.216C234.573 259.618 233.945 261.365 233.196 263.028C231.888 265.172 229.265 266.685 229.046 269.476C227.501 274.001 224.513 266.784 226.128 264.595C233.227 250.295 235.265 233.967 245.366 221.025C256.977 204.082 274.863 185.837 297.263 189.606C305.198 191.412 315.86 195.763 316.775 205.005C317.248 209.084 313.042 214.411 309.035 215.119C308.153 215.046 307.174 215.348 306.624 216.22C304.043 219.479 299.372 217.977 295.783 218.281V218.31Z" fill="black"/>
</svg>
