<svg version="1.1" xmlns="http://www.w3.org/2000/svg" viewBox="0 0 1816.0456688616696 871.3276867146437" width="1816.0456688616696" height="871.3276867146437" filter="invert(93%) hue-rotate(180deg)">
  <!-- svg-source:excalidraw -->
  
  <defs>
    <style class="style-fonts">
      @font-face {
        font-family: "Virgil";
        src: url("https://excalidraw.com/Virgil.woff2");
      }
      @font-face {
        font-family: "Cascadia";
        src: url("https://excalidraw.com/Cascadia.woff2");
      }
      @font-face {
        font-family: "Assistant";
        src: url("https://excalidraw.com/Assistant-Regular.woff2");
      }
    </style>
    
  </defs>
  <rect x="0" y="0" width="1816.0456688616696" height="871.3276867146437" fill="#ffffff"></rect><g stroke-linecap="round" transform="translate(393.34931492234136 279.9795514553048) rotate(0 106.11718282824853 34.84445275200733)"><path d="M17.42 0 C73.97 -1.32, 129.1 -1.4, 194.81 0 M17.42 0 C77.6 0.95, 137.35 0.21, 194.81 0 M194.81 0 C206.98 -0.63, 211.93 7.12, 212.23 17.42 M194.81 0 C206.96 -0.91, 214.09 7.56, 212.23 17.42 M212.23 17.42 C213.46 26.89, 212.98 33.11, 212.23 52.27 M212.23 17.42 C213.47 24.58, 213.08 32.54, 212.23 52.27 M212.23 52.27 C211.24 64.58, 206.15 71.62, 194.81 69.69 M212.23 52.27 C211.65 62.81, 208.61 68.04, 194.81 69.69 M194.81 69.69 C130.93 69.52, 62.64 68.41, 17.42 69.69 M194.81 69.69 C154.14 68.56, 113.49 69.08, 17.42 69.69 M17.42 69.69 C4.39 71.44, 1.07 64.74, 0 52.27 M17.42 69.69 C3.88 69.49, -2.05 63.37, 0 52.27 M0 52.27 C-0.36 43.5, 2 37.9, 0 17.42 M0 52.27 C0.42 44.12, 0.58 37.22, 0 17.42 M0 17.42 C-0.31 6.51, 7.39 -0.4, 17.42 0 M0 17.42 C-1.47 5.59, 4.4 1.35, 17.42 0" stroke="#1e1e1e" stroke-width="2" fill="none"></path></g><g stroke-linecap="round" transform="translate(1469.5507234286179 283.11094676882794) rotate(0 106.11718282824859 34.84445275200733)"><path d="M17.42 0 C68.84 -0.25, 121.93 2.79, 194.81 0 M17.42 0 C70.42 -1.41, 122.54 -1.86, 194.81 0 M194.81 0 C206.12 1.31, 212.7 5.01, 212.23 17.42 M194.81 0 C208.28 1.75, 210.29 6.49, 212.23 17.42 M212.23 17.42 C213.07 31.34, 210.5 45.41, 212.23 52.27 M212.23 17.42 C213.17 25.64, 212.08 32.37, 212.23 52.27 M212.23 52.27 C211.95 65.81, 205.92 68.76, 194.81 69.69 M212.23 52.27 C214.41 62.23, 208.02 69.9, 194.81 69.69 M194.81 69.69 C150.99 70.27, 108.22 70.98, 17.42 69.69 M194.81 69.69 C148.15 68.78, 99.89 69.65, 17.42 69.69 M17.42 69.69 C6.87 70.54, -1.68 63.71, 0 52.27 M17.42 69.69 C3.76 69.18, -2.3 63.63, 0 52.27 M0 52.27 C2.03 41.71, -1.73 33.76, 0 17.42 M0 52.27 C0.63 40.57, -0.41 30.07, 0 17.42 M0 17.42 C1.58 5.41, 4.53 -0.19, 17.42 0 M0 17.42 C-1.41 7.16, 7.28 -0.15, 17.42 0" stroke="#1e1e1e" stroke-width="2" fill="none"></path></g><g stroke-linecap="round" transform="translate(1013.9331971639785 283.11094676882794) rotate(0 106.11718282824853 34.84445275200733)"><path d="M17.42 0 C58.53 2.87, 98.09 2.36, 194.81 0 M17.42 0 C86.38 -0.55, 154.64 0.42, 194.81 0 M194.81 0 C206.89 -0.79, 213.85 7.33, 212.23 17.42 M194.81 0 C204.49 0.69, 214.09 7.1, 212.23 17.42 M212.23 17.42 C210.42 32.74, 210.53 47.1, 212.23 52.27 M212.23 17.42 C211.95 28.42, 212.3 39.68, 212.23 52.27 M212.23 52.27 C211.73 62.95, 208.32 68.25, 194.81 69.69 M212.23 52.27 C213.82 64.1, 205.05 71.52, 194.81 69.69 M194.81 69.69 C132.27 69.99, 71.82 69.93, 17.42 69.69 M194.81 69.69 C150.07 70.58, 107.27 70.13, 17.42 69.69 M17.42 69.69 C4.13 69.52, -1.78 63.44, 0 52.27 M17.42 69.69 C3.51 69.44, -0.21 63.42, 0 52.27 M0 52.27 C-2.15 46.71, 0.13 39.1, 0 17.42 M0 52.27 C-0.46 45.09, 0.48 37, 0 17.42 M0 17.42 C-1.28 5.62, 4.58 1.17, 17.42 0 M0 17.42 C1.47 5.66, 7.17 1.1, 17.42 0" stroke="#1e1e1e" stroke-width="2" fill="none"></path></g><g stroke-linecap="round" transform="translate(750.2454941240644 104.36450369771683) rotate(0 43.0000114440918 33.999996185302734)"><path d="M55 8.5 C59.43 13.14, 65.73 17.09, 75 25.5 M55 8.5 C61.16 14.55, 67.81 18.82, 75 25.5 M75 25.5 C87.61 35.52, 84.31 34.6, 75 42.5 M75 25.5 C87.85 35.29, 88.24 34.74, 75 42.5 M75 42.5 C66.36 50.28, 61.63 55.16, 55 59.5 M75 42.5 C66.94 50.19, 58.99 55.42, 55 59.5 M55 59.5 C45.89 66.56, 45.38 68.19, 33 59.5 M55 59.5 C42.62 69.83, 45.03 66.59, 33 59.5 M33 59.5 C26.07 55.07, 19.35 50.62, 11 42.5 M33 59.5 C27.04 55.01, 19.05 49.39, 11 42.5 M11 42.5 C-1.78 33.56, -2 33.78, 11 25.5 M11 42.5 C-0.21 33.54, -2.07 36.26, 11 25.5 M11 25.5 C17.76 22.03, 21.74 17.6, 33 8.5 M11 25.5 C17.48 20.84, 21.72 16.57, 33 8.5 M33 8.5 C42.77 1.17, 45.28 -0.13, 55 8.5 M33 8.5 C45.36 1.1, 44.37 -1.32, 55 8.5" stroke="#1e1e1e" stroke-width="2" fill="none"></path></g><g stroke-linecap="round" transform="translate(1304.8306163297084 278.888655882055) rotate(0 43.0000114440918 33.999996185302734)"><path d="M55 8.5 C64.24 15.93, 70.27 21.71, 75 25.5 M55 8.5 C60.58 12.54, 66.52 18.26, 75 25.5 M75 25.5 C84.31 34.6, 87.61 35.12, 75 42.5 M75 25.5 C88.24 34.74, 86.76 31.79, 75 42.5 M75 42.5 C67.5 50.23, 61.75 54.39, 55 59.5 M75 42.5 C68.02 47.93, 62.52 53.37, 55 59.5 M55 59.5 C45.38 68.19, 42.8 69.59, 33 59.5 M55 59.5 C45.03 66.59, 43.75 66.4, 33 59.5 M33 59.5 C24.88 54.92, 18.78 47.09, 11 42.5 M33 59.5 C23.54 52.92, 14.96 46.19, 11 42.5 M11 42.5 C-2 33.78, -0.18 33.6, 11 25.5 M11 42.5 C-2.07 36.26, -0.49 31.93, 11 25.5 M11 25.5 C17.82 20.52, 27.19 11.84, 33 8.5 M11 25.5 C17.6 19.75, 25.01 14.73, 33 8.5 M33 8.5 C45.28 -0.13, 45.18 0.96, 55 8.5 M33 8.5 C44.37 -1.32, 42.74 2.08, 55 8.5" stroke="#1e1e1e" stroke-width="2" fill="none"></path></g><g stroke-linecap="round"><g transform="translate(1375.4744146225612 315.8887207319085) rotate(0 44.53250364820883 0.02322499160368352)"><path d="M-0.18 0.79 C14.65 0.78, 74.31 -0.46, 89.34 -0.43 M-1.74 0.16 C12.94 0.34, 73.29 1.03, 88.54 0.86" stroke="#1e1e1e" stroke-width="1" fill="none"></path></g><g transform="translate(1375.4744146225612 315.8887207319085) rotate(0 44.53250364820883 0.02322499160368352)"><path d="M65.03 9.37 C74.07 7.08, 79.67 5.44, 88.54 0.86 M65.03 9.37 C74.75 6.66, 83.76 3.22, 88.54 0.86" stroke="#1e1e1e" stroke-width="1" fill="none"></path></g><g transform="translate(1375.4744146225612 315.8887207319085) rotate(0 44.53250364820883 0.02322499160368352)"><path d="M65.06 -7.73 C74.04 -4.42, 79.62 -0.45, 88.54 0.86 M65.06 -7.73 C74.63 -4.01, 83.63 -1.02, 88.54 0.86" stroke="#1e1e1e" stroke-width="1" fill="none"></path></g></g><mask></mask><g stroke-linecap="round"><g transform="translate(882.0248521408516 56.88319428556906) rotate(0 -34.28575243268699 29.071420942034138)"><path d="M0.97 0.67 C-10.1 10.37, -55.88 49.14, -67.4 58.53 M0.02 -0.02 C-11.02 9.27, -56.28 46.99, -67.73 56.61" stroke="#1e1e1e" stroke-width="1" fill="none"></path></g></g><mask></mask><g transform="translate(443.86418787346247 293.7572720126236) rotate(0 45.97941589355469 21.499996185302734)"><text x="0" y="0" font-family="Virgil, Segoe UI Emoji" font-size="34.39999389648439px" fill="#1971c2" text-anchor="start" style="white-space: pre;" direction="ltr" dominant-baseline="text-before-edge">USER</text></g><g transform="translate(1024.973285462486 303.1743837916879) rotate(0 98.28685760498047 17.499970027378595)"><text x="0" y="0" font-family="Virgil, Segoe UI Emoji" font-size="27.99995204380589px" fill="#1971c2" text-anchor="start" style="white-space: pre;" direction="ltr" dominant-baseline="text-before-edge">CUSTOMQUIZ</text></g><g transform="translate(1476.9733530371236 306.031559346236) rotate(0 100.26624298095703 11.280085531953091)"><text x="0" y="0" font-family="Virgil, Segoe UI Emoji" font-size="18.04813685112489px" fill="#1971c2" text-anchor="start" style="white-space: pre;" direction="ltr" dominant-baseline="text-before-edge">CUSTOM_QUESTIONS</text></g><g transform="translate(766.5386754734293 122.47168013386317) rotate(0 28.233810424804688 14.499988555908203)"><text x="0" y="0" font-family="Virgil, Segoe UI Emoji" font-size="23.199981689453136px" fill="#e03131" text-anchor="start" style="white-space: pre;" direction="ltr" dominant-baseline="text-before-edge">plays</text></g><g transform="translate(1328.8307727322963 298.88863680856866) rotate(0 19.75787353515625 14.499988555908203)"><text x="0" y="0" font-family="Virgil, Segoe UI Emoji" font-size="23.199981689453136px" fill="#e03131" text-anchor="start" style="white-space: pre;" direction="ltr" dominant-baseline="text-before-edge">has</text></g><g stroke-linecap="round"><g transform="translate(425.50121115058755 275.84451378316135) rotate(0 -0.000019073486328125 -20)"><path d="M-0.49 -0.12 C-0.5 -6.79, -0.62 -33.39, -0.55 -40.06 M0.26 -0.66 C0.44 -7.24, 0.52 -32.91, 0.4 -39.39" stroke="#1e1e1e" stroke-width="1" fill="none"></path></g></g><mask></mask><g stroke-linecap="round" transform="translate(417.55130774556164 222.31980764046648) rotate(0 7.000007629394531 8.499984741210938)"><path d="M7.33 -0.1 C8.69 -0.1, 9.82 1.09, 10.92 2.3 C12.03 3.52, 13.68 5.41, 13.98 7.2 C14.28 8.98, 13.5 11.5, 12.72 13.02 C11.95 14.55, 10.63 15.69, 9.33 16.34 C8.03 16.99, 6.34 17.57, 4.93 16.95 C3.53 16.32, 1.74 14.27, 0.92 12.6 C0.1 10.93, -0.26 8.6, 0.03 6.91 C0.33 5.22, 1.51 3.54, 2.67 2.44 C3.83 1.33, 6.19 0.66, 6.98 0.3 C7.78 -0.07, 7.47 0.21, 7.43 0.25 M8.68 0.34 C10.08 0.48, 11.32 1.35, 12.2 2.71 C13.08 4.07, 13.98 6.62, 13.95 8.5 C13.93 10.39, 13.14 12.53, 12.03 14.02 C10.93 15.52, 8.85 17.18, 7.33 17.49 C5.82 17.8, 4.17 17.09, 2.96 15.89 C1.76 14.68, 0.63 11.98, 0.11 10.26 C-0.41 8.55, -0.77 7.14, -0.16 5.6 C0.44 4.05, 2.41 1.83, 3.76 1 C5.11 0.17, 7.18 0.63, 7.93 0.6 C8.69 0.58, 8.16 0.85, 8.29 0.84" stroke="#1e1e1e" stroke-width="1" fill="none"></path></g><g stroke-linecap="round"><g transform="translate(504.41933597585466 276.4058225245608) rotate(0 -0.000019073486328125 -20)"><path d="M-0.05 -0.11 C-0.04 -6.68, -0.48 -32.73, -0.5 -39.46 M-0.74 -0.64 C-0.52 -7.34, 0.45 -33.56, 0.48 -40.15" stroke="#1e1e1e" stroke-width="1" fill="none"></path></g></g><mask></mask><g stroke-linecap="round" transform="translate(497.3617781385101 227.2989580612234) rotate(0 7.000007629394531 8.499984741210938)"><path d="M6.75 0.38 C8.17 0.18, 9.65 1.13, 10.79 2.15 C11.93 3.17, 13.17 4.74, 13.61 6.5 C14.05 8.27, 14.08 11.17, 13.42 12.75 C12.75 14.33, 11.06 15.41, 9.64 16 C8.22 16.6, 6.28 16.75, 4.91 16.32 C3.54 15.9, 2.24 14.88, 1.43 13.45 C0.61 12.03, -0.15 9.61, 0.02 7.77 C0.19 5.92, 1.37 3.71, 2.46 2.37 C3.56 1.03, 5.75 0.13, 6.6 -0.27 C7.46 -0.68, 7.53 -0.26, 7.6 -0.06 M7.24 -0.43 C8.72 -0.4, 10.59 0.56, 11.62 1.95 C12.65 3.34, 13.23 6.02, 13.41 7.91 C13.59 9.8, 13.44 11.97, 12.69 13.3 C11.94 14.62, 10.44 15.29, 8.93 15.87 C7.42 16.45, 4.99 17.33, 3.63 16.78 C2.26 16.22, 1.43 14.14, 0.75 12.52 C0.06 10.9, -0.76 8.79, -0.48 7.08 C-0.19 5.36, 1.13 3.49, 2.47 2.23 C3.81 0.97, 6.78 -0.16, 7.57 -0.48 C8.35 -0.81, 7.21 0.17, 7.19 0.27" stroke="#1e1e1e" stroke-width="1" fill="none"></path></g><g stroke-linecap="round"><g transform="translate(198.1275605184419 335.805933450461) rotate(273.3103080927721 -20.71002704497854 -47.248140185410875)"><path d="M-0.25 -1.08 C-6.8 -16.98, -33.65 -78.48, -40.36 -94.21 M1.81 0.96 C-4.71 -14.81, -33.65 -80.24, -40.76 -96.19" stroke="#1e1e1e" stroke-width="1" fill="none"></path></g></g><mask></mask><g stroke-linecap="round" transform="translate(118.54061662295317 298.4899172248479) rotate(273.3103080927721 7.5 7.5)"><path d="M5.71 -0.35 C7.27 -0.76, 9.78 -0.36, 11.23 0.55 C12.67 1.46, 13.78 3.46, 14.39 5.11 C15.01 6.75, 15.39 9.03, 14.9 10.42 C14.41 11.81, 12.78 12.68, 11.43 13.45 C10.08 14.22, 8.48 15.18, 6.81 15.06 C5.14 14.93, 2.52 13.96, 1.43 12.72 C0.33 11.49, 0.15 9.26, 0.24 7.66 C0.33 6.05, 1 4.36, 1.95 3.11 C2.9 1.86, 5.1 0.68, 5.94 0.17 C6.78 -0.34, 6.89 -0.03, 6.99 0.05 M6.85 0.52 C8.45 0.19, 10.16 -0.15, 11.52 0.56 C12.87 1.27, 14.45 3.2, 14.97 4.77 C15.49 6.34, 15.34 8.39, 14.64 9.99 C13.95 11.59, 12.18 13.67, 10.8 14.36 C9.41 15.04, 7.91 14.48, 6.32 14.11 C4.74 13.74, 2.23 13.19, 1.28 12.14 C0.33 11.09, 0.41 9.4, 0.63 7.81 C0.84 6.22, 1.5 3.78, 2.55 2.59 C3.6 1.41, 6.34 1.16, 6.93 0.69 C7.52 0.22, 6.08 -0.3, 6.07 -0.2" stroke="none" stroke-width="0" fill="#1e1e1e"></path><path d="M8.65 0.05 C10.27 0.22, 12.42 1.92, 13.46 3.12 C14.5 4.32, 14.95 5.75, 14.9 7.24 C14.85 8.73, 14.14 10.73, 13.16 12.06 C12.18 13.39, 10.62 14.85, 9.03 15.22 C7.45 15.58, 5.06 15.12, 3.66 14.26 C2.27 13.41, 1.25 11.7, 0.67 10.09 C0.09 8.48, -0.41 6.16, 0.19 4.6 C0.78 3.05, 2.72 1.46, 4.26 0.74 C5.79 0.02, 8.49 0.38, 9.41 0.29 C10.33 0.2, 9.88 0.12, 9.75 0.22 M5.89 0.63 C7.37 0.4, 9.79 0.74, 11.21 1.37 C12.63 2, 14 2.86, 14.42 4.41 C14.85 5.97, 14.32 9.06, 13.75 10.69 C13.18 12.31, 12.4 13.42, 11 14.17 C9.6 14.93, 6.95 15.49, 5.34 15.23 C3.74 14.97, 2.21 14.01, 1.37 12.61 C0.52 11.2, 0.21 8.45, 0.29 6.79 C0.36 5.12, 0.76 3.84, 1.81 2.61 C2.86 1.37, 5.73 -0.14, 6.58 -0.65 C7.42 -1.16, 7 -0.77, 6.9 -0.47" stroke="#1e1e1e" stroke-width="1" fill="none"></path></g><g stroke-linecap="round"><g transform="translate(276.88015387522137 392.28961062141025) rotate(273.3103080927721 0.6678189236097083 -115.36867985108893)"><path d="M0.88 -1.01 C1.1 -39.59, 2.36 -193.03, 2.4 -231.25 M-0.12 1.08 C-0.05 -37.37, 1.94 -191.06, 2.01 -229.98" stroke="#1e1e1e" stroke-width="1" fill="none"></path></g></g><mask></mask><g stroke-linecap="round" transform="translate(151.6713647356728 256.7739406079604) rotate(273.3103080927721 7.000007629394531 8.499984741210938)"><path d="M6.63 -0.31 C8.01 -0.61, 9.99 0.25, 11.24 1.48 C12.49 2.7, 13.81 5.14, 14.13 7.02 C14.45 8.9, 13.87 11.19, 13.16 12.76 C12.45 14.33, 11.32 15.85, 9.89 16.45 C8.46 17.04, 5.97 16.93, 4.57 16.32 C3.18 15.71, 2.26 14.28, 1.53 12.8 C0.8 11.31, 0.04 9.23, 0.18 7.42 C0.32 5.61, 1.32 3.19, 2.38 1.95 C3.44 0.71, 5.78 0.28, 6.54 -0.02 C7.3 -0.33, 6.9 0.03, 6.95 0.11 M8.08 -0.59 C9.42 -0.35, 10.71 1.97, 11.68 3.51 C12.66 5.05, 13.94 6.83, 13.94 8.65 C13.94 10.46, 12.69 12.96, 11.68 14.41 C10.68 15.86, 9.23 17.19, 7.9 17.34 C6.58 17.5, 4.99 16.32, 3.73 15.33 C2.46 14.35, 0.83 13.19, 0.31 11.43 C-0.21 9.67, -0.01 6.63, 0.6 4.79 C1.22 2.95, 2.83 1.12, 4.01 0.4 C5.2 -0.32, 7.13 0.38, 7.72 0.46 C8.3 0.54, 7.54 0.86, 7.52 0.85" stroke="#1e1e1e" stroke-width="1" fill="none"></path></g><g stroke-linecap="round"><g transform="translate(278.7719331690505 257.3382868623926) rotate(273.3103080927721 18.99751332490186 -4.194823290854401)"><path d="M-0.09 0.19 C6.24 -1.18, 32.14 -7.06, 38.43 -8.5 M-0.79 -0.18 C5.45 -1.46, 31.63 -6.57, 38.22 -7.86" stroke="#1e1e1e" stroke-width="1" fill="none"></path></g></g><mask></mask><g stroke-linecap="round" transform="translate(286.83576262016504 218.6195496602145) rotate(273.3103080927721 7.000007629394531 8.499984741210938)"><path d="M6.18 0.43 C7.58 0.15, 9.28 0.61, 10.56 1.5 C11.84 2.39, 13.4 4.17, 13.85 5.79 C14.3 7.42, 13.75 9.6, 13.25 11.25 C12.75 12.9, 12.1 14.75, 10.86 15.69 C9.62 16.63, 7.33 17.27, 5.8 16.92 C4.26 16.57, 2.69 15.04, 1.65 13.61 C0.61 12.18, -0.41 10.14, -0.45 8.35 C-0.49 6.56, 0.34 4.32, 1.42 2.88 C2.49 1.44, 5.1 0.18, 6.01 -0.29 C6.92 -0.77, 6.8 -0.14, 6.87 0.04 M5.26 0.32 C6.63 -0.21, 8.12 0.39, 9.44 1.25 C10.75 2.11, 12.39 3.99, 13.15 5.51 C13.91 7.02, 14.4 8.67, 14.01 10.36 C13.62 12.05, 12.09 14.67, 10.82 15.65 C9.55 16.62, 7.82 16.55, 6.42 16.22 C5.02 15.9, 3.58 14.83, 2.42 13.7 C1.26 12.56, -0.24 11.01, -0.54 9.4 C-0.85 7.79, -0.28 5.66, 0.61 4.04 C1.49 2.42, 4.02 0.4, 4.74 -0.3 C5.45 -0.99, 4.9 -0.37, 4.91 -0.12" stroke="#1e1e1e" stroke-width="1" fill="none"></path></g><g stroke-linecap="round"><g transform="translate(170.3579747795884 245.695525914281) rotate(273.3103080927721 20.030398486624307 0.06975631959198836)"><path d="M-0.35 -0.05 C6.2 0.04, 32.93 0.44, 39.72 0.46 M0.47 -0.55 C7.16 -0.61, 34.15 -0.54, 40.78 -0.34" stroke="#1e1e1e" stroke-width="1" fill="none"></path></g></g><mask></mask><g stroke-linecap="round" transform="translate(185.99166034405425 209.49415290403294) rotate(273.3103080927721 7.000007629394531 8.499984741210938)"><path d="M8.35 0.19 C9.73 0.26, 10.99 1.34, 12.01 2.67 C13.02 3.99, 14.36 6.26, 14.45 8.14 C14.54 10.02, 13.55 12.53, 12.55 13.94 C11.54 15.35, 9.96 16.26, 8.4 16.59 C6.83 16.92, 4.51 16.75, 3.14 15.9 C1.77 15.04, 0.66 13.22, 0.17 11.46 C-0.32 9.71, -0.39 7.1, 0.21 5.36 C0.81 3.62, 2.39 1.94, 3.78 1.05 C5.17 0.16, 7.83 0.22, 8.55 0.04 C9.28 -0.15, 8.14 -0.23, 8.13 -0.07 M6.91 0.46 C8.49 0.25, 10.75 0.49, 11.91 1.63 C13.06 2.77, 13.63 5.55, 13.83 7.31 C14.04 9.07, 13.83 10.77, 13.14 12.19 C12.45 13.61, 11.24 15.09, 9.7 15.85 C8.16 16.61, 5.49 17.19, 3.89 16.74 C2.3 16.28, 0.84 14.86, 0.12 13.12 C-0.6 11.38, -0.78 8.25, -0.44 6.28 C-0.09 4.31, 1.04 2.35, 2.19 1.32 C3.33 0.3, 5.7 0.35, 6.43 0.13 C7.16 -0.09, 6.37 -0.19, 6.56 0.01" stroke="#1e1e1e" stroke-width="1" fill="none"></path></g><g stroke-linecap="round"><g transform="translate(1023.7120226729876 280.43529957972487) rotate(0 0 -17.5)"><path d="M0.35 -0.04 C0.46 -5.88, 0.37 -28.86, 0.33 -34.74 M-0.13 -0.53 C-0.04 -6.56, 0.08 -29.84, 0.06 -35.57" stroke="#1e1e1e" stroke-width="1" fill="none"></path></g></g><mask></mask><g stroke-linecap="round" transform="translate(1015.5560592147549 229.43523756911463) rotate(0 7.5 7.5)"><path d="M8.92 0.42 C10.34 0.57, 11.68 1.51, 12.76 2.64 C13.84 3.76, 15.29 5.62, 15.41 7.18 C15.52 8.75, 14.59 10.79, 13.47 12.01 C12.34 13.23, 10.31 14.1, 8.66 14.49 C7.01 14.89, 4.87 15.09, 3.56 14.39 C2.25 13.69, 1.39 11.8, 0.8 10.29 C0.21 8.78, -0.39 6.85, 0.04 5.33 C0.47 3.81, 1.96 2.09, 3.39 1.19 C4.83 0.29, 7.69 0.03, 8.65 -0.09 C9.6 -0.2, 9.2 0.37, 9.13 0.49 M8.06 0.05 C9.57 -0.05, 11.71 1.35, 12.79 2.28 C13.87 3.21, 14.26 4.09, 14.54 5.64 C14.81 7.2, 15.11 10.19, 14.43 11.61 C13.76 13.03, 12.11 13.67, 10.49 14.17 C8.87 14.68, 6.37 14.99, 4.74 14.63 C3.1 14.28, 1.39 13.41, 0.69 12.02 C-0.01 10.64, 0.22 7.92, 0.54 6.31 C0.85 4.71, 1.53 3.42, 2.58 2.39 C3.62 1.35, 6 0.59, 6.82 0.12 C7.64 -0.34, 7.36 -0.41, 7.51 -0.41" stroke="none" stroke-width="0" fill="#1e1e1e"></path><path d="M8.25 -0.23 C9.85 -0.21, 11.54 0.95, 12.66 2.02 C13.79 3.1, 14.89 4.66, 15.01 6.24 C15.13 7.81, 14.31 10.09, 13.39 11.48 C12.47 12.87, 10.98 14.15, 9.49 14.58 C8.01 15.02, 5.85 14.71, 4.48 14.09 C3.1 13.46, 1.92 12.22, 1.23 10.83 C0.54 9.45, 0.14 7.4, 0.34 5.77 C0.54 4.15, 1.06 2.05, 2.43 1.09 C3.79 0.13, 7.48 0.21, 8.53 0 C9.58 -0.21, 8.75 -0.28, 8.74 -0.18 M8.55 0.18 C10.05 0.28, 12.15 0.75, 13.3 1.83 C14.45 2.9, 15.54 4.85, 15.45 6.63 C15.37 8.41, 13.99 11.05, 12.79 12.51 C11.58 13.97, 9.81 15.23, 8.23 15.4 C6.65 15.57, 4.68 14.48, 3.32 13.53 C1.96 12.57, 0.68 11.06, 0.07 9.68 C-0.54 8.29, -0.83 6.68, -0.34 5.22 C0.15 3.76, 1.44 1.7, 3.01 0.92 C4.58 0.15, 8.02 0.65, 9.08 0.55 C10.13 0.46, 9.54 0.18, 9.33 0.34" stroke="#1e1e1e" stroke-width="1" fill="none"></path></g><g stroke-linecap="round"><g transform="translate(1682.7070331582245 306.5747421926185) rotate(0 21.481161837784157 -1.018305179024992)"><path d="M0.09 -0.32 C7.14 -0.62, 35.56 -1.27, 42.66 -1.54 M-0.53 0.71 C6.68 0.24, 36.62 -1.92, 43.74 -2.25" stroke="#1e1e1e" stroke-width="1" fill="none"></path></g></g><mask></mask><g stroke-linecap="round" transform="translate(1726.2047343361564 299.7940428432562) rotate(0 7.000007629394531 8.499984741210938)"><path d="M6.26 -0.2 C7.57 -0.53, 9.2 0.34, 10.39 1.37 C11.59 2.4, 12.94 4.3, 13.41 5.99 C13.89 7.68, 13.73 9.85, 13.25 11.51 C12.77 13.17, 11.8 15.08, 10.51 15.94 C9.23 16.79, 7.16 17.11, 5.56 16.64 C3.96 16.17, 1.78 14.55, 0.9 13.1 C0.02 11.66, 0.11 9.79, 0.29 7.98 C0.46 6.17, 0.87 3.6, 1.95 2.25 C3.03 0.89, 5.89 0.17, 6.76 -0.14 C7.62 -0.46, 7.21 0.2, 7.12 0.36 M7.68 -0.7 C8.98 -0.58, 10.19 1.06, 11.11 2.48 C12.02 3.9, 12.98 6.17, 13.19 7.83 C13.41 9.49, 13.12 11.06, 12.38 12.43 C11.63 13.8, 10.2 15.35, 8.75 16.03 C7.29 16.72, 5.08 17.13, 3.66 16.52 C2.24 15.91, 0.75 13.9, 0.24 12.35 C-0.28 10.8, 0.06 8.96, 0.59 7.23 C1.11 5.49, 2.39 3.01, 3.38 1.93 C4.37 0.85, 5.82 1.13, 6.5 0.74 C7.17 0.34, 7.25 -0.52, 7.44 -0.44" stroke="#1e1e1e" stroke-width="1" fill="none"></path></g><g stroke-linecap="round"><g transform="translate(1179.8440660774831 277.7499449832767) rotate(0 -0.000019073486328125 -27.59589107405486)"><path d="M-0.56 0.28 C-0.43 -9.07, 0.18 -45.57, 0.17 -55 M1.34 -0.62 C1.39 -9.84, -0.18 -47.87, -0.69 -57.02" stroke="#1e1e1e" stroke-width="1" fill="none"></path></g></g><mask></mask><g stroke-linecap="round" transform="translate(1173.4527373307901 205.94400186632447) rotate(0 7.000007629394531 8.499984741210938)"><path d="M5.81 0.01 C7.26 -0.37, 9.22 0.02, 10.59 0.99 C11.97 1.96, 13.54 4.03, 14.05 5.81 C14.55 7.58, 14.35 10.01, 13.63 11.64 C12.91 13.26, 11.05 14.71, 9.73 15.57 C8.42 16.42, 7.12 17.15, 5.75 16.76 C4.37 16.37, 2.4 14.7, 1.48 13.24 C0.57 11.77, 0.15 9.66, 0.27 7.95 C0.38 6.23, 1.18 4.26, 2.15 2.93 C3.12 1.61, 5.31 0.41, 6.09 -0.03 C6.86 -0.47, 6.81 0.08, 6.8 0.28 M4.64 0.77 C6.01 0.12, 8.17 -0.29, 9.56 0.35 C10.95 0.98, 12.42 2.8, 12.98 4.58 C13.55 6.37, 13.43 9.25, 12.97 11.06 C12.52 12.86, 11.31 14.37, 10.26 15.43 C9.2 16.49, 7.91 17.57, 6.63 17.41 C5.36 17.25, 3.85 15.73, 2.62 14.45 C1.4 13.17, -0.54 11.68, -0.71 9.74 C-0.88 7.8, 0.51 4.34, 1.6 2.82 C2.7 1.29, 5.2 0.93, 5.84 0.59 C6.48 0.26, 5.42 0.83, 5.46 0.81" stroke="#1e1e1e" stroke-width="1" fill="none"></path></g><g stroke-linecap="round"><g transform="translate(1471.846101136166 285.7803750031835) rotate(0 -0.4220454614918481 -20.875938710235687)"><path d="M-0.28 -0.49 C-0.44 -7.52, -0.77 -35.16, -0.87 -42.07 M0.57 0.44 C0.33 -6.52, -1.01 -34.55, -1.32 -41.53" stroke="#1e1e1e" stroke-width="1" fill="none"></path></g></g><mask></mask><g stroke-linecap="round" transform="translate(1463.690060408534 228.87248786038572) rotate(0 7.5 7.5)"><path d="M6.43 0.2 C7.91 -0.18, 9.53 0.42, 10.84 1.22 C12.16 2.02, 13.71 3.55, 14.31 4.98 C14.9 6.42, 14.88 8.28, 14.41 9.81 C13.94 11.34, 12.92 13.36, 11.48 14.16 C10.04 14.97, 7.38 14.88, 5.76 14.65 C4.14 14.42, 2.67 13.89, 1.76 12.78 C0.85 11.67, 0.32 9.62, 0.32 8.01 C0.32 6.4, 0.68 4.45, 1.75 3.1 C2.82 1.74, 5.98 0.31, 6.72 -0.12 C7.47 -0.56, 6.22 0.27, 6.23 0.47 M6.29 0.72 C7.92 0.44, 10.7 0.38, 12.09 1.25 C13.49 2.12, 14.4 4.37, 14.68 5.94 C14.97 7.5, 14.44 9.34, 13.82 10.63 C13.19 11.91, 12.25 13.07, 10.96 13.66 C9.67 14.25, 7.72 14.52, 6.07 14.17 C4.42 13.82, 2.06 12.7, 1.07 11.58 C0.08 10.45, -0.11 9.03, 0.11 7.41 C0.33 5.79, 1.38 3.03, 2.4 1.87 C3.43 0.71, 5.43 0.76, 6.23 0.45 C7.04 0.14, 7.09 -0.12, 7.24 0" stroke="none" stroke-width="0" fill="#1e1e1e"></path><path d="M7.64 -0.15 C9.22 -0.25, 11.19 0.54, 12.31 1.48 C13.43 2.42, 14.01 3.91, 14.36 5.49 C14.7 7.08, 15.05 9.59, 14.38 11.01 C13.71 12.44, 11.82 13.47, 10.32 14.04 C8.83 14.62, 6.89 14.86, 5.41 14.46 C3.93 14.06, 2.37 12.98, 1.43 11.64 C0.48 10.29, -0.44 7.97, -0.25 6.36 C-0.06 4.76, 1.36 3.02, 2.57 2.01 C3.78 1, 6.21 0.68, 6.98 0.3 C7.76 -0.07, 7.08 -0.21, 7.2 -0.22 M8.41 -0.42 C9.9 -0.12, 11.54 1.54, 12.54 2.84 C13.54 4.15, 14.22 5.72, 14.4 7.38 C14.59 9.05, 14.47 11.55, 13.65 12.82 C12.83 14.09, 11.24 14.69, 9.46 15 C7.68 15.32, 4.45 15.64, 2.99 14.71 C1.52 13.77, 1 10.98, 0.66 9.4 C0.32 7.83, 0.4 6.58, 0.93 5.25 C1.46 3.92, 2.43 2.35, 3.84 1.4 C5.24 0.45, 8.5 -0.36, 9.35 -0.45 C10.2 -0.53, 9.09 0.64, 8.94 0.88" stroke="#1e1e1e" stroke-width="1" fill="none"></path></g><g stroke-linecap="round"><g transform="translate(1531.7540183088158 279.87247260159666) rotate(0 -0.000019073486328125 -20)"><path d="M-0.07 -0.2 C-0.13 -6.74, -0.37 -32.99, -0.38 -39.6 M-0.76 -0.77 C-0.65 -7.44, 0.62 -33.69, 0.65 -40.35" stroke="#1e1e1e" stroke-width="1" fill="none"></path></g></g><mask></mask><g stroke-linecap="round" transform="translate(1525.2858904474324 220.49651100317715) rotate(0 7.000007629394531 8.499984741210938)"><path d="M5.98 -0.45 C7.41 -0.68, 10.05 0.48, 11.35 1.55 C12.66 2.62, 13.46 4.22, 13.83 5.97 C14.2 7.71, 14.17 10.27, 13.57 12.01 C12.96 13.76, 11.66 15.66, 10.19 16.43 C8.73 17.2, 6.27 17.13, 4.79 16.63 C3.3 16.12, 2.16 14.85, 1.29 13.4 C0.41 11.96, -0.51 9.86, -0.45 7.97 C-0.39 6.08, 0.4 3.46, 1.64 2.05 C2.87 0.64, 6 -0.11, 6.95 -0.48 C7.91 -0.86, 7.47 -0.39, 7.38 -0.21 M5.15 -0.03 C6.73 -0.39, 9.38 0.63, 10.9 1.58 C12.42 2.53, 13.95 3.9, 14.27 5.66 C14.6 7.41, 13.45 10.5, 12.87 12.1 C12.28 13.69, 11.86 14.36, 10.76 15.22 C9.66 16.08, 7.79 17.38, 6.28 17.24 C4.77 17.11, 2.67 15.96, 1.71 14.42 C0.75 12.87, 0.5 9.77, 0.5 7.98 C0.5 6.19, 0.89 4.96, 1.73 3.69 C2.56 2.41, 4.88 0.96, 5.51 0.32 C6.14 -0.32, 5.52 -0.18, 5.49 -0.15" stroke="#1e1e1e" stroke-width="1" fill="none"></path></g><g stroke-linecap="round"><g transform="translate(1594.0580566205563 278.4915204798258) rotate(0 -0.000019073486328125 -20)"><path d="M-0.17 0.19 C-0.13 -6.64, -0.09 -33.89, -0.15 -40.54 M0.75 -0.19 C0.74 -7.01, -0.61 -33.38, -0.65 -40.11" stroke="#1e1e1e" stroke-width="1" fill="none"></path></g></g><mask></mask><g stroke-linecap="round" transform="translate(1587.1297806241555 220.8800708564031) rotate(0 7.000007629394531 8.499984741210938)"><path d="M5.39 -0.18 C6.75 -0.72, 8.97 -0.2, 10.36 0.71 C11.74 1.62, 13.21 3.58, 13.71 5.27 C14.22 6.95, 13.85 9.09, 13.39 10.82 C12.93 12.56, 12.22 14.6, 10.95 15.67 C9.68 16.75, 7.33 17.53, 5.75 17.25 C4.17 16.97, 2.39 15.45, 1.47 14 C0.55 12.55, 0.19 10.38, 0.23 8.56 C0.27 6.74, 0.91 4.53, 1.72 3.09 C2.53 1.65, 4.51 0.45, 5.09 -0.09 C5.68 -0.62, 5.15 -0.27, 5.25 -0.15 M7.32 0.12 C8.55 -0.04, 9.35 1.46, 10.47 2.43 C11.59 3.4, 13.5 4.24, 14.04 5.95 C14.58 7.66, 14.41 10.9, 13.71 12.7 C13 14.49, 11.17 16.17, 9.8 16.73 C8.43 17.29, 6.9 16.56, 5.47 16.07 C4.05 15.57, 2.2 15.16, 1.26 13.76 C0.31 12.36, -0.3 9.66, -0.19 7.67 C-0.07 5.68, 0.89 3.2, 1.93 1.85 C2.97 0.49, 5.21 -0.27, 6.07 -0.48 C6.93 -0.68, 6.98 0.49, 7.1 0.62" stroke="#1e1e1e" stroke-width="1" fill="none"></path></g><g stroke-linecap="round"><g transform="translate(1623.1406880761233 279.0285063642341) rotate(0 -0.000019073486328125 -59.66742472539272)"><path d="M-1.15 0.66 C-1.11 -19.02, -0.11 -99.33, -0.09 -119.22 M0.45 -0.04 C0.35 -19.4, -1.23 -97.51, -1.08 -117.63" stroke="#1e1e1e" stroke-width="1" fill="none"></path></g></g><mask></mask><g stroke-linecap="round" transform="translate(1618.5140136494456 147.99006227539167) rotate(0 7.000007629394531 8.499984741210938)"><path d="M5.83 0.38 C7.11 -0.07, 8.66 0.09, 9.94 0.92 C11.23 1.76, 13.01 3.65, 13.55 5.4 C14.09 7.15, 13.73 9.75, 13.18 11.41 C12.63 13.06, 11.41 14.48, 10.26 15.32 C9.11 16.16, 7.61 16.68, 6.26 16.43 C4.91 16.18, 3.28 15.14, 2.17 13.82 C1.07 12.51, -0.18 10.37, -0.36 8.53 C-0.54 6.69, 0.07 4.26, 1.11 2.8 C2.15 1.33, 5.07 0.11, 5.89 -0.27 C6.7 -0.65, 5.93 0.25, 5.99 0.53 M7.48 -0.61 C9.1 -0.72, 11.07 1.16, 12.15 2.55 C13.24 3.95, 13.77 6.1, 13.98 7.75 C14.19 9.39, 14.22 10.87, 13.43 12.45 C12.65 14.02, 10.82 16.52, 9.27 17.2 C7.72 17.89, 5.59 17.42, 4.13 16.56 C2.68 15.69, 1.28 13.75, 0.53 12.02 C-0.22 10.3, -0.83 7.86, -0.39 6.23 C0.05 4.6, 1.88 3.36, 3.18 2.23 C4.47 1.11, 6.63 -0.13, 7.37 -0.53 C8.11 -0.93, 7.61 -0.35, 7.62 -0.16" stroke="#1e1e1e" stroke-width="1" fill="none"></path></g><g stroke-linecap="round"><g transform="translate(1665.9573681027368 279.7191203311995) rotate(0 -0.000019073486328125 -89.20701400272856)"><path d="M-1.02 0.62 C-1.07 -29.01, -0.64 -147.71, -0.4 -177.68 M0.65 -0.1 C0.41 -30.09, -1.44 -149.72, -1.56 -179.42" stroke="#1e1e1e" stroke-width="1" fill="none"></path></g></g><mask></mask><g stroke-linecap="round" transform="translate(1657.878243857076 84.69100862630012) rotate(0 7.000007629394531 8.499984741210938)"><path d="M7.73 0.14 C9.13 0.26, 10.54 1.62, 11.5 2.84 C12.47 4.06, 13.27 5.77, 13.51 7.45 C13.75 9.13, 13.65 11.46, 12.91 12.94 C12.18 14.42, 10.67 15.85, 9.12 16.34 C7.57 16.84, 5.1 16.68, 3.63 15.88 C2.15 15.08, 0.82 13.22, 0.27 11.54 C-0.27 9.87, -0.1 7.47, 0.34 5.84 C0.78 4.22, 1.59 2.67, 2.92 1.79 C4.24 0.91, 7.39 0.88, 8.29 0.56 C9.19 0.23, 8.33 -0.25, 8.34 -0.17 M5.62 0.59 C7 -0.02, 9.48 -0.45, 10.81 0.44 C12.15 1.34, 13.18 4.15, 13.62 5.96 C14.05 7.78, 13.95 9.79, 13.41 11.34 C12.88 12.89, 11.73 14.43, 10.4 15.27 C9.07 16.12, 6.81 16.53, 5.45 16.42 C4.09 16.31, 3.14 15.96, 2.25 14.6 C1.37 13.23, 0.19 10.17, 0.12 8.23 C0.06 6.28, 0.93 4.29, 1.87 2.91 C2.8 1.53, 5.16 0.32, 5.73 -0.06 C6.3 -0.44, 5.25 0.57, 5.3 0.62" stroke="#1e1e1e" stroke-width="1" fill="none"></path></g><g stroke-linecap="round"><g transform="translate(1103.9198401971662 269.465103350909) rotate(458.91687339124684 16.148255237764545 -1.239712202378314)"><path d="M0.21 -0.36 C5.61 -0.82, 26.86 -1.97, 32.23 -2.41 M-0.35 0.65 C4.99 0.26, 26.35 -1.12, 31.77 -1.68" stroke="#1e1e1e" stroke-width="1" fill="none"></path></g></g><mask></mask><g stroke-linecap="round" transform="translate(1113.9946083372279 236.41162439699428) rotate(458.91687339124684 7.000007629394531 8.499984741210938)"><path d="M6.9 -0.36 C8.44 -0.51, 10.75 0.55, 11.99 1.8 C13.22 3.04, 14.22 5.24, 14.31 7.08 C14.4 8.93, 13.44 11.33, 12.5 12.84 C11.57 14.35, 10.04 15.62, 8.68 16.14 C7.32 16.65, 5.69 16.51, 4.35 15.93 C3.01 15.34, 1.29 14.13, 0.65 12.65 C0.01 11.17, 0.12 8.96, 0.49 7.06 C0.86 5.15, 1.59 2.37, 2.86 1.23 C4.14 0.08, 7.37 0.3, 8.14 0.19 C8.91 0.07, 7.55 0.43, 7.5 0.55 M8.08 0.69 C9.38 0.95, 11.02 1.81, 11.96 2.99 C12.9 4.16, 13.71 6.03, 13.71 7.74 C13.71 9.45, 12.77 11.65, 11.97 13.23 C11.18 14.82, 10.3 16.88, 8.94 17.25 C7.58 17.62, 5.18 16.46, 3.84 15.47 C2.5 14.49, 1.44 13, 0.88 11.36 C0.32 9.72, 0.14 7.27, 0.49 5.64 C0.85 4.01, 1.69 2.62, 2.98 1.57 C4.28 0.52, 7.5 -0.43, 8.26 -0.66 C9.03 -0.89, 7.54 -0.14, 7.58 0.2" stroke="#1e1e1e" stroke-width="1" fill="none"></path></g><g stroke-linecap="round"><g transform="translate(1050.3929048925409 257.4162378076426) rotate(458.91687339124684 19.5943563305392 -2.7093957328390843)"><path d="M0.12 -0.53 C6.71 -1.53, 33.08 -5.16, 39.52 -5.93 M-0.49 0.38 C6.07 -0.58, 32.53 -4.41, 39.26 -5.5" stroke="#1e1e1e" stroke-width="1" fill="none"></path></g></g><mask></mask><g stroke-linecap="round" transform="translate(1064.1203650503014 213.07768462551985) rotate(458.91687339124684 7.000007629394531 8.499984741210938)"><path d="M6.06 -0.23 C7.35 -0.63, 8.87 -0.08, 10.06 0.79 C11.25 1.67, 12.58 3.32, 13.19 5 C13.79 6.69, 14.15 9.06, 13.69 10.91 C13.24 12.76, 11.72 15.02, 10.46 16.1 C9.21 17.17, 7.63 17.78, 6.18 17.36 C4.73 16.94, 2.72 15, 1.77 13.56 C0.82 12.13, 0.59 10.45, 0.49 8.76 C0.39 7.07, 0.24 4.86, 1.17 3.42 C2.1 1.99, 5.22 0.62, 6.07 0.15 C6.92 -0.32, 6.35 0.45, 6.26 0.6 M8.14 -0.28 C9.5 -0.14, 10.89 1.16, 11.95 2.74 C13 4.32, 14.41 7.38, 14.47 9.19 C14.54 11, 13.36 12.39, 12.35 13.62 C11.33 14.85, 9.85 16.27, 8.37 16.58 C6.9 16.89, 4.86 16.35, 3.48 15.49 C2.09 14.64, 0.5 13.26, 0.05 11.44 C-0.39 9.63, 0.25 6.36, 0.79 4.61 C1.34 2.87, 1.94 1.63, 3.32 0.97 C4.69 0.31, 8.09 0.75, 9.04 0.66 C10 0.56, 9.11 0.23, 9.07 0.39" stroke="#1e1e1e" stroke-width="1" fill="none"></path></g><g stroke-linecap="round"><g transform="translate(836.8251808659356 138.3210390941531) rotate(0 105.8855321948916 70.33154412480621)"><path d="M-0.92 -0.88 C34.46 22.28, 175.82 116.17, 211.07 139.8 M0.8 1.27 C36.67 24.48, 178.06 117.38, 213.41 140.88" stroke="#1e1e1e" stroke-width="1" fill="none"></path></g><g transform="translate(836.8251808659356 138.3210390941531) rotate(0 105.8855321948916 70.33154412480621)"><path d="M189.09 135.07 C192.58 135.26, 197.52 135.64, 213.41 140.88 M189.09 135.07 C197.34 137.59, 205.41 138.96, 213.41 140.88" stroke="#1e1e1e" stroke-width="1" fill="none"></path></g><g transform="translate(836.8251808659356 138.3210390941531) rotate(0 105.8855321948916 70.33154412480621)"><path d="M198.52 120.8 C200.2 123.8, 203.24 127.07, 213.41 140.88 M198.52 120.8 C203.66 127.82, 208.75 133.71, 213.41 140.88" stroke="#1e1e1e" stroke-width="1" fill="none"></path></g></g><mask></mask><g transform="translate(138.5774138002589 478.48205076736576) rotate(0 36.00914001464844 16.499996185302734)"><text x="0" y="0" font-family="Virgil, Segoe UI Emoji" font-size="26.399993896484386px" fill="#e03131" text-anchor="start" style="white-space: pre;" direction="ltr" dominant-baseline="text-before-edge">follow</text></g><g stroke-linecap="round" transform="translate(123.67664918970968 459.96469093490714) rotate(0 50.93612416930608 33.08785775728029)"><path d="M63.75 8.5 C70.09 11.26, 75.43 18.12, 89.12 25.5 M63.75 8.5 C72.14 15.6, 82.58 19.95, 89.12 25.5 M89.12 25.5 C103.1 34.96, 101.99 35.11, 89.12 42.5 M89.12 25.5 C103.41 32.25, 102.23 35.88, 89.12 42.5 M89.12 42.5 C81.13 45.02, 74.22 51.82, 63.75 57.68 M89.12 42.5 C80.54 47.32, 71.17 52.88, 63.75 57.68 M63.75 57.68 C50.2 66.91, 51.79 64.2, 38.25 57.68 M63.75 57.68 C49.88 66.03, 52.91 67.65, 38.25 57.68 M38.25 57.68 C29.89 51.07, 17.16 47.02, 12.75 42.5 M38.25 57.68 C28.55 52.13, 19.24 47.48, 12.75 42.5 M12.75 42.5 C1.18 33.99, -0.03 35.47, 12.75 25.5 M12.75 42.5 C-1.71 34.38, 0.4 32.29, 12.75 25.5 M12.75 25.5 C20.67 20.04, 31.47 14.82, 38.25 8.5 M12.75 25.5 C19.71 21.03, 25.62 17.71, 38.25 8.5 M38.25 8.5 C49.36 0.4, 52.78 0.95, 63.75 8.5 M38.25 8.5 C50.22 -1.53, 53.08 -1.18, 63.75 8.5" stroke="#1e1e1e" stroke-width="1" fill="none"></path></g><g transform="translate(793.0629548624843 282.60841741841523) rotate(0 37.7764892578125 14.499988555908203)"><text x="0" y="0" font-family="Virgil, Segoe UI Emoji" font-size="23.199981689453136px" fill="#e03131" text-anchor="start" style="white-space: pre;" direction="ltr" dominant-baseline="text-before-edge">create</text></g><g stroke-linecap="round" transform="translate(788.3034259141357 262.59173521796083) rotate(0 40.725925266179615 36.81166499327878)"><path d="M51.25 9.25 C56.85 15.11, 60.31 15.37, 71.2 27.75 M51.25 9.25 C59.86 17.26, 67.25 24.69, 71.2 27.75 M71.2 27.75 C82.79 35.48, 81.76 38.64, 71.2 46.25 M71.2 27.75 C80.73 37.55, 80.58 35.61, 71.2 46.25 M71.2 46.25 C67.72 50.81, 60.59 55.58, 51.25 64.37 M71.2 46.25 C65.73 51.19, 61.43 54.47, 51.25 64.37 M51.25 64.37 C40.03 73.49, 42.66 74.91, 30.75 64.37 M51.25 64.37 C43.08 73.76, 42.72 75.48, 30.75 64.37 M30.75 64.37 C26.83 60.66, 19.44 54.34, 10.25 46.25 M30.75 64.37 C25.16 59.01, 18.28 54.2, 10.25 46.25 M10.25 46.25 C-1.49 37.33, 0.34 35.51, 10.25 27.75 M10.25 46.25 C1.02 35.1, -1.2 35.85, 10.25 27.75 M10.25 27.75 C15.36 20.72, 24.06 17.58, 30.75 9.25 M10.25 27.75 C14.94 22.79, 22.26 18, 30.75 9.25 M30.75 9.25 C40.32 -1.33, 42.81 -1.03, 51.25 9.25 M30.75 9.25 C39.24 1.3, 41.48 -1.42, 51.25 9.25" stroke="#1e1e1e" stroke-width="1" fill="none"></path></g><g stroke-linecap="round"><g transform="translate(789.3393423914474 300.7459638325031) rotate(0 -89.48912156224117 4.217423530510814)"><path d="M1.13 0.17 C-29.01 1.65, -150.17 8.4, -180.13 9.61 M0.27 -0.78 C-29.58 0.33, -148.12 6.6, -178.03 8.1" stroke="#1e1e1e" stroke-width="1" fill="none"></path></g></g><mask></mask><g transform="translate(401.1666777763421 174.4972740219696) rotate(0 35.38462829589844 15.571462631568465)"><text x="0" y="0" font-family="Virgil, Segoe UI Emoji" font-size="24.914340210509383px" fill="#2f9e44" text-anchor="start" style="white-space: pre;" direction="ltr" dominant-baseline="text-before-edge">points</text></g><g transform="translate(455.74257743205453 197.78283746811894) rotate(0 90.09221649169922 13.46148644965865)"><text x="0" y="0" font-family="Virgil, Segoe UI Emoji" font-size="21.538378319453862px" fill="#2f9e44" text-anchor="start" style="white-space: pre;" direction="ltr" dominant-baseline="text-before-edge">quizzes_resolved</text></g><g transform="translate(64.11823894312147 296.3114466182292) rotate(0 13.786048889160156 21.871684931500567)"><text x="0" y="0" font-family="Virgil, Segoe UI Emoji" font-size="34.99469589040078px" fill="#2f9e44" text-anchor="start" style="white-space: pre;" direction="ltr" dominant-baseline="text-before-edge">id</text></g><g transform="translate(152.6339803692772 159.0163791169116) rotate(0 34.504112243652344 18.524637088510417)"><text x="0" y="0" font-family="Virgil, Segoe UI Emoji" font-size="29.63941934161677px" fill="#2f9e44" text-anchor="start" style="white-space: pre;" direction="ltr" dominant-baseline="text-before-edge">email</text></g><g transform="translate(10 244.25913096928434) rotate(0 65.21559143066406 18.524637088510417)"><text x="0" y="0" font-family="Virgil, Segoe UI Emoji" font-size="29.63941934161677px" fill="#2f9e44" text-anchor="start" style="white-space: pre;" direction="ltr" dominant-baseline="text-before-edge">username</text></g><g transform="translate(254.75654167692755 165.76829517208262) rotate(0 65.30448913574219 18.524637088510417)"><text x="0" y="0" font-family="Virgil, Segoe UI Emoji" font-size="29.63941934161677px" fill="#2f9e44" text-anchor="start" style="white-space: pre;" direction="ltr" dominant-baseline="text-before-edge">password</text></g><g transform="translate(1008.9441896442177 186.55822860167018) rotate(0 12.39129638671875 19.65997446221627)"><text x="0" y="0" font-family="Virgil, Segoe UI Emoji" font-size="31.455959139545854px" fill="#2f9e44" text-anchor="start" style="white-space: pre;" direction="ltr" dominant-baseline="text-before-edge">id</text></g><g transform="translate(1747.3790734026852 292.9011308912018) rotate(0 29.333297729492188 12.90807772439507)"><text x="0" y="0" font-family="Virgil, Segoe UI Emoji" font-size="20.652924359032106px" fill="#2f9e44" text-anchor="start" style="white-space: pre;" direction="ltr" dominant-baseline="text-before-edge">points</text></g><g transform="translate(1154.1101337048458 169.67841914639257) rotate(0 60.349571228027344 12.90807772439507)"><text x="0" y="0" font-family="Virgil, Segoe UI Emoji" font-size="20.652924359032106px" fill="#2f9e44" text-anchor="start" style="white-space: pre;" direction="ltr" dominant-baseline="text-before-edge">n_questions</text></g><g transform="translate(1098.781855283486 211.1937066998953) rotate(0 23.830078125 12.90807772439507)"><text x="0" y="0" font-family="Virgil, Segoe UI Emoji" font-size="20.652924359032106px" fill="#2f9e44" text-anchor="start" style="white-space: pre;" direction="ltr" dominant-baseline="text-before-edge">clock</text></g><g transform="translate(1058.7144727396853 181.72563551401527) rotate(0 20.278282165527344 12.90807772439507)"><text x="0" y="0" font-family="Virgil, Segoe UI Emoji" font-size="20.652924359032106px" fill="#2f9e44" text-anchor="start" style="white-space: pre;" direction="ltr" dominant-baseline="text-before-edge">time</text></g><g transform="translate(1455.413812975693 188.2462172741375) rotate(0 12.39129638671875 19.65997446221627)"><text x="0" y="0" font-family="Virgil, Segoe UI Emoji" font-size="31.455959139545854px" fill="#2f9e44" text-anchor="start" style="white-space: pre;" direction="ltr" dominant-baseline="text-before-edge">id</text></g><g transform="translate(1503.520968572575 189.09023092772168) rotate(0 26.66362762451172 15.440022098396867)"><text x="0" y="0" font-family="Virgil, Segoe UI Emoji" font-size="24.704035357434815px" fill="#2f9e44" text-anchor="start" style="white-space: pre;" direction="ltr" dominant-baseline="text-before-edge">title</text></g><g transform="translate(1575.2600428534051 119.039222588759) rotate(0 40.394866943359375 12.06408338816118)"><text x="0" y="0" font-family="Virgil, Segoe UI Emoji" font-size="19.302533421057838px" fill="#2f9e44" text-anchor="start" style="white-space: pre;" direction="ltr" dominant-baseline="text-before-edge">option_b</text></g><g transform="translate(1560.9121970894794 181.4943398536666) rotate(0 41.92921447753906 12.06408338816118)"><text x="0" y="0" font-family="Virgil, Segoe UI Emoji" font-size="19.302533421057838px" fill="#2f9e44" text-anchor="start" style="white-space: pre;" direction="ltr" dominant-baseline="text-before-edge">option_a</text></g><g transform="translate(1625.899162141639 53.20816661361596) rotate(0 40.33696746826172 12.06408338816118)"><text x="0" y="0" font-family="Virgil, Segoe UI Emoji" font-size="19.302533421057838px" fill="#2f9e44" text-anchor="start" style="white-space: pre;" direction="ltr" dominant-baseline="text-before-edge">option_c</text></g><g stroke-linecap="round"><g transform="translate(1563.674492324336 355.29436760455974) rotate(0 -0.00009634288596771512 15.44753031362302)"><path d="M0.5 0.03 C0.49 5.2, 0.53 26.25, 0.41 31.34 M0.09 -0.42 C0.01 4.56, 0.33 25.36, 0.19 30.6" stroke="#1e1e1e" stroke-width="1" fill="none"></path></g></g><mask></mask><g stroke-linecap="round" transform="translate(1556.7462163279351 385.4577494289606) rotate(0 7.000007629394531 8.499984741210938)"><path d="M6.55 0.26 C7.97 -0.11, 9.47 0.29, 10.67 1.23 C11.87 2.16, 13.22 4.04, 13.75 5.88 C14.28 7.71, 14.46 10.52, 13.85 12.22 C13.24 13.93, 11.45 15.42, 10.09 16.12 C8.73 16.81, 7.14 16.8, 5.7 16.38 C4.26 15.97, 2.44 14.98, 1.43 13.61 C0.43 12.24, -0.37 10.04, -0.36 8.16 C-0.34 6.29, 0.39 3.71, 1.53 2.36 C2.68 1.01, 5.51 0.4, 6.51 0.07 C7.51 -0.26, 7.54 0.32, 7.53 0.4 M8.35 0.44 C9.58 0.62, 10.51 1.58, 11.56 2.93 C12.61 4.27, 14.54 6.8, 14.66 8.51 C14.78 10.22, 13.2 11.88, 12.29 13.2 C11.37 14.51, 10.69 15.88, 9.17 16.42 C7.66 16.96, 4.59 17.31, 3.18 16.45 C1.76 15.59, 1.15 13, 0.68 11.27 C0.22 9.53, 0.01 7.6, 0.39 6.06 C0.76 4.51, 1.71 3.07, 2.9 1.99 C4.1 0.92, 6.61 -0.06, 7.54 -0.39 C8.46 -0.73, 8.43 -0.26, 8.46 -0.02" stroke="#1e1e1e" stroke-width="1" fill="none"></path></g><g transform="translate(1489.1731228086492 410.2150857288998) rotate(0 89.01874542236328 15.440022098396867)"><text x="0" y="0" font-family="Virgil, Segoe UI Emoji" font-size="24.704035357434815px" fill="#2f9e44" text-anchor="start" style="white-space: pre;" direction="ltr" dominant-baseline="text-before-edge">correct_option</text></g><g stroke-linecap="round"><g transform="translate(869.0430155713979 302.61419499194244) rotate(0 69.24311105349312 3.8131223215168575)"><path d="M0.61 0.74 C23.86 2.04, 116.09 5.93, 138.98 7.09 M-0.53 0.08 C22.65 1.6, 115.38 6.85, 138.3 8.35" stroke="#1e1e1e" stroke-width="1" fill="none"></path></g><g transform="translate(869.0430155713979 302.61419499194244) rotate(0 69.24311105349312 3.8131223215168575)"><path d="M114.33 15.47 C121.76 14.35, 125.78 10.86, 138.3 8.35 M114.33 15.47 C122.29 13.07, 129.02 11.63, 138.3 8.35" stroke="#1e1e1e" stroke-width="1" fill="none"></path></g><g transform="translate(869.0430155713979 302.61419499194244) rotate(0 69.24311105349312 3.8131223215168575)"><path d="M115.36 -1.6 C122.42 1.66, 126.18 2.55, 138.3 8.35 M115.36 -1.6 C122.92 1.23, 129.33 5.02, 138.3 8.35" stroke="#1e1e1e" stroke-width="1" fill="none"></path></g></g><mask></mask><g transform="translate(934.1443920904183 175.26129128096954) rotate(0 28.815765380859375 20.612196052109994)"><text x="0" y="0" font-family="Virgil, Segoe UI Emoji" font-size="32.97951368337587px" fill="#9c36b5" text-anchor="start" style="white-space: pre;" direction="ltr" dominant-baseline="text-before-edge">(1,n)</text></g><g transform="translate(547.1409386798828 232.67519410450404) rotate(0 30.41516876220703 21.755079352891016)"><text x="0" y="0" font-family="Virgil, Segoe UI Emoji" font-size="34.808126964625494px" fill="#9c36b5" text-anchor="start" style="white-space: pre;" direction="ltr" dominant-baseline="text-before-edge">(1,n)</text></g><g transform="translate(768.5543646711978 30.681540720871) rotate(0 32.917945861816406 26.89792341678617)"><text x="0" y="0" font-family="Virgil, Segoe UI Emoji" font-size="43.036677466857704px" fill="#9c36b5" text-anchor="start" style="white-space: pre;" direction="ltr" dominant-baseline="text-before-edge">N:N</text></g><g transform="translate(939.8485842261191 264.17712990947894) rotate(0 24.97015380859375 17.861560434146895)"><text x="0" y="0" font-family="Virgil, Segoe UI Emoji" font-size="28.57849669463503px" fill="#9c36b5" text-anchor="start" style="white-space: pre;" direction="ltr" dominant-baseline="text-before-edge">(1,n)</text></g><g transform="translate(458.6561547754409 359.6515744158978) rotate(0 20.191497802734375 16.26688905877404)"><text x="0" y="0" font-family="Virgil, Segoe UI Emoji" font-size="26.02702249403849px" fill="#9c36b5" text-anchor="start" style="white-space: pre;" direction="ltr" dominant-baseline="text-before-edge">(1,1)</text></g><g transform="translate(813.9993734269833 221.63879871871814) rotate(0 17.48804473876953 18.897914697477972)"><text x="0" y="0" font-family="Virgil, Segoe UI Emoji" font-size="30.236663515964636px" fill="#9c36b5" text-anchor="start" style="white-space: pre;" direction="ltr" dominant-baseline="text-before-edge">1:N</text></g><g transform="translate(304.2945675660776 296.79659260094104) rotate(0 24.139732360839844 13.943531503354052)"><text x="0" y="0" font-family="Virgil, Segoe UI Emoji" font-size="22.309650405366657px" fill="#9c36b5" text-anchor="start" style="white-space: pre;" direction="ltr" dominant-baseline="text-before-edge">(0,n)</text></g><g transform="translate(1396.190760575695 263.0958939251864) rotate(0 26.543373107910156 18.987005261841432)"><text x="0" y="0" font-family="Virgil, Segoe UI Emoji" font-size="30.379208418946188px" fill="#9c36b5" text-anchor="start" style="white-space: pre;" direction="ltr" dominant-baseline="text-before-edge">(1,n)</text></g><g transform="translate(1223.36659508299 260.37429570665245) rotate(0 23.567115783691406 18.987005261841432)"><text x="0" y="0" font-family="Virgil, Segoe UI Emoji" font-size="30.379208418946188px" fill="#9c36b5" text-anchor="start" style="white-space: pre;" direction="ltr" dominant-baseline="text-before-edge">(1,1)</text></g><g transform="translate(1316.8645312262333 219.82696721095135) rotate(0 24.892845153808594 26.89792341678617)"><text x="0" y="0" font-family="Virgil, Segoe UI Emoji" font-size="43.036677466857704px" fill="#9c36b5" text-anchor="start" style="white-space: pre;" direction="ltr" dominant-baseline="text-before-edge">1:N</text></g><g stroke-linecap="round"><g transform="translate(393.7702748810116 321.07597803505314) rotate(0 -106.21960278684526 72.7288149793003)"><path d="M0.54 -0.73 C-23.2 3.84, -106.93 3.67, -142.28 27.98 C-177.62 52.29, -199.96 125.46, -211.54 145.14 M-0.64 1.51 C-24 5.67, -104.73 2.06, -139.93 26.19 C-175.13 50.32, -199.96 126.69, -211.83 146.29" stroke="#1e1e1e" stroke-width="1" fill="none"></path></g></g><mask></mask><g transform="translate(352.769520772511 354.25965419553995) rotate(0 24.139732360839844 13.943531503354052)"><text x="0" y="0" font-family="Virgil, Segoe UI Emoji" font-size="22.309650405366657px" fill="#9c36b5" text-anchor="start" style="white-space: pre;" direction="ltr" dominant-baseline="text-before-edge">(0,n)</text></g><g stroke-linecap="round"><g transform="translate(172.86961716376481 523.5587307355681) rotate(0 121.39707420727775 -83.36443985270284)"><path d="M0.9 -0.32 C34.54 -4.36, 161.03 4.09, 201.18 -23.6 C241.33 -51.3, 234.7 -142.73, 241.81 -166.49 M-0.09 -1.53 C33.52 -5.98, 159.87 1.83, 200.58 -25.42 C241.3 -52.67, 237.45 -141.21, 244.19 -165.04" stroke="#1e1e1e" stroke-width="1" fill="none"></path></g><g transform="translate(172.86961716376481 523.5587307355681) rotate(0 121.39707420727775 -83.36443985270284)"><path d="M249.59 -140.63 C247.62 -145.39, 247.81 -154.06, 244.19 -165.04 M249.59 -140.63 C247.3 -149.09, 246.82 -156.75, 244.19 -165.04" stroke="#1e1e1e" stroke-width="1" fill="none"></path></g><g transform="translate(172.86961716376481 523.5587307355681) rotate(0 121.39707420727775 -83.36443985270284)"><path d="M232.63 -142.87 C234.79 -147.22, 239.09 -155.35, 244.19 -165.04 M232.63 -142.87 C235.8 -150.69, 240.74 -157.64, 244.19 -165.04" stroke="#1e1e1e" stroke-width="1" fill="none"></path></g></g><mask></mask><g transform="translate(53.99676360516332 471.1669339048103) rotate(0 32.917945861816406 26.89792341678617)"><text x="0" y="0" font-family="Virgil, Segoe UI Emoji" font-size="43.036677466857704px" fill="#9c36b5" text-anchor="start" style="white-space: pre;" direction="ltr" dominant-baseline="text-before-edge">N:N</text></g><g transform="translate(650.5163753750576 265.2769144267977) rotate(0 24.405189514160156 19.658285162169932)"><text x="0" y="0" font-family="Virgil, Segoe UI Emoji" font-size="31.453256259471985px" fill="#9c36b5" text-anchor="start" style="white-space: pre;" direction="ltr" dominant-baseline="text-before-edge">(1,1)</text></g><g stroke-linecap="round"><g transform="translate(747.1156947647501 140.83565854464314) rotate(0 -69.65323612719979 72.44740623654252)"><path d="M0.09 0.22 C-23.27 24.68, -116.53 121.99, -139.87 145.97 M-1.33 -0.71 C-24.91 23.5, -117.83 120.12, -141.12 144.42" stroke="#1e1e1e" stroke-width="1" fill="none"></path></g><g transform="translate(747.1156947647501 140.83565854464314) rotate(0 -69.65323612719979 72.44740623654252)"><path d="M-131.01 121.55 C-134.02 127.95, -135.84 135.17, -141.12 144.42 M-131.01 121.55 C-133.4 127.13, -134.85 132.49, -141.12 144.42" stroke="#1e1e1e" stroke-width="1" fill="none"></path></g><g transform="translate(747.1156947647501 140.83565854464314) rotate(0 -69.65323612719979 72.44740623654252)"><path d="M-118.68 133.4 C-125.57 136.01, -131.34 139.42, -141.12 144.42 M-118.68 133.4 C-124.08 136.12, -128.47 138.67, -141.12 144.42" stroke="#1e1e1e" stroke-width="1" fill="none"></path></g></g><mask></mask><g stroke-linecap="round"><g transform="translate(721.0120623584744 412.1965933180013) rotate(0 -56.34447398662809 -40.92946605667521)"><path d="M-0.56 1.08 C-19.47 -12.73, -94.78 -68.72, -113.33 -82.61 M1.34 0.6 C-17.17 -13.09, -92.04 -67.83, -110.95 -81.46" stroke="#1e1e1e" stroke-width="1" fill="none"></path></g><g transform="translate(721.0120623584744 412.1965933180013) rotate(0 -56.34447398662809 -40.92946605667521)"><path d="M-86.92 -74.57 C-92.52 -77.86, -102.95 -77.46, -110.95 -81.46 M-86.92 -74.57 C-92.48 -76.24, -98.89 -78.65, -110.95 -81.46" stroke="#1e1e1e" stroke-width="1" fill="none"></path></g><g transform="translate(721.0120623584744 412.1965933180013) rotate(0 -56.34447398662809 -40.92946605667521)"><path d="M-96.97 -60.74 C-99.51 -68.23, -106.85 -72.08, -110.95 -81.46 M-96.97 -60.74 C-99.85 -66.08, -103.6 -72.16, -110.95 -81.46" stroke="#1e1e1e" stroke-width="1" fill="none"></path></g></g><mask></mask><g stroke-linecap="round"><g transform="translate(807.9576855391156 416.6665828012501) rotate(0 107.28976664460231 -28.38270349717618)"><path d="M-0.64 -0.75 C35.37 -10.46, 179.62 -47.89, 215.45 -57.19 M1.23 1.47 C37.2 -7.56, 179.58 -46.44, 214.97 -55.87" stroke="#1e1e1e" stroke-width="1" fill="none"></path></g><g transform="translate(807.9576855391156 416.6665828012501) rotate(0 107.28976664460231 -28.38270349717618)"><path d="M194.51 -41.49 C198.31 -43.56, 204.03 -48.97, 214.97 -55.87 M194.51 -41.49 C201.64 -46.57, 207.22 -51, 214.97 -55.87" stroke="#1e1e1e" stroke-width="1" fill="none"></path></g><g transform="translate(807.9576855391156 416.6665828012501) rotate(0 107.28976664460231 -28.38270349717618)"><path d="M190.06 -58 C195.13 -55.88, 201.97 -57.11, 214.97 -55.87 M190.06 -58 C198.74 -57.83, 205.73 -57.01, 214.97 -55.87" stroke="#1e1e1e" stroke-width="1" fill="none"></path></g></g><mask></mask><g stroke-linecap="round" transform="translate(719.3085464609621 378.7546084872565) rotate(0 43.0000114440918 33.999996185302734)"><path d="M55 8.5 C59.13 12.24, 65.13 18.33, 75 25.5 M55 8.5 C61.17 13.55, 68.42 18.4, 75 25.5 M75 25.5 C84.09 35.05, 85.82 33.81, 75 42.5 M75 25.5 C87.9 33.58, 88.06 32.07, 75 42.5 M75 42.5 C66.42 46.92, 61.31 54.68, 55 59.5 M75 42.5 C68.51 48.49, 63.34 52.66, 55 59.5 M55 59.5 C43.39 66.81, 42.74 69.66, 33 59.5 M55 59.5 C42.61 66.45, 41.71 65.75, 33 59.5 M33 59.5 C26.01 55.47, 18.3 47.25, 11 42.5 M33 59.5 C27.17 54.18, 21.83 50.95, 11 42.5 M11 42.5 C0.68 34.7, 0.91 35.94, 11 25.5 M11 42.5 C-0.93 33.86, 2.06 36.01, 11 25.5 M11 25.5 C16.81 23.09, 21.14 15.99, 33 8.5 M11 25.5 C16.85 20.37, 23.33 15.76, 33 8.5 M33 8.5 C45.39 0.14, 42.69 1.89, 55 8.5 M33 8.5 C42.44 2.18, 42.66 -1.35, 55 8.5" stroke="#1e1e1e" stroke-width="2" fill="none"></path></g><g transform="translate(743.2827640810065 398.00458711582814) rotate(0 23.87408447265625 14.499988555908203)"><text x="0" y="0" font-family="Virgil, Segoe UI Emoji" font-size="23.199981689453136px" fill="#e03131" text-anchor="start" style="white-space: pre;" direction="ltr" dominant-baseline="text-before-edge">likes</text></g><g transform="translate(597.5863436858708 367.3439953742327) rotate(0 26.455955505371094 18.92464764827696)"><text x="0" y="0" font-family="Virgil, Segoe UI Emoji" font-size="30.2794362372433px" fill="#9c36b5" text-anchor="start" style="white-space: pre;" direction="ltr" dominant-baseline="text-before-edge">(1,n)</text></g><g transform="translate(967.4195923390284 385.093139993623) rotate(0 24.847808837890625 17.773725089419486)"><text x="0" y="0" font-family="Virgil, Segoe UI Emoji" font-size="28.437960143071262px" fill="#9c36b5" text-anchor="start" style="white-space: pre;" direction="ltr" dominant-baseline="text-before-edge">(1,n)</text></g><g transform="translate(740.0889812631176 447.50117014611897) rotate(0 25.114944458007812 20.519278469472283)"><text x="0" y="0" font-family="Virgil, Segoe UI Emoji" font-size="32.83084555115556px" fill="#9c36b5" text-anchor="start" style="white-space: pre;" direction="ltr" dominant-baseline="text-before-edge">N:N</text></g><g stroke-linecap="round" transform="translate(875.360380947184 50.27220756480574) rotate(0 7.5 7.5)"><path d="M7.44 -0.05 C9.01 -0.13, 10.77 0.61, 12.04 1.55 C13.32 2.49, 14.65 4, 15.07 5.58 C15.5 7.16, 15.38 9.56, 14.6 11.01 C13.82 12.46, 12.02 13.73, 10.41 14.28 C8.8 14.84, 6.4 14.85, 4.93 14.33 C3.46 13.82, 2.45 12.6, 1.58 11.21 C0.71 9.82, -0.33 7.54, -0.27 6.01 C-0.21 4.48, 0.72 3.1, 1.96 2.03 C3.2 0.96, 6.23 -0.15, 7.18 -0.4 C8.12 -0.65, 7.64 0.39, 7.65 0.53 M6.69 -0.6 C8.35 -0.78, 10.62 0.59, 12.01 1.65 C13.39 2.72, 14.55 4.18, 14.99 5.8 C15.43 7.42, 15.42 9.97, 14.65 11.38 C13.88 12.78, 11.78 13.57, 10.38 14.24 C8.99 14.92, 7.82 15.86, 6.25 15.4 C4.68 14.94, 1.99 12.88, 0.95 11.48 C-0.08 10.08, -0.26 8.59, 0.05 7 C0.37 5.41, 1.79 3.13, 2.84 1.95 C3.9 0.76, 5.72 0.22, 6.38 -0.12 C7.05 -0.47, 6.79 -0.2, 6.84 -0.11" stroke="#1e1e1e" stroke-width="1" fill="none"></path></g><g transform="translate(892.349812595831 10) rotate(0 36.461448669433594 23.954288968192714)"><text x="0" y="0" font-family="Virgil, Segoe UI Emoji" font-size="19.16343117455417px" fill="#2f9e44" text-anchor="start" style="white-space: pre;" direction="ltr" dominant-baseline="text-before-edge">right</text><text x="0" y="23.954288968192714" font-family="Virgil, Segoe UI Emoji" font-size="19.16343117455417px" fill="#2f9e44" text-anchor="start" style="white-space: pre;" direction="ltr" dominant-baseline="text-before-edge">answers</text></g><g stroke-linecap="round" transform="translate(377.8804481306113 563.0419898675455) rotate(0 566.8572998046873 149.14284842354914)"><path d="M32 0 C408.68 -3.16, 784.05 -2.43, 1101.71 0 M32 0 C369.72 -0.57, 708 -0.75, 1101.71 0 M1101.71 0 C1121.82 -0.8, 1133.06 9.81, 1133.71 32 M1101.71 0 C1122.46 -1.64, 1132.39 8.65, 1133.71 32 M1133.71 32 C1133.72 94.78, 1133.89 157.81, 1133.71 266.29 M1133.71 32 C1133.86 103.81, 1134.33 176.09, 1133.71 266.29 M1133.71 266.29 C1134.19 288.05, 1122.15 298.14, 1101.71 298.29 M1133.71 266.29 C1135.62 288.62, 1124.47 298.3, 1101.71 298.29 M1101.71 298.29 C845.32 296.82, 587.07 298.17, 32 298.29 M1101.71 298.29 C873.18 295.79, 644.95 295.96, 32 298.29 M32 298.29 C10.01 297.23, -0.59 285.9, 0 266.29 M32 298.29 C8.65 298.94, -1.25 289.53, 0 266.29 M0 266.29 C-0.61 176.16, 0.95 82.15, 0 32 M0 266.29 C-0.28 198.9, -0.24 132.41, 0 32 M0 32 C-0.18 11.26, 10.21 0.68, 32 0 M0 32 C1 9.37, 12.18 2.05, 32 0" stroke="#9c36b5" stroke-width="1" fill="none"></path></g><g transform="translate(471.5948733538253 589.8992024791519) rotate(0 466.0458068847656 87.5)"><text x="0" y="0" font-family="Virgil, Segoe UI Emoji" font-size="28px" fill="#e03131" text-anchor="start" style="white-space: pre;" direction="ltr" dominant-baseline="text-before-edge">Solo los cuestionarios creados por los usuarios y usuarias van a </text><text x="0" y="35" font-family="Virgil, Segoe UI Emoji" font-size="28px" fill="#e03131" text-anchor="start" style="white-space: pre;" direction="ltr" dominant-baseline="text-before-edge">tener preguntas predefinidas y siempre iguales. El resto de juegos </text><text x="0" y="70" font-family="Virgil, Segoe UI Emoji" font-size="28px" fill="#e03131" text-anchor="start" style="white-space: pre;" direction="ltr" dominant-baseline="text-before-edge">son todos con preguntas aleatorias y lo nico que harn </text><text x="0" y="105" font-family="Virgil, Segoe UI Emoji" font-size="28px" fill="#e03131" text-anchor="start" style="white-space: pre;" direction="ltr" dominant-baseline="text-before-edge">respecto al jugador es sumarle puntos y cuestionarios resueltos.</text><text x="0" y="140" font-family="Virgil, Segoe UI Emoji" font-size="28px" fill="#e03131" text-anchor="start" style="white-space: pre;" direction="ltr" dominant-baseline="text-before-edge"></text></g><g transform="translate(470.4518592634238 759.613383561742) rotate(0 417.5078125 35)"><text x="0" y="0" font-family="Virgil, Segoe UI Emoji" font-size="28px" fill="#1e1e1e" text-anchor="start" style="white-space: pre;" direction="ltr" dominant-baseline="text-before-edge">Por tanto, solo los juegos customizados quedan reflejados </text><text x="0" y="35" font-family="Virgil, Segoe UI Emoji" font-size="28px" fill="#1e1e1e" text-anchor="start" style="white-space: pre;" direction="ltr" dominant-baseline="text-before-edge">en el diagrama E/R.</text></g><g stroke-linecap="round"><g transform="translate(1225.8805004464596 317.3277477498) rotate(0 40.57146344866078 -1.7143031529019481)"><path d="M-0.91 0.3 C12.77 -0.33, 67.73 -3.49, 81.46 -4.25 M0.81 -0.58 C14.42 -1.05, 67.33 -2.69, 80.68 -3.14" stroke="#1e1e1e" stroke-width="1" fill="none"></path></g></g><mask></mask></svg>