<svg width="219" height="165" viewBox="0 0 219 165" fill="none" xmlns="http://www.w3.org/2000/svg">
<path fill-rule="evenodd" clip-rule="evenodd" d="M25.8563 138.239C23.732 132.828 49.7951 110.462 49.1489 121.821C45.9542 124.479 28.469 146.125 25.8563 138.239Z" fill="black"/>
<path fill-rule="evenodd" clip-rule="evenodd" d="M28.6267 81.0991C41.831 83.3441 4.86577 95.9369 1.08704 95.2546C-6.06783 90.8574 24.2753 80.9018 28.6267 81.0991Z" fill="black"/>
<path fill-rule="evenodd" clip-rule="evenodd" d="M196.649 15.8058C193.907 23.3666 180.611 35.2663 171.779 35.9233C165.028 31.3173 191.611 15.7462 196.649 15.8058Z" fill="black"/>
<path fill-rule="evenodd" clip-rule="evenodd" d="M136.708 151.872C136.427 157.139 135.588 171.926 128.318 161.178C122.582 146.119 136.06 134.949 136.708 151.872Z" fill="black"/>
<path fill-rule="evenodd" clip-rule="evenodd" d="M12.2828 37.4225C18.6581 38.4167 24.5076 42.0177 29.5326 45.6216C32.8301 47.1543 35.2976 53.9114 29.4335 52.5711C25.1908 50.2148 21.0323 47.7357 16.8214 45.3337C14.4008 43.9697 11.9266 42.7204 9.10539 42.1166C4.62577 39.6296 8.23685 37.1202 12.2828 37.4225Z" fill="black"/>
<path fill-rule="evenodd" clip-rule="evenodd" d="M82.8577 147.238C81.0124 152.62 76.682 161.347 70.2965 162.808C63.9373 161.261 80.1341 135.003 82.8577 147.238Z" fill="black"/>
<path fill-rule="evenodd" clip-rule="evenodd" d="M65.1692 33.4201C54.9932 34.6084 49.0543 10.7271 60.9281 18.4517C64.0362 22.2561 63.346 27.7232 66.8547 31.1287C68.5375 32.282 66.4828 33.5189 65.1692 33.4201Z" fill="black"/>
<path fill-rule="evenodd" clip-rule="evenodd" d="M106.475 15.7233C104.642 27.6699 92.3147 3.38819 97.0005 0.130788C102.975 -1.43653 105.952 11.5178 106.475 15.7233Z" fill="black"/>
<path fill-rule="evenodd" clip-rule="evenodd" d="M217.745 105.603C217.186 106.114 216.768 107.068 215.854 106.913C211.549 105.693 207.12 106.504 202.756 106.293C184.791 102.818 206.004 93.9963 217.745 105.603Z" fill="black"/>
<path fill-rule="evenodd" clip-rule="evenodd" d="M204.42 70.4394C201.726 71.0643 195.458 68.0031 200.044 66.221C206.079 65.6061 213.729 65.6939 219 67.9343C214.494 69.4723 209.197 69.4648 204.42 70.4394Z" fill="black"/>
<path fill-rule="evenodd" clip-rule="evenodd" d="M142.755 13.1217C142.505 9.7683 145.31 0.0582004 149.486 6.00238C149.804 10.3111 143.423 25.8373 142.755 13.1217Z" fill="black"/>
<path fill-rule="evenodd" clip-rule="evenodd" d="M112.255 89.218C97.4512 74.4027 102.46 62.4405 94.4541 70.4951C88.8147 76.9011 87.5105 85.1541 85.498 92.9094C84.5248 98.1366 109.597 91.387 112.255 89.218ZM127.653 80.9621C136.773 76.2462 143.648 66.4487 142.16 56.7625C134.523 52.6547 122.225 55.1381 113.921 58.15C112.641 58.6214 112.587 59.2751 113.745 60.1608C120.875 65.6247 124.841 73.0088 127.653 80.9621ZM88.4334 99.1208C78.9251 100.381 82.5402 95.9144 82.4953 89.7811C83.2399 85.6955 76.7481 88.1421 74.4676 86.1915C71.7341 83.196 78.0865 82.2671 80.3655 82.4017C83.5732 82.5255 84.2135 82.25 84.8998 79.0615C85.4783 77.1648 86.812 75.0504 86.6782 73.1223C85.8884 71.3244 81.3186 70.13 79.3801 68.7083C77.702 67.9825 78.7032 65.7171 80.3092 65.6268C83.9368 65.2022 85.7868 68.4928 88.9599 69.2393C94.2892 61.9994 101.176 63.7369 93.5898 55.0985C92.2388 53.5911 93.7862 52.3446 95.3525 51.4553C98.1804 51.3072 99.0742 55.0624 100.919 56.6133C103.548 59.0567 107.706 54.4094 110.636 53.6714C114.315 52.1183 106.562 44.9127 111.051 44.013C117.899 44.2743 114.405 50.8658 118.987 51.1266C121.876 50.0636 131.116 51.2972 131.332 48.2229C130.642 45.494 129.25 42.4029 131.871 40.1711C132.636 39.3435 134.2 39.5744 134.687 40.5961C134.866 42.4703 136.966 43.5391 136.634 45.5254C132.397 53.443 144.31 48.2857 148.396 51.3311C152.172 53.5907 145.419 54.8355 147.503 57.7128C150.566 82.9123 112.42 100.008 88.4334 99.1208Z" fill="black"/>
</svg>
