<svg version="1.1" xmlns="http://www.w3.org/2000/svg" viewBox="0 0 1208.1027029977959 603.1391522430395" width="1208.1027029977959" height="603.1391522430395" filter="invert(93%) hue-rotate(180deg)">
  <!-- svg-source:excalidraw -->
  
  <defs>
    <style class="style-fonts">
      @font-face {
        font-family: "Virgil";
        src: url("https://excalidraw.com/Virgil.woff2");
      }
      @font-face {
        font-family: "Cascadia";
        src: url("https://excalidraw.com/Cascadia.woff2");
      }
      @font-face {
        font-family: "Assistant";
        src: url("https://excalidraw.com/Assistant-Regular.woff2");
      }
    </style>
    
  </defs>
  <rect x="0" y="0" width="1208.1027029977959" height="603.1391522430395" fill="#ffffff"></rect><g transform="translate(103.82702256540966 10) rotate(0 458.4659423828125 33.31911571013654)"><text x="0" y="0" font-family="Virgil, Segoe UI Emoji" font-size="53.310585136218506px" fill="#2f9e44" text-anchor="start" style="white-space: pre;" direction="ltr" dominant-baseline="text-before-edge">Flujo de navegación - tinyquestions</text></g><g transform="translate(496.2893472459018 128.71316968459337) rotate(0 60.095481872558594 32.87614242716006)"><text x="0" y="0" font-family="Virgil, Segoe UI Emoji" font-size="52.601827883456146px" fill="#1971c2" text-anchor="start" style="white-space: pre;" direction="ltr" dominant-baseline="text-before-edge">Home</text></g><g transform="translate(521.0951211173813 281.9771807556374) rotate(0 44.68138885498047 27.117672242266508)"><text x="0" y="0" font-family="Virgil, Segoe UI Emoji" font-size="43.38827558762648px" fill="#1971c2" text-anchor="start" style="white-space: pre;" direction="ltr" dominant-baseline="text-before-edge">Play</text></g><g transform="translate(762.9512338705101 289.06455051237117) rotate(0 59.60014343261719 26.136051775242095)"><text x="0" y="0" font-family="Virgil, Segoe UI Emoji" font-size="41.81768284038743px" fill="#1971c2" text-anchor="start" style="white-space: pre;" direction="ltr" dominant-baseline="text-before-edge">About</text></g><g transform="translate(516.665550504328 366.13954960795854) rotate(0 37.75708770751953 17.11918410641715)"><text x="0" y="0" font-family="Virgil, Segoe UI Emoji" font-size="27.390694570267392px" fill="#e03131" text-anchor="start" style="white-space: pre;" direction="ltr" dominant-baseline="text-before-edge">(login)</text></g><g transform="translate(10 333.3605405221472) rotate(0 84.02547454833984 26.064793287261523)"><text x="0" y="0" font-family="Virgil, Segoe UI Emoji" font-size="41.70366925961835px" fill="#1971c2" text-anchor="start" style="white-space: pre;" direction="ltr" dominant-baseline="text-before-edge">Register</text></g><g transform="translate(494.59809096385516 490.1683784111797) rotate(0 66.2821273803711 26.06479328726141)"><text x="0" y="0" font-family="Virgil, Segoe UI Emoji" font-size="41.70366925961835px" fill="#1971c2" text-anchor="start" style="white-space: pre;" direction="ltr" dominant-baseline="text-before-edge">Games</text></g><g transform="translate(479.83145253919076 559.5306839209884) rotate(0 31.207664489746094 16.804234161025533)"><text x="0" y="0" font-family="Virgil, Segoe UI Emoji" font-size="26.886774657640817px" fill="#1971c2" text-anchor="start" style="white-space: pre;" direction="ltr" dominant-baseline="text-before-edge">quick</text></g><g transform="translate(576.5400813816128 558.6269691657567) rotate(0 19.47606658935547 15.353185749225304)"><text x="0" y="0" font-family="Virgil, Segoe UI Emoji" font-size="24.565097198760615px" fill="#1971c2" text-anchor="start" style="white-space: pre;" direction="ltr" dominant-baseline="text-before-edge">zen</text></g><g transform="translate(183.64025488364803 499.02751963728633) rotate(0 70.88997650146484 26.06479328726141)"><text x="0" y="0" font-family="Virgil, Segoe UI Emoji" font-size="41.70366925961835px" fill="#1971c2" text-anchor="start" style="white-space: pre;" direction="ltr" dominant-baseline="text-before-edge">Create</text></g><g transform="translate(653.0971040265788 152.63295643594302) rotate(0 65.29769897460938 17.11918410641715)"><text x="0" y="0" font-family="Virgil, Segoe UI Emoji" font-size="27.390694570267392px" fill="#e03131" text-anchor="start" style="white-space: pre;" direction="ltr" dominant-baseline="text-before-edge">(miniquizz)</text></g><g transform="translate(778.978178932321 480.423209510765) rotate(0 95.6180648803711 26.06479328726141)"><text x="0" y="0" font-family="Virgil, Segoe UI Emoji" font-size="41.70366925961835px" fill="#1971c2" text-anchor="start" style="white-space: pre;" direction="ltr" dominant-baseline="text-before-edge">Comunnity</text></g><g transform="translate(728.2390537207401 539.1142793813724) rotate(0 148.9037475585937 12.363722305771034)"><text x="0" y="0" font-family="Virgil, Segoe UI Emoji" font-size="19.78195568923354px" fill="#1971c2" text-anchor="start" style="white-space: pre;" direction="ltr" dominant-baseline="text-before-edge">Profile/favs/community quizzes</text></g><g transform="translate(1112.084030294505 487.51061982167676) rotate(0 42.116981506347656 26.06479328726141)"><text x="0" y="0" font-family="Virgil, Segoe UI Emoji" font-size="41.70366925961835px" fill="#1971c2" text-anchor="start" style="white-space: pre;" direction="ltr" dominant-baseline="text-before-edge">Exit</text></g><g transform="translate(1095.1711386667412 534.4642873126008) rotate(0 51.465782165527344 17.11918410641715)"><text x="0" y="0" font-family="Virgil, Segoe UI Emoji" font-size="27.390694570267392px" fill="#e03131" text-anchor="start" style="white-space: pre;" direction="ltr" dominant-baseline="text-before-edge">(logout)</text></g><g stroke-linecap="round"><g transform="translate(527.7928284428423 204.21054233097266) rotate(0 0.4551650983559057 33.12486930452769)"><path d="M-0.55 0.26 C-0.11 11.26, 1.58 54.5, 1.69 65.31 M1.37 -0.65 C1.8 10.53, 0.95 55.27, 1.15 66.35" stroke="#1e1e1e" stroke-width="1" fill="none"></path></g><g transform="translate(527.7928284428423 204.21054233097266) rotate(0 0.4551650983559057 33.12486930452769)"><path d="M-7.35 42.84 C-5.17 49.37, -5.3 51.92, 1.15 66.35 M-7.35 42.84 C-4.56 48.08, -3.36 52.7, 1.15 66.35" stroke="#1e1e1e" stroke-width="1" fill="none"></path></g><g transform="translate(527.7928284428423 204.21054233097266) rotate(0 0.4551650983559057 33.12486930452769)"><path d="M9.75 42.88 C8.15 49.32, 4.25 51.86, 1.15 66.35 M9.75 42.88 C9.01 47.94, 6.68 52.56, 1.15 66.35" stroke="#1e1e1e" stroke-width="1" fill="none"></path></g></g><mask></mask><g stroke-linecap="round"><g transform="translate(509.57822130177215 378.54247709787614) rotate(0 -148.3915482833696 -5.7584904619825465)"><path d="M0.11 -1.18 C-49.47 -3.4, -247.59 -11.03, -297.08 -12.6 M-1.3 0.81 C-51.09 -1.36, -248.79 -9.42, -298.19 -11.64" stroke="#f08c00" stroke-width="1" fill="none"></path></g><g transform="translate(509.57822130177215 378.54247709787614) rotate(0 -148.3915482833696 -5.7584904619825465)"><path d="M-274.35 -19.18 C-284.17 -17.16, -291.9 -14.3, -298.19 -11.64 M-274.35 -19.18 C-283.11 -15.5, -292.2 -14.27, -298.19 -11.64" stroke="#f08c00" stroke-width="1" fill="none"></path></g><g transform="translate(509.57822130177215 378.54247709787614) rotate(0 -148.3915482833696 -5.7584904619825465)"><path d="M-275.08 -2.09 C-284.76 -5.73, -292.25 -8.53, -298.19 -11.64 M-275.08 -2.09 C-283.53 -4.84, -292.34 -10.03, -298.19 -11.64" stroke="#f08c00" stroke-width="1" fill="none"></path></g></g><mask></mask><g transform="translate(281.896848062111 329.81687592086905) rotate(0 64.48994445800781 12.5)"><text x="0" y="0" font-family="Virgil, Segoe UI Emoji" font-size="20px" fill="#f08c00" text-anchor="start" style="white-space: pre;" direction="ltr" dominant-baseline="text-before-edge">ruta opcional</text></g><g stroke-linecap="round"><g transform="translate(550.3304656019145 402.4623044034031) rotate(0 2.214825860704309 42.0811641490717)"><path d="M-0.76 0.24 C-0.35 14.23, 2.84 70.99, 3.63 84.87 M1.03 -0.68 C1.74 12.89, 5.6 68.92, 5.92 83.12" stroke="#9c36b5" stroke-width="1" fill="none"></path></g><g transform="translate(550.3304656019145 402.4623044034031) rotate(0 2.214825860704309 42.0811641490717)"><path d="M-3.77 60.08 C0.61 67.85, 5.2 77.47, 5.92 83.12 M-3.77 60.08 C-1.51 65.32, 1.79 71.54, 5.92 83.12" stroke="#9c36b5" stroke-width="1" fill="none"></path></g><g transform="translate(550.3304656019145 402.4623044034031) rotate(0 2.214825860704309 42.0811641490717)"><path d="M13.31 59.24 C10.99 67.23, 8.88 77.18, 5.92 83.12 M13.31 59.24 C11.32 64.71, 10.38 71.14, 5.92 83.12" stroke="#9c36b5" stroke-width="1" fill="none"></path></g></g><mask></mask><g stroke-linecap="round"><g transform="translate(387.32132618463385 523.8332529545878) rotate(0 39.423405559568636 0.44297328297648164)"><path d="M0.79 0.26 C14 0.53, 66.96 0.61, 79.79 0.82 M-0.26 -0.65 C12.83 -0.1, 65.94 2.29, 79.34 2.32" stroke="#1e1e1e" stroke-width="1" fill="none"></path></g><g transform="translate(387.32132618463385 523.8332529545878) rotate(0 39.423405559568636 0.44297328297648164)"><path d="M55.63 10.24 C64.3 8.92, 71.93 2.86, 79.34 2.32 M55.63 10.24 C63.18 6.55, 73.16 4.03, 79.34 2.32" stroke="#1e1e1e" stroke-width="1" fill="none"></path></g><g transform="translate(387.32132618463385 523.8332529545878) rotate(0 39.423405559568636 0.44297328297648164)"><path d="M56.08 -6.85 C64.48 -2.27, 71.96 -2.43, 79.34 2.32 M56.08 -6.85 C63.3 -4.51, 73.12 -1.01, 79.34 2.32" stroke="#1e1e1e" stroke-width="1" fill="none"></path></g></g><mask></mask><g stroke-linecap="round"><g transform="translate(451.69129231924614 523.9079105209735) rotate(0 -39.423405559568636 0.44297328297648164)"><path d="M0.94 -0.07 C-12.51 0.14, -66.4 1.42, -79.9 1.52 M-0.02 -1.15 C-13.18 -1.31, -64.78 -0.74, -77.74 -0.27" stroke="#1e1e1e" stroke-width="1" fill="none"></path></g><g transform="translate(451.69129231924614 523.9079105209735) rotate(0 -39.423405559568636 0.44297328297648164)"><path d="M-54.44 -9.32 C-63.05 -7.58, -70.41 -4.51, -77.74 -0.27 M-54.44 -9.32 C-60.04 -7.82, -66.98 -4.13, -77.74 -0.27" stroke="#1e1e1e" stroke-width="1" fill="none"></path></g><g transform="translate(451.69129231924614 523.9079105209735) rotate(0 -39.423405559568636 0.44297328297648164)"><path d="M-54.07 7.78 C-62.86 3.26, -70.35 0.09, -77.74 -0.27 M-54.07 7.78 C-59.63 4.69, -66.66 3.79, -77.74 -0.27" stroke="#1e1e1e" stroke-width="1" fill="none"></path></g></g><mask></mask><g stroke-linecap="round"><g transform="translate(673.4733072850056 512.3162720306232) rotate(0 39.423405559568664 0.44297328297648164)"><path d="M0.26 -0.27 C13.36 -0.26, 66.25 0.08, 79.45 0.31 M-1.06 -1.45 C11.86 -1.32, 65.47 0.88, 78.81 1.54" stroke="#1e1e1e" stroke-width="1" fill="none"></path></g><g transform="translate(673.4733072850056 512.3162720306232) rotate(0 39.423405559568664 0.44297328297648164)"><path d="M54.97 9.05 C63.39 7.2, 71.75 4.38, 78.81 1.54 M54.97 9.05 C61.99 5.77, 69.28 4.71, 78.81 1.54" stroke="#1e1e1e" stroke-width="1" fill="none"></path></g><g transform="translate(673.4733072850056 512.3162720306232) rotate(0 39.423405559568664 0.44297328297648164)"><path d="M55.72 -8.04 C63.91 -3.52, 71.99 0.03, 78.81 1.54 M55.72 -8.04 C62.59 -5.89, 69.64 -1.52, 78.81 1.54" stroke="#1e1e1e" stroke-width="1" fill="none"></path></g></g><mask></mask><g stroke-linecap="round"><g transform="translate(737.8432734196178 512.3909295970088) rotate(0 -39.423405559568664 0.44297328297648164)"><path d="M0.6 -0.58 C-12.49 -0.35, -65.12 0.93, -78.26 1.1 M-0.54 1.73 C-13.76 1.59, -65.87 -0.87, -78.9 -0.91" stroke="#1e1e1e" stroke-width="1" fill="none"></path></g><g transform="translate(737.8432734196178 512.3909295970088) rotate(0 -39.423405559568664 0.44297328297648164)"><path d="M-55.18 -8.8 C-63.8 -5.17, -70.11 -2.59, -78.9 -0.91 M-55.18 -8.8 C-62.18 -6.65, -68.06 -4.5, -78.9 -0.91" stroke="#1e1e1e" stroke-width="1" fill="none"></path></g><g transform="translate(737.8432734196178 512.3909295970088) rotate(0 -39.423405559568664 0.44297328297648164)"><path d="M-55.65 8.29 C-64.08 6.42, -70.24 3.49, -78.9 -0.91 M-55.65 8.29 C-62.44 6.01, -68.2 3.72, -78.9 -0.91" stroke="#1e1e1e" stroke-width="1" fill="none"></path></g></g><mask></mask><g stroke-linecap="round"><g transform="translate(1008.3508895623843 507.88670141756984) rotate(0 39.423405559568664 0.44297328297648164)"><path d="M1.19 -0.05 C14.17 -0.28, 64.9 -0.57, 77.85 -0.27 M0.35 -1.12 C13.71 -0.74, 67.08 0.5, 80.04 0.67" stroke="#1e1e1e" stroke-width="1" fill="none"></path></g><g transform="translate(1008.3508895623843 507.88670141756984) rotate(0 39.423405559568664 0.44297328297648164)"><path d="M56.39 8.77 C63.21 4.49, 68.34 3.79, 80.04 0.67 M56.39 8.77 C64.95 6.65, 74.53 2.4, 80.04 0.67" stroke="#1e1e1e" stroke-width="1" fill="none"></path></g><g transform="translate(1008.3508895623843 507.88670141756984) rotate(0 39.423405559568664 0.44297328297648164)"><path d="M56.71 -8.33 C63.6 -7.57, 68.64 -3.22, 80.04 0.67 M56.71 -8.33 C65.22 -4.08, 74.68 -1.94, 80.04 0.67" stroke="#1e1e1e" stroke-width="1" fill="none"></path></g></g><mask></mask><g stroke-linecap="round"><g transform="translate(1072.7208556969965 507.9613589839555) rotate(0 -39.423405559568664 0.44297328297648164)"><path d="M-1 -1.15 C-14.33 -0.85, -65.93 1.53, -78.83 1.76 M0.68 0.86 C-12.91 0.83, -66.5 0.04, -79.76 0.1" stroke="#1e1e1e" stroke-width="1" fill="none"></path></g><g transform="translate(1072.7208556969965 507.9613589839555) rotate(0 -39.423405559568664 0.44297328297648164)"><path d="M-56.22 -8.3 C-67.54 -5.11, -73.55 -1.01, -79.76 0.1 M-56.22 -8.3 C-61.49 -6.51, -68.58 -4.76, -79.76 0.1" stroke="#1e1e1e" stroke-width="1" fill="none"></path></g><g transform="translate(1072.7208556969965 507.9613589839555) rotate(0 -39.423405559568664 0.44297328297648164)"><path d="M-56.33 8.8 C-67.6 5.17, -73.57 2.44, -79.76 0.1 M-56.33 8.8 C-61.53 6.39, -68.6 3.94, -79.76 0.1" stroke="#1e1e1e" stroke-width="1" fill="none"></path></g></g><mask></mask><g stroke-linecap="round"><g transform="translate(649.5534799794784 312.98437781789744) rotate(0 39.423405559568664 0.44297328297648164)"><path d="M0.38 0.81 C13.72 0.93, 66.54 0.25, 79.43 0.23 M-0.88 0.2 C12.41 0.49, 65.31 1.14, 78.78 1.43" stroke="#1e1e1e" stroke-width="1" fill="none"></path></g><g transform="translate(649.5534799794784 312.98437781789744) rotate(0 39.423405559568664 0.44297328297648164)"><path d="M55.15 9.6 C62.42 8.45, 65.86 3.49, 78.78 1.43 M55.15 9.6 C62.19 6.6, 67.6 4.62, 78.78 1.43" stroke="#1e1e1e" stroke-width="1" fill="none"></path></g><g transform="translate(649.5534799794784 312.98437781789744) rotate(0 39.423405559568664 0.44297328297648164)"><path d="M55.43 -7.5 C62.57 -4.39, 65.93 -5.09, 78.78 1.43 M55.43 -7.5 C62.4 -5.66, 67.74 -2.8, 78.78 1.43" stroke="#1e1e1e" stroke-width="1" fill="none"></path></g></g><mask></mask><g stroke-linecap="round"><g transform="translate(713.9234461140907 313.0590353842831) rotate(0 -39.423405559568664 0.44297328297648164)"><path d="M0.09 -1.18 C-12.88 -0.92, -64.96 0.96, -78.01 1.26 M-1.33 0.82 C-14.35 0.73, -65.63 -0.83, -78.52 -0.66" stroke="#1e1e1e" stroke-width="1" fill="none"></path></g><g transform="translate(713.9234461140907 313.0590353842831) rotate(0 -39.423405559568664 0.44297328297648164)"><path d="M-54.93 -8.94 C-63.53 -5.2, -67.57 -3.2, -78.52 -0.66 M-54.93 -8.94 C-62.55 -6.47, -68.18 -4.6, -78.52 -0.66" stroke="#1e1e1e" stroke-width="1" fill="none"></path></g><g transform="translate(713.9234461140907 313.0590353842831) rotate(0 -39.423405559568664 0.44297328297648164)"><path d="M-55.12 8.16 C-63.63 7.1, -67.61 4.3, -78.52 -0.66 M-55.12 8.16 C-62.58 5.85, -68.15 2.92, -78.52 -0.66" stroke="#1e1e1e" stroke-width="1" fill="none"></path></g></g><mask></mask><g stroke-linecap="round"><g transform="translate(133.5864867755543 394.030829966425) rotate(0 192.68751801605677 44.29594945559836)"><path d="M0.1 0.01 C64.53 14.68, 321.4 73.31, 385.72 88.07 M-1.31 -1.03 C63.07 13.79, 320.47 74.19, 384.95 89.34" stroke="#9c36b5" stroke-width="1" fill="none"></path></g><g transform="translate(133.5864867755543 394.030829966425) rotate(0 192.68751801605677 44.29594945559836)"><path d="M360.13 92.29 C365.73 92.18, 370.45 92.03, 384.95 89.34 M360.13 92.29 C367.29 90.79, 375.59 90.58, 384.95 89.34" stroke="#9c36b5" stroke-width="1" fill="none"></path></g><g transform="translate(133.5864867755543 394.030829966425) rotate(0 192.68751801605677 44.29594945559836)"><path d="M364.03 75.65 C368.77 79.29, 372.6 82.88, 384.95 89.34 M364.03 75.65 C370.18 79.13, 377.31 83.89, 384.95 89.34" stroke="#9c36b5" stroke-width="1" fill="none"></path></g></g><mask></mask><g stroke-linecap="round"><g transform="translate(1155.4135585510023 478.65135693303773) rotate(0 -178.9557720626542 -153.39035549889127)"><path d="M0.23 0.1 C-15.1 -41.54, -31.08 -198.27, -90.9 -249.55 C-150.71 -300.82, -314.18 -297.88, -358.67 -307.53 M-1.11 -0.89 C-16.66 -42.94, -32.48 -200.57, -91.66 -251.52 C-150.84 -302.48, -311.87 -297.41, -356.18 -306.61" stroke="#9c36b5" stroke-width="1" fill="none"></path></g><g transform="translate(1155.4135585510023 478.65135693303773) rotate(0 -178.9557720626542 -153.39035549889127)"><path d="M-331.97 -312.86 C-341.16 -309.81, -350.24 -309.24, -356.18 -306.61 M-331.97 -312.86 C-337.85 -311.78, -343.23 -309.63, -356.18 -306.61" stroke="#9c36b5" stroke-width="1" fill="none"></path></g><g transform="translate(1155.4135585510023 478.65135693303773) rotate(0 -178.9557720626542 -153.39035549889127)"><path d="M-333.62 -295.84 C-342.21 -299.38, -350.65 -305.41, -356.18 -306.61 M-333.62 -295.84 C-339.11 -298.79, -344.1 -300.67, -356.18 -306.61" stroke="#9c36b5" stroke-width="1" fill="none"></path></g></g><mask></mask><g transform="translate(297.8433995991291 400.6904923798529) rotate(0 34.619956970214844 12.5)"><text x="0" y="0" font-family="Virgil, Segoe UI Emoji" font-size="20px" fill="#9c36b5" text-anchor="start" style="white-space: pre;" direction="ltr" dominant-baseline="text-before-edge">redirige</text></g><g transform="translate(577.7939980628976 420.18066796397125) rotate(0 34.619956970214844 12.5)"><text x="0" y="0" font-family="Virgil, Segoe UI Emoji" font-size="20px" fill="#9c36b5" text-anchor="start" style="white-space: pre;" direction="ltr" dominant-baseline="text-before-edge">redirige</text></g><g transform="translate(1125.2922675005166 276.6616635766311) rotate(0 34.619956970214844 12.5)"><text x="0" y="0" font-family="Virgil, Segoe UI Emoji" font-size="20px" fill="#9c36b5" text-anchor="start" style="white-space: pre;" direction="ltr" dominant-baseline="text-before-edge">redirige</text></g><g transform="translate(757.6356355831488 338.67605770115347) rotate(0 62.65458679199219 17.11918410641715)"><text x="0" y="0" font-family="Virgil, Segoe UI Emoji" font-size="27.390694570267392px" fill="#e03131" text-anchor="start" style="white-space: pre;" direction="ltr" dominant-baseline="text-before-edge">(contact)</text></g></svg>