<svg width="73" height="67" viewBox="0 0 73 67" fill="none" xmlns="http://www.w3.org/2000/svg">
<path fill-rule="evenodd" clip-rule="evenodd" d="M58.4312 59.3508C59.1898 57.2258 60.9314 55.937 63.5021 55.5177C64.6611 55.1964 62.6777 52.9227 61.8375 53.7644C60.348 54.7975 55.1418 58.0569 58.4312 59.3508ZM45.5922 42.2343C46.21 41.5648 49.5341 40.3573 48.9681 39.6552C47.8927 38.8776 46.0885 36.7633 44.6803 38.1218C44.4986 38.5109 45.4706 38.711 44.5921 38.9092C42.6859 39.3633 42.6663 39.3754 43.7662 40.6963C44.3082 41.2276 44.8082 41.9523 45.5922 42.2343ZM52.2305 51.0714C53.4949 49.8707 54.6158 48.5636 56.4184 47.8542C56.8162 47.6767 57.0394 47.3826 56.7051 47.083C56.005 46.5823 55.4014 45.1529 54.3271 45.9187C52.1528 47.099 48.7549 49.3563 52.2305 51.0714ZM67.1855 60.3962C66.6876 59.2711 66.1018 57.1014 64.1511 57.9866C62.4682 58.8047 60.1443 60.256 60.4038 62.0446C60.6983 62.6117 61.375 62.2229 61.8095 62.0165C63.4128 61.0455 65.5903 61.0866 67.1855 60.3962ZM53.7928 44.2713C53.1421 43.5214 51.4308 40.9663 50.1978 41.8352C49.2372 42.7866 46.2407 43.5601 47.2824 45.0455C47.8193 45.6675 48.4802 47.6758 49.6034 46.7347C50.7107 45.5927 52.9158 45.4312 53.7928 44.2713ZM55.798 55.997C60.1628 50.8239 63.3049 53.1359 59.0511 49.3554C57.818 48.2375 55.9439 51.2192 54.8228 51.7609C54.2721 52.3123 53.11 52.8895 53.6781 53.7137C54.3157 54.4957 54.5738 55.7343 55.798 55.997ZM45.9749 19.0151C46.498 14.0557 42.299 9.58816 38.1125 6.43243C32.5052 2.78099 24.1546 2.50498 17.7094 4.74298C6.2486 8.1715 -1.73559 18.7582 4.72773 28.4206C7.05223 33.3154 12.2906 35.7593 18.1043 37.0239C33.556 39.9383 45.8653 32.5366 45.9749 19.0151ZM40.7816 38.3131C39.959 37.704 39.5559 36.0818 38.3436 36.4292C31.829 39.4755 23.7186 40.1576 16.6295 38.1966C2.86097 35.4522 -3.32289 20.7559 4.30406 11.0002C12.5743 -0.92741 36.5147 -3.11541 45.2434 9.53377C51.8744 16.7753 48.4639 27.4759 41.8705 33.9241C41.0446 34.472 41.1759 35.0875 41.7932 35.7262C43.3151 38.5253 44.4357 32.4341 49.8885 37.0328C51.9369 38.6315 53.7288 40.4313 55.2672 42.3917C58.2387 46.3771 62.4916 49.5338 65.1898 53.6709C65.6777 55.2527 69.5756 56.4417 68.225 57.3164C67.4399 58.1864 68.7852 59.2214 68.9922 60.1384C69.3741 60.9808 70.6676 60.9598 71.4027 61.5077C73.9445 64.0648 67.7107 66.2981 65.1313 65.9674C63.6809 65.7024 61.7842 66.3516 60.6338 65.4004C57.0662 61.2806 53.7443 56.9596 50.3463 52.6954C48.0733 49.8589 45.277 47.3549 43.3176 44.3391C42.4763 42.5234 38.2594 40.072 40.7816 38.3131Z" fill="black"/>
<path d="M63.5021 55.5177L63.5826 56.0111L63.6095 56.0068L63.6357 55.9995L63.5021 55.5177ZM61.8375 53.7644L62.1225 54.1753L62.1595 54.1496L62.1914 54.1177L61.8375 53.7644ZM48.9681 39.6552L49.3574 39.3414L49.3153 39.2892L49.261 39.25L48.9681 39.6552ZM44.6803 38.1218L44.3332 37.7619L44.2665 37.8263L44.2273 37.9102L44.6803 38.1218ZM44.5921 38.9092L44.482 38.4214L44.4762 38.4228L44.5921 38.9092ZM43.7662 40.6963L43.3819 41.0163L43.3981 41.0357L43.4162 41.0534L43.7662 40.6963ZM56.4184 47.8542L56.6015 48.3195L56.6119 48.3154L56.6222 48.3108L56.4184 47.8542ZM56.7051 47.083L57.0387 46.7106L57.0183 46.6923L56.996 46.6763L56.7051 47.083ZM54.3271 45.9187L54.5656 46.3581L54.5924 46.3435L54.6173 46.3258L54.3271 45.9187ZM64.1511 57.9866L63.9444 57.5311L63.9325 57.5369L64.1511 57.9866ZM60.4038 62.0446L59.909 62.1163L59.9211 62.2L59.9601 62.275L60.4038 62.0446ZM61.8095 62.0165L62.0241 62.4681L62.0469 62.4572L62.0685 62.4441L61.8095 62.0165ZM50.1978 41.8352L49.9098 41.4265L49.8756 41.4505L49.8459 41.4799L50.1978 41.8352ZM47.2824 45.0455L46.873 45.3326L46.8875 45.3532L46.9039 45.3722L47.2824 45.0455ZM49.6034 46.7347L49.9245 47.118L49.9443 47.1014L49.9623 47.0828L49.6034 46.7347ZM59.0511 49.3554L58.7153 49.7259L58.719 49.7292L59.0511 49.3554ZM54.8228 51.7609L54.6053 51.3108L54.529 51.3476L54.4691 51.4076L54.8228 51.7609ZM53.6781 53.7137L53.2665 53.9974L53.2779 54.014L53.2906 54.0296L53.6781 53.7137ZM38.1125 6.43243L38.4135 6.03316L38.3997 6.02282L38.3853 6.01344L38.1125 6.43243ZM17.7094 4.74298L17.8527 5.222L17.8631 5.21888L17.8734 5.21531L17.7094 4.74298ZM4.72773 28.4206L5.17939 28.2061L5.16368 28.173L5.14332 28.1426L4.72773 28.4206ZM18.1043 37.0239L17.998 37.5127L18.0116 37.5152L18.1043 37.0239ZM38.3436 36.4292L38.2059 35.9485L38.1678 35.9595L38.1319 35.9763L38.3436 36.4292ZM16.6295 38.1966L16.7628 37.7147L16.7452 37.7098L16.7272 37.7063L16.6295 38.1966ZM4.30406 11.0002L4.69797 11.3081L4.70679 11.2968L4.71495 11.2851L4.30406 11.0002ZM45.2434 9.53377L44.8318 9.81775L44.8514 9.84606L44.8746 9.87144L45.2434 9.53377ZM41.8705 33.9241L42.1469 34.3407L42.1863 34.3146L42.2201 34.2815L41.8705 33.9241ZM41.7932 35.7262L42.2325 35.4873L42.2 35.4276L42.1527 35.3786L41.7932 35.7262ZM49.8885 37.0328L49.5662 37.415L49.5734 37.4211L49.5809 37.4269L49.8885 37.0328ZM55.2672 42.3917L55.6682 42.0927L55.6606 42.083L55.2672 42.3917ZM65.1898 53.6709L65.6675 53.5235L65.6469 53.4565L65.6086 53.3977L65.1898 53.6709ZM68.225 57.3164L67.9532 56.8967L67.898 56.9325L67.8539 56.9814L68.225 57.3164ZM68.9922 60.1384L68.5045 60.2485L68.5158 60.2983L68.5368 60.3448L68.9922 60.1384ZM71.4027 61.5077L71.7573 61.1552L71.7312 61.129L71.7015 61.1068L71.4027 61.5077ZM65.1313 65.9674L65.0415 66.4592L65.0546 66.4616L65.0677 66.4633L65.1313 65.9674ZM60.6338 65.4004L60.2558 65.7277L60.283 65.7592L60.3151 65.7857L60.6338 65.4004ZM50.3463 52.6954L50.7373 52.3838L50.7365 52.3828L50.3463 52.6954ZM43.3176 44.3391L42.8639 44.5493L42.8789 44.5817L42.8983 44.6115L43.3176 44.3391ZM58.9021 59.5189C59.587 57.6003 61.1516 56.4076 63.5826 56.0111L63.4216 55.0242C60.7111 55.4663 58.7926 56.8513 57.9603 59.1827L58.9021 59.5189ZM63.6357 55.9995C63.8741 55.9334 64.0906 55.7982 64.226 55.5738C64.3577 55.3553 64.3733 55.1173 64.3438 54.917C64.2874 54.5337 64.0508 54.157 63.7901 53.8692C63.5233 53.5747 63.1659 53.3008 62.7798 53.166C62.3857 53.0285 61.8767 53.0174 61.4837 53.4112L62.1914 54.1177C62.2184 54.0906 62.2724 54.0481 62.4503 54.1102C62.6362 54.175 62.8598 54.3318 63.049 54.5406C63.2443 54.7562 63.3387 54.9556 63.3545 55.0626C63.3611 55.1075 63.348 55.0932 63.3697 55.0573C63.3949 55.0154 63.4199 55.0216 63.3686 55.0358L63.6357 55.9995ZM61.5526 53.3536C60.8364 53.8502 59.1041 54.9606 57.984 56.111C57.4391 56.6707 56.9353 57.3401 56.8686 58.0291C56.8324 58.4021 56.9257 58.7695 57.1794 59.0913C57.4228 59.3999 57.7888 59.6354 58.2481 59.8161L58.6142 58.8855C58.2512 58.7427 58.0603 58.5933 57.9646 58.472C57.8793 58.3638 57.8513 58.2562 57.8639 58.1255C57.8947 57.8073 58.1688 57.3547 58.7005 56.8086C59.7336 55.7476 61.3491 54.7116 62.1225 54.1753L61.5526 53.3536ZM45.9596 42.5734C45.995 42.535 46.0738 42.4695 46.2136 42.3771C46.3474 42.2886 46.5134 42.1907 46.7043 42.0838C46.8946 41.9772 47.1017 41.8659 47.3181 41.7494C47.5328 41.6338 47.7556 41.5134 47.9701 41.3923C48.3879 41.1561 48.8161 40.8939 49.1048 40.6282C49.2458 40.4985 49.4002 40.3267 49.4792 40.1151C49.5728 39.8648 49.5497 39.58 49.3574 39.3414L48.5788 39.969C48.528 39.9059 48.5248 39.8124 48.5425 39.7651C48.5457 39.7566 48.5284 39.7996 48.4277 39.8923C48.233 40.0714 47.8977 40.2845 47.478 40.5217C47.2737 40.6372 47.0593 40.753 46.844 40.869C46.6304 40.984 46.4148 41.0997 46.2155 41.2114C46.0167 41.3228 45.826 41.4345 45.6621 41.543C45.504 41.6475 45.3438 41.7662 45.2247 41.8952L45.9596 42.5734ZM49.261 39.25C49.0112 39.0694 48.7234 38.8142 48.3632 38.513C48.0177 38.224 47.6223 37.9079 47.2059 37.6585C46.7929 37.4113 46.3192 37.2048 45.8183 37.1796C45.2932 37.1531 44.7825 37.3285 44.3332 37.7619L45.0275 38.4816C45.2822 38.2358 45.5251 38.1661 45.768 38.1783C46.035 38.1917 46.3436 38.3077 46.6921 38.5165C47.0372 38.7231 47.3824 38.9963 47.7217 39.2801C48.0463 39.5515 48.3872 39.8522 48.6751 40.0604L49.261 39.25ZM44.2273 37.9102C44.1616 38.0508 44.1427 38.2001 44.1677 38.3446C44.1913 38.4804 44.2492 38.5873 44.2994 38.6614C44.3492 38.7349 44.4046 38.7951 44.4424 38.8348C44.4933 38.8882 44.5029 38.8959 44.5249 38.9205C44.5461 38.9442 44.5152 38.9168 44.4915 38.855C44.477 38.8173 44.4612 38.7572 44.4665 38.682C44.472 38.6033 44.4989 38.5338 44.5353 38.4793C44.5975 38.3863 44.6688 38.3639 44.641 38.376C44.6243 38.3833 44.5778 38.3999 44.4821 38.4215L44.7021 39.397C44.826 39.369 44.9413 39.336 45.0403 39.2928C45.1282 39.2546 45.2691 39.181 45.3665 39.0353C45.4909 38.8493 45.4826 38.6463 45.4248 38.4961C45.3794 38.3778 45.3042 38.2917 45.2701 38.2537C45.2369 38.2165 45.1803 38.1596 45.166 38.1445C45.1532 38.1311 45.1441 38.1211 45.1372 38.113C45.1339 38.1091 45.1315 38.1062 45.1298 38.104C45.1282 38.1018 45.1275 38.1008 45.1275 38.1008C45.1313 38.1065 45.1899 38.2123 45.1334 38.3333L44.2273 37.9102ZM44.4762 38.4228C44.0096 38.534 43.6238 38.6258 43.3437 38.7207C43.2026 38.7685 43.0623 38.8255 42.9409 38.9001C42.8195 38.9749 42.6821 39.0889 42.5993 39.2651C42.4229 39.6405 42.6175 39.9968 42.7409 40.1915C42.8853 40.4192 43.1153 40.6961 43.3819 41.0163L44.1504 40.3764C43.8671 40.0361 43.6871 39.8162 43.5854 39.6559C43.4628 39.4626 43.5751 39.5398 43.5044 39.6904C43.4744 39.7541 43.4369 39.7691 43.4652 39.7517C43.4937 39.7342 43.5531 39.7056 43.6646 39.6678C43.89 39.5914 44.2215 39.5115 44.708 39.3956L44.4762 38.4228ZM43.4162 41.0534C43.5407 41.1754 43.6643 41.3101 43.802 41.4597C43.9364 41.6058 44.0831 41.7648 44.2398 41.9172C44.5531 42.2219 44.9344 42.529 45.423 42.7048L45.7614 41.7638C45.466 41.6575 45.2053 41.4613 44.9371 41.2004C44.803 41.07 44.6741 40.9306 44.5378 40.7825C44.4048 40.638 44.2627 40.4829 44.1162 40.3393L43.4162 41.0534ZM52.5749 51.434C53.8848 50.19 54.9149 48.9832 56.6015 48.3195L56.2353 47.389C54.3166 48.144 53.1049 49.5515 51.8862 50.7089L52.5749 51.434ZM56.6222 48.3108C56.8574 48.2058 57.1463 48.0248 57.2873 47.7303C57.3657 47.5665 57.3943 47.3728 57.3395 47.1727C57.2871 46.9816 57.1708 46.8289 57.0387 46.7106L56.3714 47.4554C56.4066 47.4869 56.3877 47.4833 56.3751 47.4372C56.3686 47.4137 56.366 47.3865 56.369 47.3586C56.3719 47.3315 56.3793 47.311 56.3853 47.2985C56.3956 47.277 56.3991 47.2838 56.366 47.3103C56.3348 47.3351 56.285 47.3662 56.2146 47.3976L56.6222 48.3108ZM56.996 46.6763C56.8731 46.5884 56.7391 46.4473 56.5623 46.2492C56.4005 46.068 56.2007 45.8367 55.9846 45.6486C55.7671 45.4594 55.4833 45.2682 55.1306 45.2131C54.7581 45.1549 54.3895 45.2601 54.0369 45.5115L54.6173 46.3258C54.8018 46.1943 54.9115 46.191 54.9763 46.2011C55.0608 46.2143 55.1731 46.2681 55.3283 46.4031C55.4848 46.5393 55.6344 46.7114 55.8163 46.9151C55.9831 47.102 56.187 47.3272 56.4142 47.4897L56.996 46.6763ZM54.0885 45.4792C53.5359 45.7792 52.8967 46.1523 52.3041 46.5728C51.7169 46.9894 51.1477 47.4717 50.7584 47.9967C50.3707 48.5196 50.1076 49.1624 50.3057 49.8476C50.4996 50.5181 51.0904 51.0664 52.0093 51.5198L52.4518 50.623C51.6329 50.2189 51.345 49.8419 51.2664 49.5699C51.192 49.3125 51.2626 48.9957 51.5617 48.5923C51.8592 48.1911 52.33 47.7805 52.8828 47.3883C53.4302 47 54.0311 46.6482 54.5656 46.3581L54.0885 45.4792ZM67.6427 60.1939C67.5841 60.0615 67.5237 59.9126 67.455 59.7444C67.3876 59.5791 67.3135 59.3987 67.2321 59.2166C67.0709 58.8558 66.87 58.4623 66.6053 58.1275C66.339 57.7906 65.9861 57.4855 65.5158 57.3508C65.0389 57.2142 64.5131 57.2732 63.9445 57.5312L64.3577 58.4419C64.7644 58.2573 65.0433 58.2557 65.2405 58.3121C65.4442 58.3705 65.6346 58.5121 65.8208 58.7477C66.0086 58.9852 66.1695 59.2898 66.3191 59.6246C66.3931 59.7902 66.4617 59.957 66.5292 60.1223C66.5955 60.2847 66.6623 60.4497 66.7282 60.5985L67.6427 60.1939ZM63.9325 57.5369C63.076 57.9533 62.0243 58.5452 61.2131 59.2814C60.4149 60.0057 59.7427 60.9704 59.909 62.1163L60.8986 61.9728C60.8054 61.3301 61.1655 60.6749 61.8851 60.0219C62.5916 59.3808 63.5433 58.838 64.3697 58.4362L63.9325 57.5369ZM59.9601 62.275C60.085 62.5156 60.2744 62.6917 60.5177 62.779C60.746 62.861 60.9721 62.8469 61.1523 62.8109C61.4909 62.7431 61.8469 62.5523 62.0241 62.4681L61.595 61.5648C61.3376 61.6871 61.138 61.7939 60.956 61.8303C60.8759 61.8464 60.8505 61.836 60.8555 61.8378C60.8755 61.845 60.8698 61.857 60.8475 61.8141L59.9601 62.275ZM62.0685 62.4441C62.7898 62.0074 63.6586 61.788 64.6029 61.5906C65.5154 61.3998 66.5269 61.2261 67.3841 60.8551L66.9868 59.9373C66.2489 60.2567 65.374 60.4077 64.3982 60.6117C63.4541 60.8091 62.4325 61.0546 61.5505 61.5888L62.0685 62.4441ZM54.1704 43.9437C53.896 43.6274 53.2401 42.7253 52.5562 42.082C52.2069 41.7534 51.7997 41.4392 51.3638 41.2757C50.9069 41.1042 50.3861 41.0908 49.9098 41.4265L50.4858 42.2439C50.626 42.1451 50.7815 42.1252 51.0125 42.2119C51.2646 42.3065 51.5571 42.515 51.8711 42.8104C52.5137 43.4149 53.0388 44.1653 53.4151 44.599L54.1704 43.9437ZM49.8459 41.4799C49.6588 41.6653 49.3473 41.8627 48.9416 42.0957C48.5598 42.3149 48.0991 42.5631 47.7098 42.8255C47.3283 43.0825 46.9277 43.4081 46.7169 43.8258C46.6057 44.0463 46.5453 44.2962 46.5715 44.568C46.5973 44.8369 46.7045 45.0923 46.873 45.3326L47.6918 44.7584C47.5999 44.6274 47.5728 44.5337 47.5669 44.4722C47.5613 44.4136 47.5716 44.352 47.6098 44.2762C47.698 44.1014 47.9112 43.8956 48.2686 43.6547C48.6183 43.4191 49.0218 43.2028 49.4395 42.9629C49.8332 42.7369 50.2565 42.4808 50.5497 42.1904L49.8459 41.4799ZM46.9039 45.3722C47.002 45.4859 47.1178 45.6801 47.2837 45.9595C47.4359 46.2159 47.6214 46.5267 47.8338 46.7901C48.0396 47.0453 48.3252 47.3268 48.7042 47.4358C49.1289 47.5579 49.5486 47.4329 49.9245 47.118L49.2823 46.3515C49.0966 46.507 49.0125 46.4839 48.9806 46.4747C48.9029 46.4524 48.7792 46.3694 48.6122 46.1624C48.4519 45.9636 48.3013 45.7146 48.1435 45.4489C47.9994 45.2062 47.8313 44.9162 47.6609 44.7188L46.9039 45.3722ZM49.9623 47.0828C50.4279 46.6027 51.1422 46.3138 51.9743 45.9722C52.7419 45.6572 53.6554 45.2821 54.1916 44.5729L53.3939 43.9698C53.0532 44.4204 52.4256 44.706 51.5946 45.0471C50.8281 45.3618 49.8862 45.7247 49.2444 46.3867L49.9623 47.0828ZM56.1802 56.3194C58.3031 53.8033 60.0609 53.161 60.9368 52.568C61.1471 52.4257 61.3973 52.2273 61.5095 51.9315C61.6384 51.5917 61.5387 51.2703 61.3809 51.0049C61.2284 50.7486 60.9799 50.4711 60.663 50.1582C60.3399 49.8393 59.9148 49.4541 59.3833 48.9817L58.719 49.7292C59.2509 50.2019 59.6581 50.5714 59.9604 50.8698C60.2688 51.1743 60.4386 51.3768 60.5215 51.5162C60.5991 51.6466 60.5519 51.6365 60.5745 51.5768C60.5805 51.5612 60.5657 51.6117 60.3762 51.7399C59.6533 52.2293 57.6577 53.0176 55.4159 55.6746L56.1802 56.3194ZM59.387 48.985C59.1644 48.7832 58.9094 48.6601 58.6318 48.6206C58.36 48.5819 58.0978 48.6277 57.8599 48.7125C57.3982 48.8772 56.9535 49.2172 56.5641 49.561C56.1731 49.9061 55.7712 50.3179 55.4369 50.6385C55.076 50.9848 54.803 51.2152 54.6053 51.3108L55.0404 52.2111C55.4032 52.0358 55.7849 51.6904 56.1292 51.3602C56.5002 51.0043 56.854 50.6389 57.2259 50.3106C57.5992 49.981 57.9243 49.7513 58.1959 49.6544C58.3246 49.6085 58.4199 49.6005 58.4909 49.6106C58.5562 49.6199 58.6296 49.6481 58.7153 49.7259L59.387 48.985ZM54.4691 51.4076C54.3544 51.5224 54.2047 51.6415 54.0161 51.795C53.8402 51.9382 53.6338 52.1091 53.4614 52.2981C53.291 52.485 53.1148 52.7308 53.0506 53.0352C52.9813 53.3641 53.0564 53.6928 53.2665 53.9974L54.0898 53.4299C54.0157 53.3225 54.0231 53.2699 54.0291 53.2415C54.0402 53.1887 54.0824 53.1012 54.2004 52.9719C54.3164 52.8447 54.4682 52.7164 54.6474 52.5705C54.8138 52.435 55.0159 52.2752 55.1766 52.1143L54.4691 51.4076ZM53.2906 54.0296C53.4226 54.1915 53.5413 54.3851 53.6733 54.6135C53.7991 54.8314 53.9423 55.0908 54.1037 55.3299C54.4373 55.8239 54.9034 56.3164 55.6931 56.4859L55.9029 55.5081C55.4684 55.4149 55.1934 55.1567 54.9325 54.7703C54.7966 54.5691 54.6792 54.3558 54.5391 54.1133C54.4051 53.8814 54.2525 53.6269 54.0656 53.3977L53.2906 54.0296ZM46.4722 19.0676C46.7508 16.4255 45.7672 13.9486 44.218 11.7586C42.669 9.56896 40.5283 7.62731 38.4135 6.03316L37.8115 6.8317C39.8831 8.39328 41.9352 10.2632 43.4016 12.3361C44.8678 14.4087 45.7221 16.6453 45.4777 18.9627L46.4722 19.0676ZM38.3853 6.01344C32.6172 2.25725 24.0972 1.9956 17.5454 4.27064L17.8734 5.21531C24.2119 3.01436 32.3932 3.30474 37.8396 6.85143L38.3853 6.01344ZM17.5661 4.26395C11.7408 6.00661 6.76714 9.57606 4.07053 13.9831C1.3598 18.4132 0.95997 23.6872 4.31214 28.6986L5.14332 28.1426C2.03218 23.4915 2.39278 18.641 4.92352 14.505C7.46836 10.346 12.2172 6.90787 17.8527 5.222L17.5661 4.26395ZM4.27607 28.6351C6.70406 33.7478 12.1443 36.2391 17.998 37.5125L18.2106 36.5353C12.4369 35.2794 7.4004 32.883 5.17939 28.2061L4.27607 28.6351ZM18.0116 37.5152C25.8315 38.9901 32.9072 37.8644 38.0602 34.6055C43.2277 31.3375 46.4188 25.9483 46.4749 19.0192L45.4749 19.0111C45.4215 25.6034 42.4031 30.6758 37.5257 33.7603C32.6337 36.8541 25.8289 37.972 18.197 36.5326L18.0116 37.5152ZM41.0791 37.9113C40.9361 37.8053 40.7928 37.6402 40.6256 37.4149C40.4772 37.215 40.281 36.9245 40.0972 36.6977C39.9045 36.4599 39.6618 36.2062 39.3474 36.0459C39.013 35.8754 38.63 35.827 38.2059 35.9485L38.4814 36.9099C38.6634 36.8577 38.7854 36.8818 38.8932 36.9368C39.0211 37.002 39.1578 37.1268 39.3203 37.3272C39.4916 37.5386 39.6262 37.7462 39.8226 38.0109C40.0002 38.2502 40.2158 38.5163 40.484 38.7149L41.0791 37.9113ZM38.1319 35.9763C31.7263 38.9716 23.7383 39.6443 16.7628 37.7147L16.4962 38.6785C23.6989 40.6709 31.9317 39.9795 38.5554 36.8821L38.1319 35.9763ZM16.7272 37.7063C3.24675 35.0193 -2.65296 20.7107 4.69797 11.3081L3.91015 10.6922C-3.99282 20.801 2.47519 35.8851 16.5318 38.687L16.7272 37.7063ZM4.71495 11.2851C8.73609 5.48567 16.6211 2.001 24.6299 1.54989C32.6378 1.09884 40.6015 3.68735 44.8318 9.81775L45.6549 9.24979C41.1566 2.731 32.7858 0.0889228 24.5737 0.551475C16.3626 1.01397 8.14228 4.58709 3.89317 10.7153L4.71495 11.2851ZM44.8746 9.87144C48.0641 13.3546 48.8489 17.6705 48.0252 21.9315C47.1992 26.2044 44.7555 30.4032 41.5209 33.5666L42.2201 34.2815C45.5789 30.9968 48.1371 26.6212 49.007 22.1213C49.8791 17.6097 49.0536 12.9545 45.6121 9.1961L44.8746 9.87144ZM41.5941 33.5074C41.104 33.8326 40.7787 34.2622 40.7908 34.8022C40.8018 35.2974 41.0994 35.7279 41.4337 36.0737L42.1527 35.3786C41.8696 35.0858 41.793 34.8892 41.7905 34.7799C41.7891 34.7155 41.8111 34.5635 42.1469 34.3407L41.5941 33.5074ZM41.3539 35.965C41.5628 36.3492 41.8006 36.6511 42.1003 36.828C42.4251 37.0197 42.7574 37.0272 43.0597 36.9483C43.3371 36.8759 43.6057 36.7261 43.8401 36.5876C44.0936 36.4377 44.3254 36.2895 44.5972 36.1484C45.1189 35.8776 45.7119 35.6766 46.4712 35.7778C47.2415 35.8805 48.2477 36.303 49.5662 37.415L50.2109 36.6505C48.8029 35.4632 47.6243 34.9226 46.6033 34.7866C45.5713 34.649 44.7667 34.9337 44.1364 35.2609C43.8322 35.4188 43.5494 35.5978 43.3313 35.7267C43.094 35.8669 42.9339 35.9476 42.807 35.9807C42.705 36.0074 42.6575 35.9957 42.6085 35.9667C42.5343 35.9229 42.4041 35.8029 42.2325 35.4873L41.3539 35.965ZM49.5809 37.4269C51.5971 39.0005 53.3603 40.7715 54.8739 42.7004L55.6606 42.083C54.0974 40.091 52.2768 38.2625 50.1962 36.6386L49.5809 37.4269ZM54.8664 42.6906C56.3772 44.7169 58.2121 46.5303 59.9742 48.3247C61.7475 50.1306 63.4523 51.9221 64.771 53.944L65.6086 53.3977C64.2291 51.2826 62.4583 49.4272 60.6877 47.6241C58.906 45.8096 57.1287 44.0519 55.6681 42.0928L54.8664 42.6906ZM64.712 53.8182C64.8787 54.3589 65.3111 54.8082 65.7378 55.1673C66.1735 55.5341 66.6933 55.8778 67.1108 56.1689C67.3258 56.3189 67.5147 56.4552 67.6699 56.5823C67.8288 56.7126 67.9279 56.8139 67.9808 56.8887C68.0351 56.9655 67.998 56.9524 68.0105 56.884C68.0234 56.8131 68.0629 56.8257 67.9532 56.8967L68.4968 57.7361C68.7249 57.5884 68.938 57.3725 68.9943 57.063C69.0502 56.756 68.9264 56.4941 68.7975 56.3117C68.6673 56.1274 68.4868 55.959 68.3038 55.8089C68.1168 55.6557 67.9011 55.5009 67.6828 55.3487C67.2337 55.0355 66.772 54.7307 66.3818 54.4023C65.9825 54.0662 65.7447 53.7737 65.6675 53.5235L64.712 53.8182ZM67.8539 56.9814C67.5635 57.3031 67.4563 57.6674 67.4862 58.0358C67.5138 58.3763 67.6561 58.6908 67.798 58.95C67.9329 59.1963 68.1246 59.487 68.2452 59.6892C68.3846 59.9227 68.4714 60.1017 68.5045 60.2485L69.48 60.0282C69.4096 59.7166 69.2506 59.4224 69.104 59.1767C68.9387 58.8997 68.8042 58.7054 68.6751 58.4696C68.553 58.2466 68.4932 58.082 68.4829 57.955C68.4749 57.856 68.494 57.7647 68.5962 57.6514L67.8539 56.9814ZM68.5368 60.3448C68.8211 60.9719 69.4301 61.2345 69.894 61.4033C70.1732 61.505 70.3489 61.5555 70.5909 61.6481C70.8052 61.7301 70.9743 61.8121 71.1039 61.9086L71.7015 61.1068C71.4635 60.9295 71.1952 60.8086 70.9483 60.7141C70.7291 60.6302 70.4198 60.5306 70.236 60.4637C69.7739 60.2954 69.5452 60.1473 69.4477 59.932L68.5368 60.3448ZM71.0481 61.8602C71.3182 62.1319 71.4386 62.3659 71.4807 62.5555C71.5214 62.739 71.4981 62.9214 71.406 63.1156C71.2085 63.5324 70.7039 63.977 69.9515 64.3797C69.2169 64.7729 68.3194 65.0869 67.4478 65.2817C66.57 65.4779 65.7599 65.5439 65.1949 65.4714L65.0677 66.4633C65.7924 66.5562 66.7289 66.4671 67.6659 66.2576C68.6092 66.0468 69.5949 65.7047 70.4234 65.2613C71.2342 64.8274 71.9727 64.2549 72.3096 63.544C72.4849 63.1744 72.5517 62.7655 72.4569 62.3387C72.3634 61.9179 72.1227 61.5228 71.7573 61.1552L71.0481 61.8602ZM65.2212 65.4755C64.8083 65.4001 64.3777 65.3919 63.9675 65.4009C63.7616 65.4054 63.5537 65.4145 63.3535 65.4228C63.1511 65.4312 62.9555 65.4388 62.7636 65.4413C61.975 65.4514 61.3781 65.367 60.9524 65.0151L60.3151 65.7857C61.0399 66.385 61.9665 66.4516 62.7765 66.4412C62.9842 66.4385 63.1929 66.4303 63.3949 66.4219C63.5991 66.4135 63.7956 66.4049 63.9894 66.4007C64.3788 66.3921 64.7292 66.4022 65.0415 66.4592L65.2212 65.4755ZM61.0117 65.0731C57.453 60.9635 54.1426 56.6571 50.7373 52.3838L49.9553 53.007C53.346 57.2621 56.6793 61.5976 60.2558 65.7277L61.0117 65.0731ZM50.7365 52.3828C49.5875 50.949 48.3023 49.5945 47.0851 48.2491C45.86 46.8948 44.6937 45.5393 43.7369 44.0667L42.8983 44.6115C43.9009 46.1547 45.1125 47.5591 46.3436 48.9199C47.5826 50.2896 48.832 51.6053 49.9561 53.0081L50.7365 52.3828ZM43.7713 44.1289C43.5231 43.5932 43.0471 43.0457 42.5788 42.5394C42.0872 42.008 41.5861 41.5038 41.1794 40.9933C40.7668 40.4754 40.5304 40.043 40.4927 39.6885C40.4754 39.5257 40.4999 39.3784 40.5754 39.2335C40.6535 39.0835 40.8003 38.9096 41.0676 38.7232L40.4956 37.903C40.1323 38.1563 39.8592 38.4438 39.6884 38.7716C39.5151 39.1045 39.4618 39.4515 39.4983 39.7943C39.5682 40.4508 39.9657 41.0746 40.3972 41.6163C40.8346 42.1654 41.3878 42.7245 41.8447 43.2184C42.3248 43.7374 42.6915 44.1772 42.8639 44.5493L43.7713 44.1289Z" fill="black"/>
</svg>
