<svg width="164" height="147" viewBox="0 0 164 147" fill="none" xmlns="http://www.w3.org/2000/svg">
<path fill-rule="evenodd" clip-rule="evenodd" d="M120.73 29.4608C128.659 30.0557 112.117 40.0999 110.055 41.4686C107.465 41.8597 107.593 31.0816 106.651 28.9502C106.964 27.6601 108.395 28.7958 108.859 29.4164C114.267 36.5843 113.335 29.942 120.73 29.4608M122.771 26.3504C111.171 27.2241 116.612 33.9285 109.769 25.7138C107.169 23.0122 104.747 24.464 103.15 27.0523C102.875 27.6359 103.755 28.3005 102.806 28.9098C102.062 29.3874 102.233 30.2971 102.257 31.046C102.573 35.9504 104.193 40.7586 104.072 45.6839C104.011 46.6322 104.283 47.48 105.198 48.1101C108.867 50.1858 109.752 44.7216 112.481 43.7C117.977 40.3457 124.872 37.094 126.911 31.2265C127.647 28.5098 126.037 25.9281 122.771 26.3504" fill="black"/>
<path fill-rule="evenodd" clip-rule="evenodd" d="M22.4545 29.2819C25.5531 33.3907 21.0253 39.3428 20.3207 43.8288C20.0117 44.5973 19.1068 44.1456 18.6577 43.7376C14.5182 40.0144 7.892 37.4067 5.33564 32.7919C8.2078 32.8829 10.9251 34.7555 13.6036 35.5211C14.5729 35.6285 14.9564 34.6935 15.5489 34.1642C18.3715 33.0506 19.3652 30.0153 22.4545 29.2819M14.3153 33.3661C11.004 30.4696 -0.681235 25.8763 0.419269 33.3333C4.6977 39.9719 12.9175 44.026 18.919 49.4842C22.6565 53.2957 23.3628 47.0849 23.7233 44.7795C24.7405 39.5821 28.1031 34.294 26.2193 28.9977C22.9857 22.0454 16.5651 29.6669 14.3153 33.3661" fill="black"/>
<path fill-rule="evenodd" clip-rule="evenodd" d="M129.25 66.5481C128.851 62.9465 129.919 59.1712 130.075 55.5143C130.409 51.886 133.883 55.3901 134.217 57.2079C134.328 58.1325 136.198 59.5799 136.872 58.299C139.614 56.9663 143.588 56.7977 146.568 57.7965C148.822 58.5122 149.015 61.618 146.504 62.1061C140.758 63.6245 134.874 64.77 129.25 66.5481M143.693 54.293C141.767 54.1305 137.207 56.5298 136.207 54.7598C135.379 52.0383 131.821 48.3902 128.386 50.6138C124.034 55.5197 125.449 62.716 123.97 68.5462C123.315 70.3567 124.243 73.4827 126.973 71.7402C133.02 66.9519 141.716 66.9471 149.019 64.428C156.078 61.3687 150.595 53.318 143.693 54.293" fill="black"/>
<path fill-rule="evenodd" clip-rule="evenodd" d="M129.313 5.00037C131.407 -1.22878 143.952 10.3726 140.295 10.7607C136.296 9.53171 130.73 9.04471 129.313 5.00037M146.274 17.7172C146.009 13.1489 145.335 8.36596 141.488 4.86475C138.09 0.699392 129.627 -2.41915 126.454 3.60823C124.158 10.1433 134.645 12.4954 140.264 13.4957C145.462 14.5235 142.127 20.5799 143.612 23.1059C146.008 22.68 145.855 19.4012 146.274 17.7172" fill="black"/>
<path fill-rule="evenodd" clip-rule="evenodd" d="M88.5784 47.179C88.6343 45.1156 86.2506 38.9035 83.408 39.8644C82.8697 41.0176 81.3658 41.8967 81.9524 43.2715C82.4255 45.5122 88.0355 53.101 88.5784 47.179" fill="black"/>
<path fill-rule="evenodd" clip-rule="evenodd" d="M106.493 140.898C107.392 138.273 102.655 134.084 101.4 138.043C101.932 140.72 103.18 143.264 103.041 146.04C103.008 146.898 103.515 147.044 104.371 146.688C106.598 145.479 106.196 142.853 106.493 140.898" fill="black"/>
<path fill-rule="evenodd" clip-rule="evenodd" d="M41 133.777C38.0417 135.146 36.7338 138.636 35.8778 141.284C36.8569 144.148 46.7912 134.212 41 133.777" fill="black"/>
<path fill-rule="evenodd" clip-rule="evenodd" d="M158.248 28.6479C156.254 28.8038 146.826 31.0631 150.094 33.0791C152.423 32.5644 165.868 30.997 158.248 28.6479" fill="black"/>
<path fill-rule="evenodd" clip-rule="evenodd" d="M105.552 59.9855C106.433 62.7629 111.616 58.4741 112.8 57.3371C114.098 52.333 105.542 57.4963 105.552 59.9855" fill="black"/>
<path fill-rule="evenodd" clip-rule="evenodd" d="M154.181 82.7075C153.382 84.5418 162.142 86.5724 163.461 86.0675C164.209 84.0742 154.523 80.0163 154.181 82.7075" fill="black"/>
</svg>
