<svg width="227" height="168" viewBox="0 0 227 168" fill="none" xmlns="http://www.w3.org/2000/svg">
<g id="Mono/Top/Grab">
<g id="Ink">
<g id="Group 3">
<path id="Fill 1" fill-rule="evenodd" clip-rule="evenodd" d="M137.373 12.472C125.133 9.40954 133.544 1.16575 142.387 0.796309C158.259 -0.515545 175.503 -0.0822987 190.214 4.86466C196.686 7.51389 206.383 9.29679 209.247 14.6956C205.443 13.5995 201.983 11.3777 197.946 10.372C188.537 7.11489 179.02 4.29023 168.545 3.81595C158.634 3.09597 146.264 1.83775 137.324 5.5751C129.564 10.7064 145.72 10.1038 149.599 9.93115C152.917 9.82211 153.917 9.80692 154.273 12.4757C153.288 13.1189 152.11 13.3398 150.806 13.281C145.74 13.1343 141.013 14.7413 136.533 16.2914C130.056 19.0371 115.085 28.8673 133.121 24.2979C135.29 24.0186 143.889 21.0589 144.914 22.5641C144.659 23.3577 146.258 24.3691 144.971 24.8665C139.923 26.5266 135.855 29.0368 132.551 32.2737C127.43 35.9846 125.371 48.2431 136.574 43.9197C142.707 39.981 147.756 35.2055 153.609 31.0093C154.492 30.559 154.947 31.4213 154.996 31.9589C155.621 33.3854 158.613 32.7884 158.656 34.7648C160.586 40.7018 161.744 46.7288 162.836 52.7734C166.374 65.1007 161.939 65.2392 176.307 58.7048C177.661 57.9533 180.393 58.5455 179.879 60.0596C179.792 60.5017 179.852 60.8713 180.156 61.2301C182.368 63.659 185.064 65.8327 187.453 68.1682C189.878 70.0891 200.006 66.4515 200.084 63.7356C200.701 61.8692 200.453 60.0393 200.132 58.1491C200.124 57.2534 201.832 57.5214 202.649 57.3015C204.152 57.1868 203.96 58.7768 204.175 59.5144C205.551 74.4976 176.043 66.8599 200.816 75.0379C208.251 77.4685 208.22 74.605 211.758 70.63C214.386 67.129 222.955 60.8319 225.771 67.5211C224.961 67.6054 224.717 67.1547 224.369 66.9126C221.42 64.7987 218.492 68.018 216.729 69.5876C215.009 71.4851 213.541 73.5067 211.933 75.4605C211.064 76.3325 212.157 76.5722 212.413 77.3069C207.028 78.6942 206.331 86.8317 205.213 90.5779C202.383 104.646 196.372 101.819 216.978 104.38C218.409 104.802 221.498 104.111 221.731 105.52C221.485 106.278 221.993 107.709 220.33 107.504C198.192 106.249 203.205 100.603 197.477 110.952C192.263 118.578 181.64 124.379 169.977 125.013C156.51 126.344 142.998 126.281 129.471 126.522C112.509 126.508 94.6447 121.456 78.2237 125.941C76.9856 128.733 107.397 129.385 102.869 132.977C96.2619 134.399 88.9057 133.142 82.5941 135.953C79.2606 137.161 79.607 137.608 83.3231 137.737C88.1477 137.987 92.9767 138.106 97.7048 138.93C104.984 141.682 94.0257 142.251 91.1509 142.433C89.136 142.506 81.408 144.369 85.2628 145.871C88.3083 147.004 91.7622 146.027 94.758 147.136C105.292 148.129 115.85 149.677 126.538 150.107C140.725 150.688 154.826 150.335 169.025 149.977C182.57 149.448 204.627 150.299 214.86 143.104C217.454 140.693 219.584 138.084 220.267 134.994C220.721 133.637 220.958 132.132 222.662 131.297C223.228 130.937 224.108 131.474 224.575 130.894C224.583 130.884 224.867 130.955 224.963 131.03C229.957 134.2 224.062 138.909 221.788 142.077C209.919 155.155 170 153.033 150.547 153.579C138.361 153.249 126.103 153.478 113.973 152.555C105.437 152.584 97.2884 150.412 88.8776 149.71C84.3343 149.683 77.2657 146.905 81.6051 143.193C82.4046 141.95 85.9842 141.883 86.0573 140.68C67.4839 139.83 76.8514 134.673 87.9572 131.671C84.1014 130.251 80.3313 130.298 76.5753 128.835C67.9471 123.985 84.1466 121.594 88.9049 121.532C105.183 120.876 121.202 124.012 137.474 123.503C159.698 123.625 187.72 125.607 196.458 106.371C200.563 97.5937 200.29 87.9835 205.139 79.3798C205.404 78.9651 205.5 78.3343 204.644 78.3296C199.825 78.3456 195.537 76.9178 191.25 75.555C184.633 72.9501 180.454 67.7335 176.222 63.3102C174.876 60.6649 166.231 68.0191 164.232 66.0453C157.441 61.5766 156.469 44.0784 154.374 36.9342C154.365 36.5763 154.138 35.9225 153.526 36.1692C146.03 39.6903 140.873 48.7135 130.573 47.0905C126.557 46.4838 122.878 40.7512 125.923 38.5472C123.749 35.2719 130.33 30.3486 132.716 27.6829C108.49 30.1049 126.931 16.2507 137.373 12.472Z" fill="black"/>
</g>
<path id="Fill 4" fill-rule="evenodd" clip-rule="evenodd" d="M80.0323 74.2677C76.0659 73.2921 74.0377 70.3318 72.3156 67.6868C70.6168 70.8389 68.59 74.5127 63.2081 74.3709C56.849 74.483 54.987 68.6733 53.2991 65.0303C51.5719 66.96 52.151 69.7026 49.6211 71.0595C44.3839 72.6802 40.9621 68.2202 38.7357 65.4042C36.1628 59.7861 35.327 53.6492 36.0401 47.7318C35.4126 32.7828 42.8604 23.0622 61.6125 17.0283C78.3058 11.4551 96.2624 7.92012 114.669 9.80543C118.6 10.2249 123.528 9.95114 126.102 12.6086C102.873 11.4257 86.7617 11.3053 64.9152 18.4324C42.861 25.7126 39.9166 34.6299 39.4803 51.3074C38.6742 54.7564 40.5153 58.0092 40.9267 61.4015C41.2816 64.5213 43.4104 67.658 46.8855 69.4574C50.0486 70.245 50.6825 57.8583 51.4307 55.8245C51.8481 54.256 51.1116 52.3921 52.3468 51.0086C53.5104 50.0628 55.4936 49.8807 55.9921 51.3691C57.0016 55.3835 56.9913 59.5462 57.6772 63.6073C58.0161 66.444 59.2744 69.3651 62.1899 71.3403C69.1393 74.2769 69.8502 60.3828 69.9063 57.3706C69.2806 50.7092 75.0372 51.2166 74.8074 57.4914C75.4283 61.6833 74.4786 66.3208 77.9638 69.9423C85.5183 76.6662 83.876 67.531 83.9101 63.7481C83.9081 60.6377 83.9681 57.5271 83.9463 54.4167C83.7765 50.5407 82.2207 45.6221 87.1551 42.9578C95.7289 38.2779 106.385 35.7564 117.042 35.5217C122.561 36.7983 114.782 38.6961 112.49 38.3927C107.671 38.2952 102.837 39.4855 98.7829 41.365C97.7619 42.176 96.2451 41.5277 95.0595 42.2141C92.3435 43.743 87.7309 44.7155 87.7472 47.7001C88.1995 53.9626 88.2744 60.2395 88.213 66.519C88.5027 70.2526 86.9034 76.6079 79.9902 74.2271C80.2508 74.3728 80.4745 74.4084 80.7543 74.2633C80.5051 74.0893 80.2927 74.1469 80.0323 74.2677Z" fill="black"/>
<path id="Fill 6" fill-rule="evenodd" clip-rule="evenodd" d="M186.99 44.5034C178.177 45.9083 170.362 30.2917 181.939 41.2797C184.406 43.2938 191.014 43.0424 191.084 39.8089C191.061 36.6001 187.361 36.0812 187.561 33.9489C191.099 30.5744 200.321 44.3491 186.99 44.5034Z" fill="black"/>
</g>
</g>
</svg>
