<svg width="67" height="71" viewBox="0 0 67 71" fill="none" xmlns="http://www.w3.org/2000/svg">
<g filter="url(#filter0_ddd_2044_3882)">
<path fill-rule="evenodd" clip-rule="evenodd" d="M31.0551 46.9067C39.3625 36.8914 48.4137 26.963 54.6825 15.7992C55.1695 7.26497 50.3788 8.15028 46.8085 14.3736C26.967 48.5767 34.9902 20.3741 14.2655 11.6563C12.5713 11.5983 13.0526 13.2207 13.7109 14.2206C19.3872 25.4331 24.3359 36.0716 31.0551 46.9067ZM31.454 19.1551C38.7055 10.3287 46.5317 -7.30656 60.718 3.464C67.9641 16.9491 55.8059 29.5446 48.7605 40.5043C45.7638 44.9545 25.1421 73.2 24.2342 57.4084C25.0305 54.0511 24.1975 51.498 22.4933 48.8441C15.3289 36.6726 8.19775 23.953 4.44897 10.3064C5.69773 -7.20483 29.5218 8.83737 31.454 19.1551Z" fill="#FFAFCC"/>
<path fill-rule="evenodd" clip-rule="evenodd" d="M31 46.9991C21.5 45.0001 21.0617 26.7229 14.7399 19.818C12.5753 17.2225 11.9621 14.1599 13 11.5001C17.7184 5.30748 28.9327 23.2895 32.4289 26.9898C34.1257 29.0877 35.6253 25.0951 36.807 24.1038C39.3174 20.7652 46.4632 15.4228 48.5 11.5001C51.6065 5.9592 58.0056 12.4688 54.5 15.9993C51.172 25.1767 41.0168 43.8807 31 46.9991Z" fill="#FFAFCC"/>
</g>
<defs>
<filter id="filter0_ddd_2044_3882" x="0.448975" y="0.0834961" width="66.4956" height="70.0776" filterUnits="userSpaceOnUse" color-interpolation-filters="sRGB">
<feFlood flood-opacity="0" result="BackgroundImageFix"/>
<feColorMatrix in="SourceAlpha" type="matrix" values="0 0 0 0 0 0 0 0 0 0 0 0 0 0 0 0 0 0 127 0" result="hardAlpha"/>
<feOffset dy="4"/>
<feGaussianBlur stdDeviation="2"/>
<feComposite in2="hardAlpha" operator="out"/>
<feColorMatrix type="matrix" values="0 0 0 0 0 0 0 0 0 0 0 0 0 0 0 0 0 0 0.25 0"/>
<feBlend mode="normal" in2="BackgroundImageFix" result="effect1_dropShadow_2044_3882"/>
<feColorMatrix in="SourceAlpha" type="matrix" values="0 0 0 0 0 0 0 0 0 0 0 0 0 0 0 0 0 0 127 0" result="hardAlpha"/>
<feOffset dy="4"/>
<feGaussianBlur stdDeviation="2"/>
<feComposite in2="hardAlpha" operator="out"/>
<feColorMatrix type="matrix" values="0 0 0 0 0 0 0 0 0 0 0 0 0 0 0 0 0 0 0.25 0"/>
<feBlend mode="normal" in2="effect1_dropShadow_2044_3882" result="effect2_dropShadow_2044_3882"/>
<feColorMatrix in="SourceAlpha" type="matrix" values="0 0 0 0 0 0 0 0 0 0 0 0 0 0 0 0 0 0 127 0" result="hardAlpha"/>
<feOffset dy="4"/>
<feGaussianBlur stdDeviation="2"/>
<feComposite in2="hardAlpha" operator="out"/>
<feColorMatrix type="matrix" values="0 0 0 0 0 0 0 0 0 0 0 0 0 0 0 0 0 0 0.25 0"/>
<feBlend mode="normal" in2="effect2_dropShadow_2044_3882" result="effect3_dropShadow_2044_3882"/>
<feBlend mode="normal" in="SourceGraphic" in2="effect3_dropShadow_2044_3882" result="shape"/>
</filter>
</defs>
</svg>
