<svg width="739.601" height="94.001" viewBox="0 0 739.601 94.001" xmlns="http://www.w3.org/2000/svg"><g id="svgGroup" stroke-linecap="round" fill-rule="evenodd" font-size="9pt" stroke="#000" stroke-width="0mm" fill="#000" style="stroke:#000;stroke-width:0mm;fill:#000"><path d="M 162.2 66.801 L 158.2 42.301 Q 157.9 40.401 157.35 39.651 A 1.912 1.912 0 0 0 156.845 39.165 Q 156.441 38.905 155.917 38.901 A 2.153 2.153 0 0 0 155.9 38.901 A 1.767 1.767 0 0 0 155.365 38.991 Q 154.901 39.139 154.35 39.528 A 6.431 6.431 0 0 0 154.25 39.601 Q 153.395 40.231 152.985 40.294 A 0.563 0.563 0 0 1 152.9 40.301 A 0.623 0.623 0 0 1 152.328 39.93 Q 152.1 39.507 152.1 38.601 Q 152.1 37.201 152.6 35.601 A 19.889 19.889 0 0 1 159.224 26.012 A 23.893 23.893 0 0 1 159.3 25.951 Q 164.2 22.001 170.7 22.001 Q 175.292 22.001 178.16 23.957 A 9.158 9.158 0 0 1 180.15 25.801 Q 183.14 29.525 184.064 37.19 A 47.933 47.933 0 0 1 184.1 37.501 L 187.1 59.501 Q 187.4 62.001 188.9 62.001 A 2.623 2.623 0 0 0 190.107 61.671 Q 191.029 61.192 192.081 60.015 A 17.565 17.565 0 0 0 193.1 58.751 A 24.913 24.913 0 0 0 194.738 56.191 Q 196.291 53.438 197.8 49.501 Q 194.8 46.801 193.2 43.301 Q 191.6 39.801 191.6 35.801 A 20.707 20.707 0 0 1 191.823 32.698 A 16.098 16.098 0 0 1 192.4 30.201 A 15.455 15.455 0 0 1 193.517 27.424 Q 194.378 25.792 195.578 24.651 A 9.16 9.16 0 0 1 196.15 24.151 Q 198.7 22.101 201.9 22.101 A 8.767 8.767 0 0 1 205.641 22.881 Q 207.542 23.765 208.95 25.651 A 12.341 12.341 0 0 1 210.896 29.688 Q 211.6 32.155 211.6 35.301 Q 211.6 40.601 209.7 46.701 A 74.065 74.065 0 0 1 198.418 69.132 A 83.659 83.659 0 0 1 197.85 69.901 A 72.271 72.271 0 0 1 185.548 82.825 A 63.989 63.989 0 0 1 179.15 87.401 A 46.488 46.488 0 0 1 169.641 92.013 A 35.281 35.281 0 0 1 158.1 94.001 Q 153.084 94.001 149.417 92.326 A 15.484 15.484 0 0 1 149.15 92.201 A 15.671 15.671 0 0 1 146.03 90.249 A 12.304 12.304 0 0 1 143.45 87.401 A 11.801 11.801 0 0 1 141.654 82.881 A 11.411 11.411 0 0 1 141.5 81.001 Q 141.5 79.547 141.969 77.813 A 17.2 17.2 0 0 1 142 77.701 A 9.353 9.353 0 0 1 143.085 75.395 A 7.516 7.516 0 0 1 145 73.401 A 8.037 8.037 0 0 1 148.834 71.965 A 10.333 10.333 0 0 1 150 71.901 A 10.96 10.96 0 0 1 153.8 72.536 A 9.637 9.637 0 0 1 157.55 75.051 Q 160.29 77.977 161.175 82.93 A 24.107 24.107 0 0 1 161.3 83.701 A 16.779 16.779 0 0 0 170.116 80.648 A 23.201 23.201 0 0 0 173.1 78.201 Q 169.671 77.595 167.44 76.244 A 9.235 9.235 0 0 1 165.55 74.751 Q 163.1 72.201 162.2 66.801 Z M 145.3 41.501 L 139.2 61.201 A 1.492 1.492 0 0 0 139.095 61.49 Q 139 61.851 139 62.401 A 2.257 2.257 0 0 0 139.041 62.846 Q 139.12 63.238 139.35 63.501 Q 139.7 63.901 140.3 63.901 A 2.46 2.46 0 0 0 142.076 63.153 A 3.541 3.541 0 0 0 142.35 62.851 A 12.147 12.147 0 0 1 142.649 62.494 Q 143.256 61.801 143.5 61.801 A 0.716 0.716 0 0 1 144.029 62.035 Q 144.13 62.14 144.218 62.291 A 1.964 1.964 0 0 1 144.3 62.451 A 3.129 3.129 0 0 1 144.534 63.21 Q 144.6 63.578 144.6 64.001 A 8.004 8.004 0 0 1 144.605 64.276 Q 144.605 66.171 143.705 68 A 11.27 11.27 0 0 1 142.7 69.651 A 12.463 12.463 0 0 1 139.865 72.428 Q 138.576 73.355 136.955 74.102 A 21.226 21.226 0 0 1 136.85 74.151 Q 133.271 75.777 128.352 75.892 A 32.334 32.334 0 0 1 127.6 75.901 A 23.226 23.226 0 0 1 123.382 75.54 Q 119.659 74.852 117.1 72.851 A 9.973 9.973 0 0 1 113.154 65.658 A 12.844 12.844 0 0 1 113.1 64.701 A 18.186 18.186 0 0 1 113.47 61.163 Q 113.804 59.478 114.442 57.642 A 34.013 34.013 0 0 1 114.9 56.401 L 120.4 42.001 Q 120.863 40.797 120.897 40.022 A 2.744 2.744 0 0 0 120.9 39.901 A 3.199 3.199 0 0 0 120.781 39.003 A 2.403 2.403 0 0 0 120.05 37.851 A 2.977 2.977 0 0 0 118.075 37.101 A 3.788 3.788 0 0 0 118 37.101 A 4.968 4.968 0 0 0 115.474 37.814 Q 114.781 38.217 114.109 38.847 A 9.878 9.878 0 0 0 113.8 39.151 Q 111.8 41.201 110.9 44.201 L 104.7 64.601 Q 104.3 65.701 104.3 66.701 Q 104.3 67.657 104.618 68.328 A 2.546 2.546 0 0 0 104.8 68.651 A 6.462 6.462 0 0 0 105.314 69.316 Q 105.694 69.751 106.2 70.201 A 7.604 7.604 0 0 1 106.599 70.566 Q 106.994 70.957 107.2 71.301 Q 107.448 71.713 107.355 72.262 A 2.215 2.215 0 0 1 107.3 72.501 Q 106.9 73.801 105.4 74.401 Q 104.163 74.895 101.771 74.982 A 29.577 29.577 0 0 1 100.7 75.001 L 77.9 75.001 A 12.658 12.658 0 0 1 76.621 74.941 Q 75.32 74.808 74.52 74.382 A 2.954 2.954 0 0 1 74.15 74.151 A 2.498 2.498 0 0 1 73.612 73.621 Q 73.133 72.967 73.267 72.079 A 2.976 2.976 0 0 1 73.3 71.901 A 2.795 2.795 0 0 1 73.899 70.908 Q 74.205 70.57 74.642 70.262 A 6.973 6.973 0 0 1 75.4 69.801 Q 76.9 69.001 77.9 67.901 A 5.3 5.3 0 0 0 78.552 66.991 Q 79.101 66.043 79.538 64.609 A 18.589 18.589 0 0 0 79.6 64.401 L 88.5 35.501 A 2.301 2.301 0 0 0 88.613 35.114 Q 88.694 34.722 88.7 34.176 A 7.874 7.874 0 0 0 88.7 34.101 A 4.342 4.342 0 0 0 88.656 33.462 Q 88.606 33.127 88.5 32.856 A 1.921 1.921 0 0 0 88.25 32.401 Q 87.844 31.859 86.989 31.073 A 23.357 23.357 0 0 0 86.8 30.901 Q 85.887 30.17 85.474 29.607 A 2.93 2.93 0 0 1 85.4 29.501 A 1.358 1.358 0 0 1 85.186 28.913 Q 85.133 28.505 85.276 27.985 A 3.786 3.786 0 0 1 85.3 27.901 Q 85.879 25.68 91.213 23.972 A 33.737 33.737 0 0 1 91.6 23.851 Q 97.3 22.101 103.5 22.101 A 14.678 14.678 0 0 1 106.789 22.448 Q 109.231 23.009 110.981 24.476 A 9.21 9.21 0 0 1 111.4 24.851 A 8.258 8.258 0 0 1 113.864 29.582 Q 114.096 30.931 114 32.501 A 34.067 34.067 0 0 1 116.878 28.876 Q 118.542 27.066 120.283 25.81 A 16.6 16.6 0 0 1 122.7 24.351 A 22.413 22.413 0 0 1 132.532 22.101 A 25.836 25.836 0 0 1 132.7 22.101 Q 138.8 22.101 142.55 25.801 A 12.445 12.445 0 0 1 146.206 33.589 A 17.048 17.048 0 0 1 146.3 35.401 Q 146.3 38.501 145.3 41.501 Z M 676.2 41.501 L 670.1 61.201 A 1.492 1.492 0 0 0 669.995 61.49 Q 669.9 61.851 669.9 62.401 A 2.257 2.257 0 0 0 669.941 62.846 Q 670.02 63.238 670.25 63.501 Q 670.6 63.901 671.2 63.901 A 2.46 2.46 0 0 0 672.976 63.153 A 3.541 3.541 0 0 0 673.25 62.851 A 12.147 12.147 0 0 1 673.549 62.494 Q 674.156 61.801 674.4 61.801 A 0.716 0.716 0 0 1 674.929 62.035 Q 675.03 62.14 675.118 62.291 A 1.964 1.964 0 0 1 675.2 62.451 A 3.129 3.129 0 0 1 675.434 63.21 Q 675.5 63.578 675.5 64.001 A 8.004 8.004 0 0 1 675.505 64.276 Q 675.505 66.171 674.605 68 A 11.27 11.27 0 0 1 673.6 69.651 A 12.463 12.463 0 0 1 670.765 72.428 Q 669.476 73.355 667.855 74.102 A 21.226 21.226 0 0 1 667.75 74.151 Q 664.171 75.777 659.252 75.892 A 32.334 32.334 0 0 1 658.5 75.901 A 23.226 23.226 0 0 1 654.282 75.54 Q 650.559 74.852 648 72.851 A 9.973 9.973 0 0 1 644.054 65.658 A 12.844 12.844 0 0 1 644 64.701 A 18.186 18.186 0 0 1 644.37 61.163 Q 644.704 59.478 645.342 57.642 A 34.013 34.013 0 0 1 645.8 56.401 L 651.3 42.001 Q 651.763 40.797 651.797 40.022 A 2.744 2.744 0 0 0 651.8 39.901 A 3.199 3.199 0 0 0 651.681 39.003 A 2.403 2.403 0 0 0 650.95 37.851 A 2.977 2.977 0 0 0 648.975 37.101 A 3.788 3.788 0 0 0 648.9 37.101 A 4.968 4.968 0 0 0 646.374 37.814 Q 645.681 38.217 645.009 38.847 A 9.878 9.878 0 0 0 644.7 39.151 Q 642.7 41.201 641.8 44.201 L 635.6 64.601 Q 635.2 65.701 635.2 66.701 Q 635.2 67.657 635.518 68.328 A 2.546 2.546 0 0 0 635.7 68.651 A 6.462 6.462 0 0 0 636.214 69.316 Q 636.594 69.751 637.1 70.201 A 7.604 7.604 0 0 1 637.499 70.566 Q 637.894 70.957 638.1 71.301 Q 638.348 71.713 638.255 72.262 A 2.215 2.215 0 0 1 638.2 72.501 Q 637.8 73.801 636.3 74.401 Q 635.063 74.895 632.671 74.982 A 29.577 29.577 0 0 1 631.6 75.001 L 608.8 75.001 A 12.658 12.658 0 0 1 607.521 74.941 Q 606.22 74.808 605.42 74.382 A 2.954 2.954 0 0 1 605.05 74.151 A 2.498 2.498 0 0 1 604.512 73.621 Q 604.033 72.967 604.167 72.079 A 2.976 2.976 0 0 1 604.2 71.901 A 2.795 2.795 0 0 1 604.799 70.908 Q 605.105 70.57 605.542 70.262 A 6.973 6.973 0 0 1 606.3 69.801 Q 607.8 69.001 608.8 67.901 A 5.3 5.3 0 0 0 609.452 66.991 Q 610.001 66.043 610.438 64.609 A 18.589 18.589 0 0 0 610.5 64.401 L 619.4 35.501 A 2.301 2.301 0 0 0 619.513 35.114 Q 619.594 34.722 619.6 34.176 A 7.874 7.874 0 0 0 619.6 34.101 A 4.342 4.342 0 0 0 619.556 33.462 Q 619.506 33.127 619.4 32.856 A 1.921 1.921 0 0 0 619.15 32.401 Q 618.744 31.859 617.889 31.073 A 23.357 23.357 0 0 0 617.7 30.901 Q 616.787 30.17 616.374 29.607 A 2.93 2.93 0 0 1 616.3 29.501 A 1.358 1.358 0 0 1 616.086 28.913 Q 616.033 28.505 616.176 27.985 A 3.786 3.786 0 0 1 616.2 27.901 Q 616.779 25.68 622.113 23.972 A 33.737 33.737 0 0 1 622.5 23.851 Q 628.2 22.101 634.4 22.101 A 14.678 14.678 0 0 1 637.689 22.448 Q 640.131 23.009 641.881 24.476 A 9.21 9.21 0 0 1 642.3 24.851 A 8.258 8.258 0 0 1 644.764 29.582 Q 644.996 30.931 644.9 32.501 A 34.067 34.067 0 0 1 647.778 28.876 Q 649.442 27.066 651.183 25.81 A 16.6 16.6 0 0 1 653.6 24.351 A 22.413 22.413 0 0 1 663.432 22.101 A 25.836 25.836 0 0 1 663.6 22.101 Q 669.7 22.101 673.45 25.801 A 12.445 12.445 0 0 1 677.106 33.589 A 17.048 17.048 0 0 1 677.2 35.401 Q 677.2 38.501 676.2 41.501 Z M 436.6 21.201 Q 444.9 21.201 450.95 22.701 A 34.479 34.479 0 0 1 454.774 23.872 Q 456.64 24.573 458.131 25.436 A 15.33 15.33 0 0 1 460.25 26.901 A 10.86 10.86 0 0 1 462.033 28.748 A 6.975 6.975 0 0 1 463.5 33.001 Q 463.5 36.474 460.792 38.667 A 9.035 9.035 0 0 1 460.75 38.701 Q 458 40.901 453.1 40.901 A 16.586 16.586 0 0 1 449.022 40.422 A 12.669 12.669 0 0 1 444.65 38.401 A 9.377 9.377 0 0 1 442.651 36.482 A 7.07 7.07 0 0 1 441.2 32.101 Q 441.2 30.801 441.6 29.601 A 15.687 15.687 0 0 0 440.204 29.277 Q 439.231 29.101 438.4 29.101 A 8.576 8.576 0 0 0 436.526 29.295 A 6.075 6.075 0 0 0 434.25 30.301 A 3.601 3.601 0 0 0 432.725 32.902 Q 432.694 33.168 432.694 33.452 A 5.465 5.465 0 0 0 432.7 33.701 A 4.782 4.782 0 0 0 434.102 37.088 A 7.627 7.627 0 0 0 435.3 38.101 Q 437.316 39.496 441.256 41.433 A 128.072 128.072 0 0 0 443.7 42.601 A 128.931 128.931 0 0 1 447.204 44.201 Q 448.816 44.969 450.187 45.689 A 58.894 58.894 0 0 1 451.95 46.651 Q 455.2 48.501 457.45 51.301 A 10.172 10.172 0 0 1 459.698 57.664 A 12.68 12.68 0 0 1 459.7 57.901 A 5.581 5.581 0 0 1 459.678 58.352 Q 459.623 59.014 459.431 60.156 A 58.332 58.332 0 0 1 459.3 60.901 A 14.897 14.897 0 0 1 454.055 69.085 A 22.183 22.183 0 0 1 450.4 71.501 Q 443.1 75.401 431.2 75.401 A 80.993 80.993 0 0 1 423.004 75.013 Q 415.224 74.219 409.95 71.801 A 20.082 20.082 0 0 1 406.516 69.832 Q 404.661 68.485 403.586 66.871 A 8.768 8.768 0 0 1 402.1 61.901 Q 402.1 57.601 404.7 55.401 A 8.939 8.939 0 0 1 408.387 53.564 Q 409.853 53.201 411.6 53.201 A 13.407 13.407 0 0 1 416.487 54.069 A 12.299 12.299 0 0 1 420.15 56.301 A 9.949 9.949 0 0 1 423.683 63.534 A 12.516 12.516 0 0 1 423.7 64.201 A 12.417 12.417 0 0 1 423.531 66.207 A 14.442 14.442 0 0 1 423.4 66.901 Q 425.8 67.501 428 67.501 A 7.945 7.945 0 0 0 429.964 67.269 A 5.921 5.921 0 0 0 432.3 66.101 A 4.567 4.567 0 0 0 433.95 63.027 A 6.591 6.591 0 0 0 434 62.201 A 4.733 4.733 0 0 0 432.695 59.145 A 7.141 7.141 0 0 0 431.7 58.251 A 20.79 20.79 0 0 0 430.257 57.271 Q 428.644 56.262 426.243 55.057 A 92.811 92.811 0 0 0 424.7 54.301 A 91.35 91.35 0 0 1 421.55 52.761 Q 420.065 51.997 418.811 51.269 A 42.49 42.49 0 0 1 417.3 50.351 Q 414.4 48.501 412.35 45.701 A 10.623 10.623 0 0 1 410.336 40.092 A 13.392 13.392 0 0 1 410.3 39.101 A 15.703 15.703 0 0 1 411.856 32.046 Q 413.391 28.94 416.441 26.576 A 20.346 20.346 0 0 1 417.15 26.051 Q 422.256 22.436 430.556 21.515 A 54.923 54.923 0 0 1 436.6 21.201 Z M 712.7 21.201 Q 721 21.201 727.05 22.701 A 34.479 34.479 0 0 1 730.874 23.872 Q 732.74 24.573 734.231 25.436 A 15.33 15.33 0 0 1 736.35 26.901 A 10.86 10.86 0 0 1 738.133 28.748 A 6.975 6.975 0 0 1 739.6 33.001 Q 739.6 36.474 736.892 38.667 A 9.035 9.035 0 0 1 736.85 38.701 Q 734.1 40.901 729.2 40.901 A 16.586 16.586 0 0 1 725.122 40.422 A 12.669 12.669 0 0 1 720.75 38.401 A 9.377 9.377 0 0 1 718.751 36.482 A 7.07 7.07 0 0 1 717.3 32.101 Q 717.3 30.801 717.7 29.601 A 15.687 15.687 0 0 0 716.304 29.277 Q 715.331 29.101 714.5 29.101 A 8.576 8.576 0 0 0 712.626 29.295 A 6.075 6.075 0 0 0 710.35 30.301 A 3.601 3.601 0 0 0 708.825 32.902 Q 708.794 33.168 708.794 33.452 A 5.465 5.465 0 0 0 708.8 33.701 A 4.782 4.782 0 0 0 710.202 37.088 A 7.627 7.627 0 0 0 711.4 38.101 Q 713.416 39.496 717.356 41.433 A 128.072 128.072 0 0 0 719.8 42.601 A 128.931 128.931 0 0 1 723.304 44.201 Q 724.916 44.969 726.287 45.689 A 58.894 58.894 0 0 1 728.05 46.651 Q 731.3 48.501 733.55 51.301 A 10.172 10.172 0 0 1 735.798 57.664 A 12.68 12.68 0 0 1 735.8 57.901 A 5.581 5.581 0 0 1 735.778 58.352 Q 735.723 59.014 735.531 60.156 A 58.332 58.332 0 0 1 735.4 60.901 A 14.897 14.897 0 0 1 730.155 69.085 A 22.183 22.183 0 0 1 726.5 71.501 Q 719.2 75.401 707.3 75.401 A 80.993 80.993 0 0 1 699.104 75.013 Q 691.324 74.219 686.05 71.801 A 20.082 20.082 0 0 1 682.616 69.832 Q 680.761 68.485 679.686 66.871 A 8.768 8.768 0 0 1 678.2 61.901 Q 678.2 57.601 680.8 55.401 A 8.939 8.939 0 0 1 684.487 53.564 Q 685.953 53.201 687.7 53.201 A 13.407 13.407 0 0 1 692.587 54.069 A 12.299 12.299 0 0 1 696.25 56.301 A 9.949 9.949 0 0 1 699.783 63.534 A 12.516 12.516 0 0 1 699.8 64.201 A 12.417 12.417 0 0 1 699.631 66.207 A 14.442 14.442 0 0 1 699.5 66.901 Q 701.9 67.501 704.1 67.501 A 7.945 7.945 0 0 0 706.064 67.269 A 5.921 5.921 0 0 0 708.4 66.101 A 4.567 4.567 0 0 0 710.05 63.027 A 6.591 6.591 0 0 0 710.1 62.201 A 4.733 4.733 0 0 0 708.795 59.145 A 7.141 7.141 0 0 0 707.8 58.251 A 20.79 20.79 0 0 0 706.357 57.271 Q 704.744 56.262 702.343 55.057 A 92.811 92.811 0 0 0 700.8 54.301 A 91.35 91.35 0 0 1 697.65 52.761 Q 696.165 51.997 694.911 51.269 A 42.49 42.49 0 0 1 693.4 50.351 Q 690.5 48.501 688.45 45.701 A 10.623 10.623 0 0 1 686.436 40.092 A 13.392 13.392 0 0 1 686.4 39.101 A 15.703 15.703 0 0 1 687.956 32.046 Q 689.491 28.94 692.541 26.576 A 20.346 20.346 0 0 1 693.25 26.051 Q 698.356 22.436 706.656 21.515 A 54.923 54.923 0 0 1 712.7 21.201 Z M 346.6 34.701 L 338.5 61.201 Q 338.342 61.832 338.309 62.215 A 2.163 2.163 0 0 0 338.3 62.401 A 2.257 2.257 0 0 0 338.341 62.846 Q 338.42 63.238 338.65 63.501 Q 339 63.901 339.6 63.901 A 2.46 2.46 0 0 0 341.376 63.153 A 3.541 3.541 0 0 0 341.65 62.851 A 12.147 12.147 0 0 1 341.949 62.494 Q 342.556 61.801 342.8 61.801 A 0.76 0.76 0 0 1 343.308 62 Q 343.423 62.1 343.527 62.249 A 2.082 2.082 0 0 1 343.65 62.451 A 2.852 2.852 0 0 1 343.94 63.298 A 3.923 3.923 0 0 1 344 64.001 A 7.129 7.129 0 0 1 344.005 64.255 Q 344.005 66.923 342.003 69.547 A 13.31 13.31 0 0 1 342 69.551 Q 339.9 72.301 336.1 74.101 Q 332.3 75.901 327.6 75.901 A 23.547 23.547 0 0 1 323.827 75.617 Q 321.85 75.295 320.237 74.61 A 11.649 11.649 0 0 1 318.2 73.501 Q 314.7 71.101 313.7 67.201 A 27.021 27.021 0 0 1 309.161 71.263 A 22.931 22.931 0 0 1 305.75 73.251 A 21.083 21.083 0 0 1 299.141 75.172 A 19.622 19.622 0 0 1 296.9 75.301 A 23.503 23.503 0 0 1 291.394 74.687 A 17.447 17.447 0 0 1 285.15 71.851 A 10.998 10.998 0 0 1 280.494 63.89 A 14.795 14.795 0 0 1 280.4 62.201 A 17.279 17.279 0 0 1 280.873 58.256 A 21.007 21.007 0 0 1 281.4 56.401 L 287.8 35.501 A 7.824 7.824 0 0 0 287.958 34.967 Q 288.1 34.413 288.1 34.001 A 3.934 3.934 0 0 0 288.041 33.297 Q 287.968 32.895 287.804 32.574 A 2.081 2.081 0 0 0 287.6 32.251 A 4.656 4.656 0 0 0 287.155 31.756 Q 286.725 31.338 286.1 30.901 Q 285.187 30.17 284.774 29.607 A 2.93 2.93 0 0 1 284.7 29.501 A 1.358 1.358 0 0 1 284.486 28.913 Q 284.433 28.505 284.576 27.985 A 3.786 3.786 0 0 1 284.6 27.901 Q 285.179 25.68 290.513 23.972 A 33.737 33.737 0 0 1 290.9 23.851 Q 296.6 22.101 302.8 22.101 Q 308.294 22.101 311.007 24.075 A 6.784 6.784 0 0 1 311.3 24.301 A 7.167 7.167 0 0 1 313.972 29.545 A 10.048 10.048 0 0 1 314 30.301 Q 314 32.601 313.3 34.701 L 307 55.501 Q 306.6 56.601 306.6 57.601 Q 306.6 58.625 307.028 59.274 A 2.098 2.098 0 0 0 307.4 59.701 A 2.754 2.754 0 0 0 308.657 60.316 A 3.99 3.99 0 0 0 309.5 60.401 A 5.362 5.362 0 0 0 310.903 60.226 A 4.027 4.027 0 0 0 312.6 59.301 A 6.419 6.419 0 0 0 313.35 58.467 Q 314.175 57.388 315 55.601 L 321.1 35.501 A 7.824 7.824 0 0 0 321.258 34.967 Q 321.4 34.413 321.4 34.001 A 3.934 3.934 0 0 0 321.341 33.297 Q 321.268 32.895 321.104 32.574 A 2.081 2.081 0 0 0 320.9 32.251 A 5.79 5.79 0 0 0 320.428 31.714 Q 320.034 31.316 319.5 30.901 Q 318.587 30.17 318.174 29.607 A 2.93 2.93 0 0 1 318.1 29.501 A 1.358 1.358 0 0 1 317.886 28.913 Q 317.833 28.505 317.976 27.985 A 3.786 3.786 0 0 1 318 27.901 A 2.805 2.805 0 0 1 318.788 26.55 Q 320.1 25.207 323.474 24.083 A 31.972 31.972 0 0 1 324.2 23.851 Q 329.9 22.101 336.1 22.101 A 24.396 24.396 0 0 1 339.121 22.275 Q 342.417 22.687 344.356 24.078 A 7.008 7.008 0 0 1 344.65 24.301 A 7.048 7.048 0 0 1 347.367 29.409 A 9.336 9.336 0 0 1 347.4 30.201 A 11.263 11.263 0 0 1 347.273 31.826 Q 347.153 32.645 346.92 33.563 A 23.633 23.633 0 0 1 346.6 34.701 Z M 280.1 29.201 L 266.2 75.001 Q 265.445 77.737 265.403 78.871 A 3.464 3.464 0 0 0 265.4 79.001 A 4.059 4.059 0 0 0 265.446 79.634 Q 265.572 80.433 266.05 80.801 A 1.921 1.921 0 0 0 266.583 81.08 Q 267.204 81.301 268.2 81.301 A 12.171 12.171 0 0 0 269.252 81.251 Q 269.811 81.203 270.446 81.106 A 25.892 25.892 0 0 0 271.35 80.951 A 61.415 61.415 0 0 1 271.996 80.832 Q 272.975 80.657 273.446 80.615 A 2.907 2.907 0 0 1 273.7 80.601 A 1.26 1.26 0 0 1 274.253 80.713 Q 274.785 80.97 274.88 81.811 A 3.5 3.5 0 0 1 274.9 82.201 A 4.916 4.916 0 0 1 274.405 84.281 Q 273.727 85.741 272.119 87.293 A 17.838 17.838 0 0 1 271.9 87.501 Q 268.9 90.301 264.1 92.151 Q 259.3 94.001 254.4 94.001 A 28.326 28.326 0 0 1 250.222 93.712 Q 245.981 93.079 243.3 91.051 A 9.507 9.507 0 0 1 239.461 84.089 A 13.29 13.29 0 0 1 239.4 82.801 Q 239.4 80.101 240.2 77.601 L 242.9 68.801 Q 236.7 75.301 228.2 75.301 Q 223.7 75.301 219.95 73.151 A 14.483 14.483 0 0 1 214.78 68.058 A 18.061 18.061 0 0 1 214.05 66.751 A 19.295 19.295 0 0 1 212.326 61.528 Q 211.913 59.3 211.9 56.764 A 32.19 32.19 0 0 1 211.9 56.601 Q 211.9 51.701 213.1 47.201 A 42.616 42.616 0 0 1 215.686 39.782 A 32.542 32.542 0 0 1 219.65 33.251 A 30.745 30.745 0 0 1 225.346 27.625 A 26.353 26.353 0 0 1 229.95 24.851 Q 235.8 22.101 242.1 22.101 Q 246.933 22.101 250.524 23.241 A 18.079 18.079 0 0 1 252.05 23.801 A 20.229 20.229 0 0 1 258.487 28.154 A 23.723 23.723 0 0 1 259.3 29.001 L 262.2 26.601 A 21.798 21.798 0 0 1 263.873 25.295 Q 264.754 24.678 265.596 24.242 A 11.778 11.778 0 0 1 266.2 23.951 Q 267.919 23.181 270.293 23.108 A 16.443 16.443 0 0 1 270.8 23.101 L 275.3 23.101 A 9.591 9.591 0 0 1 276.75 23.203 Q 278.222 23.429 279.15 24.151 A 3.417 3.417 0 0 1 280.479 26.639 A 4.929 4.929 0 0 1 280.5 27.101 Q 280.5 27.513 280.228 28.673 A 36.993 36.993 0 0 1 280.1 29.201 Z M 388.022 21.903 A 63.118 63.118 0 0 0 381.6 21.601 A 41.804 41.804 0 0 0 375.429 22.042 A 31.606 31.606 0 0 0 361.05 27.851 A 26.366 26.366 0 0 0 352.942 37.753 A 36.468 36.468 0 0 0 350.1 46.401 A 52.405 52.405 0 0 0 349.837 47.813 Q 349.577 49.331 349.442 50.691 A 27.686 27.686 0 0 0 349.3 53.401 A 27.417 27.417 0 0 0 349.697 58.173 A 18.149 18.149 0 0 0 356.4 69.701 A 25.235 25.235 0 0 0 366.539 74.446 A 36.026 36.026 0 0 0 374.6 75.301 Q 382.1 75.301 387.4 72.601 Q 392.7 69.901 395.4 66.051 Q 398.004 62.338 398.004 58.951 A 8.768 8.768 0 0 0 398 58.701 A 2.803 2.803 0 0 0 397.996 58.547 Q 397.933 57.401 396.9 57.401 A 2.622 2.622 0 0 0 396.672 57.411 Q 395.868 57.482 394.239 58.011 A 41.586 41.586 0 0 0 393.1 58.401 A 137.616 137.616 0 0 1 390.998 59.063 Q 388.978 59.681 387.5 60.051 A 17.716 17.716 0 0 1 387.224 60.117 A 18.994 18.994 0 0 1 382.9 60.601 A 22.315 22.315 0 0 1 380.767 60.503 Q 379.134 60.346 377.778 59.936 A 9.934 9.934 0 0 1 374.8 58.501 A 5.955 5.955 0 0 1 373.068 56.528 Q 371.937 54.481 372 51.201 Q 376.1 51.801 380.8 51.801 A 59.981 59.981 0 0 0 381.353 51.798 Q 385.475 51.76 389.108 51.153 A 35.64 35.64 0 0 0 396.95 48.951 A 18.029 18.029 0 0 0 398.866 48.022 A 12.631 12.631 0 0 0 405.3 39.501 A 12.816 12.816 0 0 0 405.574 38.043 A 15.851 15.851 0 0 0 405.7 36.001 A 11.58 11.58 0 0 0 403.332 28.814 A 15.104 15.104 0 0 0 400 25.651 A 14.662 14.662 0 0 0 398.426 24.68 Q 394.478 22.566 388.022 21.903 Z M 40.2 32.201 L 34.4 32.201 L 26.9 56.901 A 9.739 9.739 0 0 0 26.4 60.001 A 5.077 5.077 0 0 0 26.471 60.879 Q 26.666 61.986 27.4 62.501 A 3.446 3.446 0 0 0 28.386 62.967 Q 29.159 63.201 30.2 63.201 A 16.588 16.588 0 0 0 31.453 63.149 Q 32.058 63.103 32.745 63.016 A 37.823 37.823 0 0 0 34.2 62.801 A 11.841 11.841 0 0 1 35.058 62.618 Q 35.504 62.541 35.9 62.514 A 6.011 6.011 0 0 1 36.3 62.501 A 1.724 1.724 0 0 1 36.719 62.548 A 1.117 1.117 0 0 1 37.35 62.951 A 1.616 1.616 0 0 1 37.651 63.611 A 2.313 2.313 0 0 1 37.7 64.101 Q 37.8 66.101 34.75 68.951 A 20.338 20.338 0 0 1 31.545 71.369 Q 29.898 72.387 27.892 73.27 A 38.268 38.268 0 0 1 26.5 73.851 Q 21.3 75.901 15 75.901 A 24.25 24.25 0 0 1 10.507 75.509 Q 6.743 74.799 4.1 72.801 A 9.886 9.886 0 0 1 0.064 65.615 A 13.171 13.171 0 0 1 0 64.301 Q 0 61.801 0.8 59.501 L 7.2 39.701 Q 7.657 38.149 7.696 37.18 A 4.38 4.38 0 0 0 7.7 37.001 A 7.016 7.016 0 0 0 7.518 35.365 A 5.315 5.315 0 0 0 6.75 33.601 Q 5.938 32.404 4.577 31.133 A 22.967 22.967 0 0 0 4.1 30.701 A 24.041 24.041 0 0 1 3.328 29.949 Q 2.431 29.033 2 28.351 A 2.608 2.608 0 0 1 1.6 26.928 Q 1.6 26.669 1.643 26.394 A 4.163 4.163 0 0 1 1.7 26.101 A 3.281 3.281 0 0 1 3.164 24.237 A 4.355 4.355 0 0 1 3.4 24.101 A 4.534 4.534 0 0 1 4.357 23.732 Q 5.303 23.474 6.677 23.417 A 19.759 19.759 0 0 1 7.5 23.401 L 13.1 23.401 L 19.4 17.101 A 34.713 34.713 0 0 1 21.58 15.089 Q 22.671 14.17 23.695 13.497 A 14.482 14.482 0 0 1 25.45 12.501 A 12.073 12.073 0 0 1 27.957 11.659 Q 29.21 11.376 30.685 11.268 A 26.181 26.181 0 0 1 32.6 11.201 A 12.13 12.13 0 0 1 34.895 11.398 Q 38.9 12.173 38.9 16.001 Q 38.9 17.501 38.5 18.801 L 37.1 23.401 L 42.4 23.401 Q 43.688 23.401 44.585 23.768 A 3.349 3.349 0 0 1 45.35 24.201 A 2.56 2.56 0 0 1 46.384 26.06 A 3.455 3.455 0 0 1 46.4 26.401 Q 46.4 26.787 46.214 27.733 A 25.716 25.716 0 0 1 46.2 27.801 A 7.021 7.021 0 0 1 45.147 30.001 Q 43.523 32.201 40.2 32.201 Z M 505.5 32.201 L 499.7 32.201 L 492.2 56.901 A 9.739 9.739 0 0 0 491.7 60.001 A 5.077 5.077 0 0 0 491.771 60.879 Q 491.966 61.986 492.7 62.501 A 3.446 3.446 0 0 0 493.686 62.967 Q 494.459 63.201 495.5 63.201 A 16.588 16.588 0 0 0 496.753 63.149 Q 497.358 63.103 498.045 63.016 A 37.823 37.823 0 0 0 499.5 62.801 A 11.841 11.841 0 0 1 500.358 62.618 Q 500.804 62.541 501.2 62.514 A 6.011 6.011 0 0 1 501.6 62.501 A 1.724 1.724 0 0 1 502.019 62.548 A 1.117 1.117 0 0 1 502.65 62.951 A 1.616 1.616 0 0 1 502.951 63.611 A 2.313 2.313 0 0 1 503 64.101 Q 503.1 66.101 500.05 68.951 A 20.338 20.338 0 0 1 496.845 71.369 Q 495.198 72.387 493.192 73.27 A 38.268 38.268 0 0 1 491.8 73.851 Q 486.6 75.901 480.3 75.901 A 24.25 24.25 0 0 1 475.807 75.509 Q 472.043 74.799 469.4 72.801 A 9.886 9.886 0 0 1 465.364 65.615 A 13.171 13.171 0 0 1 465.3 64.301 Q 465.3 61.801 466.1 59.501 L 472.5 39.701 Q 472.957 38.149 472.996 37.18 A 4.38 4.38 0 0 0 473 37.001 A 7.016 7.016 0 0 0 472.818 35.365 A 5.315 5.315 0 0 0 472.05 33.601 Q 471.238 32.404 469.877 31.133 A 22.967 22.967 0 0 0 469.4 30.701 A 24.041 24.041 0 0 1 468.628 29.949 Q 467.731 29.033 467.3 28.351 A 2.608 2.608 0 0 1 466.9 26.928 Q 466.9 26.669 466.943 26.394 A 4.163 4.163 0 0 1 467 26.101 A 3.281 3.281 0 0 1 468.464 24.237 A 4.355 4.355 0 0 1 468.7 24.101 A 4.534 4.534 0 0 1 469.657 23.732 Q 470.603 23.474 471.977 23.417 A 19.759 19.759 0 0 1 472.8 23.401 L 478.4 23.401 L 484.7 17.101 A 34.713 34.713 0 0 1 486.88 15.089 Q 487.971 14.17 488.995 13.497 A 14.482 14.482 0 0 1 490.75 12.501 A 12.073 12.073 0 0 1 493.257 11.659 Q 494.51 11.376 495.985 11.268 A 26.181 26.181 0 0 1 497.9 11.201 A 12.13 12.13 0 0 1 500.195 11.398 Q 504.2 12.173 504.2 16.001 Q 504.2 17.501 503.8 18.801 L 502.4 23.401 L 507.7 23.401 Q 508.988 23.401 509.885 23.768 A 3.349 3.349 0 0 1 510.65 24.201 A 2.56 2.56 0 0 1 511.684 26.06 A 3.455 3.455 0 0 1 511.7 26.401 Q 511.7 26.787 511.514 27.733 A 25.716 25.716 0 0 1 511.5 27.801 A 7.021 7.021 0 0 1 510.447 30.001 Q 508.823 32.201 505.5 32.201 Z M 581.3 22.101 Q 594.9 22.101 601.35 27.601 A 17.794 17.794 0 0 1 607.76 40.614 A 23.498 23.498 0 0 1 607.8 42.001 A 26.683 26.683 0 0 1 607.612 45.071 Q 607.413 46.793 607 48.701 Q 605.1 56.901 599.9 63.051 Q 594.7 69.201 587.15 72.551 A 39.571 39.571 0 0 1 571.895 75.887 A 45.631 45.631 0 0 1 570.8 75.901 A 55.687 55.687 0 0 1 563.555 75.462 Q 555.03 74.34 550.25 70.351 Q 543.6 64.801 543.6 55.601 A 28.468 28.468 0 0 1 543.799 52.339 Q 543.986 50.716 544.351 48.938 A 46.752 46.752 0 0 1 544.4 48.701 Q 546.3 40.901 551.65 34.851 Q 557 28.801 564.75 25.451 Q 572.5 22.101 581.3 22.101 Z M 77.2 34.701 L 68 64.601 A 11.841 11.841 0 0 0 67.817 65.458 Q 67.74 65.904 67.714 66.3 A 6.011 6.011 0 0 0 67.7 66.701 Q 67.7 67.612 67.946 68.253 A 2.519 2.519 0 0 0 68.2 68.751 Q 68.669 69.454 69.489 70.113 A 8.911 8.911 0 0 0 69.6 70.201 Q 70.3 70.901 70.6 71.351 A 1.076 1.076 0 0 1 70.775 71.865 Q 70.799 72.144 70.705 72.483 A 2.549 2.549 0 0 1 70.7 72.501 A 3.132 3.132 0 0 1 69.318 74.099 A 4.478 4.478 0 0 1 68.7 74.401 A 6.379 6.379 0 0 1 67.668 74.704 Q 66.589 74.934 65.032 74.986 A 28.306 28.306 0 0 1 64.1 75.001 L 41.3 75.001 A 12.637 12.637 0 0 1 39.966 74.935 Q 38.605 74.79 37.774 74.323 A 3.103 3.103 0 0 1 37.5 74.151 A 2.484 2.484 0 0 1 36.997 73.687 Q 36.476 73.04 36.639 72.158 A 2.789 2.789 0 0 1 36.7 71.901 A 2.795 2.795 0 0 1 37.299 70.908 Q 37.605 70.57 38.042 70.262 A 6.973 6.973 0 0 1 38.8 69.801 Q 40.3 69.001 41.3 67.901 A 5.3 5.3 0 0 0 41.952 66.991 Q 42.501 66.043 42.938 64.609 A 18.589 18.589 0 0 0 43 64.401 L 51.7 35.501 A 7.824 7.824 0 0 0 51.858 34.967 Q 52 34.413 52 34.001 A 3.934 3.934 0 0 0 51.941 33.297 Q 51.868 32.895 51.704 32.574 A 2.081 2.081 0 0 0 51.5 32.251 A 4.656 4.656 0 0 0 51.055 31.756 Q 50.625 31.338 50 30.901 Q 49.087 30.17 48.674 29.607 A 2.93 2.93 0 0 1 48.6 29.501 A 1.358 1.358 0 0 1 48.386 28.913 Q 48.333 28.505 48.476 27.985 A 3.786 3.786 0 0 1 48.5 27.901 Q 49.079 25.68 54.413 23.972 A 33.737 33.737 0 0 1 54.8 23.851 Q 60.5 22.101 66.7 22.101 Q 72.194 22.101 74.907 24.075 A 6.784 6.784 0 0 1 75.2 24.301 A 7.167 7.167 0 0 1 77.872 29.545 A 10.048 10.048 0 0 1 77.9 30.301 Q 77.9 32.601 77.2 34.701 Z M 542.5 34.701 L 533.3 64.601 A 11.841 11.841 0 0 0 533.117 65.458 Q 533.04 65.904 533.014 66.3 A 6.011 6.011 0 0 0 533 66.701 Q 533 67.612 533.246 68.253 A 2.519 2.519 0 0 0 533.5 68.751 Q 533.969 69.454 534.789 70.113 A 8.911 8.911 0 0 0 534.9 70.201 Q 535.6 70.901 535.9 71.351 A 1.076 1.076 0 0 1 536.075 71.865 Q 536.099 72.144 536.005 72.483 A 2.549 2.549 0 0 1 536 72.501 A 3.132 3.132 0 0 1 534.618 74.099 A 4.478 4.478 0 0 1 534 74.401 A 6.379 6.379 0 0 1 532.968 74.704 Q 531.889 74.934 530.332 74.986 A 28.306 28.306 0 0 1 529.4 75.001 L 506.6 75.001 A 12.637 12.637 0 0 1 505.266 74.935 Q 503.905 74.79 503.074 74.323 A 3.103 3.103 0 0 1 502.8 74.151 A 2.484 2.484 0 0 1 502.297 73.687 Q 501.776 73.04 501.939 72.158 A 2.789 2.789 0 0 1 502 71.901 A 2.795 2.795 0 0 1 502.599 70.908 Q 502.905 70.57 503.342 70.262 A 6.973 6.973 0 0 1 504.1 69.801 Q 505.6 69.001 506.6 67.901 A 5.3 5.3 0 0 0 507.252 66.991 Q 507.801 66.043 508.238 64.609 A 18.589 18.589 0 0 0 508.3 64.401 L 517 35.501 A 7.824 7.824 0 0 0 517.158 34.967 Q 517.3 34.413 517.3 34.001 A 3.934 3.934 0 0 0 517.241 33.297 Q 517.168 32.895 517.004 32.574 A 2.081 2.081 0 0 0 516.8 32.251 A 4.656 4.656 0 0 0 516.355 31.756 Q 515.925 31.338 515.3 30.901 Q 514.387 30.17 513.974 29.607 A 2.93 2.93 0 0 1 513.9 29.501 A 1.358 1.358 0 0 1 513.686 28.913 Q 513.633 28.505 513.776 27.985 A 3.786 3.786 0 0 1 513.8 27.901 Q 514.379 25.68 519.713 23.972 A 33.737 33.737 0 0 1 520.1 23.851 Q 525.8 22.101 532 22.101 Q 537.494 22.101 540.207 24.075 A 6.784 6.784 0 0 1 540.5 24.301 A 7.167 7.167 0 0 1 543.172 29.545 A 10.048 10.048 0 0 1 543.2 30.301 Q 543.2 32.601 542.5 34.701 Z M 581 31.001 Q 578.9 31.001 576.55 34.751 Q 574.281 38.372 571.218 48.196 A 200.758 200.758 0 0 0 571 48.901 A 152.064 152.064 0 0 0 569.676 53.435 Q 567.936 59.788 567.81 63.015 A 12.441 12.441 0 0 0 567.8 63.501 A 10.879 10.879 0 0 0 567.839 64.452 Q 567.964 65.876 568.5 66.451 A 2.315 2.315 0 0 0 569.857 67.158 A 3.33 3.33 0 0 0 570.4 67.201 Q 572.5 67.401 574.75 63.601 A 24.472 24.472 0 0 0 575.927 61.294 Q 577.837 57.094 580.4 48.801 A 123.002 123.002 0 0 0 581.756 44.282 Q 583.5 38.001 583.5 34.701 Q 583.5 33.053 583.1 32.205 A 1.979 1.979 0 0 0 582.85 31.801 A 2.112 2.112 0 0 0 581.499 31.039 A 3.116 3.116 0 0 0 581 31.001 Z M 246.4 57.501 L 251.5 40.801 L 252.1 38.901 Q 252.6 37.301 252.6 35.601 A 5.26 5.26 0 0 0 252.462 34.335 Q 252.051 32.683 250.42 32.372 A 4.388 4.388 0 0 0 249.6 32.301 A 4.334 4.334 0 0 0 247.212 33.052 Q 246.521 33.499 245.856 34.215 A 11.602 11.602 0 0 0 244.9 35.401 Q 243.23 37.754 241.387 42.987 A 97.503 97.503 0 0 0 240.2 46.601 Q 238.4 52.101 238.4 56.201 Q 238.4 59.301 239.45 60.801 A 3.828 3.828 0 0 0 240.309 61.7 A 3.104 3.104 0 0 0 242.2 62.301 A 2.789 2.789 0 0 0 244.015 61.626 A 4.082 4.082 0 0 0 244.5 61.151 Q 245.403 60.112 246.225 57.971 A 23.921 23.921 0 0 0 246.4 57.501 Z M 76.771 0.561 A 9.804 9.804 0 0 0 73.4 0.001 A 11.698 11.698 0 0 0 72.908 0.011 A 9.573 9.573 0 0 0 67.9 1.601 Q 65.5 3.201 64.2 5.651 A 12.372 12.372 0 0 0 63.726 6.648 A 10.107 10.107 0 0 0 62.9 10.601 A 11.554 11.554 0 0 0 62.904 10.719 A 8.951 8.951 0 0 0 65.55 16.951 A 8.492 8.492 0 0 0 68.512 18.902 A 9.318 9.318 0 0 0 71.9 19.501 Q 74.9 19.501 77.35 17.951 Q 79.8 16.401 81.15 13.901 Q 82.5 11.401 82.5 8.801 A 10.416 10.416 0 0 0 82.499 8.628 A 8.396 8.396 0 0 0 79.9 2.551 A 8.65 8.65 0 0 0 76.771 0.561 Z M 542.071 0.561 A 9.804 9.804 0 0 0 538.7 0.001 A 11.698 11.698 0 0 0 538.208 0.011 A 9.573 9.573 0 0 0 533.2 1.601 Q 530.8 3.201 529.5 5.651 A 12.372 12.372 0 0 0 529.026 6.648 A 10.107 10.107 0 0 0 528.2 10.601 A 11.554 11.554 0 0 0 528.204 10.719 A 8.951 8.951 0 0 0 530.85 16.951 A 8.492 8.492 0 0 0 533.812 18.902 A 9.318 9.318 0 0 0 537.2 19.501 Q 540.2 19.501 542.65 17.951 Q 545.1 16.401 546.45 13.901 Q 547.8 11.401 547.8 8.801 A 10.416 10.416 0 0 0 547.799 8.628 A 8.396 8.396 0 0 0 545.2 2.551 A 8.65 8.65 0 0 0 542.071 0.561 Z M 373.668 45.3 A 9.202 9.202 0 0 0 373.8 45.301 A 7.097 7.097 0 0 0 377.118 44.541 Q 378.566 43.789 379.633 42.295 A 9.958 9.958 0 0 0 380.2 41.401 Q 382.4 37.501 382.3 32.701 A 7.866 7.866 0 0 0 382.213 31.749 Q 382.056 30.761 381.634 30.301 A 1.212 1.212 0 0 0 380.7 29.901 A 1.81 1.81 0 0 0 379.94 30.087 Q 379.111 30.471 378.1 31.651 Q 376.6 33.401 375.15 36.901 Q 373.904 39.908 372.99 43.876 A 64.737 64.737 0 0 0 372.7 45.201 Q 373.061 45.291 373.668 45.3 Z" vector-effect="non-scaling-stroke"/></g></svg>