<svg width="451" height="102" viewBox="0 0 451 102" fill="none" xmlns="http://www.w3.org/2000/svg">
<path fill-rule="evenodd" clip-rule="evenodd" d="M218.914 34.8977C226.374 36.3717 234.578 36.7276 240.772 41.629C245.957 45.3342 249.167 50.7198 250.686 56.876C251.223 58.6498 252.487 60.083 252.026 61.9984C251.504 67.7992 249.403 74.6134 243.647 77.1736C239.44 79.8211 234.624 79.1735 230.022 78.1665C220.722 78.4287 211.072 74.7838 205.996 66.6458C200.156 58.3002 202.914 46.2304 210.639 39.9949C213.872 37.6479 214.267 34.7369 218.914 34.8977Z" fill="#A2D2FF"/>
<path fill-rule="evenodd" clip-rule="evenodd" d="M349.32 60.9213C349.352 67.0589 344.808 64.508 342.241 61.4208C339.476 57.5886 334.526 54.5525 333.682 49.7383C333.172 47.4872 329.685 44.3536 332.974 42.6559C334.713 41.108 336.499 41.8057 338.094 43.2239C349.971 54.0732 349.188 61.3024 348.762 40.3093C349.264 37.6439 347.233 31.5092 351.297 31.4533C352.154 31.6099 352.538 31.9526 352.631 32.8606C353.598 39.6112 353.551 46.3925 353.407 53.1933C352.956 55.3641 355.057 61.7815 351.135 60.6003C349.54 60.7363 349.873 59.6267 348.99 59.7906C348.436 60.1015 348.909 60.7233 349.32 60.9213Z" fill="#FFAFCC"/>
<path fill-rule="evenodd" clip-rule="evenodd" d="M353.606 50.0711C353.378 43.6283 353.081 37.3804 350.951 31.6188C348.828 34.2809 349.092 42.4824 349.053 46.2514C349.725 53.2014 353.562 66.6673 353.606 50.0711ZM333.461 43.0764C334.719 50.9896 341.288 60.8346 349.12 63.5336C350.479 63.6919 349.555 61.6019 349.523 60.8587C348.184 52.2744 340.106 47.5097 333.461 43.0764ZM330.203 18.9309C330.074 25.2404 329.728 32.758 332.837 38.2959C355.102 55.146 340.721 45.7145 348.766 27.5586C349.8 22.0291 340.062 16.9661 336.714 13.1035C327.862 5.18928 331.287 11.746 330.203 18.9309ZM354.858 60.3359C365.258 55.4837 370.633 29.2855 370.547 18.3781C370.902 14.1271 370.022 10.0453 368.859 6.00293C368.256 3.91644 366.254 7.00899 365.497 7.61986C361.356 13.5888 356.295 19.0065 353.022 25.5235C351.92 29.4691 354.808 33.624 354.842 37.7333C356.249 45.2056 356.082 52.8443 354.858 60.3359ZM344.436 64.931C338.864 59.6686 333.088 53.3878 330.881 45.5996C330.007 43.5599 330.502 40.2344 327.818 39.6603C321.189 37.6477 314.102 37.6637 307.229 38.0669C304.09 38.4731 300.858 38.1446 297.774 38.9761C294.879 42.0439 304.647 49.7563 306.724 52.3862C316.754 61.2052 330.878 68.166 344.436 64.931ZM313.546 34.7852C318.378 34.7511 323.244 34.8714 327.972 35.9763C328.387 36.0506 328.681 35.7596 328.617 35.3417C326.901 28.091 327.403 20.7458 327.648 13.3638C327.805 11.21 328.419 9.09128 328.063 6.90507C327.922 6.10303 328.403 5.50638 329.176 5.31718C330.538 4.96895 330.889 6.87902 332.195 7.04965C337.037 9.4577 340.642 13.5303 344.76 16.9306C346.242 17.4887 350.23 23.7029 350.796 22.443C353.171 18.254 366.973 -4.73293 371.689 0.961167C371.229 1.98685 370.628 2.58386 371.356 3.68352C377.694 18.312 372.411 35.2106 367.444 49.5457C364.943 56.2774 359.914 61.3415 353.385 64.1297C353.791 71.4098 349.288 77.8052 345.407 83.8576C334.016 98.4781 309.413 105.001 293.797 93.5353C280.14 83.6423 272.094 68.283 262.27 54.9907C251.342 41.8363 237.829 29.5048 220.41 26.6321C215.51 25.2956 210.461 25.0348 205.415 25.2838C203.238 24.8427 194.189 28.2467 197.915 24.4174C202.098 21.9786 207.144 23.3856 211.738 23.1736C217.735 22.903 223.611 24.6627 229.4 26.0557C242.299 28.7163 252.375 38.2693 261.084 47.6199C274.749 63.2393 282.624 86.2727 303.417 94.1189C317.053 97.5947 333.716 93.6676 342.67 82.3958C345.335 77.7285 349.741 73.3533 350.878 68.1238C347.359 68.2294 343.789 69.3524 340.208 69.6031C322.56 71.4101 300.291 55.9178 294.734 39.2691C292.463 34.3427 310.482 35.1732 313.546 34.7852Z" fill="black"/>
<path fill-rule="evenodd" clip-rule="evenodd" d="M231.356 34.8977C223.895 36.3717 215.692 36.7276 209.498 41.629C204.313 45.3342 201.103 50.7198 199.583 56.876C199.046 58.6498 197.783 60.083 198.244 61.9984C198.765 67.7992 200.867 74.6134 206.623 77.1736C210.829 79.8211 215.645 79.1735 220.247 78.1665C229.548 78.4287 239.198 74.7838 244.273 66.6458C250.114 58.3002 247.356 46.2304 239.631 39.9949C236.397 37.6479 236.003 34.7369 231.356 34.8977Z" fill="#A2D2FF"/>
<path fill-rule="evenodd" clip-rule="evenodd" d="M100.95 60.9213C100.918 67.0589 105.461 64.508 108.028 61.4208C110.794 57.5886 115.744 54.5525 116.588 49.7383C117.097 47.4872 120.584 44.3536 117.296 42.6559C115.556 41.108 113.771 41.8057 112.176 43.2239C100.298 54.0732 101.082 61.3024 101.508 40.3093C101.006 37.6439 103.036 31.5092 98.9721 31.4533C98.1155 31.6099 97.7319 31.9526 97.6386 32.8606C96.672 39.6112 96.7181 46.3925 96.8626 53.1933C97.3134 55.3641 95.2127 61.7815 99.1345 60.6003C100.73 60.7363 100.396 59.6267 101.28 59.7906C101.833 60.1015 101.361 60.7233 100.95 60.9213Z" fill="#FFAFCC"/>
<path fill-rule="evenodd" clip-rule="evenodd" d="M96.6634 50.0711C96.8914 43.6283 97.1882 37.3804 99.3189 31.6188C101.442 34.2809 101.178 42.4824 101.216 46.2514C100.545 53.2014 96.708 66.6673 96.6634 50.0711ZM116.809 43.0764C115.55 50.9896 108.982 60.8346 101.149 63.5336C99.7902 63.6919 100.715 61.6019 100.747 60.8587C102.086 52.2744 110.163 47.5097 116.809 43.0764ZM120.067 18.9309C120.195 25.2404 120.541 32.758 117.433 38.2959C95.1672 55.146 109.548 45.7145 101.504 27.5586C100.469 22.0291 110.208 16.9661 113.556 13.1035C122.408 5.18928 118.983 11.746 120.067 18.9309ZM95.4113 60.3359C85.0112 55.4837 79.6369 29.2855 79.7222 18.3781C79.368 14.1271 80.2479 10.0453 81.4107 6.00293C82.0134 3.91644 84.0154 7.00899 84.7729 7.61986C88.914 13.5888 93.9741 19.0065 97.2472 25.5235C98.3491 29.4691 95.4617 33.624 95.4271 37.7333C94.0204 45.2056 94.1877 52.8443 95.4113 60.3359ZM105.834 64.931C111.405 59.6686 117.181 53.3878 119.388 45.5996C120.262 43.5599 119.767 40.2344 122.451 39.6603C129.08 37.6477 136.167 37.6637 143.041 38.0669C146.179 38.4731 149.411 38.1446 152.496 38.9761C155.39 42.0439 145.622 49.7563 143.546 52.3862C133.515 61.2052 119.391 68.166 105.834 64.931ZM136.723 34.7852C131.892 34.7511 127.026 34.8714 122.298 35.9763C121.883 36.0506 121.589 35.7596 121.653 35.3417C123.368 28.091 122.867 20.7458 122.622 13.3638C122.464 11.21 121.851 9.09128 122.207 6.90507C122.348 6.10303 121.866 5.50638 121.093 5.31718C119.731 4.96895 119.38 6.87902 118.074 7.04965C113.233 9.4577 109.627 13.5303 105.51 16.9306C104.027 17.4887 100.04 23.7029 99.4735 22.443C97.0987 18.254 83.2963 -4.73293 78.5803 0.961167C79.0405 1.98685 79.6419 2.58386 78.9135 3.68352C72.5756 18.312 77.8586 35.2106 82.8254 49.5457C85.327 56.2774 90.3552 61.3415 96.8848 64.1297C96.4786 71.4098 100.982 77.8052 104.862 83.8576C116.253 98.4781 140.857 105.001 156.472 93.5353C170.13 83.6423 178.175 68.283 187.999 54.9907C198.928 41.8363 212.44 29.5048 229.859 26.6321C234.759 25.2956 239.809 25.0348 244.854 25.2838C247.032 24.8427 256.08 28.2467 252.355 24.4174C248.171 21.9786 243.126 23.3856 238.532 23.1736C232.535 22.903 226.658 24.6627 220.87 26.0557C207.97 28.7163 197.895 38.2693 189.186 47.6199C175.52 63.2393 167.646 86.2727 146.853 94.1189C133.217 97.5947 116.554 93.6676 107.599 82.3958C104.935 77.7285 100.528 73.3533 99.3916 68.1238C102.911 68.2294 106.48 69.3524 110.062 69.6031C127.71 71.4101 149.978 55.9178 155.536 39.2691C157.807 34.3427 139.788 35.1732 136.723 34.7852Z" fill="black"/>
<path fill-rule="evenodd" clip-rule="evenodd" d="M34.7629 60.6393C34.9761 56.5232 30.7951 62.3991 32.0879 64.2086C32.9004 65.8242 35.2532 61.7073 34.7629 60.6393ZM17.4318 62.0757C17.5213 67.1314 21.3448 67.9024 22.0795 62.4218C22.554 60.406 20.6482 59.2552 18.982 58.6781C17.6293 58.5979 17.463 61.0294 17.4318 62.0757ZM14.5998 55.724C17.4687 56.5201 18.4886 53.9916 20.3687 52.4209C24.6906 48.6165 32.9989 49.3856 36.296 54.0978C36.7614 55.764 38.2763 55.4095 39.6497 55.3789C43.3208 55.4303 46.0682 58.8671 48.1527 61.5214C52.4564 66.8675 48.5976 75.5485 41.72 75.9591C39.7477 76.3691 35.3699 74.1418 37.5287 71.9774C39.4193 71.3385 41.5129 74.1729 43.5546 72.8169C47.3376 70.491 47.845 65.9262 45.5783 63.3281C43.5394 61.3538 41.8373 58.1194 38.6243 58.1812C36.971 58.616 38.8082 61.8599 37.6235 63.1676C36.6333 65.5572 32.2327 69.1476 30.2026 66.2826C28.3338 62.9688 29.8533 58.7185 33.1559 56.9548C33.6388 56.7335 34.2579 56.3205 33.8403 55.7464C31.4067 52.5555 24.5922 51.2603 21.6463 54.393C20.6448 55.493 19.5252 56.1974 21.4127 56.7335C25.4176 58.6879 25.2514 63.9589 22.7718 67.0119C17.9879 72.0838 13.6093 64.4046 15.3401 59.7952C17.1519 55.3323 -2.28361 61.5501 5.1079 69.6318C7.7523 72.3751 12.0188 71.5572 14.976 73.8667C15.6293 74.484 17.7541 74.4316 17.6914 75.3978C15.6546 75.3431 13.6627 76.1084 11.5876 75.6237C7.15609 75.4216 2.49372 74.4272 0.832147 69.7669C-3.03968 61.6534 7.46085 55.3531 14.5998 55.724Z" fill="#CDB4DB"/>
<path fill-rule="evenodd" clip-rule="evenodd" d="M80.7764 82.467C80.7296 81.2768 78.2266 77.7073 79.4023 81.0445C79.5539 81.5158 80.173 83.1341 80.7764 82.467ZM68.9711 86.3602C64.6381 86.5733 70.6152 92.9067 72.3754 91.7592C71.8914 89.74 71.5115 86.7042 68.9711 86.3602ZM66.2299 102C65.4399 101.95 63.2009 101.82 63.9162 100.621C66.8586 100.698 68.9725 99.0077 71.0516 97.29C71.705 96.6353 73.1897 95.0129 71.6516 94.4841C68.7449 93.0375 64.2324 90.7711 64.9706 86.9316C65.3604 85.0188 66.7674 84.0051 68.9175 84.0335C75.5093 84.7221 74.4368 92.8029 76.1696 92.321C78.3806 91.4429 79.7616 89.4576 80.5377 87.3035C81.3554 86.1819 76.7126 84.5463 76.0533 81.4609C74.0559 71.2091 83.8038 77.2944 83.8939 83.7885C84.2378 85.8283 89.5151 83.2193 88.959 85.3613C87.8681 86.675 86.3779 87.4111 84.6255 87.276C82.7788 86.7652 82.6806 91.598 79.1821 93.6251C78.0938 94.871 75.8532 94.3967 75.171 95.8551C73.8273 99.2298 69.7408 101.574 66.2299 102Z" fill="#FFC8DD"/>
<path fill-rule="evenodd" clip-rule="evenodd" d="M416.237 60.6393C416.024 56.5232 420.205 62.3991 418.912 64.2086C418.1 65.8242 415.747 61.7073 416.237 60.6393ZM433.568 62.0757C433.479 67.1314 429.655 67.9024 428.921 62.4218C428.446 60.406 430.352 59.2552 432.018 58.6781C433.371 58.5979 433.537 61.0294 433.568 62.0757ZM436.4 55.724C433.531 56.5201 432.511 53.9916 430.631 52.4209C426.309 48.6165 418.001 49.3856 414.704 54.0978C414.239 55.764 412.724 55.4095 411.35 55.3789C407.679 55.4303 404.932 58.8671 402.847 61.5214C398.544 66.8675 402.402 75.5485 409.28 75.9591C411.252 76.3691 415.63 74.1418 413.471 71.9774C411.581 71.3385 409.487 74.1729 407.445 72.8169C403.662 70.491 403.155 65.9262 405.422 63.3281C407.461 61.3538 409.163 58.1194 412.376 58.1812C414.029 58.616 412.192 61.8599 413.376 63.1676C414.367 65.5572 418.767 69.1476 420.797 66.2826C422.666 62.9688 421.147 58.7185 417.844 56.9548C417.361 56.7335 416.742 56.3205 417.16 55.7464C419.593 52.5555 426.408 51.2603 429.354 54.393C430.355 55.493 431.475 56.1974 429.587 56.7335C425.582 58.6879 425.749 63.9589 428.228 67.0119C433.012 72.0838 437.391 64.4046 435.66 59.7952C433.848 55.3323 453.284 61.5501 445.892 69.6318C443.248 72.3751 438.981 71.5572 436.024 73.8667C435.371 74.484 433.246 74.4316 433.309 75.3978C435.345 75.3431 437.337 76.1084 439.412 75.6237C443.844 75.4216 448.506 74.4272 450.168 69.7669C454.04 61.6534 443.539 55.3531 436.4 55.724Z" fill="#CDB4DB"/>
<path fill-rule="evenodd" clip-rule="evenodd" d="M370.224 82.467C370.27 81.2768 372.773 77.7073 371.598 81.0445C371.446 81.5158 370.827 83.1341 370.224 82.467ZM382.029 86.3602C386.362 86.5733 380.385 92.9067 378.625 91.7592C379.109 89.74 379.488 86.7042 382.029 86.3602ZM384.77 102C385.56 101.95 387.799 101.82 387.084 100.621C384.141 100.698 382.028 99.0077 379.948 97.29C379.295 96.6353 377.81 95.0129 379.348 94.4841C382.255 93.0375 386.768 90.7711 386.029 86.9316C385.64 85.0188 384.233 84.0051 382.082 84.0335C375.491 84.7221 376.563 92.8029 374.83 92.321C372.619 91.4429 371.238 89.4576 370.462 87.3035C369.645 86.1819 374.287 84.5463 374.947 81.4609C376.944 71.2091 367.196 77.2944 367.106 83.7885C366.762 85.8283 361.485 83.2193 362.041 85.3613C363.132 86.675 364.622 87.4111 366.374 87.276C368.221 86.7652 368.319 91.598 371.818 93.6251C372.906 94.871 375.147 94.3967 375.829 95.8551C377.173 99.2298 381.259 101.574 384.77 102Z" fill="#FFC8DD"/>
<path fill-rule="evenodd" clip-rule="evenodd" d="M245.569 74.5826C247.155 74.6847 248.718 72.7593 247.07 71.7091C245.551 70.7371 243.614 71.2001 241.986 70.5161C240.186 69.8102 242.22 64.2739 241.583 62.37C239.586 59.3191 238.906 67.8356 238.543 68.921C238.293 70.7017 231.701 66.9102 234.186 71.1989C235.383 72.3712 238.2 72.0854 237.909 74.1798C238.159 75.7355 236.98 78.8541 238.894 79.4772C241.252 79.8401 240.486 76.4131 240.896 74.9856C241.217 73.2644 244.223 74.859 245.569 74.5826Z" fill="black"/>
<path fill-rule="evenodd" clip-rule="evenodd" d="M204.92 83.3004C205.747 83.3588 208.294 81.9726 208.523 83.6081C208.495 84.9737 211.903 90.2632 212.667 87.3261C209.977 81.0574 209.814 82.3146 216.204 80.2099C217.021 79.8961 217.246 79.1949 217.249 78.4308C216.777 75.7821 213.094 77.728 211.366 77.9925C209.565 78.7813 209.287 77.5729 208.931 76.1635C208.853 75.4962 207.573 73.9767 207.142 75.1103C206.834 77.4466 208.66 79.1005 205.716 80.2511C204.05 81.101 200.62 83.9417 204.92 83.3004Z" fill="black"/>
<path fill-rule="evenodd" clip-rule="evenodd" d="M215.077 39.955C216.074 42.9371 213.787 42.8386 211.668 44.0157C207.352 46.8885 213.296 46.2083 215.301 45.7485C217.621 45.4189 216.933 49.0299 218.729 49.7526C220.873 49.8387 219.256 46.9713 219.064 45.8816C218.247 44.5971 227.103 42.4676 223.922 40.8222C222.053 39.606 220.268 40.9024 218.412 41.488C216.525 41.6793 217.212 38.3113 215.977 37.3075C214.397 36.3098 215.088 39.1829 215.033 39.9574C215.048 39.9566 215.062 39.9558 215.077 39.955Z" fill="black"/>
<path fill-rule="evenodd" clip-rule="evenodd" d="M246.441 24.8293C245.305 22.222 240.228 22.8415 241.921 19.2361C242.028 18.4745 243.188 14.9105 241.587 15.5628C238.687 19.856 241.023 21.0623 235.408 19.0213C235.034 18.9636 234.605 18.9317 234.4 19.3186C233.349 21.9651 239.378 22.0817 237.957 24.8036C235.433 29.7773 240.015 31.1898 240.536 25.4662C241.683 23.2095 246.656 29.5303 246.441 24.8293Z" fill="black"/>
<path fill-rule="evenodd" clip-rule="evenodd" d="M200.438 19.0001C200.867 20.4541 203.107 30.2259 204.549 29.7135C206.719 28.8903 206.068 27.3161 205.409 25.6273C204.981 24.4282 200.974 13.275 200.438 19.0001Z" fill="black"/>
</svg>
