<svg width="146" height="107" viewBox="0 0 146 107" fill="none" xmlns="http://www.w3.org/2000/svg">
<path fill-rule="evenodd" clip-rule="evenodd" d="M36.3739 47.5612C35.8461 46.6579 35.1011 46.734 34.1475 46.8213C31.6893 47.0015 29.2315 47.1897 26.7761 47.3999C24.2715 48.1347 21.8287 49.4831 19.2963 50.3472C18.2853 50.7977 17.7071 49.9439 16.7425 50.8298C12.9197 53.6095 7.00149 56.6643 6.08409 61.142C10.1791 57.8722 14.7327 54.5694 20.1787 52.9779C24.4381 51.4672 28.8029 50.2302 33.2311 49.1801C34.4835 48.8495 35.6779 48.7307 36.3739 47.5612M30.1199 52.4956C22.4567 54.7921 12.9795 57.2211 8.04249 63.1919C11.8323 64.2782 15.8367 61.5507 19.5311 63.3253C22.3863 64.8821 23.7909 59.1306 25.6109 57.7538C26.8587 55.87 29.4337 54.5007 30.1199 52.4956M50.2321 33.9702C43.0897 34.4355 36.3555 35.9326 30.2145 39.2761C28.3415 40.2453 29.2529 42.7062 28.0185 44.197C27.5427 45.5018 29.8071 44.7175 30.5503 44.8249C34.5595 44.3908 36.2881 47.4473 37.0319 42.4411C41.4541 32.3377 48.4313 40.1135 52.1243 37.5509C58.1299 33.9109 55.2573 34.3778 50.2321 33.9702M15.2961 88.0932C19.0857 87.2232 22.5079 86.0656 26.0863 84.7821C27.5549 83.151 29.8481 82.2421 31.0841 80.4713C33.6213 74.2837 36.8267 68.5279 41.1905 63.1919C42.4873 61.0113 44.9795 59.7334 46.7297 58.0572C46.3367 57.4547 45.2045 57.7748 44.5797 57.4982C43.5283 57.1694 42.6835 57.0976 42.0735 58.1797C38.5831 60.0456 35.9883 62.7109 33.9761 65.9261C27.8581 73.486 23.2481 81.8377 15.2961 88.0932M53.0415 65.0246C52.6971 58.8695 50.6869 57.3373 50.1127 64.6348C49.8085 69.0792 48.8819 73.5457 46.6037 77.5197C43.0781 83.3321 38.5541 88.5562 34.6735 94.162C34.3761 95.9424 23.6233 103.626 29.7051 102.365C45.7943 96.6104 50.0475 78.7937 53.0415 65.0246M55.5861 24.2468C46.5965 24.0764 38.3033 26.9401 30.8681 31.3191C28.4339 32.4866 28.4351 31.8299 28.6815 34.8728C27.9287 38.9571 35.5819 32.0703 39.0875 32.2473C43.8545 31.402 48.6829 30.3677 53.4889 31.5541C55.5649 31.645 58.0985 33.5279 59.7999 31.8561C69.9181 22.8146 66.9529 25.8172 55.5861 24.2468M81.8625 6.09741C73.8191 2.66478 63.5601 4.1357 55.0831 5.8747C46.9607 8.44849 38.4751 12.6599 33.7259 19.3386C32.9267 20.9534 35.4677 19.1961 36.0005 18.8445C47.1597 12.683 61.2359 7.58514 74.3457 11.0163C75.7783 11.0787 77.4257 13.1331 78.5927 12.16C79.6773 10.1587 81.2015 8.22741 81.8625 6.09741M23.2079 100.181C22.3793 105.742 28.7299 96.9544 30.3509 96.1317C33.7013 92.6163 36.2155 88.4911 39.0505 84.6299C41.4399 80.5928 44.6057 76.8921 45.8417 72.3754C46.5851 68.675 48.5751 64.8886 48.3929 61.1677C40.6573 66.2558 38.3697 75.7836 33.6787 83.0012C28.4937 90.4539 24.6733 86.9159 23.2079 100.181M5.77609 89.0781C20.3273 86.5077 26.9969 60.3464 39.9499 55.684C39.8713 54.5474 38.6311 54.0372 38.2237 53.0705C37.9571 52.5173 37.5693 51.5097 36.7497 51.671C29.8051 55.3447 26.5225 62.4822 21.1595 67.6177C18.4521 74.0603 2.61509 82.1662 5.77609 89.0781M77.3067 13.5841C62.9025 11.1918 46.1045 15.3447 34.2015 23.0219C33.1045 23.6882 27.4617 27.9408 29.7259 28.5562C40.5323 20.7048 54.9005 19.4179 67.8515 23.2379C70.9921 23.0017 75.7839 16.178 77.3067 13.5841M40.9659 49.6642C43.3525 58.2444 52.8257 51.2745 57.0205 56.0096C60.5509 61.8517 57.8841 69.1371 55.7201 75.0446C55.6821 76.0813 54.0593 78.5844 55.6365 78.878C57.5659 77.8082 58.8177 79.4349 60.3503 80.3015C64.4423 82.8338 69.1373 84.6357 73.9957 85.5836C81.6317 86.4923 89.0323 81.5393 93.7515 76.5204C95.7041 74.5728 82.4833 76.25 79.9619 73.4864C73.5451 69.8961 74.1045 65.7357 81.5031 70.7508C85.7241 73.2477 90.8321 72.0932 95.5411 72.0164C98.9057 70.5662 100.005 66.1728 101.796 63.3383C103.467 59.9833 103.825 56.2518 104.858 52.7187C105.579 49.8835 105.678 49.9813 102.496 50.2492C99.9591 50.0361 95.5623 51.9584 94.3765 49.0941C91.7797 42.4933 91.1295 35.5404 89.4911 28.7438C88.2485 23.4543 85.4299 18.6424 83.9391 13.4234C83.7895 12.0695 82.7085 11.7322 82.2511 13.3099C81.3709 14.4285 80.4503 15.535 79.6635 16.7064C75.1393 23.64 68.1951 28.8751 61.8535 34.4113C59.2203 37.4204 52.7933 38.1841 51.7755 41.3962C51.7567 41.4792 51.5513 41.5262 51.3697 41.6233C49.8035 40.729 47.9513 40.723 46.1655 40.5217C43.0011 40.0972 41.3251 43.3843 40.7631 45.7291C39.7177 48.1581 42.8913 46.839 43.8769 48.364C44.5403 49.6722 41.8067 49.3551 40.9659 49.6642M53.7801 81.7162C49.7555 91.2636 44.2959 101.184 33.1433 105.155C29.5333 106.736 25.4847 105.078 21.9489 106.819C21.5003 106.846 21.0543 106.74 20.9081 106.286C19.1199 103.455 18.2771 101.999 19.1571 98.56C19.7057 95.9055 20.4447 93.3039 21.6877 90.836C22.3651 89.9208 21.3047 89.8528 20.6183 90.1531C4.57389 97.2315 -7.35531 93.649 5.32049 77.5815C6.33289 75.7669 17.8267 67.4874 15.4191 66.5765C11.0969 67.3731 6.60469 67.3637 2.84749 65.0405C-3.79491 58.0272 12.7423 47.4634 19.0915 44.9199C22.5211 43.8988 24.6963 41.6077 23.6589 38.2472C20.7595 23.4901 31.9497 9.82992 46.7017 4.4392C57.1677 0.34279 70.3225 -1.13789 81.0007 2.95147C86.6677 8.16811 88.2405 16.3506 91.7083 22.9093C94.5265 28.9705 94.9149 35.5415 96.5257 41.8733C97.5699 44.1011 96.6373 49.0503 100.757 47.907C103.505 48.2014 109.432 45.8099 109.748 49.5277C106.86 56.2614 106.435 63.8929 101.743 70.0076C98.6655 73.8246 97.2131 78.6621 93.0711 81.7278C85.9525 87.4188 76.3387 91.4528 66.9603 88.0571C64.3213 87.1784 54.0421 84.379 54.2053 81.6629C54.0637 81.6808 53.9219 81.6985 53.7801 81.7162M54.7855 50.0304C53.1037 49.6554 44.2403 47.8537 44.3593 46.4933C45.9669 44.1702 48.8797 45.5766 51.2423 45.9931C53.8063 46.4804 61.2527 48.4407 54.7855 50.0304" fill="black"/>
<path fill-rule="evenodd" clip-rule="evenodd" d="M83.0532 45.8857C83.5434 43.7577 81.7134 42.291 81.8678 40.2597C85.9562 33.4539 89.7034 48.519 85.2812 50.7464C78.4524 58.3359 73.11 49.73 72.6582 43.2792C72.471 42.2011 72.6784 40.5483 74.1586 40.4717C76.5122 40.9368 75.7172 45.1686 77.1108 46.8259C78.4714 51.4433 83.52 50.5445 83.0532 45.8857" fill="black"/>
<path fill-rule="evenodd" clip-rule="evenodd" d="M117.765 72.0529C120.974 74.0399 125.309 74.527 128.733 76.4085C131.156 77.5813 133.983 77.2127 136.629 77.3613C141.356 76.5137 142.662 68.9839 142.295 65.2778C141.587 63.3074 139.866 66.5535 138.678 66.4656C137.259 66.1987 136.52 65.022 136.987 63.7697C137.939 61.443 139.161 59.1387 139.04 56.5884C139.17 53.776 135.43 48.881 132.969 52.8422C131.659 54.3997 133.185 60.0751 129.601 59.0292C127.168 57.1282 129.748 53.6558 128.951 51.142C128.939 48.4111 124.448 43.9272 122.65 47.9044C121.521 54.6401 120.338 61.435 121.081 68.254C121.498 70.2929 119.599 71.4037 117.765 72.0529M134.397 81.055C128.562 81.5946 123.948 78.8791 118.742 77.2317C114.899 75.082 109.715 77.1236 106.622 73.9056C106.275 73.1084 108.494 71.5093 109.379 71.4415C111.903 71.3598 114.141 70.3289 116.502 69.719C117.928 69.3507 117.931 69.2195 117.91 67.925C117.688 62.8617 118.179 57.8356 119.12 52.8498C119.093 47.6808 122.43 39.9596 128.963 45.2274C130.196 46.2 130.853 47.7857 131.857 48.8576C132.547 49.3123 133.12 48.4724 133.797 48.3193C138.308 47.2884 141.664 51.7053 142.334 55.2636C142.714 57.0935 142.432 58.9263 142.023 60.7195C143.126 62.3372 145.002 60.7114 145.457 64.3526C146.085 70.237 142.973 82.433 134.397 81.055" fill="black"/>
</svg>
