<svg width="378" height="378" viewBox="0 0 378 378" fill="none" xmlns="http://www.w3.org/2000/svg">
<path fill-rule="evenodd" clip-rule="evenodd" d="M45.8218 174.059C32.7949 175.133 36.3276 153.617 46.9949 157.017C55.3124 160.282 56.2246 173.126 45.8218 174.059" fill="black"/>
<path fill-rule="evenodd" clip-rule="evenodd" d="M106.131 219.012C105.81 229.89 93.7028 229.254 91.2396 220.81C90.7666 212.672 106.058 209.082 106.131 219.012" fill="black"/>
<path fill-rule="evenodd" clip-rule="evenodd" d="M214.432 248.493C214.178 252.708 210.824 259.848 205.869 256.435C203.937 254.779 201.002 253.662 201.393 250.644C200.96 241.937 214.867 237.7 214.432 248.493" fill="black"/>
<path fill-rule="evenodd" clip-rule="evenodd" d="M63.5618 365.358C67.3822 364.754 71.6584 369.046 70.7521 372.282C69.0467 374.691 67.6287 379.04 63.9646 377.773C63.4432 377.638 62.7628 377.347 62.5499 376.925C61.2768 374.508 58.164 373.757 57.8831 370.754C57.1573 367.852 60.8498 364.74 63.5618 365.358" fill="black"/>
<path fill-rule="evenodd" clip-rule="evenodd" d="M30.803 110.362C30.4874 108.827 31.3072 107.689 33.0129 106.925C35.0119 105.954 35.9121 103.53 38.1398 103.01C41.7962 102.747 45.5619 109.45 42.6996 112.482C41.1666 114.923 36.9805 117.849 34.5001 114.581C33.4232 113.092 29.4503 113.362 30.803 110.362" fill="black"/>
<path fill-rule="evenodd" clip-rule="evenodd" d="M233.4 360.115C234.778 360.798 236.322 362.717 235.773 364.196C233.99 366.992 232.053 370.901 227.996 369.82C224.473 369.253 226.894 364.309 222.952 363.744C222.926 362.629 224.658 361.755 222.706 361.227C220.435 359.956 224.953 358.678 225.895 357.985C228.375 356.913 232.967 356.657 233.524 360.249C232.572 360.298 231.9 360.581 231.609 361.542C232.829 362.585 233.449 361.297 233.4 360.115" fill="black"/>
<path fill-rule="evenodd" clip-rule="evenodd" d="M218.475 289.1C218.367 286.604 221.503 282.814 224.236 283.607C227.069 284.422 231.775 285.523 230.619 289.521C228.903 296.807 217.742 296.352 218.475 289.1" fill="black"/>
<path fill-rule="evenodd" clip-rule="evenodd" d="M276.5 327.108C276.643 328.092 276.466 329.028 276.254 329.985C279.658 329.545 277.286 331.701 276.662 333.325C271.389 340.437 263.602 333.005 265.668 325.73C266.103 323.747 268.422 325.446 269.429 323.844C272.682 324.741 272.112 329.399 276.5 327.108" fill="black"/>
<path fill-rule="evenodd" clip-rule="evenodd" d="M160.8 252.242C167.528 253.228 167.896 260.851 161.657 263.137C155.015 265.803 149.908 253.315 160.8 252.242" fill="black"/>
<path fill-rule="evenodd" clip-rule="evenodd" d="M0.269318 333.169C-1.60639 328.708 6.83834 327.551 9.44628 329.441C12.1344 331.447 10.7557 337.077 8.1324 338.778C4.63518 340.149 -0.959161 337.073 0.269318 333.169" fill="black"/>
<path fill-rule="evenodd" clip-rule="evenodd" d="M27.833 202.448C24.8814 201.561 22.0411 196.8 25.7615 195.047C27.3361 191.3 29.8758 193.559 32.0998 195.028C35.1141 197.864 30.4135 201.338 27.833 202.448" fill="black"/>
<path fill-rule="evenodd" clip-rule="evenodd" d="M259.861 280.56C255.73 279.924 257.76 279.071 256.906 276.646C255.734 275.211 258.283 274.331 259.245 273.714C263.318 273.159 265.207 281.165 259.861 280.56" fill="black"/>
<path fill-rule="evenodd" clip-rule="evenodd" d="M72.8395 263.376C70.7849 263.376 68.7299 263.348 66.6757 263.384C62.3871 263.18 60.6693 257.212 65.1538 255.754C70.6651 254.949 81.0754 250.406 85.2239 254.983C85.5239 255.881 86.1575 256.566 87.083 256.639C88.0854 256.563 88.8802 259.083 88.6421 259.663C85.5531 264.956 78.0658 262.721 72.8594 263.873C72.8525 263.707 72.846 263.542 72.8395 263.376" fill="black"/>
<path fill-rule="evenodd" clip-rule="evenodd" d="M98.8617 305.842C100.606 299.617 106.719 287.766 114.166 287.866C114.972 287.762 116.28 289.341 115.865 289.997C115.002 293.693 114.684 296.947 111.859 299.824C108.76 303.167 107.253 309.182 102.894 310.759C100.166 310.647 98.8444 309.393 98.8617 305.842" fill="black"/>
<path fill-rule="evenodd" clip-rule="evenodd" d="M137.969 306.187C138.523 314.082 131.981 333.206 127.212 317.414C127.269 312.104 127.922 298.478 136.307 302.358C138.205 302.871 138.297 305.382 137.969 306.187" fill="black"/>
<path fill-rule="evenodd" clip-rule="evenodd" d="M79.9636 287.498C76.2946 287.454 77.5655 285.364 77.9137 283.503C77.3952 281.294 78.5879 279.923 80.0472 278.646C83.2235 275.911 93.7936 269.011 96.6808 273.992C96.4524 275.442 97.0749 277.184 95.4974 278.311C90.7439 281.481 85.6681 286.663 79.9636 287.498" fill="black"/>
<path fill-rule="evenodd" clip-rule="evenodd" d="M165.738 316.725C162.169 327.05 147.791 305.267 156.506 302.4C162.3 304.11 164.721 311.067 165.738 316.725" fill="black"/>
<path fill-rule="evenodd" clip-rule="evenodd" d="M244.479 162.104C256.261 165.555 239.773 182.425 232.945 183.185C224.075 182.667 241.315 163.611 244.479 162.104" fill="black"/>
<path fill-rule="evenodd" clip-rule="evenodd" d="M301.31 211.619C297.993 231.38 284.01 199.955 294.771 194.938C301.898 193.4 300.245 206.728 301.31 211.619" fill="black"/>
<path fill-rule="evenodd" clip-rule="evenodd" d="M75.6825 43.98C104.705 43.828 62.0131 61.8005 61.0615 48.5583C62.5979 43.0444 71.1046 44.5789 75.6829 44.1926C75.6829 44.1217 75.6829 44.0508 75.6825 43.98" fill="black"/>
<path fill-rule="evenodd" clip-rule="evenodd" d="M208.553 37.0732C204.846 35.4998 184.579 37.201 187.916 29.7805C191.681 21.4033 225.698 36.5459 208.553 37.0732" fill="black"/>
<path fill-rule="evenodd" clip-rule="evenodd" d="M340.927 224.377C340.606 230.055 334.495 224.297 333.451 221.848C331.46 217.276 328.338 207.318 333.847 204.629C342.531 206.736 339.156 217.681 340.927 224.377" fill="black"/>
<path fill-rule="evenodd" clip-rule="evenodd" d="M249.689 14.2487C249.862 17.3801 247.49 17.3961 245.463 16.7372C240.459 16.7644 229.68 0.328171 237.632 0C238.942 0.614025 240.1 1.45475 241.699 0.821291C246.864 2.56923 248.935 9.637 249.689 14.2487" fill="black"/>
<path fill-rule="evenodd" clip-rule="evenodd" d="M68.7248 80.2873C69.0815 84.2474 69.9854 84.6922 65.7522 86.3291C37.9635 99.4839 44.6226 77.0372 68.7248 80.2873" fill="black"/>
<path fill-rule="evenodd" clip-rule="evenodd" d="M160.148 118.908C161.084 124.268 153.835 128.591 148.979 127.366C143.31 125.007 148.37 116.24 153.268 115.652C156.65 114.789 162.379 113.459 160.148 118.908" fill="black"/>
<path fill-rule="evenodd" clip-rule="evenodd" d="M317.843 254.822C318.934 256.888 316.909 257.458 317.07 258.94C319.454 260.259 318.451 268.785 315.376 266.863C303.79 260.24 314.098 231.995 317.843 254.822" fill="black"/>
<path fill-rule="evenodd" clip-rule="evenodd" d="M182.223 87.8975C178.648 88.617 176.877 82.6514 180.291 81.4016C185.026 80.4003 196.19 77.4037 199.54 80.8401C196.88 86.161 188.184 87.0459 182.223 87.8975" fill="black"/>
<path fill-rule="evenodd" clip-rule="evenodd" d="M109.402 18.4641C106.148 22.1211 97.3374 16.1598 93.6428 14.1946C90.1798 12.5397 90.2907 6.26212 94.9664 6.95962C100.915 8.65183 106.765 12.7147 109.402 18.4641" fill="black"/>
<path fill-rule="evenodd" clip-rule="evenodd" d="M172.786 63.1431C165.493 64.0984 157.141 57.9035 168.152 54.8116C175.707 52.5603 188.546 64.0723 172.786 63.1431" fill="black"/>
<path fill-rule="evenodd" clip-rule="evenodd" d="M355.513 164.75C354.828 161.006 361.747 159.72 362.994 162.545C364.139 167.256 367.889 172.7 366.945 177.369C361.307 177.249 356.891 169.767 355.513 164.75" fill="black"/>
<path fill-rule="evenodd" clip-rule="evenodd" d="M371.462 326.202C369.483 338.031 360.993 327.207 361.944 320.53C364.768 311.192 372.109 319.566 371.462 326.202" fill="black"/>
<path fill-rule="evenodd" clip-rule="evenodd" d="M247.977 227.492C247.028 223.15 253.328 210.769 257.869 214.916C259.185 221.754 253.294 226.803 250.312 232.358C247.92 233.789 248.555 228.834 247.977 227.492" fill="black"/>
<path fill-rule="evenodd" clip-rule="evenodd" d="M365.642 236.495C364.841 242.927 353.844 231.526 353.258 228.45C352.617 226.737 352.835 225.718 354.401 224.851C360.841 221.73 364.767 231.662 365.642 236.495" fill="black"/>
<path fill-rule="evenodd" clip-rule="evenodd" d="M255.204 287.996C254.584 282.789 259.441 272.682 264.085 278.189C265.486 283.239 256.749 300.817 255.204 287.996" fill="black"/>
<path fill-rule="evenodd" clip-rule="evenodd" d="M350.74 291.124C347.51 295.83 343.155 287.93 341.943 284.954C339.592 281.234 344.066 271.946 347.831 277.703C348.948 282.213 349.703 286.545 350.74 291.124" fill="black"/>
<path fill-rule="evenodd" clip-rule="evenodd" d="M129.464 38.154C122.842 38.4963 121.817 29.6748 128.343 29.0771C131.479 29.3837 139.399 30.1463 137.937 34.7101C136.129 38.0674 132.763 37.6876 129.464 38.154" fill="black"/>
<path fill-rule="evenodd" clip-rule="evenodd" d="M87.9577 95.2271C87.3444 102.188 79.2044 105.047 72.9425 105.035C68.1139 105.252 67.5856 98.9002 72.4938 98.5601C77.9041 97.9131 82.765 98.7334 87.9577 95.2271" fill="black"/>
<path fill-rule="evenodd" clip-rule="evenodd" d="M120.741 100.281C119.94 100.214 117.777 100.438 117.571 98.922C113.126 92.0473 126.374 91.3453 130.563 93.2018C135.719 98.439 125.007 100.622 120.741 100.281" fill="black"/>
<path fill-rule="evenodd" clip-rule="evenodd" d="M207.549 154.702C207.335 150.795 215.081 144.508 217.105 150.225C217.813 152.821 219.773 155.582 217.003 157.266C213.47 160.531 207.222 160.834 207.549 154.702" fill="black"/>
<path fill-rule="evenodd" clip-rule="evenodd" d="M289.519 271.796C288.884 287.776 287.001 286.962 282.748 271.984C280.4 263.458 291.099 262.83 289.519 271.796" fill="black"/>
<path fill-rule="evenodd" clip-rule="evenodd" d="M330.805 317.443C331.753 321.776 330.681 324.261 325.293 325.298C321.805 325.287 323.614 319.74 322.756 317.423C322.599 311.305 332.666 309.688 330.805 317.443" fill="black"/>
<path fill-rule="evenodd" clip-rule="evenodd" d="M174.855 11.8207C163.291 11.6724 168.9 -0.753767 183.278 7.62567C189.45 11.8176 177.249 11.2049 174.875 11.9943C174.868 11.9369 174.862 11.879 174.855 11.8207" fill="black"/>
<path fill-rule="evenodd" clip-rule="evenodd" d="M51.9214 20.4187C50.2243 12.4815 65.9335 17.9176 65.7855 22.0274C65.7629 22.4486 64.8677 23.2533 64.6453 23.1713C61.8848 22.152 59.2211 23.1052 56.5274 23.398C54.0788 23.9367 50.5408 23.7272 51.9214 20.4187" fill="black"/>
<path fill-rule="evenodd" clip-rule="evenodd" d="M123.039 71.2383C109.797 69.4693 123.267 60.7136 128.969 66.0169C132.983 69.9611 125.388 70.1634 123.039 71.2383" fill="black"/>
<path fill-rule="evenodd" clip-rule="evenodd" d="M274.743 166.972C273.971 168.955 274.076 175.13 271.122 174.813C266.643 173.959 266.533 166.126 269.658 163.658C272.119 162.492 275.128 163.499 274.743 166.972" fill="black"/>
<path fill-rule="evenodd" clip-rule="evenodd" d="M209.881 118.125C205.771 116.285 208.944 112.169 211.426 110.361C213.314 108.352 220.648 109.602 218.369 113.144C215.817 115.233 212.826 116.372 209.881 118.125" fill="black"/>
<path fill-rule="evenodd" clip-rule="evenodd" d="M104.141 49.9602C102.883 44.433 109.078 47.1164 111.974 47.5871C118.171 51.6087 102.036 57.9398 104.141 49.9602" fill="black"/>
<path fill-rule="evenodd" clip-rule="evenodd" d="M279.278 317.587C279.71 325.89 271.832 316.624 274.096 312.7C276.186 307.442 280.535 314.165 279.278 317.587" fill="black"/>
<path fill-rule="evenodd" clip-rule="evenodd" d="M181.731 138.795C180.454 138.646 179.227 139.146 178.46 138.509C179.315 138.035 180.583 137.839 181.731 138.795" fill="black"/>
<path fill-rule="evenodd" clip-rule="evenodd" d="M305.671 81.6671C305.712 88.5809 300.602 92.3537 295.082 93.6856C287.922 94.8242 284.626 84.5592 285.978 78.6346C289.75 64.6882 304.831 69.519 305.671 81.6671" fill="black"/>
</svg>
