<svg width="202" height="244" viewBox="0 0 202 244" fill="none" xmlns="http://www.w3.org/2000/svg">
<g id="Mono/Bottom/Thinker">
<g id="Ink">
<path id="Fill 1" fill-rule="evenodd" clip-rule="evenodd" d="M118.236 48.9251C117.668 47.5335 115.911 48.5917 115.636 49.86C115.986 51.5842 118.32 50.1506 118.236 48.9251M29.9379 89.3548C29.9542 87.9004 28.778 85.4932 27.1572 86.174C26.2905 87.3128 29.0684 91.8453 29.9379 89.3548M15.5805 110.269C14.2201 111.82 16.9063 114.171 18.147 113.995C20.0025 112.816 17.4342 110.49 15.5805 110.269M45.8968 60.1874C47.4657 58.4258 45.4183 54.8555 43.3843 55.0101C42.3859 56.9842 43.8402 59.5953 45.8968 60.1874M57.41 111.835C57.3737 111.837 57.3373 111.838 57.301 111.84C56.5281 117.094 59.1723 124.411 55.3876 128.402C53.337 131.202 53.5914 132.1 50.8322 129.189C39.4383 122.849 26.6978 126.212 27.6403 142.12C27.3174 156.962 60.5867 150.336 52.6351 156.453C49.7898 157.347 45.978 155.994 44.2382 159.184C39.5209 166.861 35.0664 174.738 30.1574 182.3C23.6958 192.415 18.2321 203.183 14.0634 214.615C12.6445 219.107 18.677 221.958 20.89 225.073C29.7442 233.5 48.2774 235.594 56.8764 225.947C59.8827 223.681 54.6723 220.132 56.465 216.88C54.3981 207.914 57.1055 198.356 57.53 189.2C58.4708 172.544 63.5379 176.165 76.0187 175.638C88.6103 174.387 101.173 172.971 113.724 171.144C120.347 170.677 122.579 164.785 121.733 158.404C121.724 157.02 121.324 156.643 120.085 156.881C114.882 157.93 110.017 155.444 105.216 153.679C102.813 153.73 94.6662 142.284 99.5998 142.835C102.166 144.445 103.681 147.455 106.384 148.744C110.628 150.678 115.295 151.856 119.849 150.573C123.1 148.388 119.583 140.684 120.015 136.925C119.425 133.518 117.924 133.013 119.935 129.299C120.788 126.623 123.763 127.596 125.798 126.32C144.269 120.538 137.56 124.215 127.753 108.066C121.644 99.512 116.123 90.0378 113.293 79.6362C112.683 77.2518 112.159 74.8404 111.502 72.4715C110.184 67.7317 110.785 68.0784 106.289 69.1134C94.1809 72.6552 65.2539 78.6569 57.7156 88.4376C56.917 96.1403 58.8477 104.031 57.41 111.835M46.6551 121.343C48.3486 120.425 51.4385 124.903 51.8041 121.859C50.3131 111.45 52.8539 101.034 52.109 90.5712C52.5645 85.8629 54.449 82.3143 58.7284 80.3371C71.6348 74.6006 85.007 70.2238 98.6142 66.904C111.521 63.5106 113.289 62.246 117.749 77.0169C118.073 77.9557 118.707 78.2572 119.569 77.8295C124.475 74.385 132.021 75.9451 135.143 70.02C137.391 65.9144 140.368 60.4882 136.334 56.5308C133.247 53.4754 129.223 48.9872 124.907 48.911C122.298 53.9739 112.974 62.0407 110.681 52.4176C109.889 47.476 113.798 44.4031 117.711 43.0609C122.816 39.9763 114.973 35.4582 111.722 35.4874C107.16 34.5137 84.0044 32.6582 85.1019 40.3677C85.2935 43.1514 84.9971 45.8507 82.2266 46.785C78.0456 48.4424 77.619 41.4891 79.2557 38.8455C80.0899 37.2142 79.7716 36.3955 78.221 35.5442C66.043 30.2176 49.8262 34.3042 44.764 48.4757C44.1722 49.9926 44.1814 50.3336 45.563 51.111C57.0426 59.5384 43.3348 69.3812 39.7778 58.9865C39.2181 57.6756 39.6137 54.9779 37.6848 55.1635C26.3759 56.1466 23.9131 70.1673 25.5491 80.0537C27.8217 84.1646 34.0053 81.6998 33.3232 90.0534C33.2028 94.1475 27.2574 96.4987 25.0131 92.9678C22.7102 91.0482 23.0976 85.4015 19.6588 85.7932C10.3842 87.0302 11.0448 97.7053 12.7757 105.106C13.4448 107.728 17.1081 107.107 18.9276 108.505C28.0045 115.22 13.7924 121.531 10.9633 111.904C8.7945 109.482 7.2711 114.955 5.89415 116.293C0.577233 127.62 12.3061 138.278 18.7056 146.02C19.6034 146.979 23.5063 150.846 23.1022 147.48C17.2094 130.768 30.7894 113.083 46.6661 121.304C46.1777 121.314 45.6297 121.048 45.25 121.493C45.7101 121.376 46.1862 121.387 46.6551 121.343M67.6871 29.6914C72.6532 29.924 77.432 30.7147 81.7269 33.5587C82.7214 34.2175 83.5845 34.2107 84.6008 33.6704C88.472 31.6137 92.6727 31.1007 96.902 30.6863C104.007 30.3764 111.402 30.1525 118.231 32.4706C125.927 34.8032 122.545 41.0212 127.062 43.697C134.292 47.1206 144.13 52.9075 143.404 62.7344C134.651 100.823 97.7271 55.2749 141.005 117.847C151.019 129.036 132.249 127.237 126.568 132.008C124.661 133.009 124.517 133.443 124.777 135.569C125.548 147.959 131.797 168.79 117.949 174.81C101.685 179.082 84.7776 180.506 68.1571 182.515C67.0074 182.731 65.1671 182.455 65.0764 184.168C66.4915 197.546 60.1177 211.302 63.6412 224.191C65.2342 228.364 60.2955 231.404 57.7311 233.583C40.7221 244.738 17.3862 236.455 6.91222 218.952C4.85172 215.67 5.42304 216.287 7.38685 212.889C7.5467 212.612 8.04957 212.344 8.33081 212.405C12.0502 213.052 17.852 192.025 20.1239 188.029C21.8953 183.596 23.7985 179.251 27.1442 175.859C29.8547 169.479 33.6962 163.869 37.8027 158.358C38.7226 155.426 31.8336 155.846 30.0078 154.589C26.0986 153.599 23.1654 156.994 19.2949 154.026C6.82788 145.354 -8.82749 122.82 6.0847 109.195C10.0878 107.373 8.38869 103.464 7.77679 99.9405C6.24915 91.7597 10.8356 83.286 18.7914 82.2563C24.7287 80.6886 13.9876 57.2309 36.148 50.9678C47.1061 47.9317 40.2965 30.5487 67.6871 29.6914" fill="black"/>
<g id="Group 5">
<path id="Fill 3" fill-rule="evenodd" clip-rule="evenodd" d="M154.568 186.213C145.432 177.621 132.983 190.198 124.158 194.409C122.014 196.307 117.527 197.439 117.021 200.441C127.924 196.814 149.044 198.419 154.568 186.213M148.35 178.718C161.088 179.064 161.651 189.719 151.883 196.291C145.018 201.123 136.53 201.294 128.729 203.18C121.549 204.585 114.922 208.168 107.59 208.88C103.187 208.83 101.347 213.89 97.5125 215.168C95.7467 217.398 94.1047 219.887 91.7132 221.547C87.1698 225.962 82.6399 230.385 79.0821 235.8C77.1504 238.262 76.1683 242.261 73.4571 243.685C82.1317 216.177 121.814 183.641 148.35 178.718" fill="black"/>
</g>
<path id="Fill 6" fill-rule="evenodd" clip-rule="evenodd" d="M142.844 160.631C149.931 159.063 154.447 151.498 159.793 146.688C165.336 143.8 172.244 114.684 161.661 128.933C156.876 140.689 151.445 151.509 142.844 160.631M172.095 129.177C171.868 142.313 163.525 151.736 154.31 159.308C150.015 162.728 141.016 169.477 136.04 166.881C140.356 162.59 141.838 155.669 146.259 151.191C149.369 147.259 151.634 142.869 153.253 138.033C154.735 133.172 157.052 128.765 159.791 124.604C164.307 117.765 173.232 120.153 172.095 129.177" fill="black"/>
<path id="Fill 8" fill-rule="evenodd" clip-rule="evenodd" d="M148.906 30.4255C148.323 24.7962 147.62 19.1146 146.51 13.4876C143.942 2.83675 135.896 5.60119 141.034 15.1447C144.033 16.8378 147.488 33.5237 148.906 30.4255M154.036 33.4377C153.654 39.4867 155.385 49.7023 150.608 53.6124C149.502 52.1004 149.99 49.2636 149.796 47.3326C150.206 39.4939 144.736 33.4593 142.486 26.3487C138.51 18.3509 131.892 10.5925 138.605 1.73621C140.05 -0.080737 141.466 -0.548233 143.299 0.699307C154.725 6.56574 153.024 21.9272 154.036 33.4377" fill="black"/>
<path id="Fill 10" fill-rule="evenodd" clip-rule="evenodd" d="M164.367 66.922C171.113 65.0035 178.298 65.6309 184.796 62.621C189.46 61.0472 189.388 51.7689 183.587 53.462C177.545 54.5758 172.14 57.1686 167.539 61.5575C166.675 62.9953 161.995 65.5585 164.367 66.922M186.198 49.9902C194.214 50.4824 193.098 63.6609 187.925 65.6532C184.026 67.8547 179.518 67.8786 175.29 68.853C161.892 70.687 156.17 75.2297 150.951 88.5314C150.662 89.6607 148.707 90.9746 148.61 89.0451C151.947 69.0022 166.109 50.5797 186.198 49.9902" fill="black"/>
<g id="Group 14">
<path id="Fill 12" fill-rule="evenodd" clip-rule="evenodd" d="M188.002 26.5688C189.897 26.9351 197.793 25.5258 196.845 23.2061C193.187 20.0522 185.489 22.7723 182.161 25.6118C183.78 26.9188 185.347 26.1433 188.002 26.5688M167.842 39.0847C169.209 26.6483 183.044 16.0971 194.623 16.9904C208.996 20.2462 198.56 33.879 188.277 31.4865C180.527 30.1075 171.987 30.7379 167.842 39.0847" fill="black"/>
</g>
<path id="Fill 15" fill-rule="evenodd" clip-rule="evenodd" d="M107.608 104.878C105.859 103.579 100.279 95.1076 99.1853 99.8322C100.426 108.47 99.7086 115.175 107.608 104.878M91.2944 111.235C90.5375 108.815 92.4466 99.4044 89.2971 99.9435C86.1254 101.134 80.1204 106.46 81.4211 109.992C83.5204 110.676 91.4832 115.798 91.2944 111.235M97.6771 92.0859C105.134 91.6839 105.295 96.035 110.073 99.3298C124.684 104.206 94.668 123.856 83.2014 115.097C67.125 110.78 85.5978 90.2765 97.6771 92.0859" fill="black"/>
<path id="Fill 17" fill-rule="evenodd" clip-rule="evenodd" d="M96.2848 77.632C93.9258 82.5324 86.7114 81.8883 82.4891 84.4785C80.917 85.0062 73.5195 90.6988 75.8637 85.4214C80.8778 80.451 89.6414 73.7981 96.2848 77.632" fill="black"/>
<path id="Fill 19" fill-rule="evenodd" clip-rule="evenodd" d="M49.6553 139.947C47.9713 139.721 32.1296 139.199 37.8834 135.984C42.4296 135.617 48.664 134.287 52.1293 138.127C53.1629 139.966 50.7753 140.116 49.6553 139.947" fill="black"/>
</g>
</g>
</svg>
