<svg width="191" height="258" viewBox="0 0 191 258" fill="none" xmlns="http://www.w3.org/2000/svg">
<path fill-rule="evenodd" clip-rule="evenodd" d="M72.4173 187.951C70.7089 198.512 74.9586 210.296 76.4868 221.213C77.7477 226.904 75.8464 230.06 70.1283 231.237C68.8428 236.601 68.715 247.122 60.8201 245.04C60.292 244.96 59.5124 244.41 59.4138 243.955C56.8412 239.308 57.0103 227.863 50.1699 228.42C41.1882 228.435 34.371 219.396 25.5931 218.704C19.5966 217.767 16.3991 210.243 11.5123 206.861C7.65629 203.238 -2.17817 202.811 1.139 195.321C4.46985 188.489 2.33411 179.949 3.93176 172.514C4.91487 168.104 0.713185 164.12 3.71756 160.246C5.7004 157.696 1.13716 158.724 0.782986 156.827C-0.980858 153.795 0.527421 151.033 2.42385 148.411C-1.36458 140.028 1.42005 141.337 2.44416 132.745C2.65836 130.426 5.82449 131.104 7.42214 130.951C10.2699 129.992 11.3708 133.268 14.2105 133.182C26.2627 135.725 18.3442 135.478 23.5918 137.836C26.006 137.713 25.1529 141.891 29.3092 142.959C32.2906 142.056 38.4434 137.274 40.5939 141.565C40.6416 142.761 41.4179 143.21 42.3585 143.42C47.3424 144.535 50.9369 147.853 54.2168 151.352C60.3363 157.519 65.0152 164.878 70.2399 171.674C74.3311 176.21 71.7101 181.802 72.4173 187.951Z" fill="#FFAFCC"/>
<path fill-rule="evenodd" clip-rule="evenodd" d="M91.6989 133.178C78.5786 132.819 66.6782 129.361 53.9646 126.948C47.1433 125.974 40.359 122.987 33.4226 124.066C29.9514 124.854 27.7713 121.403 24.3932 121.354C23.5482 121.249 22.6929 120.944 22.7461 119.968C23.0031 118.113 25.1957 118.032 25.7242 116.172C26.3528 114.492 28.1458 113.789 29.8506 113.328C44.5884 109.284 59.6583 106.545 74.1221 101.518C81.9604 100.188 135.963 74.3088 125.438 96.1337C120.142 98.9071 118.669 105.218 114.828 109.46C112.401 113.91 106.148 117.233 106.403 122.574C106.567 123.02 105.839 124.237 105.292 124.421C99.8193 126.321 98.5877 134.82 91.6989 133.178Z" fill="#CDB4DB"/>
<path fill-rule="evenodd" clip-rule="evenodd" d="M143.181 169.142C155.397 167.952 153.662 195.514 143.85 196.924C133.624 198.28 144.322 193.135 126.298 192.32C122.664 192.046 124.467 187.679 121.636 186.138C120.227 185.192 120.306 182.987 121.171 181.42C122.19 179.574 123.756 178.292 125.654 177.596C131.811 175.481 136.338 168.911 143.181 169.142Z" fill="#A2D2FF"/>
<path fill-rule="evenodd" clip-rule="evenodd" d="M82.9489 21.5547C77.3568 22.0779 73.3767 18.6412 69.1214 15.9662C65.9003 13.2536 69.634 10.1793 65.056 6.62537C61.6546 1.62777 68.9242 -1.22052 72.8947 0.50667C78.0079 1.6016 83.2975 -1.53019 87.9369 2.44657C92.0654 5.25136 88.7091 10.7481 89.3875 14.8145C89.1815 18.7839 87.6507 22.3901 82.9489 21.5547Z" fill="#A2D2FF"/>
<path fill-rule="evenodd" clip-rule="evenodd" d="M145.106 66.6239C139.958 49.89 157.983 44.9941 157.768 55.751C159.101 58.899 166.819 53.8033 166.24 60.8389C165.858 65.4147 163.037 72.454 157.738 72.2944C156.204 72.0009 155.494 72.6984 155.183 74.0802C154.472 77.1209 152.592 78.0993 149.771 76.3673C144.607 76.5159 144.751 69.6698 145.106 66.6239Z" fill="#CDB4DB"/>
<path fill-rule="evenodd" clip-rule="evenodd" d="M97.3183 55.4993C98.1034 43.3581 113.262 45.7264 114.668 56.0895C116.024 67.5951 97.4401 65.9936 97.3183 55.4993Z" fill="#BDE0FE"/>
<path fill-rule="evenodd" clip-rule="evenodd" d="M37.6607 32.5918C33.4428 32.5534 24.5493 28.4705 27.7561 22.9822C30.2859 19.7984 34.4798 19.8725 37.5555 17.3756C44.5274 15.7081 50.7573 32.4896 37.6607 32.5918Z" fill="#BDE0FE"/>
<path fill-rule="evenodd" clip-rule="evenodd" d="M130.081 6.20391C132.587 5.6594 133.618 7.89128 135.118 9.391C138.427 11.2575 138.018 13.9927 136.878 17.0371C136.214 21.9543 133.679 21.4485 130.271 20.6054C128.218 19.6376 124.042 19.4013 123.915 16.6035C124.279 12.7016 124.623 5.70585 130.081 6.20391Z" fill="#BDE0FE"/>
<path fill-rule="evenodd" clip-rule="evenodd" d="M144.122 257.955C136.191 257.663 139.246 245.451 145.472 243.955C154.267 240.219 157.677 259.035 144.122 257.955Z" fill="#BDE0FE"/>
<path fill-rule="evenodd" clip-rule="evenodd" d="M188.886 235.292C187.075 242.488 179.874 247.353 174.959 239.491C172.157 231.014 187.991 225.306 188.886 235.292Z" fill="#BDE0FE"/>
<path fill-rule="evenodd" clip-rule="evenodd" d="M13.446 120.299C7.49301 121.269 12.2284 123.588 14.9823 125.138C19.4606 127.807 23.7281 130.829 28.4715 133.058C35.579 136.285 42.0841 140.703 47.2124 146.626C48.4662 148.028 48.8691 147.946 49.9645 146.529C51.2438 143.66 63.2351 132.231 60.6314 130.732C44.4953 128.535 29.9743 120.993 13.446 120.299ZM26.3764 116.387C26.9308 117.604 27.9737 117.589 28.8504 117.619C34.8027 118.118 41.3458 119.16 46.846 121.129C48.2368 122.656 49.8123 122.563 51.5282 122.581C55.7853 122.978 59.8374 124.484 64.1705 124.623C73.4307 125.618 82.6968 127.602 91.8255 129.555C96.7954 131.25 96.5786 132.196 99.8038 126.391C103.268 120.156 107.368 114.401 112.535 109.423C142.234 80.5136 106.974 93.5993 89.4985 97.5989C68.1351 102.755 47.3077 109.842 26.3764 116.387ZM71.7669 207.238C71.8345 207.239 71.9021 207.24 71.9701 207.241C72.14 197.744 72.2718 188.246 72.6057 178.753C72.8671 174.921 67.8142 174.179 66.3284 171.001C61.7582 164.575 52.9308 163.839 47.6415 158.16C39.2097 148.29 27.7292 142.959 16.6465 136.852C13.4006 135.246 10.8013 131.677 7.3006 131.111C6.29274 138.704 8.19176 146.495 7.91108 154.197C7.63372 164.479 6.76288 174.753 6.62882 185.045C7.16543 190.973 4.58577 200.416 10.5188 203.944C23.7879 210.225 36.6422 217.661 48.7616 225.948C55.2834 230.893 62.9791 233.904 70.0415 237.982C71.8958 238.478 71.1639 235.595 71.3481 234.526C71.4911 225.43 71.6281 216.334 71.7669 207.238ZM79.88 209.978C79.7415 209.979 79.6034 209.979 79.4653 209.98C80.5334 213.722 76.061 246.866 81.8673 241.27C102.363 226.893 127.421 221.272 149.429 210.434C158.262 207.304 165.7 200.334 175.22 198.862C177.057 198.868 177.067 198.749 177.359 196.746C178.818 181.696 189.56 136.666 170.869 131.439C152.812 127.486 134.95 122.579 116.839 118.891C113.589 112.922 135.172 116.063 138.159 117.226C146.105 119.125 153.974 121.386 161.942 123.163C162.399 123.222 162.388 122.609 162.247 122.38C157.712 118.884 152.623 116.061 147.933 112.748C127.32 100.952 132.559 93.5609 122.864 107.618C117.309 113.792 111.579 119.85 107.282 127.021C103.86 131.701 100.75 139.663 93.6518 136.479C85.9756 133.079 77.4256 133.217 69.2471 131.876C64.4837 133.045 62.8813 140.093 59.3336 143.392C56.2092 146.06 57.0465 149.39 53.8633 151.868C52.3639 155.31 69.0499 160.131 70.9545 166.214C73.1301 169.225 77.238 173.027 81.221 171.634C102.756 163.253 125.455 157.718 147.391 150.305C155.237 148.006 163.214 146.099 170.489 142.181C172.071 140.988 176.874 141.696 175.324 144.329C169.494 149.113 161.666 150.371 154.747 153.006C130.245 161.666 105.1 168.626 80.7952 177.719C78.7396 178.413 79.4095 180.592 79.435 182.267C79.5875 191.505 79.7327 200.742 79.88 209.978ZM177.192 203.488C174.324 207.919 170.326 208.794 166.979 210.645C155.207 217.054 142.91 222.525 130.158 226.692C112.916 232.846 96.1461 240.568 79.7984 248.743C77.6741 249.545 73.1282 250.723 74.2037 246.81C61.3999 242.928 47.4044 234.44 35.1657 226.843C24.9257 222.169 16.1342 214.489 5.2269 211.362C3.78695 211.019 1.67742 210.216 1.8233 208.489C-1.87648 182.5 1.61981 156.187 0.207186 129.98C0.650363 124.455 -1.98432 121.771 4.97318 119.584C40.7028 105.68 76.9658 93.026 114.61 85.3843C115.786 85.1112 116.937 84.8841 117.725 83.7696C121.474 81.2343 125.862 86.9331 128.949 88.8269C130.379 90.466 133.683 89.6936 133.78 92.2348C135.102 95.6033 139.419 97.1709 142.027 99.5882C147.387 103.379 153.018 106.767 158.031 111.075C165.134 116.323 173.225 120.32 177.986 128.137C178.904 129.163 179.923 130.028 181.477 129.35C183.821 130.393 186.494 132.628 187.636 135.518C194.82 157.036 188.448 178.965 187.243 200.738C188.028 211.462 177.648 212.055 177.192 203.488Z" fill="black"/>
<path fill-rule="evenodd" clip-rule="evenodd" d="M42.4039 55.4299C38.0294 55.1944 38.8692 58.241 41.5859 59.9162C44.7221 61.0904 54.1614 70.3792 56.2887 67.8034C60.798 56.6041 63.3533 49.8126 48.7934 57.8425C46.4464 59.3223 44.6641 54.6244 42.4039 55.4299ZM66.0891 55.0771C65.5197 62.213 61.4598 69.0874 60.4944 76.1838C60.4867 77.8859 58.8798 79.0085 57.1093 78.8201C53.8058 77.6124 54.537 73.2832 49.2617 71.5158C43.6205 67.7827 34.1885 64.377 33.5958 56.7498C33.7132 53.2574 36.5832 50.7995 40.0629 51.2195C43.147 50.8309 45.8988 55.0934 48.6047 52.7605C53.8667 47.3588 67.302 43.1697 66.0891 55.0771Z" fill="black"/>
<path fill-rule="evenodd" clip-rule="evenodd" d="M150.012 55.7062C148.39 60.4141 152.406 65.9868 153.219 70.8484C153.96 74.4944 163.714 60.9641 163.762 59.5027C162.198 59.092 160.647 58.9977 159.315 60.1678C155.832 62.4336 153.716 55.8183 150.012 55.7062ZM145.472 61.9573C140.661 55.0076 146.073 45.6805 153.655 53.0117C156.352 57.3641 160.486 54.8318 164.403 53.9348C168.969 52.4768 173.202 57.3553 170.922 61.6067C168.3 65.5529 165.442 69.4485 162.659 73.3272C147.687 94.0428 148.72 73.767 145.289 60.528C144.728 61.0135 145.246 61.4541 145.472 61.9573Z" fill="black"/>
<path fill-rule="evenodd" clip-rule="evenodd" d="M147.624 177.41C146.973 165.726 134.74 184.771 131.429 181.942C128.883 178.317 119.521 180.095 123.997 184.885C128.55 187.435 133.802 188.488 138.25 191.219C139.634 192.008 141.843 193.603 142.603 191.359C144.322 186.843 147.119 182.218 147.624 177.41ZM154.411 177.201C155.064 184.382 150.707 190.768 148.57 197.393C147.42 200.749 143.819 202.322 140.97 199.781C134.957 194.038 125.937 194.116 119.833 188.679C110.947 181.111 121.643 169.943 130.557 175.684C133.403 177.483 135.114 172.279 137.566 171.21C143.575 165.674 156.354 167.017 154.411 177.201Z" fill="black"/>
<path fill-rule="evenodd" clip-rule="evenodd" d="M40.8693 185.771C41.7771 182.613 41.1951 176.563 45.0311 174.52C53.0689 170.271 48.6862 199.569 44.0443 193.535C41.0215 191.446 40.8195 189.745 40.8693 185.771Z" fill="black"/>
<path fill-rule="evenodd" clip-rule="evenodd" d="M27.0756 172.749C26.8064 176.027 26.1863 187.176 21.0211 183.457C18.5548 179.501 19.915 174.554 20.9069 170.309C23.0962 165.141 27.8512 167.828 27.0756 172.749Z" fill="black"/>
<path fill-rule="evenodd" clip-rule="evenodd" d="M29.3341 200.188C32.7044 200.639 35.7568 201.381 37.979 204.004C37.4457 210.951 16.0894 202.55 29.3341 200.188Z" fill="black"/>
</svg>
