<svg width="213" height="242" viewBox="0 0 213 242" fill="none" xmlns="http://www.w3.org/2000/svg">
<path fill-rule="evenodd" clip-rule="evenodd" d="M143.202 118.683C152.643 120.353 179.217 124.262 184.761 115.53C190.096 103.825 176.765 92.1358 167.908 86.0715C147.726 68.5448 119.187 62.4228 94.1371 54.153C77.1361 48.0299 58.2906 46.0879 40.7314 51.1043C28.9531 53.818 29.7439 64.5975 33.0248 73.7999C36.4711 78.2567 41.7914 81.5012 45.9092 85.4444C51.0079 89.9459 58.887 89.3849 65.152 91.5249C90.3792 102.799 116.994 110 143.202 118.683ZM171.717 78.5768C205.33 112.696 206.274 133.761 151.957 128.236C141.388 127.449 132.412 121.167 122.001 120.186C119.22 119.106 116.473 117.929 113.651 116.972C104.746 114.101 95.3866 113.32 87.045 108.767C72.8857 100.769 54.8674 102.212 42.8499 90.3477C35.7109 83.1558 25.899 76.9676 22.2855 67.1332C19.1201 57.593 18.2329 46.8523 29.2659 42.3758C31.6745 41.231 33.9776 40.1379 35.6226 37.807C41.7456 31.2163 58.6281 34.8789 66.9921 36.0164C80.8127 38.6379 94.1132 42.9601 107.474 47.2633C130.496 53.8702 154.026 61.7708 171.717 78.5768Z" fill="#A2D2FF"/>
<path fill-rule="evenodd" clip-rule="evenodd" d="M49.4408 147.755C49.2228 148.26 48.8676 148.672 48.9208 149.022C52.2437 157.48 64.9555 152.159 49.4408 147.755ZM42.701 90.1995C47.9817 94.601 53.5528 98.4848 60.3767 100.139C52.1084 112.94 48.5756 127.72 56.2336 141.592C56.9739 143.176 57.7167 143.438 59.4029 142.614C77.1532 131.745 74.6134 143.863 85.4714 140.625C98.726 135.803 110.694 128.697 121.854 120.154C127.293 120.177 132.013 122.512 136.748 124.797C123.643 134.749 110.489 144.867 94.8413 150.473C84.8615 153.841 76.8274 161.482 66.3505 163.308C57.1125 164.454 49.5766 157.601 41.7673 153.742C23.661 141.485 31.6802 105.5 42.701 90.1995Z" fill="#CDB4DB"/>
<path fill-rule="evenodd" clip-rule="evenodd" d="M171.442 78.5186C168.252 75.8502 165.061 73.1821 161.871 70.5127C171.058 54.7054 177.927 37.1362 177.463 18.7074C177.565 16.343 177.015 15.8606 174.53 15.7637C161.8 15.3795 134.079 19.9531 124.139 27.621C99.9811 45.6624 110.832 49.5655 83.7643 39.7561C104.662 16.1064 124.555 8.87396 155.527 6.99507C167.164 6.32113 187.141 8.07494 188.755 22.4876C188.175 42.5053 182.153 61.5508 171.442 78.5186Z" fill="#CDB4DB"/>
<path fill-rule="evenodd" clip-rule="evenodd" d="M45.6134 85.4429C54.0307 72.5682 65.0473 61.7917 74.4617 49.7001C81.133 50.3559 87.7183 51.3822 93.9027 54.141C82.7229 65.4393 73.5854 78.3126 64.8762 91.5162C58.5973 89.3806 50.725 89.9427 45.6134 85.4429Z" fill="#CDB4DB"/>
<path fill-rule="evenodd" clip-rule="evenodd" d="M167.902 85.9013C160.891 97.6416 152.692 108.702 143.114 118.486C138.646 117.082 134.179 115.678 129.711 114.275C140.005 103.082 149.495 91.2463 157.343 78.2234C161.622 79.7523 165.131 82.3266 167.902 85.9013Z" fill="#CDB4DB"/>
<path fill-rule="evenodd" clip-rule="evenodd" d="M115.514 72.6667C115.481 74.8399 117.145 76.8668 115.373 78.2447C113.43 79.7554 112.209 77.2874 110.683 76.6107C108.44 75.6152 107.108 73.7678 106.525 71.3378C106.373 65.5327 97.7444 68.7781 97.848 72.8109C97.3712 76.9832 102.038 88.5389 93.7003 82.4625C83.2761 77.5678 84.9938 58.928 97.9901 59.9606C105.721 60.385 113.232 65.2002 115.514 72.6667Z" fill="#BDE0FE"/>
<path fill-rule="evenodd" clip-rule="evenodd" d="M146.771 75.4381C146.788 75.4338 146.805 75.43 146.823 75.4257C147.539 80.0509 148.923 83.058 152.307 77.7095C154.802 73.7264 154.418 73.5098 151.053 71.5769C145.18 67.1027 145.026 69.8982 146.771 75.4381ZM72.8839 55.1581C75.072 59.3801 79.6305 49.6604 81.376 47.8851C80.2864 46.275 78.4273 46.6246 76.9089 46.2917C69.8304 43.5955 73.1863 51.3178 72.8839 55.1581ZM143.742 108.463C142.633 99.4842 136.036 111.149 133.715 113.73C133.462 116.852 139.976 115.033 142.204 115.764C145.62 115.851 143.367 109.841 143.742 108.463ZM72.2215 85.2066C70.9787 71.5351 65.5616 84.7515 62.2992 89.6942C59.28 94.2774 72.3354 97.1594 75.4264 99.0057C78.8789 98.3483 72.5186 87.971 72.2215 85.2066ZM91.6484 117.818C93.5994 120.353 98.6351 133.895 102.606 130.549C104.753 128.008 114.271 124.198 112.549 120.954C109.733 120.394 88.7279 111.275 91.6484 117.818ZM98.3303 42.9684C106.768 46.3931 115.925 48.0656 124.649 50.8746C125.436 51.3545 126.346 50.6204 126.386 49.9584C124.262 46.012 117.22 26.829 112.255 30.0899C107.609 34.4542 101.812 37.5027 98.3303 42.9684ZM162.906 114.793C175.23 113.024 184.82 104.89 176.451 93.1623C177.223 89.4607 161.449 75.2357 159.576 79.6665C154.769 86.7481 149.333 93.1712 152.432 102.137C154.253 111.819 149.725 118.276 162.906 114.793ZM84.7588 9.545C73.1972 12.5563 73.0275 27.8039 72.5055 37.7253C73.1431 42.4925 81.2492 39.7281 84.7544 41.2675C93.6398 40.2079 99.518 28.1971 107.431 23.7256C110.501 19.9112 98.3697 12.0546 95.0603 10.2234C92.0406 8.81619 89.0959 8.25596 84.7588 9.545ZM129.44 153.946C141.955 151.083 143.308 137.729 144.404 127.333C144.543 125.939 143.831 125.336 142.282 125.158C119.897 121.379 123.642 124.325 106.369 137.311C105.65 143.98 122.782 155.089 129.44 153.946ZM29.3433 62.311C30.1715 69.1072 49.0823 89.0138 55.5212 87.1406C64.855 70.4136 69.4078 69.509 65.5594 49.4243C65.3799 45.6822 64.3235 45.5083 61.3541 45.4355C50.0499 46.2997 28.2782 46.7471 29.3433 62.311ZM76.0002 143.708C78.3341 141.597 98.1115 137.737 94.3149 132.549C88.7119 125.043 86.8396 113.719 78.0316 109.326C73.2093 108.62 59.7627 98.0153 57.0878 100.986C46.871 120.881 44.3645 151.185 76.0002 143.708ZM169.836 23.5919C163.57 0.404436 136.118 13.4216 123.155 22.8169C122.766 28.5456 131.829 37.7405 134.165 43.8879C140.201 58.7433 142.697 58.8555 156.647 65.6508C158.056 66.3031 158.655 66.102 159.45 64.6648C165.926 52.4395 172.172 37.4058 169.836 23.5919ZM80.0445 87.5031C82.6341 109.183 97.2945 106.972 114.567 111.928C126.642 117.214 131.911 101.839 139.592 95.2237C142.521 88.8092 137.295 80.8791 136.503 74.1184C134.195 69.3243 133.851 62.151 128.109 60.2472C117.276 56.378 106.67 52.1484 95.3929 49.7939C87.2363 48.5897 82.9615 61.9355 77.2854 66.5928C73.0285 72.9459 78.5899 80.9238 80.0445 87.5031ZM46.3153 41.6061C51.5813 40.5664 56.8692 39.9502 62.227 39.8415C64.695 39.7911 65.054 39.4966 65.2236 36.8932C66.3184 23.1945 70.6357 -2.8901 89.0525 0.409257C99.0657 1.81905 107.63 7.99452 114.664 15.0013C116.374 16.7341 116.811 16.7184 118.986 15.3779C133.729 6.98629 159.639 -6.03149 171.493 12.4889C181.881 30.3438 172.714 52.0008 165.26 69.4081C164.229 71.8146 167.476 72.7763 168.698 74.2851C173.505 78.1377 176.656 83.7876 181.876 86.9718C192.169 98.9607 190.42 117.23 173.21 121.948C168.039 125.172 155.244 123.141 152.996 127.003C151.78 138.549 148.381 152.393 137.306 158.249C124.772 163.935 112.797 154.448 104.575 145.75C102.024 141.305 99.2884 141.142 95.2236 143.928C84.2515 149.244 71.5449 154.456 59.2873 150.455C38.6999 142.168 44.8071 114.886 50.8178 98.5309C52.8385 93.0828 43.5153 90.9174 40.6199 87.2418C20.4878 71.8198 16.5653 47.2915 46.3153 41.6061Z" fill="black"/>
<path fill-rule="evenodd" clip-rule="evenodd" d="M184.201 146.669C182.583 143.088 189.196 140.078 191.148 142.598C193.467 147.035 198.579 151.556 198.795 156.469C193.116 157.751 186.829 151.353 184.201 146.669Z" fill="black"/>
<path fill-rule="evenodd" clip-rule="evenodd" d="M92.061 236.288C90.0301 232.173 93.2632 218.201 98.8443 221.226C101.864 227.751 97.218 234.275 95.6115 240.583C93.571 242.612 92.9741 237.489 92.061 236.288Z" fill="black"/>
<path fill-rule="evenodd" clip-rule="evenodd" d="M212.199 216.036C212.996 222.68 199.141 213.993 197.788 211.056C196.72 209.499 196.685 208.424 198.039 207.166C203.714 202.436 210.119 211.411 212.199 216.036Z" fill="black"/>
<path fill-rule="evenodd" clip-rule="evenodd" d="M33.4448 173.412C32.2583 169.551 38.4553 161.324 41.9059 166.549C43.2616 168.974 45.9121 171.253 43.5552 173.63C40.8277 177.779 34.6429 179.637 33.4448 173.412Z" fill="black"/>
<path fill-rule="evenodd" clip-rule="evenodd" d="M103.825 168.99C103.544 171.168 105.186 177.329 102.147 177.747C97.4458 178.006 95.3877 170.185 97.9046 166.934C100.081 165.153 103.346 165.414 103.825 168.99Z" fill="black"/>
<path fill-rule="evenodd" clip-rule="evenodd" d="M26.6816 136.183C22.1062 135.361 24.2615 130.448 26.2988 128.019C27.6902 125.536 35.3504 124.965 33.948 129.081C31.9104 131.808 29.1967 133.693 26.6816 136.183Z" fill="black"/>
<path fill-rule="evenodd" clip-rule="evenodd" d="M3.61862 163.897C2.30177 164.065 1.19696 164.872 0.269775 164.424C1.00898 163.736 2.23034 163.225 3.61862 163.897Z" fill="black"/>
<path fill-rule="evenodd" clip-rule="evenodd" d="M113.591 75.8225C115.352 82.7398 111.17 87.7912 105.971 90.499C99.0809 93.4209 93.2238 83.9559 93.1053 77.6831C93.4151 62.7707 109.727 63.8594 113.591 75.8225Z" fill="black"/>
</svg>
