<svg width="291" height="265" viewBox="0 0 291 265" fill="none" xmlns="http://www.w3.org/2000/svg">
<path fill-rule="evenodd" clip-rule="evenodd" d="M250.72 91.6824C274.187 92.6033 294.074 67.2792 280.964 46.436C272.17 31.9901 255.147 23.0925 238.696 30.2351C201.355 43.6217 213.658 90.7866 250.72 91.6824Z" fill="#FFAFCC"/>
<path fill-rule="evenodd" clip-rule="evenodd" d="M201.71 201.326C187.129 202.198 184.383 208.867 183.598 221.401C179.263 231.848 197.003 231.836 202.657 236.442C211.985 241.182 222.591 241.54 232.401 244.893C240.272 248.39 249.024 246.653 256.972 248.105C258.149 248.553 260.171 249.052 261.142 248.256C263.86 244.857 267.594 247.73 269.063 242.284C271.304 237.712 264.547 237.661 263.467 234.041C249.161 214.9 224.598 203.388 201.71 201.326Z" fill="#A2D2FF"/>
<path fill-rule="evenodd" clip-rule="evenodd" d="M51.6211 208.106C51.5486 207.668 52.1095 207.535 52.3648 207.604C57.4651 211.169 52.9506 212.728 51.6211 208.106ZM26.4528 211.539C26.2396 239.336 77.1676 237.057 78.8916 210.903C81.8502 193.095 66.168 171.674 47.3594 181.718C35.9283 187.678 25.797 197.369 26.4528 211.539Z" fill="#CDB4DB"/>
<path fill-rule="evenodd" clip-rule="evenodd" d="M98.8393 165.275C97.6952 165.484 85.3936 166.802 87.8482 163.714C91.9747 158.008 94.8802 151.476 98.7627 145.699C103.311 151.247 106.416 158.117 110.268 164.227C110.632 167.589 101.304 164.659 98.8393 165.275ZM79.9824 173.124C91.5757 170.099 103.075 173.113 114.733 172.797C116.291 172.764 117.566 172.254 118.142 170.572C120.707 168.121 120.64 166.774 118.541 163.825C111.278 153.634 106.079 141.477 97.5845 132.411C96.5657 131.867 95.4898 132.11 95.4396 133.209C93.4108 138.723 90.7203 143.958 88.3548 149.453C87.2763 155.173 70.0632 170.823 79.9824 173.124Z" fill="#FFAFCC"/>
<path fill-rule="evenodd" clip-rule="evenodd" d="M94.9743 216.547C93.8232 228.559 108.291 235.806 116.471 226.733C127.949 210.942 97.1046 192.419 94.9743 216.547Z" fill="#A2D2FF"/>
<path fill-rule="evenodd" clip-rule="evenodd" d="M144.008 109.352C145.809 58.1603 147.213 98.5469 218.505 107.001C221.283 106.228 227.352 116.987 223.464 117.536C221.679 118.233 221.429 119.374 221.505 120.934C223.21 134.096 218.204 140.58 212.526 124.753C210.996 122.179 208.561 112.209 205.067 117.963C205.063 123.479 207.211 129.386 210.085 134.095C213.82 140.266 225.564 140.591 226.103 132.078C226.549 128.442 225.577 124.014 226.621 120.756C232.828 133.39 236.571 148.396 239.39 162.469C241.815 181.882 243.296 215.609 219.781 221.829C194.926 226.768 176.197 204.851 163.529 186.364C146.964 163.167 145.239 136.83 144.008 109.352ZM128.747 114.896C128.297 134.114 128.469 153.919 128.779 173.219C128.848 183.291 132.881 192.712 133.762 202.696C133.743 205.219 136.041 206.495 136.09 208.831C142.362 228.654 151.433 250.086 170.063 261.012C178.228 266.279 194.001 267.001 196.391 255.139C200.522 246.679 186.858 223.715 192.427 224.021C198.434 226.191 204.509 228.464 211.016 227.986C226.147 231.388 233.239 218.959 237.158 221.277C246.412 231.3 257.707 239.059 266.882 249.139C273.086 255.437 278.885 263.714 288.403 257.507C298.622 247.572 275.715 193.449 270.899 179.695C258.327 150.736 244.746 121.464 225.594 96.5807C206.034 75.3014 169.373 47.5734 142.351 71.4447C134.266 84.0272 128.426 99.7142 128.747 114.896Z" fill="black"/>
<path fill-rule="evenodd" clip-rule="evenodd" d="M243.063 11.7547C255.734 17.6412 267.946 28.9186 265.714 43.7593C265.122 47.2796 263.371 49.9925 259.674 50.9104C256.434 51.2186 252.091 53.9249 249.56 50.8153C248.272 48.7914 244.256 47.1334 242.989 50.0083C240.533 55.9712 246.751 55.3269 247.4 58.8792C247.943 69.1087 238.627 77.4359 228.676 73.177C219.712 69.8271 210.263 65.3269 205.319 56.7175C204.256 54.6338 201.863 50.3797 204.733 48.8814C208.173 47.4243 211.839 45.7564 212.677 41.7465C213.752 38.7239 210.276 35.9705 207.677 37.7619C204.022 39.2491 202.113 46.0642 197.748 44.5593C189.26 41.4651 188.584 29.9 190.543 22.3937C191.276 19.4795 194.116 18.6637 196.728 18.1429C200.598 16.8235 200.863 23.9945 205.198 21.7675C209.024 20.9803 214.909 13.8612 208.438 12.3692C207.734 12.2193 206.639 12.699 206.494 11.6129C211.388 3.2302 222.626 4.99916 229.871 9.20924C235.013 10.7501 240.809 13.5817 242.978 18.7765C246.314 23.4986 243.671 13.6981 243.063 11.7547ZM271.486 39.9702C270.655 20.1043 251.234 8.24506 233.507 5.7055C225.388 1.22471 214.333 -2.066 206.681 5.03736C204.685 6.80852 202.768 8.62706 201.412 10.9698C193.001 17.7594 186.776 11.1009 185.177 28.7192C184.365 37.0971 188.111 47.4364 197.273 49.1297C198.693 49.403 199.31 50.1009 199.52 51.4691C200.848 69.653 238.938 91.5409 248.384 69.3875C252.489 64.7498 250.478 56.5196 254.07 57.1969C263.35 56.8087 272.64 50.037 271.486 39.9702Z" fill="black"/>
<path fill-rule="evenodd" clip-rule="evenodd" d="M35.7262 173.518C39.1123 174.54 41.1272 173.945 41.0682 178.215C42.8996 179.617 42.8681 175.676 44.6342 176.746C50.7046 180.223 55.5448 184.862 57.8765 191.634C60.071 200.241 64.5642 213.371 55.9133 219.589C50.6859 223.851 36.1031 226.8 34.8876 217.613C36.1559 213.913 30.5966 215.135 29.9361 217.314C29.0506 219.85 26.6463 219.953 24.3273 219.965C12.661 220.306 3.27962 207.211 5.62057 196.128C6.15947 192.658 19.4227 199.847 23.1554 189.7C24.0057 183.896 15.3837 186.057 11.9345 186.672C7.93149 187.858 7.25998 187.231 7.75747 183.035C9.90976 167.673 19.7472 160.437 34.4648 167.226C35.9496 167.798 41.099 171.074 37.9935 172.306C37.115 172.467 36.0581 172.214 35.7262 173.518ZM65.198 208.077C64.6492 198.042 62.9508 186.826 54.8637 179.993C51.7758 176.122 45.5794 175.51 43.3656 171.28C38.8379 158.057 15.0177 156.475 8.11355 168.286C6.32542 171.698 4.76589 175.266 3.4976 178.902C1.40026 182.909 4.16435 187.511 2.37328 191.42C0.146994 194.999 -0.062191 198.897 0.497952 203.002C2.00327 216.363 15.9852 227.991 29.2356 222.812C32.9698 222.083 35.3104 227.357 39.4808 227.145C51.4714 229.828 66.5337 221.716 65.198 208.077Z" fill="black"/>
<path fill-rule="evenodd" clip-rule="evenodd" d="M194.945 171.917C197.682 172.013 211.908 168.487 203.675 165.837C199.261 163.613 189.254 169.837 187.308 164.898C190.609 153.576 192.958 141.697 192.135 129.88C192.028 128.376 190.758 128.462 189.457 128.314C186.493 128.437 187.402 133.658 186.617 135.816C185.941 145.124 185.064 154.376 182.628 163.417C180.837 170.735 189.156 171.388 194.945 171.917Z" fill="black"/>
<path fill-rule="evenodd" clip-rule="evenodd" d="M175.77 129.808C175.902 128.243 176.049 123.021 173.433 125.171C172.894 128.477 170.634 145.398 166.087 136.334C164.183 133.316 164.267 112.261 159.281 124.334C157.05 141.493 174.472 153.464 175.763 129.808C175.766 129.808 175.768 129.808 175.77 129.808Z" fill="black"/>
<path fill-rule="evenodd" clip-rule="evenodd" d="M204.513 198.671C209.882 201.215 223.061 184.522 214.442 183.939C210.285 187.725 207.645 195.526 200.546 191.841C192.164 189.604 199.027 200.846 204.513 198.671Z" fill="black"/>
</svg>
