<svg width="279" height="275" viewBox="0 0 279 275" fill="none" xmlns="http://www.w3.org/2000/svg">
<path fill-rule="evenodd" clip-rule="evenodd" d="M156.551 237.901C151.091 236.172 145.662 240.84 140.005 240.777C127.592 241.257 114.715 243.182 102.438 240.63C85.099 236.517 64.2808 215.328 58.3893 198.756C52.6062 182.233 44.6037 164.817 48.1063 146.928C48.6259 141.184 54.3371 136.197 52.488 130.366C51.3881 128.043 52.4069 120.606 55.8231 122.72C61.1587 129.089 67.8116 133.881 74.6457 138.435C94.7283 153.033 116.544 164.713 137.979 176.929C155.365 187.773 170.547 201.867 188.779 211.416C209.08 219.991 188.363 227.228 177.815 230.436C169.781 230.547 164.497 238.061 156.551 237.901Z" fill="#FFAFCC"/>
<path fill-rule="evenodd" clip-rule="evenodd" d="M181.87 229.29C191.232 225.888 198.347 219.645 207.663 216.357C230.937 220.128 197.715 243.053 189.332 247.187C173.875 256.325 155.56 255.751 138.34 258.538C132.596 259.352 126.777 260.642 120.956 260.018C110.859 258.012 96.3534 265.107 90.3716 254.189C95.7237 248.189 86.0382 249.153 82.2191 247.175C61.2958 244.319 48.0945 227.579 38.0795 210.417C27.8877 191.108 27.8909 164.602 29.4973 143.104C31.6394 132.427 33.8937 118.945 43.7482 112.629C55.3047 112.332 46.4591 127.355 46.6068 133.742C43.5775 148.224 45.0589 163.169 44.8555 177.872C43.7801 195.385 49.2196 207.492 60.0855 220.865C65.3484 228.288 72.4093 233.394 81.1432 235.838C91.4701 238.434 101.101 244.14 111.943 244.142C125.769 243.945 140.121 245.569 153.171 239.971C162.236 235.915 172.643 233.71 181.87 229.29Z" fill="#CDB4DB"/>
<path fill-rule="evenodd" clip-rule="evenodd" d="M91.6538 94.9498C80.7213 94.5569 69.8546 89.2313 65.411 79.0544C64.9826 77.9814 64.5876 77.0255 63.1996 76.5918C58.832 74.2745 65.6299 70.1504 68.4052 69.9505C83.9213 64.1848 100.027 59.9351 116.4 58.8165C122.304 59.4352 117.115 66.2161 118.914 69.9618C116.681 83.6675 106.201 95.5677 91.6538 94.9498Z" fill="#A2D2FF"/>
<path fill-rule="evenodd" clip-rule="evenodd" d="M153.744 176.865C161.747 180.325 170.11 184.789 174.462 191.767C169.21 190.06 157.925 180.547 153.744 176.865Z" fill="#FFAFCC"/>
<path fill-rule="evenodd" clip-rule="evenodd" d="M73.4192 128.162C69.408 125.491 63.6892 124.227 60.6981 120.529C66.0535 121.168 70.6951 123.301 73.4192 128.162Z" fill="#FFAFCC"/>
<path fill-rule="evenodd" clip-rule="evenodd" d="M179.913 195.402C183.264 197.549 186.048 198.61 189 201.581C184.783 200.372 182.166 198.152 179.913 195.402Z" fill="#CDB4DB"/>
<path fill-rule="evenodd" clip-rule="evenodd" d="M205.506 217.725C138.572 287.219 22.54 237.735 46.683 138.967C50.7362 122.196 60.0186 126.825 43.3559 115.974C42.287 115.324 41.8034 116.688 41.3678 117.613C36.6068 128.695 32.5029 140.398 30.9533 152.375C20.2926 230.172 110.87 281.804 177.518 249.586C190.584 243.095 203.078 234.742 212.321 223.362C212.766 220.535 207.676 218.789 205.506 217.725ZM134.208 241.614C156.212 241.55 175.603 235.276 191.892 221.024C193.514 218.798 201.285 213.649 196.908 211.487C153.645 186.429 111.316 159.685 69.2739 132.754C65.8258 130.535 62.3402 128.374 58.8469 126.227C55.8408 125.472 56.2175 131.255 54.9873 133.111C46.5862 158.706 49.5737 188.562 67.3746 209.559C83.4859 229.641 108.731 241.356 134.208 241.614ZM134.966 268.424C91.5874 269.49 47.5417 245.325 30.3753 204.543C17.4096 175.878 15.1299 132.124 42.4859 111.442C51.1742 112.733 59.443 118.809 67.6743 122.229C96.4774 138.457 123.645 157.495 152.323 173.95C175.017 189.04 200.188 201.024 220.857 218.805C222.743 220.834 218.438 222.237 220.523 225.626C221.804 232.569 209.835 238.978 205.443 243.596C185.386 259.439 160.325 267.39 134.966 268.424Z" fill="black"/>
<path fill-rule="evenodd" clip-rule="evenodd" d="M45.8219 71.0592C32.7949 72.1328 36.3276 50.6169 46.9949 54.0166C55.3124 57.2816 56.2247 70.126 45.8219 71.0592Z" fill="black"/>
<path fill-rule="evenodd" clip-rule="evenodd" d="M106.131 116.012C105.81 126.89 93.7028 126.254 91.2396 117.81C90.7666 109.672 106.058 106.082 106.131 116.012Z" fill="black"/>
<path fill-rule="evenodd" clip-rule="evenodd" d="M214.432 145.493C214.178 149.708 210.824 156.848 205.869 153.435C203.937 151.779 201.002 150.662 201.393 147.644C200.96 138.937 214.867 134.7 214.432 145.493Z" fill="black"/>
<path fill-rule="evenodd" clip-rule="evenodd" d="M63.5618 262.358C67.3822 261.754 71.6584 266.046 70.7521 269.282C69.0467 271.691 67.6287 276.04 63.9646 274.773C63.4432 274.638 62.7628 274.347 62.5498 273.925C61.2768 271.508 58.164 270.757 57.883 267.754C57.1573 264.852 60.8497 261.74 63.5618 262.358Z" fill="black"/>
<path fill-rule="evenodd" clip-rule="evenodd" d="M30.803 7.36168C30.4874 5.82737 31.3072 4.68918 33.0129 3.92508C35.0119 2.95396 35.9121 0.53005 38.1398 0.0104646C41.7962 -0.252792 45.5619 6.45006 42.6997 9.48158C41.1666 11.9234 36.9805 14.8494 34.5001 11.5811C33.4232 10.0916 29.4503 10.3618 30.803 7.36168Z" fill="black"/>
<path fill-rule="evenodd" clip-rule="evenodd" d="M233.4 257.115C234.778 257.798 236.322 259.717 235.773 261.196C233.99 263.992 232.053 267.901 227.996 266.82C224.473 266.253 226.894 261.309 222.952 260.744C222.926 259.629 224.658 258.755 222.706 258.227C220.435 256.956 224.953 255.678 225.895 254.985C228.375 253.913 232.967 253.657 233.524 257.249C232.571 257.298 231.9 257.581 231.609 258.542C232.829 259.585 233.449 258.297 233.4 257.115Z" fill="black"/>
<path fill-rule="evenodd" clip-rule="evenodd" d="M218.475 186.1C218.367 183.604 221.503 179.814 224.236 180.607C227.069 181.422 231.775 182.523 230.619 186.521C228.903 193.807 217.742 193.352 218.475 186.1Z" fill="black"/>
<path fill-rule="evenodd" clip-rule="evenodd" d="M276.5 224.108C276.643 225.092 276.466 226.028 276.254 226.985C279.658 226.545 277.286 228.701 276.662 230.325C271.389 237.437 263.602 230.005 265.668 222.73C266.103 220.747 268.422 222.446 269.429 220.844C272.682 221.741 272.112 226.399 276.5 224.108Z" fill="black"/>
<path fill-rule="evenodd" clip-rule="evenodd" d="M160.8 149.242C167.528 150.228 167.896 157.851 161.657 160.137C155.015 162.803 149.908 150.315 160.8 149.242Z" fill="black"/>
<path fill-rule="evenodd" clip-rule="evenodd" d="M0.269318 230.169C-1.60639 225.707 6.83834 224.551 9.44628 226.441C12.1344 228.447 10.7557 234.077 8.1324 235.778C4.63518 237.149 -0.959161 234.073 0.269318 230.169Z" fill="black"/>
<path fill-rule="evenodd" clip-rule="evenodd" d="M27.833 99.4481C24.8814 98.561 22.0411 93.8002 25.7615 92.0469C27.3361 88.2998 29.8758 90.5588 32.0998 92.0276C35.1141 94.864 30.4134 98.3378 27.833 99.4481Z" fill="black"/>
<path fill-rule="evenodd" clip-rule="evenodd" d="M259.861 177.56C255.73 176.924 257.76 176.071 256.906 173.646C255.734 172.211 258.283 171.331 259.245 170.714C263.318 170.159 265.207 178.165 259.861 177.56Z" fill="black"/>
<path fill-rule="evenodd" clip-rule="evenodd" d="M72.8395 160.376C70.7849 160.376 68.7299 160.348 66.6757 160.384C62.3871 160.18 60.6693 154.212 65.1538 152.754C70.6651 151.949 81.0754 147.406 85.2239 151.983C85.5239 152.881 86.1575 153.566 87.083 153.639C88.0854 153.563 88.8802 156.083 88.6421 156.663C85.5531 161.956 78.0658 159.721 72.8594 160.873C72.8525 160.707 72.846 160.542 72.8395 160.376Z" fill="black"/>
<path fill-rule="evenodd" clip-rule="evenodd" d="M98.8617 202.842C100.606 196.618 106.719 184.766 114.166 184.867C114.972 184.762 116.28 186.341 115.865 186.997C115.002 190.693 114.684 193.947 111.859 196.824C108.76 200.168 107.253 206.182 102.894 207.76C100.166 207.647 98.8444 206.394 98.8617 202.842Z" fill="black"/>
<path fill-rule="evenodd" clip-rule="evenodd" d="M137.969 203.187C138.523 211.082 131.981 230.206 127.212 214.414C127.269 209.105 127.922 195.478 136.307 199.358C138.205 199.871 138.297 202.382 137.969 203.187Z" fill="black"/>
<path fill-rule="evenodd" clip-rule="evenodd" d="M79.9636 184.498C76.2946 184.454 77.5655 182.364 77.9137 180.503C77.3953 178.293 78.5879 176.923 80.0472 175.646C83.2236 172.911 93.7937 166.011 96.6808 170.991C96.4524 172.442 97.0749 174.184 95.4974 175.311C90.7439 178.48 85.6681 183.663 79.9636 184.498Z" fill="black"/>
<path fill-rule="evenodd" clip-rule="evenodd" d="M165.738 213.725C162.169 224.05 147.791 202.267 156.506 199.4C162.3 201.11 164.721 208.067 165.738 213.725Z" fill="black"/>
</svg>
