<svg width="499" height="498" viewBox="0 0 499 498" fill="none" xmlns="http://www.w3.org/2000/svg">
<path fill-rule="evenodd" clip-rule="evenodd" d="M283.463 307.179C263.469 308.269 262.125 284.895 280.653 281.032C303.075 276.482 307.046 307.788 283.463 307.179ZM473.09 348.166C470.417 340.04 464.649 332.706 467.253 324.009C466.149 317.63 472.318 313.848 471.995 307.483C471.295 296.827 473.214 285.481 469.35 275.34C468.688 273.748 468.891 273.014 470.122 271.749C473.264 268.52 471.95 263.296 467.675 262.074C432.331 256.948 396.493 253.447 360.805 251.546C355.103 250.277 359.701 258.952 354.752 258.093C331.884 256.599 308.94 257.252 286.084 255.876C278.31 257.388 241.63 251.573 242.179 258.963C236.552 278.531 237.281 299.096 236.597 319.263C235.87 354.973 242.461 375.005 279.283 349.753C286.994 343.713 321.804 309.815 329.213 321.899C334.209 337.937 347.273 346.19 359.896 331.625C366.576 323.332 373.116 312.946 383.408 309.262C408.974 302.888 432.746 325.94 442.545 347.485C448.139 357.692 449.338 377.317 464.421 376.59C477.102 377.909 470.19 356.916 473.09 348.166Z" fill="#FFAFCC"/>
<path fill-rule="evenodd" clip-rule="evenodd" d="M473.301 348.365C471.069 378.228 470.942 408.093 468.084 437.922C465.873 446.629 468.603 469.136 462.512 473.846C393.24 476.831 323.446 474.44 254.152 470.698C245.152 470.582 230.965 465.449 228.555 477.971C227.234 486.162 239.123 485.105 243.977 488.936C248.262 491.155 253.272 490.537 257.874 489.805C296.917 486.185 336.338 489.948 375.517 490.125C403.189 490.202 430.451 496.602 458.125 492.831C463.775 492.656 460.3 499.948 468.52 496.396C474.769 495.558 474.712 495.552 475.686 489.705C478.806 475.086 480.3 460.207 481.553 445.341C484.676 398.637 489.18 351.913 489.171 305.036C489.87 282.295 490.666 259.675 488.286 237.003C487.656 234.052 488.604 229.617 485.35 228.178C468.914 231.488 477.543 329.428 473.301 348.365Z" fill="#CDB4DB"/>
<path fill-rule="evenodd" clip-rule="evenodd" d="M176.297 230.078C177.899 243.492 169.531 270.607 190.33 270.615C198.461 268.851 235.538 275.57 234.798 267.001C243.471 254.834 224.956 258.686 231.34 249.974C241.755 235.805 232.487 212.618 246.858 217.218C266.698 221.63 275.522 209.219 276.559 190.834C275.989 175.606 248.32 185.326 238.287 183.55C220.536 183.426 203.352 187.688 186.069 191.1C169.019 195.163 178.041 217.953 176.297 230.078Z" fill="#A2D2FF"/>
<path fill-rule="evenodd" clip-rule="evenodd" d="M272.535 391.664C262.374 390.468 247.7 396.939 254.453 408.624C259.726 414.666 243.922 421.539 254.942 428.64C265.337 434.315 278.006 433.556 289.493 435.15C298.117 434.284 304.631 446.682 312.788 441.662C317.059 431.566 312.993 419.839 313.305 409.145C313.82 399.665 308.388 393.635 298.641 394.282C290.24 393.37 280.791 392.119 272.535 391.664Z" fill="#A2D2FF"/>
<path fill-rule="evenodd" clip-rule="evenodd" d="M283.303 307.04C307.12 307.641 303.107 276.627 280.463 281.136C261.752 284.97 263.113 308.121 283.303 307.04Z" fill="#A2D2FF"/>
<path fill-rule="evenodd" clip-rule="evenodd" d="M473.561 331.695C471.941 338.269 476.002 376.235 469.447 374.914C464.505 372.811 455.885 374.314 454.244 367.997C448.666 349.872 440.422 332.186 427.877 318.186C412.732 300.743 391.05 290.249 372.305 309.342C319.041 358.418 354.328 334.054 313.48 315.918C300.876 312.712 283.24 336.604 273.393 344.185C262.514 352.337 268.874 357.418 278.554 350.037C283.733 345.704 289.021 341.5 294.173 337.136C300.435 333.496 307.725 319.275 315.284 327.173C324.411 334.315 330.598 355.644 344.963 347.792C363.123 336.899 374.533 313.383 395.593 308.187C423.956 313.471 436.514 344.692 448.204 367.868C449.233 369.993 448.559 370.994 446.233 370.888C384.542 366.835 322.897 363.023 261.052 362.449C225.196 362.144 240.335 357.53 242.069 321.163C244.691 302.29 245.822 283.289 247.75 264.36C246.789 256.564 252.734 260.522 257.534 260.402C287.813 261.102 318.077 260.731 348.332 262.759C389.506 266.379 430.903 265.612 472.055 269.385C474.186 269.748 474.805 270.443 474.748 272.715C474.179 292.394 472.628 311.996 473.561 331.695ZM420.009 376.216C422.277 379.445 426.933 376.318 429.724 377.797C442.291 380.498 455.697 380.167 468.602 381.752C475.467 382.704 471.174 393.674 472.751 398.593C474.431 422.309 472.602 446.087 471.454 469.788C399.799 469.768 321.773 468.328 248.064 472.11C211.115 472.837 226.112 473.175 228.216 427.119C230.659 409.104 231.912 390.863 234.854 372.918C236.594 363.734 235.517 364.664 244.314 365.082C249.825 365.343 255.337 365.603 260.85 365.827C304.147 367.195 348.106 371.33 390.543 374.919C392.756 375.984 395.939 375.128 398.352 374.862C404.936 376.29 413.609 380.061 420.071 376.19C419.417 376.61 418.776 376.797 418.012 376.579C418.652 376.316 419.322 376.242 420.009 376.216ZM249.81 253.272C247.882 248.595 251.6 228.369 252.2 221.975C268.876 222.448 285.645 223.6 302.324 224.442C360.59 227.199 418.812 230.911 477.141 232.088C483.768 231.07 493.429 234.124 498.292 229.084C499.433 226.662 496.002 226.208 494.392 225.779C432.081 218.22 369.043 217.083 306.39 213.46C291.673 212.734 276.957 211.99 262.24 211.257C253.061 210.794 240.108 208.085 237.41 220.013C224.525 301.908 223.441 384.044 214.53 466.294C213.8 472.501 215.083 481.696 223.214 481.241C236.444 479.809 249.721 479.09 263.043 479.216C292.105 478.606 321.188 479.19 350.261 479.189C391.894 478.736 433.99 481.339 475.22 474.889C482.61 476.876 478.894 460.502 480.622 456.159C481.459 443.502 482.777 430.85 482.945 418.161C482.155 377 485.221 335.902 485.366 294.738C486.703 278.347 484.945 261.256 489.011 245.303C490.912 235.055 477.537 238.493 477.616 246.844C474.397 279.543 473.234 258.113 425.744 258.9C394.234 258.258 362.387 253.6 331.311 254.693C305.371 251.32 276.808 254.594 249.81 253.272Z" fill="black"/>
<path fill-rule="evenodd" clip-rule="evenodd" d="M451.853 136.337C442.362 137.177 429.89 138.093 420.928 143.541C415.335 146.189 408.328 154.511 419.644 152.168C433.899 148.416 448.61 148.084 463.036 145.668C479.817 137.904 460.851 135.833 451.853 136.337Z" fill="black"/>
<path fill-rule="evenodd" clip-rule="evenodd" d="M138.52 418.424C129.291 416.771 96.0153 480.155 117.395 460.761C121.084 455.626 152.334 419.402 138.52 418.424Z" fill="black"/>
<path fill-rule="evenodd" clip-rule="evenodd" d="M167.933 441.622C177.703 444.549 184.065 423.769 189.696 417.254C191.841 412.029 199.372 405.543 195.752 399.876C194.053 398.853 191.115 397.088 189.601 399.314C180.278 412.148 174.352 427.1 167.933 441.622Z" fill="black"/>
<path fill-rule="evenodd" clip-rule="evenodd" d="M425.425 188.085C431.747 186.567 479.927 186.753 473.453 176.666C468.862 171.363 395.843 187.742 425.425 188.085Z" fill="black"/>
<path fill-rule="evenodd" clip-rule="evenodd" d="M385.738 174.65C380.228 175.23 350.429 178.221 357.606 187.678C363.875 190.479 411.807 178.002 385.738 174.65Z" fill="black"/>
<path fill-rule="evenodd" clip-rule="evenodd" d="M283.21 232.657C278.947 229.377 275.571 235.808 271.672 232.211C270.148 230.807 268.185 230.124 266.115 230.351C261.131 232.425 271.778 236.825 267.663 239.622C265.991 241.488 261.95 242.727 262.507 245.688C264.874 248.7 268.842 243.551 271.323 242.497C274.145 240.036 276.232 243.884 278.666 244.924C280.251 245.745 284.435 246.075 283.405 243.205C279.437 238.4 276.782 237.131 283.21 232.657Z" fill="black"/>
<path fill-rule="evenodd" clip-rule="evenodd" d="M445.231 247.265C445.897 239.955 435.319 238.853 432.108 244.231C427.487 252.728 445.432 257.02 445.231 247.265Z" fill="black"/>
<path fill-rule="evenodd" clip-rule="evenodd" d="M457.006 240.993C449.217 241.225 455.601 257.323 462.043 251.648C467.282 247.687 463.239 239.758 457.006 240.993Z" fill="black"/>
<path fill-rule="evenodd" clip-rule="evenodd" d="M414.554 245.449C414.666 249.22 420.395 251.841 422.844 248.325C426.701 240.835 415.873 236.375 414.554 245.449Z" fill="black"/>
<path fill-rule="evenodd" clip-rule="evenodd" d="M285.669 303.101C269.178 302.474 284.222 287.231 291.822 284.643C303.273 282.975 296.725 304.731 285.669 303.101ZM283.855 312.731C297.632 313.762 308.593 303.714 306.844 290.438C310.062 268.044 278.974 274.126 269.812 286.422C260.334 298.244 268.782 314.273 283.855 312.731Z" fill="black"/>
<path fill-rule="evenodd" clip-rule="evenodd" d="M270.605 433.964C270.597 434.07 270.59 434.175 270.583 434.281C259.555 433.561 251.957 438.292 257.666 423.187C266.252 380.968 268.965 390.97 307.036 394.969C312.555 398.03 309.149 422.553 310.192 429.776C309.576 434.345 308.865 437.941 303.571 437.135C292.571 436.301 281.594 434.979 270.605 433.964ZM322.389 406.15C322.731 395.171 321.18 386.72 308.753 386.071C296.347 385.443 282.394 382.005 270.63 386.962C268.685 388.888 266.528 389.192 263.916 389.055C253.163 386.069 246.709 431.808 249.791 438.629C250.727 441.363 253.899 440.793 256.199 440.848C267.713 440.388 279.027 442.399 290.408 443.582C324.462 450.987 321.334 433.076 322.389 406.15Z" fill="black"/>
<path fill-rule="evenodd" clip-rule="evenodd" d="M433.266 413.499C431.521 404.401 426.334 394.662 417.353 391.096C407.982 386.327 405.582 408.189 397.358 402.845C375.897 373 380.72 403.145 370.876 399.27C366.301 395.399 357.348 383.186 351.951 391.462C351.591 395.874 347.764 401.476 349.994 405.447C353.175 406.259 355.403 402.742 356.701 400.332C361.953 397.285 369.568 416.286 378.025 407.301C380.51 405.825 382.354 398.625 385.759 401.514C404.789 431.414 410.876 393.802 418.234 402.803C422.184 406.199 428.196 423.248 433.266 413.499Z" fill="black"/>
<path fill-rule="evenodd" clip-rule="evenodd" d="M371.891 426.882C367.088 427.74 355.985 424.346 355.058 430.557C355.214 431.804 356.109 432.493 358.26 432.593C379.48 432.539 400.635 435.201 421.854 434.624C430.031 427.47 377.085 427.542 371.894 426.549L371.891 426.882Z" fill="black"/>
<path fill-rule="evenodd" clip-rule="evenodd" d="M387.277 444.302C349.196 445.087 405.836 453.196 414.791 449.644C417.844 444.732 391.144 444.452 387.277 444.339C387.277 444.326 387.277 444.314 387.277 444.302Z" fill="black"/>
<path fill-rule="evenodd" clip-rule="evenodd" d="M271.582 420.628C270.93 433.087 301.019 422.819 291.186 417.605C285.087 420.895 279.376 421.373 273.878 416.568C271.36 415.9 271.881 418.93 271.582 420.628Z" fill="black"/>
<path fill-rule="evenodd" clip-rule="evenodd" d="M282.124 404.198C281.626 393.005 265.845 405.723 272.058 409.06C276.894 411.253 282.267 410.774 282.124 404.198Z" fill="black"/>
<path fill-rule="evenodd" clip-rule="evenodd" d="M299.835 405.633C300.545 400.501 292.616 401.438 291.772 405.204C290.962 410.806 300.459 411.567 299.835 405.633Z" fill="black"/>
<path fill-rule="evenodd" clip-rule="evenodd" d="M219.752 105.768C220.067 120.316 215.703 134.113 205.061 144.406C197.332 153.116 193.547 166.235 180.799 168.931C141.204 185.774 83.594 165.232 74.7698 120.373C68.4983 99.2694 85.8193 84.4395 97.7944 69.8927C108.822 55.4097 126.703 50.9839 143.653 47.8215C151.321 48.6598 161.223 48.7715 167.363 53.7467C168.633 55.3329 170.546 55.8554 171.998 54.7504C176.826 51.7545 181.225 57.1946 185.684 58.6263C203.795 67.8127 220.771 83.9746 219.752 105.768ZM235.082 111.754C236.108 73.1439 209.987 50.6428 174.53 43.3296C155.225 29.7093 125.348 34.7636 104.563 44.7647C94.9501 50.2383 86.2363 57.0559 80.789 66.8828C76.1757 73.995 68.9526 79.3977 66.8986 88.0069C52.1147 123.561 78.5473 165.247 113.394 176.741C135.253 187.029 159.64 187.585 182.574 180.948C192.625 179.013 203.65 175.46 209.199 166.225C223.46 144.674 234.671 140.303 235.082 111.754Z" fill="#FFC8DD"/>
<path fill-rule="evenodd" clip-rule="evenodd" d="M293.45 85.4028C293.85 90.5421 294.869 94.9462 300.515 90.3223C307.302 93.3849 314.485 105.755 322.658 98.6969C327.397 96.3535 334.027 81.111 338.872 88.2999C355.005 124.512 362.59 85.3582 371.986 90.7177C377.414 95.1789 380.111 103.208 386.917 105.623C399.994 102.486 386.582 86.6854 381.609 80.9296C360.094 61.0229 357.674 92.3202 351.07 85.8577C348.001 79.2896 342.531 74.7785 335.672 72.7124C327.094 70.881 324.083 83.4232 317.244 86.8974C311.837 91.3006 294.449 62.7598 293.45 85.4028Z" fill="#FFAFCC"/>
<path fill-rule="evenodd" clip-rule="evenodd" d="M342.578 181.874C339.621 181.493 336.616 183.089 334.107 185.736C325.174 197.143 327.89 173.959 310.052 176.791C298.194 179.219 304.414 187.458 289.036 181.992C277.096 183.167 296.719 209.667 308.38 190.564C316.424 184.25 317.951 206.857 327.758 205.293C332.826 205.99 336.161 201.676 339.747 198.863C348.521 192.202 355.547 208.686 364.185 210.057C367.215 211.323 369.438 209.753 370.9 207.502C378.877 195.948 352.982 181.767 342.578 181.874Z" fill="#FFAFCC"/>
<path fill-rule="evenodd" clip-rule="evenodd" d="M356.902 132.696C349.701 132.97 341.435 151.093 339.678 144.423C337.984 140.798 335.024 138.32 332.136 135.885C319.889 124.947 312.531 145.539 306.137 141.411C302.16 136.918 299.678 137.817 296.775 142.182C295.636 143.71 294.839 147.767 297.49 147.79C300.652 147.704 302.051 149.72 303.682 151.824C312.168 161.948 321.166 137.443 329.424 148.2C345.026 181 352.335 140.955 361.155 150.917C366.866 154.96 371.566 166.832 379.44 160.682C391.859 155.056 363.884 133.694 356.902 132.696Z" fill="#FFAFCC"/>
<path fill-rule="evenodd" clip-rule="evenodd" d="M48.3968 250.35C47.2601 240.108 34.252 223.616 22.8595 232.068C18.4088 234.502 32.626 257.293 37.0676 256.006C37.7853 255.974 38.6557 256.722 39.2584 257.312C43.6496 261.394 50.6557 255.618 48.3968 250.35Z" fill="#FFAFCC"/>
<path fill-rule="evenodd" clip-rule="evenodd" d="M70.5685 176.514C72.4071 185.141 78.8255 195.13 88.5046 195.764C98.0595 195.964 93.9562 182.986 91.8815 177.525C90.718 168.661 69.2562 165.909 70.5685 176.514Z" fill="#FFAFCC"/>
<path fill-rule="evenodd" clip-rule="evenodd" d="M72.8438 217.703C73.8332 210.928 65.1131 209.146 61.2344 205.204C57.0577 201.85 52.6928 203.195 48.3228 204.37C42.0843 212.125 55.4397 221.203 60.1063 226.969C64.9601 230.417 74.2151 224.1 72.8438 217.703Z" fill="#FFAFCC"/>
<path fill-rule="evenodd" clip-rule="evenodd" d="M42.6592 255.634C40.2914 247.722 34.8552 242.923 26.8309 241.362C23.2131 240.165 29.4041 231.699 32.0267 234.833C36.676 238.68 52.9267 250.817 42.6592 255.634ZM82.7347 191.9C80.8063 189.408 70.4305 184.911 72.1972 182.297C75.5539 179.402 81.1854 171.529 85.5809 176.587C86.148 178.036 83.1142 178.781 85.8563 179.519C91.8064 181.21 91.8673 181.255 88.4343 186.174C86.7425 188.152 85.1817 190.85 82.7347 191.9ZM62.0137 224.806C58.0673 220.335 54.5686 215.468 48.9418 212.826C47.7001 212.165 47.0034 211.07 48.047 209.955C50.2321 208.09 52.1163 202.768 55.4696 205.619C62.2565 210.014 72.8627 218.42 62.0137 224.806ZM15.3337 259.527C16.8878 255.338 18.7164 247.259 24.8051 250.555C30.058 253.601 37.3118 259.005 36.5019 265.665C35.5826 267.776 33.4704 266.329 32.114 265.56C27.1096 261.945 20.3127 262.098 15.3337 259.527ZM57.1374 199.485C59.1685 196.693 64.5102 187.179 68.3587 190.414C71.357 193.957 80.7104 196.837 77.4587 202.368C75.7827 204.684 73.7201 212.162 70.2141 208.658C66.7576 204.405 59.8747 203.804 57.1374 199.485ZM50.8783 243.146C37.2542 223.884 27.4464 232.493 40.7242 218.416C44.5732 214.253 50.423 225.356 53.9222 227.373C55.6414 229.426 59.2687 231.575 57.4954 234.644C55.5051 237.556 54.6995 242.168 50.8783 243.146ZM81.54 105.443C79.9072 86.9758 93.0141 70.3409 106.082 58.5904C123.584 44.9941 149.65 43.9663 169.767 52.2996C205.541 65.0659 230.463 104.486 210.288 140.464C203.033 158.69 186.682 167.79 168.535 172.499C120.304 183.351 81.8821 155.79 81.54 105.443ZM97.7503 177.3C100.318 175.032 101.576 168.991 105.36 170.285C125.695 181.628 151.01 184.168 173.138 176.866C216.115 166.647 235.417 111.924 211.611 75.5986C185.796 31.1857 111.069 23.0386 83.8234 70.1384C63.1254 97.1026 73.7709 136.947 94.3513 160.957C96.9293 162.997 96.5195 165.289 94.5926 167.667C89.8421 178.09 86.3443 155.409 69.324 172.532C62.9301 178.485 57.337 185.187 52.5351 192.486C43.2599 207.326 29.9851 219.08 21.563 234.485C20.0401 240.375 7.87315 244.802 12.0887 248.059C14.5396 251.299 10.3403 255.153 9.69403 258.567C8.50218 261.704 4.4646 261.626 2.17016 263.666C-5.76394 273.187 13.6942 281.503 21.7454 280.272C26.2728 279.285 32.1932 281.702 35.784 278.16C46.9199 262.82 57.2886 246.731 67.8952 230.853C74.9901 220.291 83.7183 210.967 89.8344 199.738C92.4604 192.977 105.623 183.849 97.7503 177.3Z" fill="black"/>
<path fill-rule="evenodd" clip-rule="evenodd" d="M255.88 185.868C258.47 178.593 226.693 148.521 227.481 163.792C231.376 167.367 252.694 196.471 255.88 185.868Z" fill="black"/>
<path fill-rule="evenodd" clip-rule="evenodd" d="M252.502 109.041C236.403 112.059 281.472 128.991 286.079 128.074C294.803 122.161 257.807 108.776 252.502 109.041Z" fill="black"/>
<path fill-rule="evenodd" clip-rule="evenodd" d="M47.6459 21.2519C50.9892 31.4176 67.1995 47.4172 77.9673 48.3006C86.1989 42.1077 53.7884 21.1718 47.6459 21.2519Z" fill="black"/>
<path fill-rule="evenodd" clip-rule="evenodd" d="M120.727 204.197C121.07 211.28 122.093 231.16 130.956 216.71C137.95 196.463 121.517 181.444 120.727 204.197Z" fill="black"/>
<path fill-rule="evenodd" clip-rule="evenodd" d="M272.429 50.3163C264.656 51.6531 257.524 56.4948 251.398 61.3404C247.377 63.4012 244.369 72.4863 251.519 70.6842C256.691 67.516 261.761 64.1828 266.895 60.9532C269.847 59.1194 272.863 57.4396 276.303 56.6277C281.765 53.2839 277.362 49.9099 272.429 50.3163Z" fill="black"/>
<path fill-rule="evenodd" clip-rule="evenodd" d="M186.382 197.967C188.632 205.203 193.912 216.937 201.697 218.902C209.451 216.821 189.703 181.517 186.382 197.967Z" fill="black"/>
<path fill-rule="evenodd" clip-rule="evenodd" d="M207.949 44.9349C220.355 46.5327 227.596 14.4235 213.119 24.8094C209.33 29.9246 210.171 37.2753 205.893 41.8541C203.842 43.4048 206.347 45.0678 207.949 44.9349Z" fill="black"/>
<path fill-rule="evenodd" clip-rule="evenodd" d="M157.588 21.1411C159.822 37.2036 174.852 4.55602 169.139 0.176337C161.855 -1.93098 158.225 15.4865 157.588 21.1411Z" fill="black"/>
<path fill-rule="evenodd" clip-rule="evenodd" d="M21.9249 141.987C22.6062 142.674 23.1158 143.957 24.2299 143.749C29.4794 142.109 34.8797 143.199 40.1993 142.915C62.1035 138.243 36.2394 126.382 21.9249 141.987Z" fill="black"/>
<path fill-rule="evenodd" clip-rule="evenodd" d="M38.1716 94.7086C41.4559 95.5488 49.0973 91.433 43.5066 89.0368C36.1478 88.2101 26.8213 88.3281 20.3947 91.3404C25.888 93.4083 32.3463 93.3983 38.1716 94.7086Z" fill="black"/>
<path fill-rule="evenodd" clip-rule="evenodd" d="M113.355 17.643C113.66 13.1343 110.239 0.0786963 105.148 8.07085C104.76 13.8641 112.54 34.7395 113.355 17.643Z" fill="black"/>
<path fill-rule="evenodd" clip-rule="evenodd" d="M150.54 119.957C168.59 100.037 162.483 83.9538 172.244 94.7835C179.12 103.397 180.71 114.493 183.163 124.92C184.35 131.948 153.781 122.873 150.54 119.957ZM131.767 108.857C120.647 102.516 112.265 89.343 114.08 76.3196C123.391 70.7965 138.385 74.1355 148.51 78.1851C150.07 78.8189 150.136 79.6979 148.724 80.8888C140.032 88.2351 135.196 98.1633 131.767 108.857ZM179.585 133.272C191.177 134.965 186.77 128.961 186.824 120.714C185.917 115.221 193.831 118.51 196.612 115.888C199.945 111.86 192.2 110.611 189.421 110.792C185.51 110.959 184.729 110.588 183.893 106.301C183.187 103.751 181.561 100.908 181.724 98.3159C182.687 95.8986 188.259 94.2927 190.622 92.3811C192.668 91.4052 191.448 88.3594 189.49 88.238C185.067 87.667 182.811 92.0913 178.943 93.0951C172.445 83.3607 164.048 85.6969 173.298 74.0822C174.945 72.0555 173.058 70.3795 171.149 69.1839C167.701 68.9847 166.611 74.0338 164.361 76.119C161.157 79.4042 156.086 73.1557 152.515 72.1635C148.029 70.0753 157.481 60.3871 152.008 59.1775C143.659 59.5287 147.919 68.3912 142.333 68.742C138.81 67.3126 127.545 68.9713 127.281 64.8378C128.123 61.1687 129.819 57.0126 126.624 54.0119C125.692 52.8992 123.785 53.2096 123.191 54.5833C122.972 57.1033 120.412 58.5403 120.817 61.2109C125.983 71.8564 111.458 64.9222 106.477 69.0169C101.873 72.055 110.106 73.7286 107.565 77.5973C103.832 111.479 150.339 134.465 179.585 133.272Z" fill="black"/>
</svg>
