<svg width="176" height="164" viewBox="0 0 176 164" fill="none" xmlns="http://www.w3.org/2000/svg">
<path fill-rule="evenodd" clip-rule="evenodd" d="M123.933 118.56C133.373 120.23 159.947 124.139 165.491 115.406C170.826 103.702 157.495 92.0123 148.638 85.9479C128.457 68.4213 99.9173 62.2992 74.8672 54.0295C57.8662 47.9063 39.0208 45.9644 21.4616 50.9807C9.68327 53.6945 10.4741 64.474 13.755 73.6763C17.2013 78.1331 22.5216 81.3777 26.6394 85.3209C31.738 89.8223 39.6171 89.2614 45.8822 91.4014C71.1093 102.675 97.7237 109.876 123.933 118.56ZM152.448 78.4533C186.06 112.573 187.004 133.637 132.687 128.112C122.118 127.325 113.142 121.043 102.731 120.062C99.9505 118.982 97.2035 117.806 94.3813 116.848C85.4763 113.978 76.1168 113.196 67.7751 108.643C53.6158 100.646 35.5976 102.088 23.5801 90.2242C16.4411 83.0323 6.62915 76.8441 3.01568 67.0097C-0.149785 57.4695 -1.03698 46.7288 9.99605 42.2522C12.4046 41.1075 14.7078 40.0144 16.3527 37.6835C22.4758 31.0928 39.3582 34.7553 47.7223 35.8929C61.5429 38.5144 74.8433 42.8366 88.2037 47.1398C111.226 53.7467 134.757 61.6472 152.448 78.4533Z" fill="#A2D2FF"/>
<path fill-rule="evenodd" clip-rule="evenodd" d="M30.1709 147.632C29.9529 148.137 29.5977 148.549 29.6509 148.899C32.9739 157.356 45.6857 152.036 30.1709 147.632ZM23.4311 90.0759C28.7119 94.4774 34.283 98.3613 41.1068 100.016C32.8385 112.816 29.3057 127.597 36.9638 141.469C37.7041 143.053 38.4469 143.315 40.133 142.49C57.8834 131.621 55.3435 143.74 66.2016 140.501C79.4562 135.68 91.4239 128.574 102.585 120.03C108.024 120.053 112.743 122.388 117.478 124.673C104.373 134.625 91.2189 144.743 75.5715 150.349C65.5917 153.717 57.5576 161.359 47.0807 163.185C37.8426 164.33 30.3067 157.478 22.4974 153.618C4.39113 141.361 12.4103 105.376 23.4311 90.0759Z" fill="#CDB4DB"/>
<path fill-rule="evenodd" clip-rule="evenodd" d="M152.172 78.3951C148.982 75.7266 145.791 73.0586 142.601 70.3892C151.788 54.5819 158.657 37.0126 158.193 18.5839C158.295 16.2195 157.746 15.7371 155.26 15.6402C142.53 15.2559 114.809 19.8295 104.869 27.4974C80.7113 45.5388 91.5624 49.442 64.4945 39.6325C85.3926 15.9828 105.285 8.75043 136.257 6.87153C147.894 6.19759 167.871 7.9514 169.485 22.3641C168.905 42.3818 162.883 61.4272 152.172 78.3951Z" fill="#CDB4DB"/>
<path fill-rule="evenodd" clip-rule="evenodd" d="M26.3436 85.3194C34.7609 72.4447 45.7774 61.6682 55.1918 49.5765C61.8632 50.2323 68.4484 51.2586 74.6329 54.0175C63.453 65.3158 54.3156 78.189 45.6064 91.3927C39.3274 89.257 31.4552 89.8192 26.3436 85.3194Z" fill="#CDB4DB"/>
<path fill-rule="evenodd" clip-rule="evenodd" d="M148.632 85.7778C141.621 97.5181 133.422 108.579 123.844 118.363C119.376 116.959 114.909 115.555 110.441 114.151C120.735 102.959 130.225 91.1228 138.073 78.0999C142.352 79.6287 145.861 82.2031 148.632 85.7778Z" fill="#CDB4DB"/>
<path fill-rule="evenodd" clip-rule="evenodd" d="M96.2443 72.5432C96.2108 74.7164 97.8753 76.7433 96.1034 78.1212C94.1602 79.6319 92.9387 77.1639 91.4135 76.4871C89.1699 75.4916 87.8382 73.6443 87.2549 71.2142C87.1028 65.4092 78.4745 68.6546 78.5781 72.6873C78.1014 76.8596 82.7677 88.4153 74.4304 82.3389C64.0063 77.4443 65.724 58.8045 78.7203 59.8371C86.4516 60.2615 93.9624 65.0767 96.2443 72.5432Z" fill="#BDE0FE"/>
<path fill-rule="evenodd" clip-rule="evenodd" d="M127.501 75.3146C127.518 75.3103 127.536 75.3065 127.553 75.3022C128.269 79.9274 129.654 82.9345 133.037 77.5859C135.532 73.6029 135.148 73.3863 131.783 71.4533C125.91 66.9792 125.756 69.7746 127.501 75.3146ZM53.614 55.0346C55.8021 59.2565 60.3607 49.5368 62.1062 47.7615C61.0165 46.1515 59.1575 46.5011 57.639 46.1682C50.5606 43.4719 53.9165 51.1942 53.614 55.0346ZM124.473 108.339C123.364 99.3606 116.766 111.025 114.445 113.606C114.192 116.728 120.706 114.909 122.934 115.64C126.35 115.727 124.097 109.718 124.473 108.339ZM52.9517 85.0831C51.7089 71.4115 46.2917 84.6279 43.0294 89.5707C40.0102 94.1539 53.0656 97.0359 56.1565 98.8821C59.609 98.2248 53.2487 87.8475 52.9517 85.0831ZM72.3786 117.695C74.3295 120.23 79.3653 133.771 83.3361 130.426C85.4829 127.884 95.0012 124.075 93.2794 120.83C90.4628 120.271 69.458 111.152 72.3786 117.695ZM79.0604 42.8448C87.4983 46.2695 96.655 47.9421 105.379 50.751C106.166 51.231 107.076 50.4969 107.116 49.8349C104.992 45.8884 97.9501 26.7055 92.9851 29.9663C88.3387 34.3307 82.5418 37.3792 79.0604 42.8448ZM143.636 114.669C155.96 112.9 165.55 104.766 157.181 93.0387C157.953 89.3372 142.179 75.1121 140.306 79.5429C135.499 86.6245 130.063 93.0477 133.163 102.013C134.984 111.695 130.456 118.153 143.636 114.669ZM65.489 9.42147C53.9273 12.4328 53.7577 27.6803 53.2356 37.6018C53.8732 42.3689 61.9793 39.6045 65.4845 41.1439C74.37 40.0843 80.2481 28.0735 88.1612 23.6021C91.2311 19.7877 79.0999 11.931 75.7905 10.0999C72.7707 8.69266 69.8261 8.13242 65.489 9.42147ZM110.17 153.823C122.686 150.959 124.038 137.605 125.134 127.21C125.273 125.816 124.561 125.213 123.013 125.035C100.627 121.255 104.372 124.201 87.0988 137.187C86.3799 143.857 103.512 154.966 110.17 153.823ZM10.0735 62.1874C10.9016 68.9837 29.8125 88.8903 36.2514 87.017C45.5852 70.2901 50.138 69.3855 46.2896 49.3008C46.11 45.5587 45.0536 45.3848 42.0843 45.312C30.78 46.1762 9.00835 46.6235 10.0735 62.1874ZM56.7304 143.584C59.0642 141.473 78.8416 137.614 75.0451 132.425C69.442 124.92 67.5697 113.595 58.7617 109.202C53.9394 108.497 40.4929 97.8917 37.8179 100.863C27.6012 120.757 25.0946 151.061 56.7304 143.584ZM150.566 23.4684C144.301 0.280901 116.848 13.298 103.885 22.6934C103.496 28.4221 112.559 37.617 114.895 43.7644C120.932 58.6198 123.427 58.7319 137.377 65.5273C138.786 66.1796 139.385 65.9785 140.18 64.5412C146.656 52.316 152.902 37.2823 150.566 23.4684ZM60.7747 87.3795C63.3643 109.06 78.0246 106.849 95.2975 111.804C107.372 117.09 112.641 101.715 120.322 95.1001C123.251 88.6856 118.025 80.7555 117.233 73.9948C114.925 69.2008 114.581 62.0274 108.839 60.1237C98.0066 56.2544 87.4004 52.0248 76.123 49.6703C67.9665 48.4662 63.6917 61.812 58.0155 66.4693C53.7586 72.8224 59.3201 80.8003 60.7747 87.3795ZM27.0454 41.4826C32.3115 40.4429 37.5993 39.8266 42.9572 39.718C45.4251 39.6676 45.7842 39.3731 45.9538 36.7697C47.0485 23.071 51.3658 -3.01363 69.7827 0.285722C79.7958 1.69552 88.3602 7.87099 95.3937 14.8778C97.104 16.6106 97.5413 16.5949 99.7163 15.2544C114.459 6.86275 140.369 -6.15503 152.223 12.3654C162.611 30.2203 153.445 51.8772 145.99 69.2846C144.96 71.6911 148.206 72.6528 149.428 74.1616C154.235 78.0142 157.386 83.6641 162.606 86.8483C172.899 98.8372 171.15 117.106 153.94 121.825C148.769 125.048 135.974 123.018 133.726 126.88C132.51 138.426 129.111 152.27 118.036 158.126C105.502 163.811 93.5269 154.325 85.3052 145.627C82.7539 141.182 80.0186 141.019 75.9538 143.804C64.9817 149.121 52.2751 154.332 40.0175 150.331C19.43 142.044 25.5372 114.763 31.548 98.4074C33.5687 92.9592 24.2454 90.7939 21.3501 87.1182C1.218 71.6963 -2.7045 47.168 27.0454 41.4826Z" fill="black"/>
<path fill-rule="evenodd" clip-rule="evenodd" d="M94.3212 75.699C96.082 82.6162 91.9006 87.6677 86.7015 90.3754C79.811 93.2974 73.9539 83.8324 73.8355 77.5595C74.1453 62.6472 90.4575 63.7358 94.3212 75.699Z" fill="black"/>
</svg>
