<svg width="267" height="308" viewBox="0 0 267 308" fill="none" xmlns="http://www.w3.org/2000/svg">
<path fill-rule="evenodd" clip-rule="evenodd" d="M88.9939 265.255C84.1146 265.528 60.6672 262.195 72.6295 270.838C74.1443 271.211 74.0794 271.874 73.3558 273.012C72.9705 273.619 73.1918 274.346 73.7769 274.939C76.8278 278.596 77.0604 283.671 80.2369 287.429C80.9791 288.743 83.4741 290.021 81.2769 291.286C80.0793 291.694 80.0008 293.096 80.0144 294.164C80.7757 295.892 81.5295 296.541 79.2343 297.427C76.7427 298.896 78.9204 300.67 79.9868 302.222C81.6023 307.189 101.542 305.274 107.062 306.844C112.789 307.619 118.114 306.724 123.547 305.111C127.216 304.687 131.876 304.837 133.391 300.585C135.761 296.901 141.422 299.478 140.45 292.239C139.935 289.962 142.171 290.623 143.605 290.367C146.571 289.653 143.45 285.47 143.27 283.505C137.108 265.921 131.087 248.254 127.883 229.846C127.537 221.875 118.38 214.991 124.786 207.706C125.312 204.678 114.795 204.307 116.847 208.204C119.058 213.431 99.8908 207.85 99.2961 213.02C99.2644 214.343 98.3888 214.479 97.4023 214.576C88.6914 215.509 80.7918 219.469 71.9694 220.252C61.5706 223.275 69.3333 224.477 70.3833 230.69C73.5267 236.254 58.6633 232.657 74.2895 246.141C72.4684 247.043 68.5445 245.679 68.9524 248.941C62.4602 256.26 79.3054 254.886 83.0052 256.885C78.2436 257.702 61.631 256.488 75.3251 262.853C80.1026 263.848 84.1864 263.763 88.9939 265.255Z" fill="#BDE0FE"/>
<path fill-rule="evenodd" clip-rule="evenodd" d="M135.395 168.698C135.099 170.115 132.163 169.225 131.241 168.272C132.405 167.472 134.053 168.633 135.395 168.698ZM116.727 140.777C119.402 155.395 122.962 170.326 126.231 184.923C126.521 187.02 127.252 189.158 125.208 190.732C120.706 194.23 127.435 194.867 128.542 197.771C129.817 200.794 132.02 202.973 135.458 201.728C142.014 200.089 148.66 198.799 155.292 197.479C159.364 196.824 164.116 197.954 166.448 193.449C173.898 181.1 162.71 169.893 159.537 158.161C154.724 146.963 152.479 133.223 142.972 125.037C137.522 121.335 122.026 124.173 115.631 125.803C112.886 126.717 114.424 129.218 115.136 131.142C114.666 134.441 115.443 137.523 116.727 140.777Z" fill="#FFAFCC"/>
<path fill-rule="evenodd" clip-rule="evenodd" d="M187.136 19.3375C184.495 7.47335 177.545 5.62366 166.807 8.57317C161.98 10.5044 154.272 11.4251 153.646 17.8544C154.021 29.6278 151.78 41.7776 153.83 53.3445C159.658 67.6909 178.054 62.3284 178.405 47.4777C179.581 37.5427 190.412 29.6606 187.136 19.3375Z" fill="#CDB4DB"/>
<path fill-rule="evenodd" clip-rule="evenodd" d="M9.46461 101.034C4.68577 101.587 -3.74528 106.802 3.74302 110.405C16.5748 117.596 30.6211 122.738 42.2882 131.91C44.838 134.344 50.6794 132.961 49.6313 128.91C47.7544 125.185 39.5455 123.983 43.8554 119.353C45.4862 115.921 43.0965 111.392 41.2978 108.468C40.3123 106.758 31.8527 102.609 34.802 101.369C49.2845 89.3736 13.0557 100.759 9.46461 101.034Z" fill="#FFC8DD"/>
<path fill-rule="evenodd" clip-rule="evenodd" d="M137.535 223.562L149.873 264.426C152.981 250.106 143.942 236.052 137.535 223.562Z" fill="#BDE0FE"/>
<path fill-rule="evenodd" clip-rule="evenodd" d="M126.835 194.041L126.829 194.043C127.396 196.333 129.803 200.466 125.84 200.49C118.704 201.28 112.145 204.114 105.403 206.285C95.2877 209.749 85.6362 214.433 75.4042 217.589C73.3802 217.809 69.8726 221.386 68.6301 218.666C68.3688 215.76 64.8513 211.227 67.3041 209.017C74.261 205.445 81.9642 203.649 89.2691 200.926C100.3 197.155 111.326 193.37 122.345 189.564C125.744 187.535 126.075 191.595 126.835 194.041ZM44.5231 106.24L44.3193 106.297C41.0932 94.8982 35.7203 83.798 34.7084 71.9151C43.2051 71.0578 57.367 106.64 59.2923 114.85C60.6093 121.111 67.3022 119.96 66.6657 113.792C65.3495 100.829 62.0082 88.2103 60.3115 75.3027C57.62 51.8997 69.4475 74.2741 72.5284 82.5719C77.1289 88.0753 80.359 119.611 87.701 116.106C92.8891 112.089 85.371 90.6812 85.5859 83.1914C85.564 77.4881 78.0032 44.426 88.9897 63.5406C106.047 97.9355 111.207 136.527 121.359 173.218C122.084 175.619 122.809 178.023 123.416 180.455C124.488 184.757 124.387 184.561 120.466 185.42C110.769 187.517 101.244 190.273 91.9281 193.675C57.5831 203.47 68.3239 211.616 58.3515 182.693C53.6917 166.48 27.3217 181.812 34.5284 173.004C40.6732 165.968 47.9529 159.742 52.8847 151.717C56.5151 136.686 47.34 121.05 44.5231 106.24ZM79.1426 83.443C73.3985 76.0164 72.2144 65.4884 63.3826 60.8642C58.7678 59.8564 57.4113 59.2826 55.488 64.4498C52.7095 71.9745 55.7519 80.184 55.4606 87.7065C48.8037 80.4912 45.1233 68.7745 34.6445 65.3126C17.4458 59.9077 43.3981 125.608 44.3469 133.97C47.555 145.062 49.2207 147.388 41.2097 156.063C25.0065 169.821 18.5856 187.695 47.6082 182.755C51.5101 182.715 52.1624 183.329 52.9674 187.248C58.2008 214.345 65.5779 240.964 73.5441 267.37C76.6118 278.913 79.7722 290.421 82.7477 301.988C83.049 304.53 87.3343 306.225 87.7161 302.973C83.9216 281.839 79.6528 260.185 73.6123 239.521C73.5074 235.969 67.8219 224.917 72.241 223.845C78.1663 218.98 77.5443 235.274 79.1768 238.67C80.1685 243.981 81.8886 249.042 83.9895 254.005C88.7723 264.956 92.1434 276.438 95.8874 287.771C97.7861 291.175 97.9494 302.277 102.929 301.019C106.532 297.588 96.3757 275.467 95.6183 269.12C92.7647 258.735 87.2798 249.261 85.0456 238.711C83.5784 233.173 82.4271 227.52 79.3725 222.589C79.1045 222.064 79.2259 221.527 79.6629 221.388C82.5355 221.024 87.5377 217.441 89.6783 220.086C92.1406 232.253 94.5488 244.469 99.1811 256.039C102.148 264.732 105.023 273.469 107.862 282.208C110.055 285.866 111.113 303.555 116.381 300.5C117.973 299.059 116.631 296.034 116.751 294.062C115.284 283.061 111.939 272.379 108.685 261.799C103.627 247.647 101.24 232.585 94.9934 218.881C93.6478 215.441 99.9957 215.759 102.013 214.551C103.179 214.216 103.564 214.58 103.963 215.942C106.95 226.135 109.819 236.365 112.967 246.507C117.397 260.766 122.654 274.764 126.279 289.263C127.359 291.504 127.091 295.537 129.986 296.026C131.891 296.237 131.348 293.982 131.054 292.783C128.646 280.717 126.106 268.719 122.53 256.919C118.439 242.453 115.548 227.561 109.621 213.688C109.151 212.623 109.336 212.067 110.33 211.738C112.708 211.609 117.111 208.005 118.554 210.625C119.899 218.517 121.608 226.334 124.335 233.877C126.395 237.116 138.182 294.271 140.828 283.508C141.204 281.405 141.278 279.241 140.579 277.182C136.132 260.823 134.614 243.835 128.94 227.785C128.688 224.108 121.108 207.879 124.467 206.972C126.743 206.109 130.283 203.605 130.754 207.668C137.459 231.19 145.711 254.349 151.15 278.191C160.273 306.905 152.782 264.243 149.865 257.716C132.027 201.401 119.731 143.614 103.099 86.987C98.5807 77.6267 93.0686 53.1441 81.3811 53.2277C75.1841 55.0562 79.8735 77.2776 79.1426 83.443Z" fill="black"/>
<path fill-rule="evenodd" clip-rule="evenodd" d="M157.869 110.104C158.42 113.061 162.735 115.008 163.922 111.487C165.023 108.237 163.256 104.906 163.77 101.595C164.244 97.9573 175.504 99.0469 178.752 96.9707C183.502 91.8532 167.323 94.6675 165.133 94.521C161.7 94.9114 165.683 81.0147 158.856 87.6169C157.232 90.372 159.079 95.4 155.043 95.8652C152.263 97.0668 145.904 96.3918 145.637 100.198C146.062 104.695 152.087 101.656 154.937 101.727C158.292 101.495 156.726 107.767 157.869 110.104Z" fill="black"/>
<path fill-rule="evenodd" clip-rule="evenodd" d="M122.655 39.7243C122.932 41.2687 126.703 45.277 123.764 46.4773C121.208 47.0778 112.948 55.8494 118.775 55.8502C129.193 47.9275 126.775 48.2271 133.679 58.9418C134.645 60.2901 136.056 60.367 137.48 60.0087C142.192 57.8796 136.849 52.0543 135.55 49.0125C133.24 46.087 135.36 44.9995 137.819 43.6755C139.025 43.2138 141.258 40.142 138.945 39.8918C134.45 40.4411 132.223 44.579 128.705 39.729C126.344 37.0788 119.453 32.1446 122.655 39.7243Z" fill="black"/>
<path fill-rule="evenodd" clip-rule="evenodd" d="M208.121 37.6764C203.033 40.9269 202.149 36.6867 198.967 33.3628C191.601 26.8177 195.643 37.3923 197.436 40.8495C199.133 44.9467 192.087 45.4072 191.579 49.045C192.42 53.0176 197.005 48.6855 198.945 47.8136C200.956 45.7024 209.057 60.9274 210.636 54.3084C212.028 50.3023 208.78 47.6476 206.823 44.5223C205.586 41.1546 212.179 40.8075 213.472 38.0632C214.592 34.6903 209.564 37.3286 208.096 37.5968C208.104 37.6234 208.113 37.6498 208.121 37.6764Z" fill="black"/>
<path fill-rule="evenodd" clip-rule="evenodd" d="M250.935 87.974C255.26 84.6472 251.736 75.634 259.241 77.0181C260.709 76.8507 267.888 77.2788 265.926 74.6543C256.577 71.3842 255.421 76.2432 256.6 64.9728C256.533 64.2602 256.392 63.4584 255.576 63.266C250.156 62.6009 252.754 73.7125 247.022 72.4044C236.58 70.1485 236.089 79.2243 246.992 77.4493C251.73 78.4774 242.28 90.6103 250.935 87.974Z" fill="black"/>
<path fill-rule="evenodd" clip-rule="evenodd" d="M240.312 0.838423C237.804 2.31803 220.652 11.0862 222.279 13.4858C224.826 17.0739 227.453 15.1287 230.291 13.1147C232.324 11.7574 251.224 -0.908697 240.312 0.838423Z" fill="black"/>
</svg>
