<svg width="355" height="183" viewBox="0 0 355 183" fill="none" xmlns="http://www.w3.org/2000/svg">
<path fill-rule="evenodd" clip-rule="evenodd" d="M145.785 136.503C143.053 138.464 138.692 142.089 134.98 139.73C127.838 138.111 126.645 132.767 131.525 126.995C141.729 115.66 155.648 121.66 145.785 136.503Z" fill="#A2D2FF"/>
<path fill-rule="evenodd" clip-rule="evenodd" d="M284.038 72.2914C286.257 71.3643 289.695 65.6266 291.404 67.5924C296.735 65.6603 297.961 74.2891 299.379 77.8597C299.888 84.5138 291.761 84.8048 287.087 85.8783C284.466 86.1972 284.31 83.5502 283.206 81.9404C280.965 79.3154 281.913 75.0311 284.038 72.2914Z" fill="#A2D2FF"/>
<path fill-rule="evenodd" clip-rule="evenodd" d="M262.335 14.1093C258.41 5.9935 263.295 3.20603 270.235 0.42334C276.784 0.936604 280.208 6.53009 279.873 12.9387C278.256 18.5996 266.101 16.5505 262.335 14.1093Z" fill="#A2D2FF"/>
<path fill-rule="evenodd" clip-rule="evenodd" d="M249.981 116.206C254.887 108.081 267.498 120.381 263.663 126.93C254.612 136.51 242.785 126.525 249.981 116.206Z" fill="#FFAFCC"/>
<path fill-rule="evenodd" clip-rule="evenodd" d="M97.3963 107.398C100.665 103.706 104.99 99.742 108.931 103.782C110.752 107.34 115.614 113.164 110.238 116.272C101.42 121.797 92.6338 117.822 97.3963 107.398Z" fill="#A2D2FF"/>
<path fill-rule="evenodd" clip-rule="evenodd" d="M80.3589 98.0273C80.536 100.627 80.3645 105.131 76.783 104.889C74.6919 104.792 72.7197 106.458 70.7626 105.678C67.3445 103.764 64.7713 97.8964 66.0811 93.905C68.4613 88.4212 79.9719 87.9744 81.6026 93.702C81.5919 95.7383 78.8532 96.0476 80.3589 98.0273Z" fill="#A2D2FF"/>
<path fill-rule="evenodd" clip-rule="evenodd" d="M157.448 175.475C153.565 171.122 150.79 169.611 154.984 164.643C156.116 162.675 160.358 161.258 162.364 161.896C164.349 163.632 169.289 162.079 167.963 164.644C167.681 165.214 167.516 166.012 168.179 166.003C171.008 165.964 169.622 167.69 169.091 168.715C166.604 174.137 162.997 179.77 157.448 175.475Z" fill="#FFAFCC"/>
<path fill-rule="evenodd" clip-rule="evenodd" d="M308.713 104.556C320.911 110.503 303.098 121.632 299.019 115.226C298.056 112.537 296.357 109.188 297.374 106.266C300.809 102.964 305.245 101.467 308.713 104.556Z" fill="#FFAFCC"/>
<path fill-rule="evenodd" clip-rule="evenodd" d="M54.1793 84.4288C52.6205 86.9141 50.4956 89.4284 47.7177 87.3846C46.5333 86.6953 44.8518 86.7799 44.2379 85.0156C42.173 81.5821 44.2896 78.2189 44.208 74.6316C44.0843 74.2562 44.8146 73.8599 45.004 73.9084C46.9959 75.0787 46.6538 71.3645 48.4047 72.1168C54.4998 73.4568 59.9947 78.7861 54.1793 84.4288Z" fill="#A2D2FF"/>
<path fill-rule="evenodd" clip-rule="evenodd" d="M309.528 25.8088C317.74 18.4852 321.5 34.2981 315.815 39.3403C304.835 43.3843 303.563 33.7138 309.528 25.8088Z" fill="#A2D2FF"/>
<path fill-rule="evenodd" clip-rule="evenodd" d="M95.6462 151.579C98.1515 149.407 101.238 150.328 104.139 149.823C106.567 149.466 106.887 151.719 108.173 152.762C107.891 156.227 107.869 163.525 103.096 164.197C98.1696 164.447 96.3855 163.162 95.2994 158.234C94.6 155.751 93.3121 153.992 95.6462 151.579Z" fill="#FFAFCC"/>
<path fill-rule="evenodd" clip-rule="evenodd" d="M195.742 171.938C196.02 172.063 196.222 172.153 196.423 172.243C196.472 171.641 196.215 171.307 195.718 171.048C195.726 171.358 195.734 171.669 195.742 171.938ZM199.719 167.175C200.545 170.193 205.481 169.172 205.162 172.778C204.771 174.401 205.348 176.342 203.404 177.661C200.599 179.138 196.934 185.448 194.049 181.773C193.454 181.089 193.769 179.41 192.042 179.956C190.761 177.756 190.508 174.291 192.469 171.837C193.854 170.628 192.742 167.354 195.213 168.288C197.468 167.545 196.865 165.355 199.719 167.175Z" fill="#CDB4DB"/>
<path fill-rule="evenodd" clip-rule="evenodd" d="M274.705 166.03C269.991 163.978 270.853 156.562 275.258 153.865C279.013 152.046 287.457 157.587 283.154 161.881C280.585 163.691 277.449 170.222 274.705 166.03Z" fill="#FFAFCC"/>
<path fill-rule="evenodd" clip-rule="evenodd" d="M28.6395 114.816C24.9188 112.928 26.5001 108.078 27.3189 104.973C29.7449 100.216 41.8894 105.811 36.3157 110.784C34.1091 113.282 32.1262 118.695 28.6395 114.816Z" fill="#FFAFCC"/>
<path fill-rule="evenodd" clip-rule="evenodd" d="M75.0048 52.4598C75.4624 51.9341 74.8827 50.3388 76.7017 50.7056C84.9883 50.5999 85.7343 54.8217 81.5875 61.376C76.9958 67.0126 70.5833 55.556 75.0048 52.4598Z" fill="#CDB4DB"/>
<path fill-rule="evenodd" clip-rule="evenodd" d="M113.088 140.136C109.961 144.345 103.054 143.274 99.1649 141.492C96.2526 137.541 104.938 135.304 107.296 133.033C110.147 130.919 115.534 137.881 113.088 140.136Z" fill="#FFAFCC"/>
<path fill-rule="evenodd" clip-rule="evenodd" d="M342.031 80.0482C333.065 83.4657 326.649 75.6657 336.639 70.7561C344.558 69.4694 344.023 73.885 342.031 80.0482Z" fill="#FFAFCC"/>
<path fill-rule="evenodd" clip-rule="evenodd" d="M2.61242 108.578C0.249828 106.268 -0.0351119 99.772 4.4176 99.1501C6.65126 98.8353 10.1925 95.9269 11.1116 99.3031C13.1802 104.015 7.33322 110.134 2.61242 108.578Z" fill="#CDB4DB"/>
<path fill-rule="evenodd" clip-rule="evenodd" d="M352.382 88.4506C357.508 93.4826 350.824 101.816 345.273 96.1333C341.938 93.1841 348.57 83.943 352.382 88.4506Z" fill="#CDB4DB"/>
<path fill-rule="evenodd" clip-rule="evenodd" d="M49.7618 122.973C53.0556 125.519 49.2588 131.631 45.8169 128.655C41.6361 124.719 44.8263 119.78 49.7618 122.973Z" fill="#CDB4DB"/>
<path fill-rule="evenodd" clip-rule="evenodd" d="M311.979 134.786C315.948 137.525 309.266 140.038 307.159 140.603C303.634 137.564 308.52 130.77 311.979 134.786Z" fill="#CDB4DB"/>
<path fill-rule="evenodd" clip-rule="evenodd" d="M243.475 163.703C241.34 161.161 244.356 157.548 247.227 158.471C248.733 158.898 249.821 162.285 248.841 163.549C247.386 164.581 244.939 163.525 243.475 163.703Z" fill="#CDB4DB"/>
<path fill-rule="evenodd" clip-rule="evenodd" d="M80.2688 98.0301C80.0629 97.4922 79.8567 96.9546 79.6488 96.4222C80.4068 96.6717 80.9775 97.0712 81.3321 97.8091C80.9776 97.8828 80.6231 97.9566 80.2688 98.0301Z" fill="#FFAFCC"/>
</svg>
